ply
format ascii 1.0
comment Created by Blender 2.79 (sub 0) - www.blender.org, source file: 'basic_hall_T.blend'
element vertex 36
property float x
property float y
property float z
property float nx
property float ny
property float nz
property uchar red
property uchar green
property uchar blue
element face 12
property list uchar uint vertex_indices
end_header
-1.000000 0.000000 0.000000 0.000000 0.000000 1.000000 64 64 64
1.000000 0.000000 0.000000 0.000000 0.000000 1.000000 64 64 64
1.000000 1.000000 0.000000 0.000000 0.000000 1.000000 64 64 64
-1.000000 1.000000 0.000000 0.000000 0.000000 1.000000 64 64 64
-1.000000 1.000000 2.000000 0.000000 0.000000 -1.000000 92 92 92
1.000000 1.000000 2.000000 0.000000 0.000000 -1.000000 92 92 92
1.000000 0.000000 2.000000 0.000000 0.000000 -1.000000 92 92 92
-1.000000 0.000000 2.000000 0.000000 0.000000 -1.000000 92 92 92
1.000000 1.000000 2.000000 -1.000000 0.000000 0.000000 92 92 92
1.000000 1.000000 0.000000 -1.000000 0.000000 0.000000 92 92 92
1.000000 0.000000 0.000000 -1.000000 0.000000 0.000000 92 92 92
1.000000 0.000000 2.000000 -1.000000 0.000000 0.000000 92 92 92
-1.000000 0.000000 2.000000 1.000000 0.000000 0.000000 92 92 92
-1.000000 0.000000 0.000000 1.000000 0.000000 0.000000 92 92 92
-1.000000 1.000000 0.000000 1.000000 0.000000 0.000000 92 92 92
-1.000000 1.000000 2.000000 1.000000 0.000000 0.000000 92 92 92
-1.000000 3.000000 0.000000 0.000000 -1.000000 -0.000000 92 92 92
1.000000 3.000000 0.000000 0.000000 -1.000000 -0.000000 92 92 92
1.000000 3.000000 2.000000 0.000000 -1.000000 -0.000000 92 92 92
-1.000000 3.000000 2.000000 0.000000 -1.000000 -0.000000 92 92 92
1.000000 3.000000 2.000000 -1.000000 0.000000 0.000000 92 92 92
1.000000 3.000000 0.000000 -1.000000 0.000000 0.000000 92 92 92
-2.000000 3.000000 0.000000 0.000000 0.000000 1.000000 64 64 64
-2.000000 1.000000 0.000000 0.000000 0.000000 1.000000 64 64 64
-1.000000 3.000000 0.000000 0.000000 0.000000 1.000000 64 64 64
-1.000000 3.000000 2.000000 0.000000 0.000000 -1.000000 92 92 92
-2.000000 1.000000 2.000000 0.000000 0.000000 -1.000000 92 92 92
-2.000000 3.000000 2.000000 0.000000 0.000000 -1.000000 92 92 92
-1.000000 1.000000 2.000000 -0.000000 1.000000 0.000000 92 92 92
-1.000000 1.000000 0.000000 -0.000000 1.000000 0.000000 92 92 92
-2.000000 1.000000 0.000000 -0.000000 1.000000 0.000000 92 92 92
-2.000000 1.000000 2.000000 -0.000000 1.000000 0.000000 92 92 92
-2.000000 3.000000 2.000000 0.000000 -1.000000 0.000000 92 92 92
-2.000000 3.000000 0.000000 0.000000 -1.000000 0.000000 92 92 92
1.000000 3.000000 0.000000 -0.000000 0.000000 1.000000 64 64 64
1.000000 3.000000 2.000000 -0.000000 0.000000 -1.000000 92 92 92
4 0 1 2 3
4 4 5 6 7
4 8 9 10 11
4 12 13 14 15
4 16 17 18 19
4 8 20 21 9
4 22 23 3 24
4 25 4 26 27
4 28 29 30 31
4 16 19 32 33
4 2 34 24 3
4 4 25 35 5
