ply
format ascii 1.0
comment Created by Blender 2.79 (sub 0) - www.blender.org, source file: 'basic_hall_X.blend'
element vertex 56
property float x
property float y
property float z
property float nx
property float ny
property float nz
property uchar red
property uchar green
property uchar blue
element face 28
property list uchar uint vertex_indices
end_header
1.000000 3.000000 2.000000 0.000000 0.000000 -1.000000 92 92 92
2.000000 3.000000 2.000000 0.000000 0.000000 -1.000000 92 92 92
2.000000 1.000000 2.000000 0.000000 0.000000 -1.000000 92 92 92
1.000000 1.000000 2.000000 0.000000 0.000000 -1.000000 92 92 92
1.000000 0.000000 2.000000 0.000000 0.000000 -1.000000 92 92 92
-1.000000 0.000000 2.000000 0.000000 0.000000 -1.000000 92 92 92
-1.000000 4.000000 2.000000 0.000000 0.000000 -1.000000 92 92 92
1.000000 4.000000 2.000000 0.000000 0.000000 -1.000000 92 92 92
-2.000000 1.000000 2.000000 -0.000000 -0.000000 -1.000000 92 92 92
-2.000000 3.000000 2.000000 -0.000000 -0.000000 -1.000000 92 92 92
-1.000000 3.000000 2.000000 -0.000000 -0.000000 -1.000000 92 92 92
-1.000000 1.000000 2.000000 0.000000 -0.000000 -1.000000 92 92 92
1.000000 1.000000 2.000000 -1.000000 0.000000 0.000000 92 92 92
1.000000 1.000000 0.000000 -1.000000 0.000000 0.000000 92 92 92
1.000000 0.000000 0.000000 -1.000000 0.000000 0.000000 92 92 92
1.000000 0.000000 2.000000 -1.000000 0.000000 0.000000 92 92 92
-1.000000 0.000000 2.000000 1.000000 0.000000 0.000000 92 92 92
-1.000000 0.000000 0.000000 1.000000 0.000000 0.000000 92 92 92
-1.000000 1.000000 0.000000 1.000000 0.000000 0.000000 92 92 92
-1.000000 1.000000 2.000000 1.000000 0.000000 0.000000 92 92 92
1.000000 4.000000 2.000000 -1.000000 0.000000 0.000000 92 92 92
1.000000 4.000000 0.000000 -1.000000 0.000000 0.000000 92 92 92
1.000000 3.000000 0.000000 -1.000000 0.000000 0.000000 92 92 92
1.000000 3.000000 2.000000 -1.000000 0.000000 0.000000 92 92 92
-1.000000 4.000000 0.000000 1.000000 -0.000000 0.000000 92 92 92
-1.000000 4.000000 2.000000 1.000000 -0.000000 0.000000 92 92 92
-1.000000 3.000000 2.000000 1.000000 -0.000000 0.000000 92 92 92
-1.000000 3.000000 0.000000 1.000000 -0.000000 0.000000 92 92 92
1.000000 3.000000 0.000000 -0.000000 0.000000 1.000000 64 64 64
1.000000 4.000000 0.000000 -0.000000 0.000000 1.000000 64 64 64
-1.000000 4.000000 0.000000 -0.000000 0.000000 1.000000 64 64 64
-1.000000 3.000000 0.000000 0.000000 -0.000000 1.000000 64 64 64
-2.000000 3.000000 0.000000 0.000000 -0.000000 1.000000 64 64 64
-2.000000 1.000000 0.000000 0.000000 -0.000000 1.000000 64 64 64
2.000000 1.000000 0.000000 -0.000000 0.000000 1.000000 64 64 64
2.000000 3.000000 0.000000 -0.000000 0.000000 1.000000 64 64 64
-1.000000 0.000000 0.000000 0.000000 0.000000 1.000000 64 64 64
1.000000 0.000000 0.000000 0.000000 0.000000 1.000000 64 64 64
1.000000 1.000000 0.000000 0.000000 0.000000 1.000000 64 64 64
-1.000000 1.000000 0.000000 0.000000 -0.000000 1.000000 64 64 64
2.000000 1.000000 2.000000 -0.000000 1.000000 0.000000 92 92 92
2.000000 1.000000 0.000000 -0.000000 1.000000 0.000000 92 92 92
1.000000 1.000000 0.000000 -0.000000 1.000000 0.000000 92 92 92
1.000000 1.000000 2.000000 -0.000000 1.000000 0.000000 92 92 92
2.000000 3.000000 0.000000 0.000000 -1.000000 0.000000 92 92 92
2.000000 3.000000 2.000000 0.000000 -1.000000 0.000000 92 92 92
1.000000 3.000000 2.000000 0.000000 -1.000000 0.000000 92 92 92
1.000000 3.000000 0.000000 0.000000 -1.000000 0.000000 92 92 92
-1.000000 1.000000 2.000000 -0.000000 1.000000 0.000000 92 92 92
-1.000000 1.000000 0.000000 -0.000000 1.000000 0.000000 92 92 92
-2.000000 1.000000 0.000000 -0.000000 1.000000 0.000000 92 92 92
-2.000000 1.000000 2.000000 -0.000000 1.000000 0.000000 92 92 92
-1.000000 3.000000 0.000000 0.000000 -1.000000 0.000000 92 92 92
-1.000000 3.000000 2.000000 0.000000 -1.000000 0.000000 92 92 92
-2.000000 3.000000 2.000000 0.000000 -1.000000 0.000000 92 92 92
-2.000000 3.000000 0.000000 0.000000 -1.000000 0.000000 92 92 92
3 0 1 2
3 3 4 5
3 0 2 3
3 6 7 0
3 8 9 10
3 10 6 0
3 0 3 5
3 11 8 10
3 0 5 11
3 0 11 10
4 12 13 14 15
4 16 17 18 19
4 20 21 22 23
4 24 25 26 27
3 28 29 30
3 31 32 33
3 28 30 31
3 34 35 28
3 36 37 38
3 38 34 28
3 28 31 33
3 39 36 38
3 28 33 39
3 28 39 38
4 40 41 42 43
4 44 45 46 47
4 48 49 50 51
4 52 53 54 55
