ply
format ascii 1.0
comment Created by Blender 2.79 (sub 0) - www.blender.org, source file: 'big_room.blend'
element vertex 237
property float x
property float y
property float z
property float nx
property float ny
property float nz
property uchar red
property uchar green
property uchar blue
element face 82
property list uchar uint vertex_indices
end_header
-1.000000 0.000000 0.000000 0.000000 -0.000000 1.000000 64 64 64
1.000000 0.000000 -0.000000 0.000000 -0.000000 1.000000 64 64 64
1.000000 1.000000 0.000000 0.000000 -0.000000 1.000000 64 64 64
-1.000000 1.000000 0.000000 0.000000 -0.000000 1.000000 64 64 64
0.000000 1.000000 0.000000 0.000000 -0.000000 1.000000 64 64 64
15.999999 1.000001 -0.000002 0.000000 -0.000000 1.000000 64 64 64
16.000000 17.000000 0.000000 0.000000 -0.000000 1.000000 64 64 64
0.000000 17.000000 0.000000 0.000000 -0.000000 1.000000 64 64 64
-16.000000 1.000000 0.000000 0.000000 0.000000 1.000000 64 64 64
-16.000000 17.000000 0.000000 0.000000 0.000000 1.000000 64 64 64
-1.000000 17.000000 0.000000 0.000000 0.000000 1.000000 64 64 64
1.000000 17.000000 0.000000 0.000000 0.000000 1.000000 64 64 64
1.000000 18.000000 0.000000 0.000000 0.000000 1.000000 64 64 64
-1.000000 18.000000 0.000000 0.000000 0.000000 1.000000 64 64 64
12.000000 17.000000 0.000000 0.000000 0.000000 1.000000 64 64 64
14.000000 17.000000 0.000000 0.000000 0.000000 1.000000 64 64 64
14.000000 18.000000 0.000000 0.000000 0.000000 1.000000 64 64 64
12.000000 18.000000 0.000000 0.000000 0.000000 1.000000 64 64 64
-17.000000 16.000000 0.000000 0.000000 0.000000 1.000000 64 64 64
-17.000000 14.000000 0.000000 0.000000 0.000000 1.000000 64 64 64
-16.000000 14.000000 0.000000 0.000000 0.000000 1.000000 64 64 64
-16.000000 16.000000 -0.000000 0.000000 0.000000 1.000000 64 64 64
-9.000000 1.000000 9.000000 -1.000000 -0.000000 0.000000 59 59 59
-9.000000 1.000000 11.000000 -1.000000 -0.000000 0.000000 59 59 59
-9.000000 3.000000 11.000000 -1.000000 -0.000000 0.000000 59 59 59
-9.000000 3.000000 9.000000 -1.000000 -0.000000 0.000000 59 59 59
15.999999 1.000001 -0.000002 -1.000000 0.000000 0.000000 92 92 92
16.000000 0.999999 10.999998 -1.000000 0.000000 0.000000 92 92 92
16.000000 16.999998 11.000002 -1.000000 0.000000 0.000000 92 92 92
16.000000 17.000000 0.000000 -1.000000 0.000000 0.000000 92 92 92
-7.000000 3.000000 9.000000 1.000000 -0.000000 0.000000 59 59 59
-7.000000 3.000000 11.000000 1.000000 -0.000000 0.000000 59 59 59
-7.000000 1.000000 11.000000 1.000000 -0.000000 0.000000 59 59 59
-7.000000 1.000000 9.000000 1.000000 -0.000000 0.000000 59 59 59
-9.000000 3.000000 0.000000 0.000000 1.000000 0.000000 59 59 59
-9.000000 3.000000 9.000000 0.000000 1.000000 0.000000 59 59 59
-7.000000 3.000000 9.000000 0.000000 1.000000 0.000000 59 59 59
-7.000000 3.000000 0.000000 0.000000 1.000000 0.000000 59 59 59
-7.000000 3.000000 0.000000 1.000000 -0.000000 0.000000 59 59 59
-7.000000 1.000000 0.000000 1.000000 -0.000000 0.000000 59 59 59
7.000000 15.000000 9.000000 -1.000000 0.000000 -0.000000 59 59 59
7.000000 3.000000 9.000000 -1.000000 0.000000 -0.000000 59 59 59
7.000000 3.000000 11.000000 -1.000000 0.000000 -0.000000 59 59 59
7.000000 15.000000 11.000000 -1.000000 0.000000 -0.000000 59 59 59
-9.000000 1.000000 0.000000 -1.000000 -0.000000 0.000000 59 59 59
-9.000000 3.000000 0.000000 -1.000000 -0.000000 0.000000 59 59 59
-7.000000 17.000000 9.000000 1.000000 -0.000000 0.000000 59 59 59
-7.000000 17.000000 11.000000 1.000000 -0.000000 0.000000 59 59 59
-7.000000 15.000000 11.000000 1.000000 -0.000000 0.000000 59 59 59
-7.000000 15.000000 9.000000 1.000000 -0.000000 0.000000 59 59 59
-16.000000 1.000000 11.000000 1.000000 0.000000 0.000000 92 92 92
-16.000000 1.000000 0.000000 1.000000 0.000000 0.000000 92 92 92
-16.000000 14.000000 0.000000 1.000000 0.000000 0.000000 92 92 92
-16.000000 14.000000 11.000000 1.000000 0.000000 0.000000 92 92 92
-9.000000 15.000000 9.000000 -1.000000 -0.000000 0.000000 59 59 59
-9.000000 15.000000 11.000000 -1.000000 -0.000000 0.000000 59 59 59
-9.000000 17.000000 11.000000 -1.000000 -0.000000 0.000000 59 59 59
-9.000000 17.000000 9.000000 -1.000000 -0.000000 0.000000 59 59 59
-7.000000 15.000000 0.000000 0.000000 -1.000000 0.000000 59 59 59
-7.000000 15.000000 9.000000 0.000000 -1.000000 0.000000 59 59 59
-9.000000 15.000000 9.000000 0.000000 -1.000000 0.000000 59 59 59
-9.000000 15.000000 0.000000 0.000000 -1.000000 0.000000 59 59 59
-9.000000 15.000000 0.000000 -1.000000 -0.000000 0.000000 59 59 59
-9.000000 17.000000 0.000000 -1.000000 -0.000000 0.000000 59 59 59
-7.000000 17.000000 0.000000 1.000000 -0.000000 0.000000 59 59 59
-7.000000 15.000000 0.000000 1.000000 -0.000000 0.000000 59 59 59
7.000000 1.000000 9.000000 -1.000000 -0.000000 0.000000 59 59 59
7.000000 1.000000 11.000000 -1.000000 -0.000000 0.000000 59 59 59
9.000000 15.000000 11.000000 1.000000 0.000000 -0.000000 59 59 59
9.000000 3.000000 11.000000 1.000000 0.000000 -0.000000 59 59 59
9.000000 3.000000 9.000000 1.000000 0.000000 -0.000000 59 59 59
9.000000 15.000000 9.000000 1.000000 0.000000 -0.000000 59 59 59
9.000000 1.000000 11.000000 1.000000 -0.000000 0.000000 59 59 59
9.000000 1.000000 9.000000 1.000000 -0.000000 0.000000 59 59 59
7.000000 3.000000 0.000000 0.000000 1.000000 0.000000 59 59 59
7.000000 3.000000 9.000000 0.000000 1.000000 0.000000 59 59 59
9.000000 3.000000 9.000000 0.000000 1.000000 0.000000 59 59 59
9.000000 3.000000 0.000000 0.000000 1.000000 0.000000 59 59 59
9.000000 3.000000 0.000000 1.000000 -0.000000 0.000000 59 59 59
9.000000 1.000000 0.000000 1.000000 -0.000000 0.000000 59 59 59
7.000000 1.000000 0.000000 -1.000000 -0.000000 0.000000 59 59 59
7.000000 3.000000 0.000000 -1.000000 -0.000000 0.000000 59 59 59
9.000000 17.000000 9.000000 1.000000 -0.000000 0.000000 59 59 59
9.000000 17.000000 11.000000 1.000000 -0.000000 0.000000 59 59 59
9.000000 15.000000 9.000000 0.000000 0.000000 -1.000000 59 59 59
9.000000 3.000000 9.000000 0.000000 0.000000 -1.000000 59 59 59
7.000000 3.000000 9.000000 0.000000 0.000000 -1.000000 59 59 59
7.000000 15.000000 9.000000 0.000000 0.000000 -1.000000 59 59 59
7.000000 17.000000 11.000000 -1.000000 -0.000000 0.000000 59 59 59
7.000000 17.000000 9.000000 -1.000000 -0.000000 0.000000 59 59 59
9.000000 15.000000 0.000000 0.000000 -1.000000 0.000000 59 59 59
9.000000 15.000000 9.000000 0.000000 -1.000000 0.000000 59 59 59
7.000000 15.000000 9.000000 0.000000 -1.000000 0.000000 59 59 59
7.000000 15.000000 0.000000 0.000000 -1.000000 0.000000 59 59 59
7.000000 15.000000 0.000000 -1.000000 -0.000000 0.000000 59 59 59
7.000000 17.000000 0.000000 -1.000000 -0.000000 0.000000 59 59 59
-9.000000 3.000000 9.000000 -0.000000 0.000000 -1.000000 59 59 59
-9.000000 15.000000 9.000000 -0.000000 0.000000 -1.000000 59 59 59
-7.000000 15.000000 9.000000 -0.000000 0.000000 -1.000000 59 59 59
-7.000000 3.000000 9.000000 -0.000000 0.000000 -1.000000 59 59 59
9.000000 17.000000 0.000000 1.000000 -0.000000 0.000000 59 59 59
9.000000 15.000000 0.000000 1.000000 -0.000000 0.000000 59 59 59
9.000000 1.000000 0.000000 0.000000 0.000000 0.000000 92 92 92
9.000000 1.000000 9.000000 0.000000 0.000000 0.000000 92 92 92
9.000000 1.000000 11.000000 0.000000 0.000000 0.000000 92 92 92
9.000000 1.000000 11.000000 0.000000 1.000000 0.000000 92 92 92
16.000000 0.999999 10.999998 0.000000 1.000000 0.000000 92 92 92
15.999999 1.000001 -0.000002 0.000000 1.000000 0.000000 92 92 92
9.000000 1.000000 0.000000 -0.000000 1.000000 0.000000 92 92 92
9.000000 3.000000 11.000000 0.000000 0.000000 0.000000 92 92 92
9.000000 15.000000 11.000000 0.000000 0.000000 0.000000 92 92 92
9.000000 17.000000 11.000000 0.000000 0.000000 0.000000 92 92 92
9.000000 17.000000 11.000000 0.000000 0.000000 -1.000000 92 92 92
16.000000 16.999998 11.000002 0.000000 0.000000 -1.000000 92 92 92
16.000000 0.999999 10.999998 0.000000 0.000000 -1.000000 92 92 92
9.000000 1.000000 11.000000 -0.000000 -0.000000 -1.000000 92 92 92
9.000000 3.000000 11.000000 -0.000000 -0.000000 -1.000000 92 92 92
-16.000000 16.000000 11.000000 1.000000 0.000000 0.000000 92 92 92
-16.000000 16.000000 -0.000000 1.000000 0.000000 0.000000 92 92 92
-16.000000 17.000000 0.000000 1.000000 0.000000 0.000000 92 92 92
-16.000000 17.000000 11.000000 1.000000 0.000000 0.000000 92 92 92
-7.000000 1.000000 2.000000 -0.000000 1.000000 0.000000 92 92 92
-1.000000 1.000000 2.000000 -0.000000 1.000000 0.000000 92 92 92
-1.000000 1.000000 0.000000 -0.000000 1.000000 0.000000 92 92 92
-7.000000 1.000000 0.000000 -0.000000 1.000000 0.000000 92 92 92
-16.000000 14.000000 2.000000 1.000000 0.000000 0.000000 92 92 92
-16.000000 16.000000 2.000000 1.000000 0.000000 0.000000 92 92 92
-9.000000 1.000000 11.000000 0.000000 0.000000 0.000000 92 92 92
-9.000000 1.000000 9.000000 0.000000 0.000000 0.000000 92 92 92
-9.000000 1.000000 0.000000 0.000000 0.000000 0.000000 92 92 92
-9.000000 1.000000 0.000000 -0.000000 1.000000 0.000000 92 92 92
-16.000000 1.000000 0.000000 -0.000000 1.000000 0.000000 92 92 92
-16.000000 1.000000 11.000000 -0.000000 1.000000 0.000000 92 92 92
-9.000000 1.000000 11.000000 0.000000 1.000000 0.000000 92 92 92
-7.000000 1.000000 11.000000 0.000000 0.000000 0.000000 92 92 92
-7.000000 3.000000 11.000000 0.000000 0.000000 0.000000 92 92 92
-7.000000 15.000000 11.000000 0.000000 0.000000 0.000000 92 92 92
-7.000000 15.000000 11.000000 -0.000000 -0.000000 -1.000000 92 92 92
-7.000000 17.000000 11.000000 -0.000000 -0.000000 -1.000000 92 92 92
7.000000 17.000000 11.000000 -0.000000 -0.000000 -1.000000 92 92 92
7.000000 15.000000 11.000000 0.000000 0.000000 0.000000 92 92 92
7.000000 3.000000 11.000000 0.000000 0.000000 0.000000 92 92 92
7.000000 1.000000 11.000000 0.000000 0.000000 0.000000 92 92 92
7.000000 15.000000 11.000000 -0.000000 0.000000 -1.000000 92 92 92
7.000000 1.000000 11.000000 0.000000 0.000000 -1.000000 92 92 92
-7.000000 1.000000 11.000000 0.000000 0.000000 -1.000000 92 92 92
1.000000 1.000000 2.000000 0.000000 1.000000 0.000000 92 92 92
7.000000 1.000000 2.000000 0.000000 1.000000 0.000000 92 92 92
7.000000 1.000000 0.000000 0.000000 1.000000 0.000000 92 92 92
1.000000 1.000000 0.000000 0.000000 1.000000 0.000000 92 92 92
-7.000000 1.000000 11.000000 0.000000 1.000000 -0.000000 92 92 92
7.000000 1.000000 11.000000 0.000000 1.000000 -0.000000 92 92 92
-9.000000 3.000000 11.000000 0.000000 0.000000 -1.000000 92 92 92
-9.000000 1.000000 11.000000 0.000000 0.000000 -1.000000 92 92 92
-16.000000 1.000000 11.000000 0.000000 0.000000 -1.000000 92 92 92
-16.000000 14.000000 11.000000 0.000000 0.000000 0.000000 92 92 92
-16.000000 16.000000 11.000000 0.000000 0.000000 0.000000 92 92 92
-16.000000 17.000000 11.000000 0.000000 0.000000 0.000000 92 92 92
-16.000000 14.000000 11.000000 0.000000 0.000000 -1.000000 92 92 92
-16.000000 17.000000 11.000000 0.000000 0.000000 -1.000000 92 92 92
-9.000000 17.000000 11.000000 0.000000 0.000000 -1.000000 92 92 92
-9.000000 15.000000 11.000000 0.000000 0.000000 -1.000000 92 92 92
-9.000000 17.000000 0.000000 0.000000 0.000000 0.000000 92 92 92
-9.000000 17.000000 9.000000 0.000000 0.000000 0.000000 92 92 92
-9.000000 17.000000 11.000000 0.000000 0.000000 0.000000 92 92 92
-9.000000 17.000000 11.000000 0.000000 -1.000000 0.000000 92 92 92
-16.000000 17.000000 11.000000 0.000000 -1.000000 0.000000 92 92 92
-16.000000 17.000000 0.000000 0.000000 -1.000000 0.000000 92 92 92
-9.000000 17.000000 0.000000 0.000000 -1.000000 0.000000 92 92 92
7.000000 17.000000 2.000000 0.000000 -1.000000 0.000000 92 92 92
1.000000 17.000000 2.000000 0.000000 -1.000000 0.000000 92 92 92
1.000000 17.000000 0.000000 0.000000 -1.000000 0.000000 92 92 92
7.000000 17.000000 0.000000 0.000000 -1.000000 0.000000 92 92 92
-1.000000 17.000000 2.000000 0.000000 -1.000000 0.000000 92 92 92
-7.000000 17.000000 2.000000 0.000000 -1.000000 0.000000 92 92 92
-7.000000 17.000000 0.000000 0.000000 -1.000000 0.000000 92 92 92
-1.000000 17.000000 0.000000 0.000000 -1.000000 0.000000 92 92 92
7.000000 17.000000 11.000000 0.000000 -1.000000 0.000000 92 92 92
-7.000000 17.000000 11.000000 0.000000 -1.000000 0.000000 92 92 92
16.000000 17.000000 2.000000 0.000000 -1.000000 0.000000 92 92 92
14.000000 17.000000 2.000000 0.000000 -1.000000 0.000000 92 92 92
14.000000 17.000000 0.000000 0.000000 -1.000000 0.000000 92 92 92
16.000000 17.000000 0.000000 0.000000 -1.000000 0.000000 92 92 92
12.000000 17.000000 2.000000 0.000000 -1.000000 0.000000 92 92 92
9.000000 17.000000 2.000000 0.000000 -1.000000 0.000000 92 92 92
9.000000 17.000000 0.000000 0.000000 -1.000000 0.000000 92 92 92
12.000000 17.000000 0.000000 0.000000 -1.000000 0.000000 92 92 92
16.000000 16.999998 11.000002 -0.000000 -1.000000 -0.000000 92 92 92
9.000000 17.000000 11.000000 -0.000000 -1.000000 -0.000000 92 92 92
1.000000 0.000000 2.000000 -0.000000 0.000000 -1.000000 92 92 92
-1.000000 0.000000 2.000000 -0.000000 0.000000 -1.000000 92 92 92
-1.000000 1.000000 2.000000 -0.000000 0.000000 -1.000000 92 92 92
1.000000 1.000000 2.000000 -0.000000 0.000000 -1.000000 92 92 92
1.000000 0.000000 -0.000000 -1.000000 0.000000 0.000000 92 92 92
1.000000 0.000000 2.000000 -1.000000 0.000000 0.000000 92 92 92
1.000000 1.000000 2.000000 -1.000000 0.000000 0.000000 92 92 92
1.000000 1.000000 0.000000 -1.000000 0.000000 0.000000 92 92 92
-1.000000 0.000000 2.000000 1.000000 0.000000 -0.000000 92 92 92
-1.000000 0.000000 0.000000 1.000000 0.000000 -0.000000 92 92 92
-1.000000 1.000000 0.000000 1.000000 0.000000 -0.000000 92 92 92
-1.000000 1.000000 2.000000 1.000000 0.000000 -0.000000 92 92 92
1.000000 17.000000 2.000000 -0.000000 0.000000 -1.000000 92 92 92
-1.000000 17.000000 2.000000 -0.000000 0.000000 -1.000000 92 92 92
-1.000000 18.000000 2.000000 -0.000000 0.000000 -1.000000 92 92 92
1.000000 18.000000 2.000000 -0.000000 0.000000 -1.000000 92 92 92
1.000000 17.000000 -0.000000 -1.000000 0.000000 0.000000 92 92 92
1.000000 17.000000 2.000000 -1.000000 0.000000 0.000000 92 92 92
1.000000 18.000000 2.000000 -1.000000 0.000000 0.000000 92 92 92
1.000000 18.000000 0.000000 -1.000000 0.000000 0.000000 92 92 92
-1.000000 17.000000 2.000000 1.000000 0.000000 -0.000000 92 92 92
-1.000000 17.000000 0.000000 1.000000 0.000000 -0.000000 92 92 92
-1.000000 18.000000 0.000000 1.000000 0.000000 -0.000000 92 92 92
-1.000000 18.000000 2.000000 1.000000 0.000000 -0.000000 92 92 92
14.000000 17.000000 2.000000 -0.000000 0.000000 -1.000000 92 92 92
12.000000 17.000000 2.000000 -0.000000 0.000000 -1.000000 92 92 92
12.000000 18.000000 2.000000 -0.000000 0.000000 -1.000000 92 92 92
14.000000 18.000000 2.000000 -0.000000 0.000000 -1.000000 92 92 92
14.000000 17.000000 -0.000000 -1.000000 -0.000000 0.000000 92 92 92
14.000000 17.000000 2.000000 -1.000000 -0.000000 0.000000 92 92 92
14.000000 18.000000 2.000000 -1.000000 -0.000000 0.000000 92 92 92
14.000000 18.000000 0.000000 -1.000000 -0.000000 0.000000 92 92 92
12.000000 17.000000 2.000000 1.000000 0.000000 0.000000 92 92 92
12.000000 17.000000 0.000000 1.000000 0.000000 0.000000 92 92 92
12.000000 18.000000 0.000000 1.000000 0.000000 0.000000 92 92 92
12.000000 18.000000 2.000000 1.000000 0.000000 0.000000 92 92 92
-17.000000 14.000000 2.000000 0.000000 0.000000 -1.000000 92 92 92
-17.000000 16.000000 2.000000 0.000000 0.000000 -1.000000 92 92 92
-16.000000 16.000000 2.000000 0.000000 0.000000 -1.000000 92 92 92
-16.000000 14.000000 2.000000 0.000000 0.000000 -1.000000 92 92 92
-17.000000 14.000000 -0.000000 0.000000 1.000000 0.000000 92 92 92
-17.000000 14.000000 2.000000 0.000000 1.000000 0.000000 92 92 92
-16.000000 14.000000 2.000000 0.000000 1.000000 0.000000 92 92 92
-16.000000 14.000000 0.000000 0.000000 1.000000 0.000000 92 92 92
-17.000000 16.000000 2.000000 -0.000000 -1.000000 0.000000 92 92 92
-17.000000 16.000000 0.000000 -0.000000 -1.000000 0.000000 92 92 92
-16.000000 16.000000 0.000000 -0.000000 -1.000000 0.000000 92 92 92
-16.000000 16.000000 2.000000 -0.000000 -1.000000 0.000000 92 92 92
4 0 1 2 3
4 4 5 6 7
4 8 4 7 9
4 10 11 12 13
4 14 15 16 17
4 18 19 20 21
4 22 23 24 25
4 26 27 28 29
4 30 31 32 33
4 34 35 36 37
4 38 30 33 39
4 40 41 42 43
4 44 22 25 45
4 46 47 48 49
4 50 51 52 53
4 54 55 56 57
4 58 59 60 61
4 62 54 57 63
4 30 49 48 31
4 64 46 49 65
4 66 67 42 41
4 68 69 70 71
4 70 69 72 73
4 74 75 76 77
4 78 70 73 79
4 25 24 55 54
4 80 66 41 81
4 82 83 68 71
4 84 85 86 87
4 40 43 88 89
4 90 91 92 93
4 94 40 89 95
4 96 97 98 99
4 100 82 71 101
3 102 103 104
3 105 106 107
3 105 107 108
3 109 110 111
3 112 113 114
3 114 115 116
3 112 114 116
4 117 118 119 120
4 121 122 123 124
4 53 125 126 117
3 127 128 129
3 130 131 132
3 130 132 133
3 134 135 136
3 137 138 139
3 140 141 142
3 137 139 143
3 144 145 137
3 137 143 144
4 146 147 148 149
4 150 151 147 121
3 152 153 154
3 155 156 157
3 152 154 158
3 159 160 161
3 161 152 158
3 158 159 161
3 162 163 164
3 165 166 167
3 165 167 168
4 169 170 171 172
4 173 174 175 176
4 177 178 174 169
4 179 180 181 182
4 183 184 185 186
4 187 188 184 179
4 189 190 191 192
4 193 194 195 196
4 197 198 199 200
4 201 202 203 204
4 205 206 207 208
4 209 210 211 212
4 213 214 215 216
4 217 218 219 220
4 221 222 223 224
4 225 226 227 228
4 229 230 231 232
4 233 234 235 236
