ply
format ascii 1.0
comment Created by Blender 2.79 (sub 0) - www.blender.org, source file: 'big_room_1.blend'
element vertex 199
property float x
property float y
property float z
property float nx
property float ny
property float nz
property uchar red
property uchar green
property uchar blue
element face 66
property list uchar uint vertex_indices
end_header
7.000000 11.000000 0.000000 0.000000 -0.000000 1.000000 64 64 64
-7.000000 11.000000 0.000000 0.000000 -0.000000 1.000000 64 64 64
-7.000000 1.000000 0.000000 0.000000 -0.000000 1.000000 64 64 64
7.000000 1.000000 0.000000 0.000000 -0.000000 1.000000 64 64 64
-7.000000 1.000000 0.000000 0.000000 1.000000 0.000000 92 92 92
-7.000000 1.000000 6.000000 0.000000 1.000000 0.000000 92 92 92
-5.200000 1.000000 6.000000 0.000000 1.000000 0.000000 92 92 92
-5.200000 1.000000 0.000000 0.000000 1.000000 0.000000 92 92 92
-7.000000 11.000000 0.000000 1.000000 -0.000000 0.000000 92 92 92
-7.000000 11.000000 6.000000 1.000000 -0.000000 0.000000 92 92 92
-7.000000 1.000000 6.000000 1.000000 -0.000000 0.000000 92 92 92
-7.000000 1.000000 0.000000 1.000000 -0.000000 0.000000 92 92 92
1.799999 11.000000 6.000000 0.000000 -1.000000 0.000000 92 92 92
-1.000000 11.000000 6.000000 0.000000 -1.000000 0.000000 92 92 92
-1.000000 11.000000 4.250000 0.000000 -1.000000 0.000000 92 92 92
1.000000 11.000000 4.250000 0.000000 -1.000000 0.000000 92 92 92
1.000000 11.000000 0.000000 -0.000000 -1.000000 -0.000000 92 92 92
1.799999 11.000000 0.000000 -0.000000 -1.000000 -0.000000 92 92 92
-1.000000 11.000000 3.800000 0.000000 -1.000000 0.000000 92 92 92
-1.000000 11.000000 0.000000 0.000000 -1.000000 0.000000 92 92 92
1.000000 11.000000 3.800000 0.000000 -1.000000 0.000000 92 92 92
-2.200000 1.000000 0.000000 -1.000000 -0.000000 0.000000 41 41 41
-2.200000 1.000000 6.000000 -1.000000 -0.000000 0.000000 41 41 41
-2.200000 1.400000 6.000000 -1.000000 -0.000000 0.000000 41 41 41
-2.200000 1.400000 0.000000 -1.000000 -0.000000 0.000000 41 41 41
-2.200000 1.400000 0.000000 0.000000 1.000000 0.000000 41 41 41
-2.200000 1.400000 6.000000 0.000000 1.000000 0.000000 41 41 41
-1.800000 1.400000 6.000000 0.000000 1.000000 0.000000 41 41 41
-1.800000 1.400000 0.000000 0.000000 1.000000 0.000000 41 41 41
-1.800000 1.400000 0.000000 1.000000 -0.000000 0.000000 41 41 41
-1.800000 1.400000 6.000000 1.000000 -0.000000 0.000000 41 41 41
-1.800000 1.000000 6.000000 1.000000 -0.000000 0.000000 41 41 41
-1.800000 1.000000 0.000000 1.000000 -0.000000 0.000000 41 41 41
2.199999 10.600000 0.000000 0.000000 -1.000000 0.000000 41 41 41
2.199999 10.600000 6.000000 0.000000 -1.000000 0.000000 41 41 41
1.799999 10.600000 6.000000 0.000000 -1.000000 0.000000 41 41 41
1.799999 10.600000 0.000000 0.000000 -1.000000 0.000000 41 41 41
1.800000 1.000000 0.000000 -1.000000 -0.000000 0.000000 41 41 41
1.800000 1.000000 6.000000 -1.000000 -0.000000 0.000000 41 41 41
1.800000 1.400000 6.000000 -1.000000 -0.000000 0.000000 41 41 41
1.800000 1.400000 0.000000 -1.000000 -0.000000 0.000000 41 41 41
1.800000 1.400000 0.000000 0.000000 1.000000 0.000000 41 41 41
1.800000 1.400000 6.000000 0.000000 1.000000 0.000000 41 41 41
2.200000 1.400000 6.000000 0.000000 1.000000 0.000000 41 41 41
2.200000 1.400000 0.000000 0.000000 1.000000 0.000000 41 41 41
2.200000 1.400000 0.000000 1.000000 -0.000000 0.000000 41 41 41
2.200000 1.400000 6.000000 1.000000 -0.000000 0.000000 41 41 41
2.200000 1.000000 6.000000 1.000000 -0.000000 0.000000 41 41 41
2.200000 1.000000 0.000000 1.000000 -0.000000 0.000000 41 41 41
2.199999 11.000000 0.000000 1.000000 -0.000000 0.000000 41 41 41
2.199999 11.000000 6.000000 1.000000 -0.000000 0.000000 41 41 41
2.199999 10.600000 6.000000 1.000000 -0.000000 0.000000 41 41 41
2.199999 10.600000 0.000000 1.000000 -0.000000 0.000000 41 41 41
1.799999 10.600000 0.000000 -1.000000 -0.000000 0.000000 41 41 41
1.799999 10.600000 6.000000 -1.000000 -0.000000 0.000000 41 41 41
1.799999 11.000000 6.000000 -1.000000 -0.000000 0.000000 41 41 41
1.799999 11.000000 0.000000 -1.000000 -0.000000 0.000000 41 41 41
-1.800000 11.000000 0.000000 1.000000 -0.000000 0.000000 41 41 41
-1.800000 11.000000 6.000000 1.000000 -0.000000 0.000000 41 41 41
-1.800000 10.600000 6.000000 1.000000 -0.000000 0.000000 41 41 41
-1.800000 10.600000 0.000000 1.000000 -0.000000 0.000000 41 41 41
-1.800000 10.600000 0.000000 0.000000 -1.000000 0.000000 41 41 41
-1.800000 10.600000 6.000000 0.000000 -1.000000 0.000000 41 41 41
-2.200001 10.600000 6.000000 0.000000 -1.000000 0.000000 41 41 41
-2.200001 10.600000 0.000000 0.000000 -1.000000 0.000000 41 41 41
-2.200001 10.600000 0.000000 -1.000000 -0.000000 0.000000 41 41 41
-2.200001 10.600000 6.000000 -1.000000 -0.000000 0.000000 41 41 41
-2.200001 11.000000 6.000000 -1.000000 -0.000000 0.000000 41 41 41
-2.200001 11.000000 0.000000 -1.000000 -0.000000 0.000000 41 41 41
5.199999 10.600000 0.000000 0.000000 -1.000000 0.000000 41 41 41
5.199999 10.600000 6.000000 0.000000 -1.000000 0.000000 41 41 41
4.799999 10.600000 6.000000 0.000000 -1.000000 0.000000 41 41 41
4.799999 10.600000 0.000000 0.000000 -1.000000 0.000000 41 41 41
5.199999 11.000000 0.000000 1.000000 -0.000000 0.000000 41 41 41
5.199999 11.000000 6.000000 1.000000 -0.000000 0.000000 41 41 41
5.199999 10.600000 6.000000 1.000000 -0.000000 0.000000 41 41 41
5.199999 10.600000 0.000000 1.000000 -0.000000 0.000000 41 41 41
4.799999 10.600000 0.000000 -1.000000 -0.000000 0.000000 41 41 41
4.799999 10.600000 6.000000 -1.000000 -0.000000 0.000000 41 41 41
4.799999 11.000000 6.000000 -1.000000 -0.000000 0.000000 41 41 41
4.799999 11.000000 0.000000 -1.000000 -0.000000 0.000000 41 41 41
-4.800001 10.600000 0.000000 0.000000 -1.000000 0.000000 41 41 41
-4.800001 10.600000 6.000000 0.000000 -1.000000 0.000000 41 41 41
-5.200001 10.600000 6.000000 0.000000 -1.000000 0.000000 41 41 41
-5.200001 10.600000 0.000000 0.000000 -1.000000 0.000000 41 41 41
-4.800001 11.000000 0.000000 1.000000 -0.000000 0.000000 41 41 41
-4.800001 11.000000 6.000000 1.000000 -0.000000 0.000000 41 41 41
-4.800001 10.600000 6.000000 1.000000 -0.000000 0.000000 41 41 41
-4.800001 10.600000 0.000000 1.000000 -0.000000 0.000000 41 41 41
-5.200001 10.600000 0.000000 -1.000000 -0.000000 0.000000 41 41 41
-5.200001 10.600000 6.000000 -1.000000 -0.000000 0.000000 41 41 41
-5.200001 11.000000 6.000000 -1.000000 -0.000000 0.000000 41 41 41
-5.200001 11.000000 0.000000 -1.000000 -0.000000 0.000000 41 41 41
-5.200000 1.000000 0.000000 -1.000000 -0.000000 0.000000 41 41 41
-5.200000 1.000000 6.000000 -1.000000 -0.000000 0.000000 41 41 41
-5.200000 1.400000 6.000000 -1.000000 -0.000000 0.000000 41 41 41
-5.200000 1.400000 0.000000 -1.000000 -0.000000 0.000000 41 41 41
-5.200000 1.400000 0.000000 0.000000 1.000000 0.000000 41 41 41
-5.200000 1.400000 6.000000 0.000000 1.000000 0.000000 41 41 41
-4.800000 1.400000 6.000000 0.000000 1.000000 0.000000 41 41 41
-4.800000 1.400000 0.000000 0.000000 1.000000 0.000000 41 41 41
-4.800000 1.400000 0.000000 1.000000 -0.000000 0.000000 41 41 41
-4.800000 1.400000 6.000000 1.000000 -0.000000 0.000000 41 41 41
-4.800000 1.000000 6.000000 1.000000 -0.000000 0.000000 41 41 41
-4.800000 1.000000 0.000000 1.000000 -0.000000 0.000000 41 41 41
4.800000 1.000000 0.000000 -1.000000 -0.000000 0.000000 41 41 41
4.800000 1.000000 6.000000 -1.000000 -0.000000 0.000000 41 41 41
4.800000 1.400000 6.000000 -1.000000 -0.000000 0.000000 41 41 41
4.800000 1.400000 0.000000 -1.000000 -0.000000 0.000000 41 41 41
4.800000 1.400000 0.000000 0.000000 1.000000 0.000000 41 41 41
4.800000 1.400000 6.000000 0.000000 1.000000 0.000000 41 41 41
5.200000 1.400000 6.000000 0.000000 1.000000 0.000000 41 41 41
5.200000 1.400000 0.000000 0.000000 1.000000 0.000000 41 41 41
5.200000 1.400000 0.000000 1.000000 -0.000000 0.000000 41 41 41
5.200000 1.400000 6.000000 1.000000 -0.000000 0.000000 41 41 41
5.200000 1.000000 6.000000 1.000000 -0.000000 0.000000 41 41 41
5.200000 1.000000 0.000000 1.000000 -0.000000 0.000000 41 41 41
7.000000 1.000000 6.000000 0.000000 -0.000000 -1.000000 92 92 92
-7.000000 1.000000 6.000000 0.000000 -0.000000 -1.000000 92 92 92
-7.000000 11.000000 6.000000 0.000000 -0.000000 -1.000000 92 92 92
7.000000 11.000000 6.000000 0.000000 -0.000000 -1.000000 92 92 92
7.000000 1.000000 6.000000 -1.000000 -0.000000 -0.000000 92 92 92
7.000000 11.000000 6.000000 -1.000000 -0.000000 -0.000000 92 92 92
7.000000 11.000000 0.000000 -1.000000 -0.000000 -0.000000 92 92 92
7.000000 6.000000 0.000000 -1.000000 0.000000 0.000000 92 92 92
7.000000 6.000000 2.000000 -1.000000 0.000000 0.000000 92 92 92
7.000000 4.000000 2.000000 -1.000000 0.000000 0.000000 92 92 92
7.000000 4.000000 0.000000 -1.000000 0.000000 0.000000 92 92 92
7.000000 1.000000 0.000000 -1.000000 0.000000 0.000000 92 92 92
-2.200000 1.000000 0.000000 0.000000 1.000000 0.000000 92 92 92
-4.800000 1.000000 0.000000 0.000000 1.000000 0.000000 92 92 92
-4.800000 1.000000 6.000000 0.000000 1.000000 0.000000 92 92 92
-2.200000 1.000000 6.000000 0.000000 1.000000 0.000000 92 92 92
-1.000000 0.000000 0.000000 0.000000 -0.000000 1.000000 64 64 64
1.000000 0.000000 -0.000000 0.000000 -0.000000 1.000000 64 64 64
1.000000 1.000000 0.000000 0.000000 -0.000000 1.000000 64 64 64
-1.000000 1.000000 0.000000 0.000000 -0.000000 1.000000 64 64 64
1.000000 0.000000 2.000000 -0.000000 0.000000 -1.000000 92 92 92
-1.000000 0.000000 2.000000 -0.000000 0.000000 -1.000000 92 92 92
-1.000000 1.000000 2.000000 -0.000000 0.000000 -1.000000 92 92 92
1.000000 1.000000 2.000000 -0.000000 0.000000 -1.000000 92 92 92
1.000000 0.000000 -0.000000 -1.000000 0.000000 0.000000 92 92 92
1.000000 0.000000 2.000000 -1.000000 0.000000 0.000000 92 92 92
1.000000 1.000000 2.000000 -1.000000 0.000000 0.000000 92 92 92
1.000000 1.000000 0.000000 -1.000000 0.000000 0.000000 92 92 92
-1.000000 0.000000 2.000000 1.000000 0.000000 -0.000000 92 92 92
-1.000000 0.000000 0.000000 1.000000 0.000000 -0.000000 92 92 92
-1.000000 1.000000 0.000000 1.000000 0.000000 -0.000000 92 92 92
-1.000000 1.000000 2.000000 1.000000 0.000000 -0.000000 92 92 92
7.000000 6.000000 0.000000 -0.000000 0.000000 1.000000 64 64 64
7.000000 4.000000 0.000000 -0.000000 0.000000 1.000000 64 64 64
8.000000 4.000000 0.000000 -0.000000 0.000000 1.000000 64 64 64
8.000000 6.000000 0.000000 -0.000000 0.000000 1.000000 64 64 64
7.000000 4.000000 2.000000 -0.000000 0.000000 -1.000000 92 92 92
7.000000 6.000000 2.000000 -0.000000 0.000000 -1.000000 92 92 92
8.000000 6.000000 2.000000 -0.000000 0.000000 -1.000000 92 92 92
8.000000 4.000000 2.000000 -0.000000 0.000000 -1.000000 92 92 92
7.000000 4.000000 0.000000 0.000000 1.000000 0.000000 92 92 92
7.000000 4.000000 2.000000 0.000000 1.000000 0.000000 92 92 92
8.000000 4.000000 2.000000 0.000000 1.000000 0.000000 92 92 92
8.000000 4.000000 0.000000 0.000000 1.000000 0.000000 92 92 92
7.000000 6.000000 2.000000 -0.000000 -1.000000 0.000000 92 92 92
7.000000 6.000000 0.000000 -0.000000 -1.000000 0.000000 92 92 92
8.000000 6.000000 0.000000 -0.000000 -1.000000 0.000000 92 92 92
8.000000 6.000000 2.000000 -0.000000 -1.000000 0.000000 92 92 92
5.199999 11.000000 0.000000 0.000000 -1.000000 -0.000000 92 92 92
7.000000 11.000000 0.000000 0.000000 -1.000000 -0.000000 92 92 92
7.000000 11.000000 6.000000 0.000000 -1.000000 -0.000000 92 92 92
5.199999 11.000000 6.000000 0.000000 -1.000000 -0.000000 92 92 92
2.199999 11.000000 0.000000 0.000000 -1.000000 -0.000000 92 92 92
4.799999 11.000000 0.000000 0.000000 -1.000000 -0.000000 92 92 92
4.799999 11.000000 6.000000 0.000000 -1.000000 -0.000000 92 92 92
2.199999 11.000000 6.000000 0.000000 -1.000000 -0.000000 92 92 92
-1.800000 11.000000 6.000000 0.000000 -1.000000 0.000000 92 92 92
-1.800000 11.000000 0.000000 0.000000 -1.000000 0.000000 92 92 92
-2.200001 11.000000 6.000000 0.000000 -1.000000 0.000000 92 92 92
-4.800001 11.000000 6.000000 0.000000 -1.000000 0.000000 92 92 92
-4.800001 11.000000 0.000000 0.000000 -1.000000 0.000000 92 92 92
-2.200001 11.000000 0.000000 0.000000 -1.000000 0.000000 92 92 92
-7.000000 11.000000 6.000000 -0.000000 -1.000000 0.000000 92 92 92
-7.000000 11.000000 0.000000 -0.000000 -1.000000 0.000000 92 92 92
-5.200001 11.000000 0.000000 -0.000000 -1.000000 0.000000 92 92 92
-5.200001 11.000000 6.000000 -0.000000 -1.000000 0.000000 92 92 92
1.800000 1.000000 6.000000 0.000000 1.000000 0.000000 92 92 92
1.800000 1.000000 0.000000 0.000000 1.000000 0.000000 92 92 92
1.000000 1.000000 0.000000 0.000000 1.000000 0.000000 92 92 92
1.000000 1.000000 2.000000 -0.000000 1.000000 0.000000 92 92 92
-1.000000 1.000000 0.000000 -0.000000 1.000000 0.000000 92 92 92
-1.800000 1.000000 0.000000 -0.000000 1.000000 0.000000 92 92 92
-1.800000 1.000000 6.000000 -0.000000 1.000000 0.000000 92 92 92
-1.000000 1.000000 2.000000 -0.000000 1.000000 0.000000 92 92 92
2.200000 1.000000 6.000000 0.000000 1.000000 -0.000000 92 92 92
4.800000 1.000000 6.000000 0.000000 1.000000 -0.000000 92 92 92
4.800000 1.000000 0.000000 0.000000 1.000000 -0.000000 92 92 92
2.200000 1.000000 0.000000 0.000000 1.000000 -0.000000 92 92 92
5.200000 1.000000 0.000000 0.000000 1.000000 0.000000 92 92 92
5.200000 1.000000 6.000000 0.000000 1.000000 0.000000 92 92 92
7.000000 1.000000 6.000000 0.000000 1.000000 0.000000 92 92 92
7.000000 1.000000 0.000000 0.000000 1.000000 0.000000 92 92 92
4 0 1 2 3
4 4 5 6 7
4 8 9 10 11
3 12 13 14
3 12 14 15
3 16 17 12
3 18 19 16
3 12 15 20
3 20 18 16
3 20 16 12
4 21 22 23 24
4 25 26 27 28
4 29 30 31 32
4 33 34 35 36
4 37 38 39 40
4 41 42 43 44
4 45 46 47 48
4 49 50 51 52
4 53 54 55 56
4 57 58 59 60
4 61 62 63 64
4 65 66 67 68
4 69 70 71 72
4 73 74 75 76
4 77 78 79 80
4 81 82 83 84
4 85 86 87 88
4 89 90 91 92
4 93 94 95 96
4 97 98 99 100
4 101 102 103 104
4 105 106 107 108
4 109 110 111 112
4 113 114 115 116
4 117 118 119 120
3 121 122 123
3 123 124 125
3 126 127 128
3 121 123 125
3 126 128 121
3 125 126 121
4 129 130 131 132
4 133 134 135 136
4 137 138 139 140
4 141 142 143 144
4 145 146 147 148
4 149 150 151 152
4 153 154 155 156
4 157 158 159 160
4 161 162 163 164
4 165 166 167 168
4 169 170 171 172
3 13 173 174
3 174 19 18
3 14 13 174
3 174 18 14
4 175 176 177 178
4 179 180 181 182
3 183 184 185
3 183 185 186
3 187 188 189
3 183 186 190
3 190 187 189
3 189 183 190
4 191 192 193 194
4 195 196 197 198
