ply
format ascii 1.0
comment Created by Blender 2.79 (sub 0) - www.blender.org, source file: 'elevator.blend'
element vertex 160
property float x
property float y
property float z
property float nx
property float ny
property float nz
property uchar red
property uchar green
property uchar blue
element face 71
property list uchar uint vertex_indices
end_header
-1.000000 0.000000 -14.000000 0.000000 0.000000 1.000000 64 64 64
1.000000 0.000000 -14.000000 0.000000 0.000000 1.000000 64 64 64
1.000000 1.000000 -14.000000 0.000000 0.000000 1.000000 64 64 64
-1.000000 1.000000 -14.000000 0.000000 0.000000 1.000000 64 64 64
-2.000000 5.000000 -15.000000 1.000000 0.000000 0.000000 92 92 92
-2.000000 5.000000 -14.000000 1.000000 0.000000 0.000000 92 92 92
-2.000000 1.000000 -14.000000 1.000000 0.000000 0.000000 92 92 92
-2.000000 1.000000 -15.000000 1.000000 0.000000 0.000000 92 92 92
2.000000 5.000000 -14.000000 -1.000000 0.000000 0.000000 92 92 92
2.000000 5.000000 -15.000000 -1.000000 0.000000 0.000000 92 92 92
2.000000 1.000000 -15.000000 -1.000000 0.000000 0.000000 92 92 92
2.000000 1.000000 -14.000000 -1.000000 0.000000 0.000000 92 92 92
1.000000 5.000000 -14.000000 -0.000000 -1.000000 0.000000 92 92 92
1.000000 5.000000 -15.000000 -0.000000 -1.000000 0.000000 92 92 92
2.000000 5.000000 -15.000000 -0.000000 -1.000000 0.000000 92 92 92
2.000000 5.000000 -14.000000 -0.000000 -1.000000 0.000000 92 92 92
-1.000000 1.000000 -14.000000 -0.000000 1.000000 -0.000000 92 92 92
-1.000000 1.000000 -15.000000 -0.000000 1.000000 -0.000000 92 92 92
-2.000000 1.000000 -15.000000 -0.000000 1.000000 -0.000000 92 92 92
-2.000000 1.000000 -14.000000 -0.000000 1.000000 -0.000000 92 92 92
1.000000 0.000000 -12.000000 0.000000 -0.000000 -1.000000 92 92 92
-1.000000 0.000000 -12.000000 0.000000 -0.000000 -1.000000 92 92 92
-1.000000 1.000000 -12.000000 0.000000 -0.000000 -1.000000 92 92 92
1.000000 1.000000 -12.000000 0.000000 -0.000000 -1.000000 92 92 92
1.000000 0.000000 -14.000000 -1.000000 0.000000 0.000000 92 92 92
1.000000 0.000000 -12.000000 -1.000000 0.000000 0.000000 92 92 92
1.000000 1.000000 -12.000000 -1.000000 0.000000 0.000000 92 92 92
1.000000 1.000000 -14.000000 -1.000000 0.000000 0.000000 92 92 92
-1.000000 0.000000 -12.000000 1.000000 -0.000000 -0.000000 92 92 92
-1.000000 0.000000 -14.000000 1.000000 -0.000000 -0.000000 92 92 92
-1.000000 1.000000 -14.000000 1.000000 -0.000000 -0.000000 92 92 92
-1.000000 1.000000 -12.000000 1.000000 -0.000000 -0.000000 92 92 92
-1.000000 0.000000 -7.000000 0.000000 0.000000 1.000000 64 64 64
1.000000 0.000000 -7.000000 0.000000 0.000000 1.000000 64 64 64
1.000000 1.000000 -7.000000 0.000000 0.000000 1.000000 64 64 64
-1.000000 1.000000 -7.000000 0.000000 0.000000 1.000000 64 64 64
1.000000 0.000000 -5.000000 0.000000 -0.000000 -1.000000 92 92 92
-1.000000 0.000000 -5.000000 0.000000 -0.000000 -1.000000 92 92 92
-1.000000 1.000000 -5.000000 0.000000 -0.000000 -1.000000 92 92 92
1.000000 1.000000 -5.000000 0.000000 -0.000000 -1.000000 92 92 92
1.000000 0.000000 -7.000000 -1.000000 0.000000 0.000000 92 92 92
1.000000 0.000000 -5.000000 -1.000000 0.000000 0.000000 92 92 92
1.000000 1.000000 -5.000000 -1.000000 0.000000 0.000000 92 92 92
1.000000 1.000000 -7.000000 -1.000000 0.000000 0.000000 92 92 92
-1.000000 0.000000 -5.000000 1.000000 -0.000000 -0.000000 92 92 92
-1.000000 0.000000 -7.000000 1.000000 -0.000000 -0.000000 92 92 92
-1.000000 1.000000 -7.000000 1.000000 -0.000000 -0.000000 92 92 92
-1.000000 1.000000 -5.000000 1.000000 -0.000000 -0.000000 92 92 92
-1.000000 0.000000 0.000000 0.000000 0.000000 1.000000 64 64 64
1.000000 0.000000 0.000000 0.000000 0.000000 1.000000 64 64 64
1.000000 1.000000 0.000000 0.000000 0.000000 1.000000 64 64 64
-1.000000 1.000000 0.000000 0.000000 0.000000 1.000000 64 64 64
1.000000 0.000000 2.000000 0.000000 -0.000000 -1.000000 92 92 92
-1.000000 0.000000 2.000000 0.000000 -0.000000 -1.000000 92 92 92
-1.000000 1.000000 2.000000 0.000000 -0.000000 -1.000000 92 92 92
1.000000 1.000000 2.000000 0.000000 -0.000000 -1.000000 92 92 92
1.000000 0.000000 0.000000 -1.000000 0.000000 0.000000 92 92 92
1.000000 0.000000 2.000000 -1.000000 0.000000 0.000000 92 92 92
1.000000 1.000000 2.000000 -1.000000 0.000000 0.000000 92 92 92
1.000000 1.000000 0.000000 -1.000000 0.000000 0.000000 92 92 92
-1.000000 0.000000 2.000000 1.000000 -0.000000 -0.000000 92 92 92
-1.000000 0.000000 0.000000 1.000000 -0.000000 -0.000000 92 92 92
-1.000000 1.000000 0.000000 1.000000 -0.000000 -0.000000 92 92 92
-1.000000 1.000000 2.000000 1.000000 -0.000000 -0.000000 92 92 92
1.000000 1.000000 -15.000000 0.000000 0.000000 1.000000 92 92 92
2.000000 1.000000 -15.000000 0.000000 0.000000 1.000000 92 92 92
2.000000 5.000000 -15.000000 0.000000 0.000000 1.000000 92 92 92
1.000000 5.000000 -15.000000 0.000000 0.000000 1.000000 92 92 92
-1.000000 1.000000 3.000000 0.000000 -0.000000 -1.000000 92 92 92
-2.000000 1.000000 3.000000 0.000000 -0.000000 -1.000000 92 92 92
-2.000000 5.000000 3.000000 0.000000 -0.000000 -1.000000 92 92 92
-1.000000 5.000000 3.000000 0.000000 -0.000000 -1.000000 92 92 92
-1.000000 1.000000 -12.000000 0.000000 1.000000 0.000000 92 92 92
-2.000000 1.000000 -12.000000 0.000000 1.000000 0.000000 92 92 92
1.000000 5.000000 -12.000000 -0.000000 -1.000000 0.000000 92 92 92
2.000000 5.000000 -12.000000 -0.000000 -1.000000 0.000000 92 92 92
2.000000 5.000000 -12.000000 -1.000000 0.000000 0.000000 92 92 92
2.000000 1.000000 -12.000000 -1.000000 0.000000 0.000000 92 92 92
-2.000000 1.000000 -12.000000 1.000000 0.000000 0.000000 92 92 92
-2.000000 5.000000 -12.000000 1.000000 0.000000 0.000000 92 92 92
-2.000000 1.000000 -7.000000 1.000000 0.000000 0.000000 92 92 92
-2.000000 5.000000 -7.000000 1.000000 0.000000 0.000000 92 92 92
2.000000 5.000000 -7.000000 -1.000000 0.000000 0.000000 92 92 92
2.000000 1.000000 -7.000000 -1.000000 0.000000 0.000000 92 92 92
1.000000 5.000000 -7.000000 -0.000000 -1.000000 0.000000 92 92 92
2.000000 5.000000 -7.000000 -0.000000 -1.000000 0.000000 92 92 92
-1.000000 1.000000 -7.000000 0.000000 1.000000 -0.000000 92 92 92
-2.000000 1.000000 -7.000000 0.000000 1.000000 -0.000000 92 92 92
-1.000000 1.000000 -5.000000 0.000000 1.000000 0.000000 92 92 92
-2.000000 1.000000 -5.000000 0.000000 1.000000 0.000000 92 92 92
1.000000 5.000000 -5.000000 -0.000000 -1.000000 0.000000 92 92 92
2.000000 5.000000 -5.000000 -0.000000 -1.000000 0.000000 92 92 92
2.000000 5.000000 -5.000000 -1.000000 0.000000 0.000000 92 92 92
2.000000 1.000000 -5.000000 -1.000000 0.000000 0.000000 92 92 92
-2.000000 1.000000 -5.000000 1.000000 0.000000 0.000000 92 92 92
-2.000000 5.000000 -5.000000 1.000000 0.000000 0.000000 92 92 92
-2.000000 1.000000 0.000000 1.000000 0.000000 0.000000 92 92 92
-2.000000 5.000000 0.000000 1.000000 0.000000 0.000000 92 92 92
2.000000 5.000000 0.000000 -1.000000 0.000000 0.000000 92 92 92
2.000000 1.000000 0.000000 -1.000000 0.000000 0.000000 92 92 92
1.000000 5.000000 0.000000 -0.000000 -1.000000 0.000000 92 92 92
2.000000 5.000000 0.000000 -0.000000 -1.000000 0.000000 92 92 92
-1.000000 1.000000 0.000000 0.000000 1.000000 -0.000000 92 92 92
-2.000000 1.000000 0.000000 0.000000 1.000000 -0.000000 92 92 92
-1.000000 1.000000 2.000000 0.000000 1.000000 0.000000 92 92 92
-2.000000 1.000000 2.000000 0.000000 1.000000 0.000000 92 92 92
1.000000 5.000000 2.000000 -0.000000 -1.000000 0.000000 92 92 92
2.000000 5.000000 2.000000 -0.000000 -1.000000 0.000000 92 92 92
2.000000 5.000000 2.000000 -1.000000 0.000000 0.000000 92 92 92
2.000000 1.000000 2.000000 -1.000000 0.000000 0.000000 92 92 92
-2.000000 1.000000 2.000000 1.000000 0.000000 0.000000 92 92 92
-2.000000 5.000000 2.000000 1.000000 0.000000 0.000000 92 92 92
-2.000000 1.000000 3.000000 1.000000 0.000000 0.000000 92 92 92
-2.000000 5.000000 3.000000 1.000000 0.000000 0.000000 92 92 92
2.000000 5.000000 3.000000 -1.000000 0.000000 0.000000 92 92 92
2.000000 1.000000 3.000000 -1.000000 0.000000 0.000000 92 92 92
1.000000 5.000000 3.000000 -0.000000 -1.000000 0.000000 92 92 92
2.000000 5.000000 3.000000 -0.000000 -1.000000 0.000000 92 92 92
-1.000000 1.000000 3.000000 0.000000 1.000000 -0.000000 92 92 92
-2.000000 1.000000 3.000000 0.000000 1.000000 -0.000000 92 92 92
2.000000 1.000000 3.000000 -0.000000 1.000000 0.000000 92 92 92
2.000000 1.000000 2.000000 -0.000000 1.000000 0.000000 92 92 92
1.000000 1.000000 2.000000 -0.000000 1.000000 0.000000 92 92 92
1.000000 1.000000 3.000000 -0.000000 1.000000 0.000000 92 92 92
-1.000000 5.000000 3.000000 -0.000000 -1.000000 0.000000 92 92 92
-1.000000 5.000000 2.000000 -0.000000 -1.000000 0.000000 92 92 92
-1.000000 5.000000 0.000000 -0.000000 -1.000000 0.000000 92 92 92
2.000000 1.000000 0.000000 -0.000000 1.000000 0.000000 92 92 92
1.000000 1.000000 0.000000 -0.000000 1.000000 0.000000 92 92 92
2.000000 1.000000 -5.000000 -0.000000 1.000000 0.000000 92 92 92
1.000000 1.000000 -5.000000 -0.000000 1.000000 0.000000 92 92 92
-1.000000 5.000000 -5.000000 -0.000000 -1.000000 0.000000 92 92 92
-1.000000 5.000000 -7.000000 -0.000000 -1.000000 0.000000 92 92 92
2.000000 1.000000 -7.000000 -0.000000 1.000000 0.000000 92 92 92
1.000000 1.000000 -7.000000 -0.000000 1.000000 0.000000 92 92 92
2.000000 1.000000 -12.000000 -0.000000 1.000000 0.000000 92 92 92
1.000000 1.000000 -12.000000 -0.000000 1.000000 0.000000 92 92 92
-1.000000 5.000000 -12.000000 -0.000000 -1.000000 0.000000 92 92 92
-1.000000 5.000000 -14.000000 -0.000000 -1.000000 0.000000 92 92 92
2.000000 1.000000 -14.000000 -0.000000 1.000000 0.000000 92 92 92
1.000000 1.000000 -14.000000 -0.000000 1.000000 0.000000 92 92 92
2.000000 1.000000 3.000000 0.000000 -0.000000 -1.000000 92 92 92
1.000000 1.000000 3.000000 0.000000 -0.000000 -1.000000 92 92 92
1.000000 5.000000 3.000000 0.000000 -0.000000 -1.000000 92 92 92
2.000000 5.000000 3.000000 0.000000 -0.000000 -1.000000 92 92 92
-1.000000 1.000000 -15.000000 0.000000 0.000000 1.000000 92 92 92
-1.000000 5.000000 -15.000000 0.000000 0.000000 1.000000 92 92 92
2.000000 1.000000 -15.000000 -0.000000 1.000000 0.000000 92 92 92
1.000000 1.000000 -15.000000 -0.000000 1.000000 0.000000 92 92 92
-1.000000 5.000000 -15.000000 -0.000000 -1.000000 0.000000 92 92 92
-2.000000 5.000000 -14.000000 -0.000000 -1.000000 0.000000 92 92 92
-2.000000 5.000000 -15.000000 -0.000000 -1.000000 0.000000 92 92 92
-2.000000 5.000000 -15.000000 0.000000 -0.000000 1.000000 92 92 92
-2.000000 1.000000 -15.000000 0.000000 -0.000000 1.000000 92 92 92
-2.000000 5.000000 -12.000000 -0.000000 -1.000000 0.000000 92 92 92
-2.000000 5.000000 -7.000000 -0.000000 -1.000000 0.000000 92 92 92
-2.000000 5.000000 -5.000000 -0.000000 -1.000000 0.000000 92 92 92
-2.000000 5.000000 0.000000 -0.000000 -1.000000 0.000000 92 92 92
-2.000000 5.000000 2.000000 -0.000000 -1.000000 0.000000 92 92 92
-2.000000 5.000000 3.000000 -0.000000 -1.000000 0.000000 92 92 92
4 0 1 2 3
4 4 5 6 7
4 8 9 10 11
4 12 13 14 15
4 16 17 18 19
4 20 21 22 23
4 24 25 26 27
4 28 29 30 31
4 32 33 34 35
4 36 37 38 39
4 40 41 42 43
4 44 45 46 47
4 48 49 50 51
4 52 53 54 55
4 56 57 58 59
4 60 61 62 63
4 64 65 66 67
4 68 69 70 71
4 72 16 19 73
4 74 12 15 75
4 76 8 11 77
4 78 6 5 79
4 80 78 79 81
4 82 76 77 83
4 84 74 75 85
4 86 72 73 87
4 88 86 87 89
4 90 84 85 91
4 92 82 83 93
4 94 80 81 95
4 96 94 95 97
4 98 92 93 99
4 100 90 91 101
4 102 88 89 103
4 104 102 103 105
4 106 100 101 107
4 108 98 99 109
4 110 96 97 111
4 112 110 111 113
4 114 108 109 115
4 116 106 107 117
4 118 104 105 119
4 120 121 122 123
4 124 125 106 116
4 125 126 100 106
4 121 127 128 122
4 127 129 130 128
4 126 131 90 100
4 131 132 84 90
4 129 133 134 130
4 133 135 136 134
4 132 137 74 84
4 137 138 12 74
4 135 139 140 136
4 141 142 143 144
4 145 64 67 146
4 139 147 148 140
4 138 149 13 12
4 150 151 149 138
4 146 152 153 145
4 154 150 138 137
4 155 154 137 132
4 156 155 132 131
4 157 156 131 126
4 158 157 126 125
4 159 158 125 124
4 123 122 104 118
4 128 130 88 102
4 134 136 72 86
4 142 68 71 143
4 140 148 17 16
