ply
format ascii 1.0
comment Created by Blender 2.79 (sub 0) - www.blender.org, source file: 'room_end.blend'
element vertex 46
property float x
property float y
property float z
property float nx
property float ny
property float nz
property uchar red
property uchar green
property uchar blue
element face 12
property list uchar uint vertex_indices
end_header
-3.000000 7.000000 0.000000 0.000000 -1.000000 -0.000000 92 92 92
3.000000 7.000000 0.000000 0.000000 -1.000000 -0.000000 92 92 92
3.000000 7.000000 3.000000 0.000000 -1.000000 -0.000000 92 92 92
-3.000000 7.000000 3.000000 0.000000 -1.000000 -0.000000 92 92 92
3.000000 7.000000 0.000000 0.000000 -0.000000 1.000000 64 64 64
-3.000000 7.000000 0.000000 0.000000 -0.000000 1.000000 64 64 64
-3.000000 1.000000 0.000000 0.000000 -0.000000 1.000000 64 64 64
3.000000 1.000000 0.000000 0.000000 -0.000000 1.000000 64 64 64
-3.000000 1.000000 3.000000 -0.000000 1.000000 0.000000 92 92 92
-1.000000 1.000000 3.000000 -0.000000 1.000000 0.000000 92 92 92
-1.000000 1.000000 0.000000 -0.000000 1.000000 0.000000 92 92 92
-3.000000 1.000000 0.000000 -0.000000 1.000000 0.000000 92 92 92
3.000000 1.000000 0.000000 0.000000 1.000000 0.000000 92 92 92
1.000000 1.000000 0.000000 0.000000 1.000000 0.000000 92 92 92
1.000000 1.000000 3.000000 0.000000 1.000000 0.000000 92 92 92
3.000000 1.000000 3.000000 0.000000 1.000000 0.000000 92 92 92
1.000000 1.000000 2.000000 0.000000 1.000000 -0.000000 92 92 92
-1.000000 1.000000 2.000000 0.000000 1.000000 -0.000000 92 92 92
-3.000000 7.000000 0.000000 1.000000 -0.000000 0.000000 92 92 92
-3.000000 7.000000 3.000000 1.000000 -0.000000 0.000000 92 92 92
-3.000000 1.000000 3.000000 1.000000 -0.000000 0.000000 92 92 92
-3.000000 1.000000 0.000000 1.000000 -0.000000 0.000000 92 92 92
3.000000 1.000000 0.000000 -1.000000 -0.000000 0.000000 92 92 92
3.000000 1.000000 3.000000 -1.000000 -0.000000 0.000000 92 92 92
3.000000 7.000000 3.000000 -1.000000 -0.000000 0.000000 92 92 92
3.000000 7.000000 0.000000 -1.000000 -0.000000 0.000000 92 92 92
-3.000000 7.000000 3.000000 0.000000 0.000000 -1.000000 92 92 92
3.000000 7.000000 3.000000 0.000000 0.000000 -1.000000 92 92 92
3.000000 1.000000 3.000000 0.000000 0.000000 -1.000000 92 92 92
-3.000000 1.000000 3.000000 0.000000 0.000000 -1.000000 92 92 92
-1.000000 0.000000 -0.000000 -0.000000 -0.000000 1.000000 64 64 64
1.000000 0.000000 -0.000000 -0.000000 -0.000000 1.000000 64 64 64
1.000000 1.000000 0.000000 -0.000000 -0.000000 1.000000 64 64 64
-1.000000 1.000000 0.000000 -0.000000 -0.000000 1.000000 64 64 64
-1.000000 -0.000000 2.000000 -0.000000 0.000000 -1.000000 92 92 92
-1.000000 1.000000 2.000000 -0.000000 0.000000 -1.000000 92 92 92
1.000000 1.000000 2.000000 -0.000000 0.000000 -1.000000 92 92 92
1.000000 0.000000 2.000000 -0.000000 0.000000 -1.000000 92 92 92
1.000000 0.000000 2.000000 -1.000000 -0.000000 0.000000 92 92 92
1.000000 1.000000 2.000000 -1.000000 -0.000000 0.000000 92 92 92
1.000000 1.000000 0.000000 -1.000000 -0.000000 0.000000 92 92 92
1.000000 0.000000 -0.000000 -1.000000 -0.000000 0.000000 92 92 92
-1.000000 0.000000 -0.000000 1.000000 0.000000 -0.000000 92 92 92
-1.000000 1.000000 0.000000 1.000000 0.000000 -0.000000 92 92 92
-1.000000 1.000000 2.000000 1.000000 0.000000 -0.000000 92 92 92
-1.000000 -0.000000 2.000000 1.000000 0.000000 -0.000000 92 92 92
4 0 1 2 3
4 4 5 6 7
4 8 9 10 11
4 12 13 14 15
4 9 14 16 17
4 18 19 20 21
4 22 23 24 25
4 26 27 28 29
4 30 31 32 33
4 34 35 36 37
4 38 39 40 41
4 42 43 44 45
