ply
format ascii 1.0
comment Created by Blender 2.79 (sub 0) - www.blender.org, source file: 'med_room_1.blend'
element vertex 86
property float x
property float y
property float z
property float nx
property float ny
property float nz
property uchar red
property uchar green
property uchar blue
element face 23
property list uchar uint vertex_indices
end_header
-1.000000 0.000000 0.000000 0.000000 -0.000000 1.000000 64 64 64
1.000000 0.000000 -0.000000 0.000000 -0.000000 1.000000 64 64 64
1.000000 2.000000 0.000000 0.000000 -0.000000 1.000000 64 64 64
-1.000000 2.000000 0.000000 0.000000 -0.000000 1.000000 64 64 64
4.000000 9.999999 0.000000 -0.000000 -0.000000 1.000000 64 64 64
-4.000000 10.000000 0.000000 -0.000000 -0.000000 1.000000 64 64 64
-4.000000 2.000000 0.000000 -0.000000 -0.000000 1.000000 64 64 64
4.000000 2.000000 0.000000 -0.000000 -0.000000 1.000000 64 64 64
2.000000 1.000000 0.000000 0.000000 0.000000 1.000000 64 64 64
4.000000 1.000000 0.000000 0.000000 0.000000 1.000000 64 64 64
2.000000 2.000000 0.000000 0.000000 0.000000 1.000000 64 64 64
-4.000000 1.000000 0.000000 0.000000 0.000000 1.000000 64 64 64
-2.000000 1.000000 0.000000 0.000000 0.000000 1.000000 64 64 64
-2.000000 2.000000 0.000000 0.000000 0.000000 1.000000 64 64 64
1.000000 0.000000 2.000000 0.000000 0.000000 -1.000000 92 92 92
-1.000000 0.000000 2.000000 0.000000 0.000000 -1.000000 92 92 92
-1.000000 2.000000 2.000000 0.000000 0.000000 -1.000000 92 92 92
1.000000 2.000000 2.000000 0.000000 0.000000 -1.000000 92 92 92
1.000000 0.000000 -0.000000 -1.000000 0.000000 0.000000 92 92 92
1.000000 0.000000 2.000000 -1.000000 0.000000 0.000000 92 92 92
1.000000 2.000000 2.000000 -1.000000 0.000000 0.000000 92 92 92
1.000000 2.000000 0.000000 -1.000000 0.000000 0.000000 92 92 92
-1.000000 0.000000 2.000000 1.000000 0.000000 0.000000 92 92 92
-1.000000 0.000000 0.000000 1.000000 0.000000 0.000000 92 92 92
-1.000000 2.000000 0.000000 1.000000 0.000000 0.000000 92 92 92
-1.000000 2.000000 2.000000 1.000000 0.000000 0.000000 92 92 92
-4.000000 1.000000 3.000000 1.000000 0.000000 0.000000 92 92 92
-4.000000 1.000000 0.000000 1.000000 0.000000 0.000000 92 92 92
-4.000000 2.000000 0.000000 1.000000 0.000000 0.000000 92 92 92
-4.000000 2.000000 3.000000 1.000000 0.000000 0.000000 92 92 92
2.000000 1.000000 3.000000 1.000000 0.000000 0.000000 92 92 92
2.000000 1.000000 0.000000 1.000000 0.000000 0.000000 92 92 92
2.000000 2.000000 0.000000 1.000000 0.000000 0.000000 92 92 92
2.000000 2.000000 3.000000 1.000000 0.000000 0.000000 92 92 92
4.000000 1.000000 0.000000 -1.000000 0.000000 -0.000000 92 92 92
4.000000 1.000000 3.000000 -1.000000 0.000000 -0.000000 92 92 92
4.000000 2.000000 3.000000 -1.000000 0.000000 -0.000000 92 92 92
4.000000 2.000000 0.000000 -1.000000 0.000000 -0.000000 92 92 92
-2.000000 1.000000 0.000000 -1.000000 0.000000 -0.000000 92 92 92
-2.000000 1.000000 3.000000 -1.000000 0.000000 -0.000000 92 92 92
-2.000000 2.000000 3.000000 -1.000000 0.000000 -0.000000 92 92 92
-2.000000 2.000000 0.000000 -1.000000 0.000000 -0.000000 92 92 92
-4.000000 1.000000 0.000000 0.000000 1.000000 0.000000 92 92 92
-4.000000 1.000000 3.000000 0.000000 1.000000 0.000000 92 92 92
-2.000000 1.000000 3.000000 0.000000 1.000000 0.000000 92 92 92
-2.000000 1.000000 0.000000 0.000000 1.000000 0.000000 92 92 92
2.000000 1.000000 0.000000 -0.000000 1.000000 0.000000 92 92 92
2.000000 1.000000 3.000000 -0.000000 1.000000 0.000000 92 92 92
4.000000 1.000000 3.000000 -0.000000 1.000000 0.000000 92 92 92
4.000000 1.000000 0.000000 -0.000000 1.000000 0.000000 92 92 92
4.000000 1.000000 3.000000 0.000000 -0.000000 -1.000000 92 92 92
2.000000 1.000000 3.000000 0.000000 -0.000000 -1.000000 92 92 92
2.000000 2.000000 3.000000 0.000000 -0.000000 -1.000000 92 92 92
4.000000 2.000000 3.000000 0.000000 -0.000000 -1.000000 92 92 92
-2.000000 1.000000 3.000000 0.000000 -0.000000 -1.000000 92 92 92
-4.000000 1.000000 3.000000 0.000000 -0.000000 -1.000000 92 92 92
-4.000000 2.000000 3.000000 0.000000 -0.000000 -1.000000 92 92 92
-2.000000 2.000000 3.000000 0.000000 -0.000000 -1.000000 92 92 92
-2.000000 2.000000 0.000000 0.000000 1.000000 0.000000 92 92 92
-2.000000 2.000000 2.000000 0.000000 1.000000 0.000000 92 92 92
-1.000000 2.000000 2.000000 0.000000 1.000000 0.000000 92 92 92
-1.000000 2.000000 0.000000 0.000000 1.000000 0.000000 92 92 92
1.000000 2.000000 0.000000 0.000000 1.000000 0.000000 92 92 92
1.000000 2.000000 2.000000 0.000000 1.000000 0.000000 92 92 92
2.000000 2.000000 2.000000 0.000000 1.000000 0.000000 92 92 92
2.000000 2.000000 0.000000 0.000000 1.000000 0.000000 92 92 92
-4.000000 10.000000 0.000000 1.000000 -0.000000 0.000000 92 92 92
-4.000000 10.000000 5.000000 1.000000 -0.000000 0.000000 92 92 92
-4.000000 2.000000 5.000000 1.000000 -0.000000 0.000000 92 92 92
4.000000 10.000000 5.000000 -1.000000 0.000000 0.000000 92 92 92
4.000000 9.999999 0.000000 -1.000000 0.000000 0.000000 92 92 92
4.000000 2.000000 5.000000 -1.000000 0.000000 0.000000 92 92 92
-4.000000 10.000000 5.000000 -0.000000 -1.000000 0.000000 92 92 92
-4.000000 10.000000 0.000000 -0.000000 -1.000000 0.000000 92 92 92
4.000000 9.999999 0.000000 -0.000000 -1.000000 0.000000 92 92 92
4.000000 10.000000 5.000000 -0.000000 -1.000000 0.000000 92 92 92
-4.000000 2.000000 3.000000 0.000000 1.000000 -0.000000 92 92 92
-4.000000 2.000000 5.000000 0.000000 1.000000 -0.000000 92 92 92
4.000000 2.000000 5.000000 0.000000 1.000000 -0.000000 92 92 92
4.000000 2.000000 3.000000 0.000000 1.000000 -0.000000 92 92 92
-2.000000 2.000000 3.000000 -0.000000 1.000000 0.000000 92 92 92
2.000000 2.000000 3.000000 -0.000000 1.000000 0.000000 92 92 92
-4.000000 10.000000 5.000000 0.000000 0.000000 -1.000000 92 92 92
4.000000 10.000000 5.000000 0.000000 0.000000 -1.000000 92 92 92
4.000000 2.000000 5.000000 0.000000 0.000000 -1.000000 92 92 92
-4.000000 2.000000 5.000000 0.000000 0.000000 -1.000000 92 92 92
4 0 1 2 3
4 4 5 6 7
4 8 9 7 10
4 11 12 13 6
4 14 15 16 17
4 18 19 20 21
4 22 23 24 25
4 26 27 28 29
4 30 31 32 33
4 34 35 36 37
4 38 39 40 41
4 42 43 44 45
4 46 47 48 49
4 50 51 52 53
4 54 55 56 57
4 58 59 60 61
4 62 63 64 65
4 66 67 68 28
4 69 70 37 71
4 72 73 74 75
4 76 77 78 79
4 59 80 81 64
4 82 83 84 85
