ply
format ascii 1.0
comment Created by Blender 2.79 (sub 0) - www.blender.org, source file: 'Another_room.blend'
element vertex 108
property float x
property float y
property float z
property float nx
property float ny
property float nz
property uchar red
property uchar green
property uchar blue
element face 34
property list uchar uint vertex_indices
end_header
-1.000000 0.000000 0.000000 0.000000 -0.000000 1.000000 64 64 64
1.000000 0.000000 -0.000000 0.000000 -0.000000 1.000000 64 64 64
1.000000 1.000000 0.000000 0.000000 -0.000000 1.000000 64 64 64
-1.000000 1.000000 0.000000 0.000000 -0.000000 1.000000 64 64 64
-4.000000 9.000000 0.000000 0.000000 0.000000 1.000000 64 64 64
8.000000 9.000000 0.000000 0.000000 0.000000 1.000000 64 64 64
8.000000 11.000000 0.000000 0.000000 0.000000 1.000000 64 64 64
-4.000000 11.000000 0.000000 0.000000 0.000000 1.000000 64 64 64
9.000000 9.000000 0.000000 0.000000 -0.000000 1.000000 64 64 64
-5.000000 9.000000 0.000000 0.000000 -0.000000 1.000000 64 64 64
-5.000000 1.000000 0.000000 0.000000 -0.000000 1.000000 64 64 64
9.000000 1.000000 0.000000 0.000000 -0.000000 1.000000 64 64 64
-5.000000 11.000000 0.000000 0.000000 0.000000 1.000000 64 64 64
9.000000 11.000000 0.000000 0.000000 0.000000 1.000000 64 64 64
9.000000 19.000000 0.000000 0.000000 0.000000 1.000000 64 64 64
-5.000000 19.000000 0.000000 0.000000 0.000000 1.000000 64 64 64
-5.000000 19.000000 0.000000 0.000000 -1.000000 -0.000000 100 55 66
9.000000 19.000000 0.000000 0.000000 -1.000000 -0.000000 100 55 66
9.000000 19.000000 7.000000 0.000000 -1.000000 -0.000000 100 55 66
-5.000000 19.000000 7.000000 0.000000 -1.000000 -0.000000 100 55 66
8.000000 9.000000 0.000000 0.000000 -1.000000 -0.000000 92 92 92
9.000000 9.000000 0.000000 0.000000 -1.000000 -0.000000 92 92 92
9.000000 9.000000 7.000000 0.000000 -1.000000 -0.000000 92 92 92
8.000000 9.000000 7.000000 0.000000 -1.000000 -0.000000 92 92 92
-5.000000 9.000000 0.000000 0.000000 -1.000000 -0.000000 92 92 92
-4.000000 9.000000 0.000000 0.000000 -1.000000 -0.000000 92 92 92
-4.000000 9.000000 7.000000 0.000000 -1.000000 -0.000000 92 92 92
-5.000000 9.000000 7.000000 0.000000 -1.000000 -0.000000 92 92 92
-4.000000 11.000000 0.000000 0.000000 1.000000 0.000000 92 92 92
-5.000000 11.000000 0.000000 0.000000 1.000000 0.000000 92 92 92
-5.000000 11.000000 7.000000 0.000000 1.000000 0.000000 92 92 92
-4.000000 11.000000 7.000000 0.000000 1.000000 0.000000 92 92 92
9.000000 11.000000 0.000000 0.000000 1.000000 0.000000 92 92 92
8.000000 11.000000 0.000000 0.000000 1.000000 0.000000 92 92 92
8.000000 11.000000 7.000000 0.000000 1.000000 0.000000 92 92 92
9.000000 11.000000 7.000000 0.000000 1.000000 0.000000 92 92 92
9.000000 1.000000 0.000000 0.000000 1.000000 0.000000 100 55 66
1.000000 1.000000 0.000000 0.000000 1.000000 0.000000 100 55 66
1.000000 1.000000 7.000000 0.000000 1.000000 0.000000 100 55 66
9.000000 1.000000 7.000000 0.000000 1.000000 0.000000 100 55 66
-1.000000 1.000000 0.000000 0.000000 1.000000 0.000000 100 55 66
-5.000000 1.000000 0.000000 0.000000 1.000000 0.000000 100 55 66
-5.000000 1.000000 7.000000 0.000000 1.000000 0.000000 100 55 66
-1.000000 1.000000 7.000000 0.000000 1.000000 0.000000 100 55 66
-4.000000 9.000000 6.000000 0.000000 -1.000000 -0.000000 92 92 92
8.000000 9.000000 6.000000 0.000000 -1.000000 -0.000000 92 92 92
8.000000 10.999999 6.000000 0.000000 1.000000 0.000000 92 92 92
-4.000000 11.000001 6.000000 0.000000 1.000000 0.000000 92 92 92
1.000000 1.000000 2.000000 0.000000 1.000000 -0.000000 100 55 66
-1.000000 1.000000 2.000000 0.000000 1.000000 -0.000000 100 55 66
-5.000000 11.000000 0.000000 1.000000 0.000000 0.000000 100 55 66
-5.000000 19.000000 0.000000 1.000000 0.000000 0.000000 100 55 66
-5.000000 19.000000 7.000000 1.000000 0.000000 0.000000 100 55 66
-5.000000 11.000000 7.000000 1.000000 0.000000 0.000000 100 55 66
9.000000 11.000000 0.000000 -1.000000 -0.000000 0.000000 100 55 66
9.000000 11.000000 7.000000 -1.000000 -0.000000 0.000000 100 55 66
9.000000 19.000000 7.000000 -1.000000 -0.000000 0.000000 100 55 66
9.000000 19.000000 0.000000 -1.000000 -0.000000 0.000000 100 55 66
9.000000 9.000000 7.000000 -1.000000 0.000000 0.000000 100 55 66
9.000000 9.000000 0.000000 -1.000000 0.000000 0.000000 100 55 66
9.000000 1.000000 0.000000 -1.000000 0.000000 0.000000 100 55 66
9.000000 1.000000 7.000000 -1.000000 0.000000 0.000000 100 55 66
-5.000000 1.000000 0.000000 1.000000 0.000000 0.000000 100 55 66
-5.000000 9.000000 0.000000 1.000000 0.000000 0.000000 100 55 66
-5.000000 9.000000 7.000000 1.000000 0.000000 0.000000 100 55 66
-5.000000 1.000000 7.000000 1.000000 0.000000 0.000000 100 55 66
8.000000 9.000000 7.000000 0.000000 0.000000 -1.000000 100 55 66
9.000000 9.000000 7.000000 0.000000 0.000000 -1.000000 100 55 66
9.000000 1.000000 7.000000 0.000000 0.000000 -1.000000 100 55 66
1.000000 1.000000 7.000000 0.000000 0.000000 0.000000 100 55 66
-1.000000 1.000000 7.000000 0.000000 0.000000 0.000000 100 55 66
-5.000000 1.000000 7.000000 0.000000 0.000000 0.000000 100 55 66
1.000000 1.000000 7.000000 0.000000 0.000000 -1.000000 100 55 66
-5.000000 1.000000 7.000000 -0.000000 -0.000000 -1.000000 100 55 66
-5.000000 9.000000 7.000000 -0.000000 -0.000000 -1.000000 100 55 66
-4.000000 9.000000 7.000000 -0.000000 -0.000000 -1.000000 100 55 66
-5.000000 19.000000 7.000000 0.000000 0.000000 -1.000000 100 55 66
9.000000 19.000000 7.000000 0.000000 0.000000 -1.000000 100 55 66
9.000000 11.000000 7.000000 0.000000 0.000000 -1.000000 100 55 66
8.000000 11.000000 7.000000 0.000000 0.000000 0.000000 100 55 66
-4.000000 11.000000 7.000000 0.000000 0.000000 0.000000 100 55 66
-5.000000 11.000000 7.000000 0.000000 0.000000 0.000000 100 55 66
8.000000 11.000000 7.000000 0.000000 0.000000 -1.000000 100 55 66
-5.000000 11.000000 7.000000 0.000000 0.000000 -1.000000 100 55 66
-4.000000 9.000000 6.000000 -0.000000 0.000000 -1.000000 92 92 92
-4.000000 11.000001 6.000000 -0.000000 0.000000 -1.000000 92 92 92
8.000000 10.999999 6.000000 -0.000000 0.000000 -1.000000 92 92 92
8.000000 9.000000 6.000000 -0.000000 0.000000 -1.000000 92 92 92
8.000000 11.000000 0.000000 -1.000000 0.000000 -0.000000 92 92 92
8.000000 9.000000 0.000000 -1.000000 0.000000 -0.000000 92 92 92
8.000000 9.000000 6.000000 -1.000000 0.000000 -0.000000 92 92 92
8.000000 10.999999 6.000000 -1.000000 0.000000 -0.000000 92 92 92
-4.000000 11.000000 0.000000 1.000000 -0.000000 0.000000 92 92 92
-4.000000 11.000001 6.000000 1.000000 -0.000000 0.000000 92 92 92
-4.000000 9.000000 6.000000 1.000000 -0.000000 0.000000 92 92 92
-4.000000 9.000000 0.000000 1.000000 -0.000000 0.000000 92 92 92
1.000000 0.000000 2.000000 -0.000000 0.000000 -1.000000 92 92 92
-1.000000 0.000000 2.000000 -0.000000 0.000000 -1.000000 92 92 92
-1.000000 1.000000 2.000000 -0.000000 0.000000 -1.000000 92 92 92
1.000000 1.000000 2.000000 -0.000000 0.000000 -1.000000 92 92 92
1.000000 0.000000 -0.000000 -1.000000 0.000000 0.000000 92 92 92
1.000000 0.000000 2.000000 -1.000000 0.000000 0.000000 92 92 92
1.000000 1.000000 2.000000 -1.000000 0.000000 0.000000 92 92 92
1.000000 1.000000 0.000000 -1.000000 0.000000 0.000000 92 92 92
-1.000000 0.000000 2.000000 1.000000 0.000000 0.000000 92 92 92
-1.000000 0.000000 0.000000 1.000000 0.000000 0.000000 92 92 92
-1.000000 1.000000 0.000000 1.000000 0.000000 0.000000 92 92 92
-1.000000 1.000000 2.000000 1.000000 0.000000 0.000000 92 92 92
4 0 1 2 3
4 4 5 6 7
4 8 9 10 11
4 12 13 14 15
4 16 17 18 19
4 20 21 22 23
4 24 25 26 27
4 28 29 30 31
4 32 33 34 35
4 36 37 38 39
4 40 41 42 43
4 44 45 23 26
4 46 47 31 34
4 48 49 43 38
4 50 51 52 53
4 54 55 56 57
4 58 59 60 61
4 62 63 64 65
3 66 67 68
3 69 70 71
3 66 68 72
3 73 74 75
3 75 66 72
3 72 73 75
3 76 77 78
3 79 80 81
3 76 78 82
3 82 83 76
4 84 85 86 87
4 88 89 90 91
4 92 93 94 95
4 96 97 98 99
4 100 101 102 103
4 104 105 106 107
