ply
format ascii 1.0
comment Created by Blender 2.79 (sub 0) - www.blender.org, source file: 'silo.blend'
element vertex 358
property float x
property float y
property float z
property float nx
property float ny
property float nz
property uchar red
property uchar green
property uchar blue
element face 128
property list uchar uint vertex_indices
end_header
1.000000 1.000000 0.000000 0.000000 -0.000000 1.000000 64 64 64
-1.000000 1.000000 0.000000 0.000000 -0.000000 1.000000 64 64 64
-1.000000 0.000000 0.000000 0.000000 -0.000000 1.000000 64 64 64
1.000000 0.000000 -0.000000 0.000000 -0.000000 1.000000 64 64 64
1.000000 0.000000 2.000000 -0.000000 0.000000 -1.000000 92 92 92
-1.000000 0.000000 2.000000 -0.000000 0.000000 -1.000000 92 92 92
-1.000000 1.000000 2.000000 -0.000000 0.000000 -1.000000 92 92 92
1.000000 1.000000 2.000000 -0.000000 0.000000 -1.000000 92 92 92
1.000000 1.000000 2.000000 -1.000000 0.000000 0.000000 92 92 92
1.000000 1.000000 0.000000 -1.000000 0.000000 0.000000 92 92 92
1.000000 0.000000 -0.000000 -1.000000 0.000000 0.000000 92 92 92
1.000000 0.000000 2.000000 -1.000000 0.000000 0.000000 92 92 92
-1.000000 0.000000 2.000000 1.000000 0.000000 -0.000000 92 92 92
-1.000000 0.000000 0.000000 1.000000 0.000000 -0.000000 92 92 92
-1.000000 1.000000 0.000000 1.000000 0.000000 -0.000000 92 92 92
-1.000000 1.000000 2.000000 1.000000 0.000000 -0.000000 92 92 92
-9.999999 5.000000 -0.500000 0.707107 0.707107 0.000000 92 92 92
-6.000000 0.999999 -0.500000 0.707107 0.707107 0.000000 92 92 92
-6.000000 0.999999 -20.000000 0.707107 0.707107 0.000000 92 92 92
-9.999999 5.000000 -20.000000 0.707107 0.707107 0.000000 92 92 92
-6.000000 21.000000 -0.500000 0.707107 -0.707107 0.000000 92 92 92
-10.000001 17.000000 -0.500000 0.707107 -0.707107 0.000000 92 92 92
-10.000001 17.000000 -20.000000 0.707107 -0.707107 0.000000 92 92 92
-6.000000 21.000000 -20.000000 0.707107 -0.707107 0.000000 92 92 92
5.000000 8.000000 -20.000000 1.000000 0.000000 0.000000 92 92 92
5.000000 14.000000 -20.000000 1.000000 0.000000 0.000000 92 92 92
5.000000 14.000000 -18.000000 1.000000 0.000000 0.000000 92 92 92
5.000000 8.000000 -18.000000 1.000000 0.000000 0.000000 92 92 92
-6.000000 0.999999 -20.000000 0.000000 0.000000 1.000000 92 92 92
6.000000 1.000000 -20.000000 0.000000 0.000000 1.000000 92 92 92
3.000000 6.000000 -20.000000 0.000000 0.000000 1.000000 92 92 92
-3.000000 6.000000 -20.000000 0.000000 0.000000 1.000000 92 92 92
-6.000000 21.000000 -20.000000 0.000000 0.000000 1.000000 92 92 92
-10.000001 17.000000 -20.000000 0.000000 0.000000 1.000000 92 92 92
-5.000000 14.000000 -20.000000 0.000000 0.000000 1.000000 92 92 92
-3.000000 16.000000 -20.000000 0.000000 0.000000 1.000000 92 92 92
10.000000 5.000000 -20.000000 -0.000000 0.000000 1.000000 92 92 92
10.000000 17.000000 -20.000000 -0.000000 0.000000 1.000000 92 92 92
5.000000 14.000000 -20.000000 -0.000000 0.000000 1.000000 92 92 92
5.000000 8.000000 -20.000000 -0.000000 0.000000 1.000000 92 92 92
-5.000000 8.000000 -20.000000 -0.707107 -0.707107 0.000000 92 92 92
-3.000000 6.000000 -20.000000 -0.707107 -0.707107 0.000000 92 92 92
-3.000000 6.000000 -18.000000 -0.707107 -0.707107 0.000000 92 92 92
-5.000000 8.000000 -18.000000 -0.707107 -0.707107 0.000000 92 92 92
6.000000 21.000000 -20.000000 0.000000 0.000000 1.000000 92 92 92
3.000000 16.000000 -20.000000 0.000000 0.000000 1.000000 92 92 92
5.000000 14.000000 -20.000000 0.707107 0.707107 0.000000 92 92 92
3.000000 16.000000 -20.000000 0.707107 0.707107 0.000000 92 92 92
3.000000 16.000000 -18.000000 0.707107 0.707107 0.000000 92 92 92
5.000000 14.000000 -18.000000 0.707107 0.707107 0.000000 92 92 92
3.000000 6.000000 -20.000000 0.707107 -0.707107 0.000000 92 92 92
5.000000 8.000000 -20.000000 0.707107 -0.707107 0.000000 92 92 92
5.000000 8.000000 -18.000000 0.707107 -0.707107 0.000000 92 92 92
3.000000 6.000000 -18.000000 0.707107 -0.707107 0.000000 92 92 92
-3.000000 16.000000 -20.000000 -0.707107 0.707107 0.000000 92 92 92
-5.000000 14.000000 -20.000000 -0.707107 0.707107 0.000000 92 92 92
-5.000000 14.000000 -18.000000 -0.707107 0.707107 0.000000 92 92 92
-3.000000 16.000000 -18.000000 -0.707107 0.707107 0.000000 92 92 92
-9.999999 5.000000 -20.000000 0.000000 0.000000 1.000000 92 92 92
-5.000000 8.000000 -20.000000 0.000000 0.000000 1.000000 92 92 92
-5.000000 14.000000 -18.000000 0.000000 0.000000 1.000000 92 92 92
-5.000000 8.000000 -18.000000 0.000000 0.000000 1.000000 92 92 92
-3.000000 6.000000 -18.000000 0.000000 0.000000 1.000000 92 92 92
3.000000 6.000000 -18.000000 0.000000 0.000000 1.000000 92 92 92
5.000000 8.000000 -18.000000 0.000000 0.000000 1.000000 92 92 92
5.000000 14.000000 -18.000000 0.000000 0.000000 1.000000 92 92 92
3.000000 16.000000 -18.000000 0.000000 0.000000 1.000000 92 92 92
-3.000000 16.000000 -18.000000 0.000000 0.000000 1.000000 92 92 92
-3.000000 6.000000 -20.000000 0.000000 -1.000000 0.000000 92 92 92
3.000000 6.000000 -20.000000 0.000000 -1.000000 0.000000 92 92 92
3.000000 6.000000 -18.000000 0.000000 -1.000000 0.000000 92 92 92
-3.000000 6.000000 -18.000000 0.000000 -1.000000 0.000000 92 92 92
-5.000000 14.000000 -20.000000 -1.000000 -0.000000 0.000000 92 92 92
-5.000000 8.000000 -20.000000 -1.000000 -0.000000 0.000000 92 92 92
-5.000000 8.000000 -18.000000 -1.000000 -0.000000 0.000000 92 92 92
-5.000000 14.000000 -18.000000 -1.000000 -0.000000 0.000000 92 92 92
3.000000 16.000000 -20.000000 0.000000 1.000000 0.000000 92 92 92
-3.000000 16.000000 -20.000000 0.000000 1.000000 0.000000 92 92 92
-3.000000 16.000000 -18.000000 0.000000 1.000000 0.000000 92 92 92
3.000000 16.000000 -18.000000 0.000000 1.000000 0.000000 92 92 92
-10.000001 17.000000 -0.500000 -0.000000 0.000000 -1.000000 92 92 92
-6.000000 21.000000 -0.500000 -0.000000 0.000000 -1.000000 92 92 92
-4.800000 19.000000 -0.500000 -0.000000 0.000000 -1.000000 92 92 92
-8.000001 15.800000 -0.500000 -0.000000 0.000000 -1.000000 92 92 92
-6.000000 0.999999 0.000000 0.000000 0.000000 1.000000 64 64 64
6.000000 1.000000 0.000000 0.000000 0.000000 1.000000 64 64 64
4.800000 3.000000 0.000000 0.000000 0.000000 1.000000 64 64 64
-4.800000 2.999999 0.000000 0.000000 0.000000 1.000000 64 64 64
10.000000 5.000000 -20.000000 -0.707107 0.707107 0.000000 92 92 92
6.000000 1.000000 -20.000000 -0.707107 0.707107 0.000000 92 92 92
6.000000 1.000000 -0.500000 -0.707107 0.707107 0.000000 92 92 92
10.000000 5.000000 -0.500000 -0.707107 0.707107 0.000000 92 92 92
6.000000 21.000000 -20.000000 -0.707107 -0.707107 0.000000 92 92 92
10.000000 17.000000 -20.000000 -0.707107 -0.707107 0.000000 92 92 92
10.000000 17.000000 -0.500000 -0.707107 -0.707107 0.000000 92 92 92
6.000000 21.000000 -0.500000 -0.707107 -0.707107 0.000000 92 92 92
6.000000 1.000000 -20.000000 -0.000000 1.000000 0.000000 92 92 92
-6.000000 0.999999 -20.000000 -0.000000 1.000000 0.000000 92 92 92
-6.000000 0.999999 -0.500000 -0.000000 1.000000 0.000000 92 92 92
6.000000 1.000000 -0.500000 -0.000000 1.000000 0.000000 92 92 92
-9.999999 5.000000 -20.000000 1.000000 0.000000 0.000000 92 92 92
-10.000001 17.000000 -20.000000 1.000000 0.000000 0.000000 92 92 92
-10.000001 17.000000 -0.500000 1.000000 0.000000 0.000000 92 92 92
-9.999999 5.000000 -0.500000 1.000000 0.000000 0.000000 92 92 92
-1.000000 21.000000 0.000000 0.000000 -0.000000 1.000000 64 64 64
1.000000 21.000000 -0.000000 0.000000 -0.000000 1.000000 64 64 64
1.000000 22.000000 0.000000 0.000000 -0.000000 1.000000 64 64 64
-1.000000 22.000000 0.000000 0.000000 -0.000000 1.000000 64 64 64
1.000000 21.000000 2.000000 -0.000000 0.000000 -1.000000 92 92 92
-1.000000 21.000000 2.000000 -0.000000 0.000000 -1.000000 92 92 92
-1.000000 22.000000 2.000000 -0.000000 0.000000 -1.000000 92 92 92
1.000000 22.000000 2.000000 -0.000000 0.000000 -1.000000 92 92 92
1.000000 21.000000 -0.000000 -1.000000 0.000000 0.000000 92 92 92
1.000000 21.000000 2.000000 -1.000000 0.000000 0.000000 92 92 92
1.000000 22.000000 2.000000 -1.000000 0.000000 0.000000 92 92 92
1.000000 22.000000 0.000000 -1.000000 0.000000 0.000000 92 92 92
-1.000000 21.000000 2.000000 1.000000 0.000000 -0.000000 92 92 92
-1.000000 21.000000 0.000000 1.000000 0.000000 -0.000000 92 92 92
-1.000000 22.000000 0.000000 1.000000 0.000000 -0.000000 92 92 92
-1.000000 22.000000 2.000000 1.000000 0.000000 -0.000000 92 92 92
11.000000 10.000000 0.000000 0.000000 0.000000 1.000000 64 64 64
11.000000 12.000000 -0.000000 0.000000 0.000000 1.000000 64 64 64
10.000000 12.000000 0.000000 0.000000 0.000000 1.000000 64 64 64
10.000000 10.000000 0.000000 0.000000 0.000000 1.000000 64 64 64
11.000000 12.000000 2.000000 -0.000000 0.000000 -1.000000 92 92 92
11.000000 10.000000 2.000000 -0.000000 0.000000 -1.000000 92 92 92
10.000000 10.000000 2.000000 -0.000000 0.000000 -1.000000 92 92 92
10.000000 12.000000 2.000000 -0.000000 0.000000 -1.000000 92 92 92
11.000000 12.000000 -0.000000 0.000000 -1.000000 0.000000 92 92 92
11.000000 12.000000 2.000000 0.000000 -1.000000 0.000000 92 92 92
10.000000 12.000000 2.000000 0.000000 -1.000000 0.000000 92 92 92
10.000000 12.000000 0.000000 0.000000 -1.000000 0.000000 92 92 92
11.000000 10.000000 2.000000 -0.000000 1.000000 0.000000 92 92 92
11.000000 10.000000 0.000000 -0.000000 1.000000 0.000000 92 92 92
10.000000 10.000000 0.000000 -0.000000 1.000000 0.000000 92 92 92
10.000000 10.000000 2.000000 -0.000000 1.000000 0.000000 92 92 92
-10.000000 10.000000 0.000000 0.000000 0.000000 1.000000 64 64 64
-10.000000 12.000000 -0.000000 0.000000 0.000000 1.000000 64 64 64
-11.000000 12.000000 0.000000 0.000000 0.000000 1.000000 64 64 64
-11.000000 10.000000 0.000000 0.000000 0.000000 1.000000 64 64 64
-10.000000 12.000000 2.000000 -0.000000 0.000000 -1.000000 92 92 92
-10.000000 10.000000 2.000000 -0.000000 0.000000 -1.000000 92 92 92
-11.000000 10.000000 2.000000 -0.000000 0.000000 -1.000000 92 92 92
-11.000000 12.000000 2.000000 -0.000000 0.000000 -1.000000 92 92 92
-10.000000 12.000000 -0.000000 0.000000 -1.000000 0.000000 92 92 92
-10.000000 12.000000 2.000000 0.000000 -1.000000 0.000000 92 92 92
-11.000000 12.000000 2.000000 0.000000 -1.000000 0.000000 92 92 92
-11.000000 12.000000 0.000000 0.000000 -1.000000 0.000000 92 92 92
-10.000000 10.000000 2.000000 -0.000000 1.000000 0.000000 92 92 92
-10.000000 10.000000 0.000000 -0.000000 1.000000 0.000000 92 92 92
-11.000000 10.000000 0.000000 -0.000000 1.000000 0.000000 92 92 92
-11.000000 10.000000 2.000000 -0.000000 1.000000 0.000000 92 92 92
-6.000000 0.999999 -0.500000 -0.000000 -0.000000 -1.000000 92 92 92
-9.999999 5.000000 -0.500000 -0.000000 -0.000000 -1.000000 92 92 92
-8.000000 6.200000 -0.500000 -0.000000 -0.000000 -1.000000 92 92 92
-4.800000 2.999999 -0.500000 -0.000000 -0.000000 -1.000000 92 92 92
6.000000 21.000000 -0.500000 0.000000 0.000000 -1.000000 92 92 92
4.800000 19.000000 -0.500000 0.000000 0.000000 -1.000000 92 92 92
-6.000000 21.000000 2.000000 0.707107 -0.707107 0.000000 92 92 92
-10.000001 17.000000 2.000000 0.707107 -0.707107 0.000000 92 92 92
-10.000001 17.000000 0.000000 0.707107 -0.707107 0.000000 92 92 92
-6.000000 21.000000 0.000000 0.707107 -0.707107 0.000000 92 92 92
-9.999999 5.000000 1.999999 0.707107 0.707107 -0.000000 92 92 92
-6.000000 0.999999 2.000000 0.707107 0.707107 -0.000000 92 92 92
-6.000000 0.999999 0.000000 0.707107 0.707107 -0.000000 92 92 92
-9.999999 5.000000 0.000000 0.707107 0.707107 -0.000000 92 92 92
-9.999999 5.000000 0.000000 0.000000 0.000000 1.000000 64 64 64
-8.000000 6.200000 0.000000 0.000000 0.000000 1.000000 64 64 64
10.000000 17.000000 -0.500000 0.000000 0.000000 -1.000000 92 92 92
10.000000 5.000000 -0.500000 0.000000 0.000000 -1.000000 92 92 92
8.000000 6.200000 -0.500000 0.000000 0.000000 -1.000000 92 92 92
8.000000 15.800000 -0.500000 0.000000 0.000000 -1.000000 92 92 92
-6.000000 21.000000 0.000000 0.000000 -0.000000 1.000000 64 64 64
-10.000001 17.000000 0.000000 0.000000 -0.000000 1.000000 64 64 64
-8.000001 15.800000 0.000000 0.000000 -0.000000 1.000000 64 64 64
-4.800000 19.000000 0.000000 0.000000 -0.000000 1.000000 64 64 64
10.000000 17.000000 -20.000000 -1.000000 0.000000 -0.000000 92 92 92
10.000000 5.000000 -20.000000 -1.000000 0.000000 -0.000000 92 92 92
10.000000 5.000000 -0.500000 -1.000000 0.000000 -0.000000 92 92 92
10.000000 17.000000 -0.500000 -1.000000 0.000000 -0.000000 92 92 92
-6.000000 21.000000 -20.000000 0.000000 -1.000000 -0.000000 92 92 92
6.000000 21.000000 -20.000000 0.000000 -1.000000 -0.000000 92 92 92
6.000000 21.000000 -0.500000 0.000000 -1.000000 -0.000000 92 92 92
-6.000000 21.000000 -0.500000 0.000000 -1.000000 -0.000000 92 92 92
10.000000 5.000000 0.000000 -0.707107 0.707107 -0.000000 92 92 92
6.000000 1.000000 0.000000 -0.707107 0.707107 -0.000000 92 92 92
6.000000 1.000000 2.000000 -0.707107 0.707107 -0.000000 92 92 92
10.000000 5.000000 2.000000 -0.707107 0.707107 -0.000000 92 92 92
6.000000 21.000000 0.000000 -0.707107 -0.707107 0.000000 92 92 92
10.000000 17.000000 0.000000 -0.707107 -0.707107 0.000000 92 92 92
10.000000 17.000000 1.999999 -0.707107 -0.707107 0.000000 92 92 92
6.000000 21.000000 2.000000 -0.707107 -0.707107 0.000000 92 92 92
-10.000000 12.000000 2.000000 1.000000 0.000000 0.000000 92 92 92
-10.000000 12.000000 -0.000000 1.000000 0.000000 0.000000 92 92 92
-10.000001 17.000000 0.000000 1.000000 0.000000 0.000000 92 92 92
-10.000001 17.000000 2.000000 1.000000 0.000000 0.000000 92 92 92
-1.000000 21.000000 0.000000 0.000000 -1.000000 0.000000 92 92 92
-1.000000 21.000000 2.000000 0.000000 -1.000000 0.000000 92 92 92
-6.000000 21.000000 2.000000 0.000000 -1.000000 0.000000 92 92 92
-6.000000 21.000000 0.000000 0.000000 -1.000000 0.000000 92 92 92
10.000000 12.000000 0.000000 -1.000000 -0.000000 0.000000 92 92 92
10.000000 12.000000 2.000000 -1.000000 -0.000000 0.000000 92 92 92
10.000000 17.000000 1.999999 -1.000000 -0.000000 0.000000 92 92 92
10.000000 17.000000 0.000000 -1.000000 -0.000000 0.000000 92 92 92
1.000000 21.000000 2.000000 -0.000000 -1.000000 0.000000 92 92 92
1.000000 21.000000 -0.000000 -0.000000 -1.000000 0.000000 92 92 92
6.000000 21.000000 0.000000 -0.000000 -1.000000 0.000000 92 92 92
6.000000 21.000000 2.000000 -0.000000 -1.000000 0.000000 92 92 92
-10.000000 10.000000 0.000000 1.000000 0.000000 0.000000 92 92 92
-10.000000 10.000000 2.000000 1.000000 0.000000 0.000000 92 92 92
-9.999999 5.000000 1.999999 1.000000 0.000000 0.000000 92 92 92
-9.999999 5.000000 0.000000 1.000000 0.000000 0.000000 92 92 92
-1.000000 1.000000 2.000000 -0.000000 1.000000 -0.000000 92 92 92
-1.000000 1.000000 0.000000 -0.000000 1.000000 -0.000000 92 92 92
-6.000000 0.999999 0.000000 -0.000000 1.000000 -0.000000 92 92 92
-6.000000 0.999999 2.000000 -0.000000 1.000000 -0.000000 92 92 92
1.000000 1.000000 0.000000 -0.000000 1.000000 -0.000000 92 92 92
1.000000 1.000000 2.000000 -0.000000 1.000000 -0.000000 92 92 92
6.000000 1.000000 2.000000 -0.000000 1.000000 -0.000000 92 92 92
6.000000 1.000000 0.000000 -0.000000 1.000000 -0.000000 92 92 92
10.000000 10.000000 2.000000 -1.000000 0.000000 0.000000 92 92 92
10.000000 10.000000 0.000000 -1.000000 0.000000 0.000000 92 92 92
10.000000 5.000000 0.000000 -1.000000 0.000000 0.000000 92 92 92
10.000000 5.000000 2.000000 -1.000000 0.000000 0.000000 92 92 92
-8.000000 6.200000 0.000000 0.707107 0.707107 0.000000 92 92 92
-4.800000 2.999999 0.000000 0.707107 0.707107 0.000000 92 92 92
-4.800000 2.999999 -0.500000 0.707107 0.707107 0.000000 92 92 92
-8.000000 6.200000 -0.500000 0.707107 0.707107 0.000000 92 92 92
-4.800000 19.000000 0.000000 0.707107 -0.707107 0.000000 92 92 92
-8.000001 15.800000 0.000000 0.707107 -0.707107 0.000000 92 92 92
-8.000001 15.800000 -0.500000 0.707107 -0.707107 0.000000 92 92 92
-4.800000 19.000000 -0.500000 0.707107 -0.707107 0.000000 92 92 92
8.000000 6.200000 -0.500000 -0.707107 0.707107 0.000000 92 92 92
4.800000 3.000000 -0.500000 -0.707107 0.707107 0.000000 92 92 92
4.800000 3.000000 0.000000 -0.707107 0.707107 0.000000 92 92 92
8.000000 6.200000 0.000000 -0.707107 0.707107 0.000000 92 92 92
4.800000 19.000000 -0.500000 -0.707107 -0.707107 0.000000 92 92 92
8.000000 15.800000 -0.500000 -0.707107 -0.707107 0.000000 92 92 92
8.000000 15.800000 0.000000 -0.707107 -0.707107 0.000000 92 92 92
4.800000 19.000000 0.000000 -0.707107 -0.707107 0.000000 92 92 92
4.800000 3.000000 -0.500000 -0.000000 1.000000 0.000000 92 92 92
-4.800000 2.999999 -0.500000 -0.000000 1.000000 0.000000 92 92 92
-4.800000 2.999999 0.000000 -0.000000 1.000000 0.000000 92 92 92
4.800000 3.000000 0.000000 -0.000000 1.000000 0.000000 92 92 92
-8.000000 6.200000 -0.500000 1.000000 0.000000 0.000000 92 92 92
-8.000001 15.800000 -0.500000 1.000000 0.000000 0.000000 92 92 92
-8.000001 15.800000 0.000000 1.000000 0.000000 0.000000 92 92 92
-8.000000 6.200000 0.000000 1.000000 0.000000 0.000000 92 92 92
8.000000 15.800000 -0.500000 -1.000000 0.000000 -0.000000 92 92 92
8.000000 6.200000 -0.500000 -1.000000 0.000000 -0.000000 92 92 92
8.000000 6.200000 0.000000 -1.000000 0.000000 -0.000000 92 92 92
8.000000 15.800000 0.000000 -1.000000 0.000000 -0.000000 92 92 92
-4.800000 19.000000 -0.500000 0.000000 -1.000000 -0.000000 92 92 92
4.800000 19.000000 -0.500000 0.000000 -1.000000 -0.000000 92 92 92
4.800000 19.000000 0.000000 0.000000 -1.000000 -0.000000 92 92 92
-4.800000 19.000000 0.000000 0.000000 -1.000000 -0.000000 92 92 92
6.000000 1.000000 -0.500000 0.000000 -0.000000 -1.000000 92 92 92
4.800000 3.000000 -0.500000 0.000000 -0.000000 -1.000000 92 92 92
10.000000 5.000000 0.000000 -0.000000 0.000000 1.000000 64 64 64
10.000000 17.000000 0.000000 -0.000000 0.000000 1.000000 64 64 64
8.000000 15.800000 0.000000 -0.000000 0.000000 1.000000 64 64 64
8.000000 6.200000 0.000000 -0.000000 0.000000 1.000000 64 64 64
6.000000 21.000000 0.000000 0.000000 -0.000000 1.000000 64 64 64
4.800000 19.000000 0.000000 0.000000 -0.000000 1.000000 64 64 64
-6.000000 0.999999 9.000000 -0.000000 1.000000 0.000000 92 92 92
-1.000000 1.000000 9.000000 -0.000000 1.000000 0.000000 92 92 92
-10.000000 12.000000 9.000000 1.000000 0.000000 0.000000 92 92 92
-10.000000 10.000000 9.000000 1.000000 0.000000 0.000000 92 92 92
-1.000000 21.000000 9.000000 0.000000 -1.000000 -0.000000 92 92 92
-6.000000 21.000000 9.000000 0.000000 -1.000000 -0.000000 92 92 92
1.000000 1.000000 9.000000 -0.000000 1.000000 0.000000 92 92 92
6.000000 1.000000 9.000000 -0.000000 1.000000 0.000000 92 92 92
-9.999999 5.000000 8.999999 0.707107 0.707107 0.000000 92 92 92
-6.000000 0.999999 9.000000 0.707107 0.707107 0.000000 92 92 92
-10.000001 17.000000 9.000000 1.000000 0.000000 0.000000 92 92 92
10.000000 10.000000 9.000000 -1.000000 0.000000 -0.000000 92 92 92
10.000000 12.000000 9.000000 -1.000000 0.000000 -0.000000 92 92 92
10.000000 5.000000 9.000000 -1.000000 0.000000 -0.000000 92 92 92
-6.000000 21.000000 9.000000 0.707107 -0.707107 0.000000 92 92 92
-10.000001 17.000000 9.000000 0.707107 -0.707107 0.000000 92 92 92
-9.999999 5.000000 8.999999 1.000000 0.000000 0.000000 92 92 92
6.000000 21.000000 9.000000 0.000000 -1.000000 -0.000000 92 92 92
1.000000 21.000000 9.000000 0.000000 -1.000000 -0.000000 92 92 92
6.000000 1.000000 9.000000 -0.707107 0.707107 0.000000 92 92 92
10.000000 5.000000 9.000000 -0.707107 0.707107 0.000000 92 92 92
10.000000 17.000000 8.999999 -1.000000 0.000000 -0.000000 92 92 92
10.000000 17.000000 8.999999 -0.707107 -0.707107 0.000000 92 92 92
6.000000 21.000000 9.000000 -0.707107 -0.707107 0.000000 92 92 92
-1.000000 21.000000 9.000000 0.000000 -0.948683 -0.316228 92 92 92
1.000000 21.000000 9.000000 0.000000 -0.948683 -0.316228 92 92 92
0.800000 19.000000 15.000000 0.000000 -0.948683 -0.316228 92 92 92
-0.800000 19.000000 15.000000 0.000000 -0.948683 -0.316228 92 92 92
10.000000 10.000000 9.000000 -0.948683 0.000000 -0.316228 92 92 92
10.000000 5.000000 9.000000 -0.948683 0.000000 -0.316228 92 92 92
8.000000 6.200000 15.000000 -0.948683 0.000000 -0.316228 92 92 92
8.000000 10.200000 15.000000 -0.948683 0.000000 -0.316228 92 92 92
6.000000 21.000000 9.000000 0.000000 -0.948683 -0.316228 92 92 92
4.800000 19.000000 15.000000 0.000000 -0.948683 -0.316228 92 92 92
1.000000 1.000000 9.000000 -0.000000 0.948683 -0.316228 92 92 92
-1.000000 1.000000 9.000000 -0.000000 0.948683 -0.316228 92 92 92
-0.800000 3.000000 15.000000 -0.000000 0.948683 -0.316228 92 92 92
0.800000 3.000000 15.000000 -0.000000 0.948683 -0.316228 92 92 92
10.000000 17.000000 8.999999 -0.948683 -0.000000 -0.316228 92 92 92
10.000000 12.000000 9.000000 -0.948683 -0.000000 -0.316228 92 92 92
8.000000 11.800000 15.000000 -0.948683 -0.000000 -0.316228 92 92 92
8.000000 15.800000 14.999999 -0.948683 -0.000000 -0.316228 92 92 92
-6.000000 21.000000 9.000000 0.000000 -0.948683 -0.316228 92 92 92
-4.800000 19.000000 15.000000 0.000000 -0.948683 -0.316228 92 92 92
-10.000000 10.000000 9.000000 0.948683 0.000000 -0.316228 92 92 92
-10.000000 12.000000 9.000000 0.948683 0.000000 -0.316228 92 92 92
-8.000000 11.800000 15.000000 0.948683 0.000000 -0.316228 92 92 92
-8.000000 10.200000 15.000000 0.948683 0.000000 -0.316228 92 92 92
-10.000001 17.000000 9.000000 0.948683 0.000000 -0.316228 92 92 92
-8.000001 15.800000 15.000000 0.948683 0.000000 -0.316228 92 92 92
-6.000000 0.999999 9.000000 0.661622 0.661622 -0.352865 92 92 92
-9.999999 5.000000 8.999999 0.661622 0.661622 -0.352865 92 92 92
-8.000000 6.200000 14.999999 0.661622 0.661622 -0.352865 92 92 92
-4.800000 2.999999 15.000000 0.661622 0.661622 -0.352865 92 92 92
-9.999999 5.000000 8.999999 0.948683 0.000000 -0.316228 92 92 92
-8.000000 6.200000 14.999999 0.948683 0.000000 -0.316228 92 92 92
-10.000001 17.000000 9.000000 0.661621 -0.661622 -0.352865 92 92 92
-6.000000 21.000000 9.000000 0.661621 -0.661622 -0.352865 92 92 92
-4.800000 19.000000 15.000000 0.661621 -0.661622 -0.352865 92 92 92
-8.000001 15.800000 15.000000 0.661621 -0.661622 -0.352865 92 92 92
-6.000000 0.999999 9.000000 -0.000000 0.948683 -0.316228 92 92 92
-4.800000 2.999999 15.000000 -0.000000 0.948683 -0.316228 92 92 92
10.000000 5.000000 9.000000 -0.661622 0.661622 -0.352865 92 92 92
6.000000 1.000000 9.000000 -0.661622 0.661622 -0.352865 92 92 92
4.800000 3.000000 15.000000 -0.661622 0.661622 -0.352865 92 92 92
8.000000 6.200000 15.000000 -0.661622 0.661622 -0.352865 92 92 92
6.000000 1.000000 9.000000 -0.000000 0.948683 -0.316228 92 92 92
4.800000 3.000000 15.000000 -0.000000 0.948683 -0.316228 92 92 92
6.000000 21.000000 9.000000 -0.661622 -0.661622 -0.352865 92 92 92
10.000000 17.000000 8.999999 -0.661622 -0.661622 -0.352865 92 92 92
8.000000 15.800000 14.999999 -0.661622 -0.661622 -0.352865 92 92 92
4.800000 19.000000 15.000000 -0.661622 -0.661622 -0.352865 92 92 92
-0.800000 19.000000 15.000000 0.000000 0.000000 0.000000 92 92 92
0.800000 19.000000 15.000000 0.000000 0.000000 0.000000 92 92 92
4.800000 19.000000 15.000000 0.000000 0.000000 0.000000 92 92 92
4.800000 19.000000 15.000000 -0.000001 -0.000000 -1.000000 92 92 92
8.000000 15.800000 14.999999 -0.000001 -0.000000 -1.000000 92 92 92
8.000000 11.800000 15.000000 -0.000001 -0.000000 -1.000000 92 92 92
8.000000 10.200000 15.000000 0.000000 0.000000 -1.000000 92 92 92
8.000000 6.200000 15.000000 0.000000 0.000000 -1.000000 92 92 92
4.800000 3.000000 15.000000 0.000000 0.000000 -1.000000 92 92 92
4.800000 19.000000 15.000000 0.000000 0.000000 -1.000000 92 92 92
8.000000 11.800000 15.000000 0.000000 0.000000 -1.000000 92 92 92
-8.000001 15.800000 15.000000 -0.000000 0.000000 -1.000000 92 92 92
-4.800000 19.000000 15.000000 -0.000000 0.000000 -1.000000 92 92 92
-0.800000 19.000000 15.000000 -0.000000 0.000000 -1.000000 92 92 92
0.800000 3.000000 15.000000 0.000000 0.000000 -1.000000 92 92 92
-0.800000 3.000000 15.000000 0.000000 -0.000000 -1.000000 92 92 92
-4.800000 2.999999 15.000000 0.000000 -0.000000 -1.000000 92 92 92
-8.000000 6.200000 14.999999 0.000000 -0.000000 -1.000000 92 92 92
-8.000000 6.200000 14.999999 -0.894427 -0.000000 -0.447214 92 92 92
-8.000000 10.200000 15.000000 -0.894427 -0.000000 -0.447214 92 92 92
-8.000000 11.800000 15.000000 -0.894427 -0.000000 -0.447214 92 92 92
-8.000000 11.800000 15.000000 -0.000000 -0.000000 -1.000000 92 92 92
4 0 1 2 3
4 4 5 6 7
4 8 9 10 11
4 12 13 14 15
4 16 17 18 19
4 20 21 22 23
4 24 25 26 27
4 28 29 30 31
4 32 33 34 35
4 36 37 38 39
4 40 41 42 43
4 37 44 45 38
4 46 47 48 49
4 50 51 52 53
4 54 55 56 57
4 29 36 39 30
4 33 58 59 34
3 60 61 62
3 62 63 64
3 64 65 66
3 66 67 60
3 60 62 64
3 64 66 60
4 68 69 70 71
4 72 73 74 75
4 58 28 31 59
4 76 77 78 79
4 44 32 35 45
4 80 81 82 83
4 84 85 86 87
4 88 89 90 91
4 92 93 94 95
4 96 97 98 99
4 100 101 102 103
4 104 105 106 107
4 108 109 110 111
4 112 113 114 115
4 116 117 118 119
4 120 121 122 123
4 124 125 126 127
4 128 129 130 131
4 132 133 134 135
4 136 137 138 139
4 140 141 142 143
4 144 145 146 147
4 148 149 150 151
4 152 153 154 155
4 81 156 157 82
4 158 159 160 161
4 162 163 164 165
4 166 84 87 167
4 168 169 170 171
4 172 173 174 175
4 153 80 83 154
4 176 177 178 179
4 180 181 182 183
4 184 185 186 187
4 188 189 190 191
4 192 193 194 195
4 196 197 198 199
4 200 201 202 203
4 204 205 206 207
4 208 209 210 211
4 212 213 214 215
4 216 217 218 219
4 220 221 222 223
4 224 225 226 227
4 228 229 230 231
4 232 233 234 235
4 236 237 238 239
4 240 241 242 243
4 244 245 246 247
4 248 249 250 251
4 252 253 254 255
4 173 166 167 174
4 169 256 257 170
4 258 259 260 261
4 156 168 171 157
4 262 172 175 263
4 85 258 261 86
4 256 152 155 257
4 259 262 263 260
4 212 215 264 265
4 209 192 266 267
4 198 197 268 269
4 218 217 270 271
4 217 212 265 270
4 163 162 272 273
4 192 195 274 266
4 201 220 275 276
4 220 223 277 275
4 159 158 278 279
4 210 209 267 280
4 204 207 281 282
4 197 204 282 268
4 187 186 283 284
4 202 201 276 285
4 191 190 286 287
4 288 289 290 291
4 292 293 294 295
4 289 296 297 290
4 298 299 300 301
4 302 303 304 305
4 303 292 295 304
4 306 288 291 307
4 308 309 310 311
4 309 312 313 310
4 314 315 316 317
4 318 308 311 319
4 320 321 322 323
4 299 324 325 300
4 326 327 328 329
4 330 298 301 331
4 332 333 334 335
3 336 337 338
3 339 340 341
3 342 343 344
3 345 346 342
3 347 348 349
3 349 345 342
3 342 344 350
3 351 352 353
3 342 350 351
3 347 349 342
3 354 355 356
3 357 347 342
3 342 351 353
3 342 353 357
