ply
format ascii 1.0
comment Created by Blender 2.79 (sub 0) - www.blender.org, source file: 'silo2.blend'
element vertex 156
property float x
property float y
property float z
property float nx
property float ny
property float nz
property uchar red
property uchar green
property uchar blue
element face 57
property list uchar uint vertex_indices
end_header
-1.800000 8.680000 10.000000 0.000000 -0.500878 -0.865518 92 92 92
1.800000 8.680000 10.000000 0.000000 -0.500878 -0.865518 92 92 92
0.720000 6.952000 11.000000 0.000000 -0.500878 -0.865518 92 92 92
-0.720000 6.952000 11.000000 0.000000 -0.500878 -0.865518 92 92 92
-1.000000 0.000000 0.000000 0.000000 -0.000000 1.000000 64 64 64
1.000000 0.000000 0.000000 0.000000 -0.000000 1.000000 64 64 64
1.000000 1.000000 0.000000 0.000000 -0.000000 1.000000 64 64 64
-1.000000 1.000000 0.000000 0.000000 -0.000000 1.000000 64 64 64
-4.000000 3.000000 0.000000 1.000000 0.000000 0.000000 92 92 92
-4.000000 7.000000 0.000000 1.000000 0.000000 0.000000 92 92 92
-4.000000 7.000000 9.000000 1.000000 0.000000 0.000000 92 92 92
-4.000000 3.000000 9.000000 1.000000 0.000000 0.000000 92 92 92
4.000000 7.000000 0.000000 -0.707107 -0.707107 0.000000 92 92 92
4.000000 7.000000 9.000000 -0.707107 -0.707107 0.000000 92 92 92
2.000000 9.000000 9.000000 -0.707107 -0.707107 0.000000 92 92 92
2.000000 9.000000 0.000000 -0.707107 -0.707107 0.000000 92 92 92
-2.000000 1.000000 0.000000 0.707107 0.707107 0.000000 92 92 92
-4.000000 3.000000 0.000000 0.707107 0.707107 0.000000 92 92 92
-4.000000 3.000000 9.000000 0.707107 0.707107 0.000000 92 92 92
-2.000000 1.000000 9.000000 0.707107 0.707107 -0.000000 92 92 92
-2.000000 1.000000 2.000000 0.707107 0.707107 -0.000000 92 92 92
1.000000 9.000000 0.000000 -0.000000 0.000000 1.000000 64 64 64
1.000000 10.000000 0.000000 -0.000000 0.000000 1.000000 64 64 64
-1.000000 10.000000 0.000000 -0.000000 0.000000 1.000000 64 64 64
-1.000000 9.000000 0.000000 -0.000000 0.000000 1.000000 64 64 64
4.000000 7.000000 0.000000 -1.000000 0.000000 -0.000000 92 92 92
4.000000 3.000000 0.000000 -1.000000 0.000000 -0.000000 92 92 92
4.000000 3.000000 9.000000 -1.000000 0.000000 -0.000000 92 92 92
4.000000 7.000000 9.000000 -1.000000 0.000000 -0.000000 92 92 92
4.000000 3.000000 0.000000 -0.707107 0.707107 0.000000 92 92 92
2.000000 1.000000 0.000000 -0.707107 0.707107 0.000000 92 92 92
2.000000 1.000000 2.000000 -0.707107 0.707107 0.000000 92 92 92
2.000000 1.000000 9.000000 -0.707107 0.707107 0.000000 92 92 92
4.000000 3.000000 9.000000 -0.707107 0.707107 0.000000 92 92 92
1.000000 0.000000 2.000000 -0.000000 0.000000 -1.000000 92 92 92
-1.000000 -0.000000 2.000000 -0.000000 0.000000 -1.000000 92 92 92
-1.000000 1.000000 2.000000 -0.000000 0.000000 -1.000000 92 92 92
1.000000 1.000000 2.000000 -0.000000 0.000000 -1.000000 92 92 92
1.000000 0.000000 0.000000 -1.000000 -0.000000 -0.000000 92 92 92
1.000000 0.000000 2.000000 -1.000000 -0.000000 -0.000000 92 92 92
1.000000 1.000000 2.000000 -1.000000 -0.000000 -0.000000 92 92 92
1.000000 1.000000 0.000000 -1.000000 -0.000000 -0.000000 92 92 92
-1.000000 -0.000000 2.000000 1.000000 0.000000 -0.000000 92 92 92
-1.000000 0.000000 0.000000 1.000000 0.000000 -0.000000 92 92 92
-1.000000 1.000000 0.000000 1.000000 0.000000 -0.000000 92 92 92
-1.000000 1.000000 2.000000 1.000000 0.000000 -0.000000 92 92 92
-4.000000 7.000000 0.000000 0.707107 -0.707107 0.000000 92 92 92
-2.000000 9.000000 0.000000 0.707107 -0.707107 0.000000 92 92 92
-2.000000 9.000000 9.000000 0.707107 -0.707107 0.000000 92 92 92
-4.000000 7.000000 9.000000 0.707107 -0.707107 0.000000 92 92 92
3.600000 3.280000 10.000000 -0.254135 0.254135 -0.933183 92 92 92
1.800000 1.480000 10.000000 -0.254135 0.254135 -0.933183 92 92 92
0.720000 4.072000 11.000000 -0.254135 0.254135 -0.933183 92 92 92
1.440000 4.792000 11.000000 -0.254135 0.254135 -0.933183 92 92 92
2.000000 1.000000 2.000000 0.000000 1.000000 -0.000000 92 92 92
-2.000000 1.000000 2.000000 0.000000 1.000000 -0.000000 92 92 92
-2.000000 1.000000 9.000000 0.000000 1.000000 -0.000000 92 92 92
2.000000 1.000000 9.000000 0.000000 1.000000 -0.000000 92 92 92
4.000000 7.000000 9.000000 -0.928477 0.000000 -0.371391 92 92 92
4.000000 3.000000 9.000000 -0.928477 0.000000 -0.371391 92 92 92
3.600000 3.280000 10.000000 -0.928477 0.000000 -0.371391 92 92 92
3.600000 6.880000 10.000000 -0.928477 0.000000 -0.371391 92 92 92
-2.000000 9.000000 9.000000 0.000000 -0.952424 -0.304775 92 92 92
2.000000 9.000000 9.000000 0.000000 -0.952424 -0.304775 92 92 92
1.800000 8.680000 10.000000 0.000000 -0.952424 -0.304775 92 92 92
-1.800000 8.680000 10.000000 0.000000 -0.952424 -0.304775 92 92 92
2.000000 9.000000 9.000000 -0.663665 -0.663665 -0.345106 92 92 92
4.000000 7.000000 9.000000 -0.663665 -0.663665 -0.345106 92 92 92
3.600000 6.880000 10.000000 -0.663665 -0.663665 -0.345106 92 92 92
1.800000 8.680000 10.000000 -0.663665 -0.663665 -0.345106 92 92 92
-3.600000 3.280000 10.000000 0.420124 0.000000 -0.907467 92 92 92
-3.600000 6.880000 10.000000 0.420124 0.000000 -0.907467 92 92 92
-1.440000 6.232000 11.000000 0.420124 0.000000 -0.907467 92 92 92
-1.440000 4.792000 11.000000 0.420124 0.000000 -0.907467 92 92 92
-3.600000 6.880000 10.000000 0.318064 -0.318064 -0.893124 92 92 92
-1.800000 8.680000 10.000000 0.318064 -0.318064 -0.893124 92 92 92
-0.720000 6.952000 11.000000 0.318064 -0.318064 -0.893124 92 92 92
-1.440000 6.232000 11.000000 0.318064 -0.318064 -0.893124 92 92 92
-2.000000 1.000000 9.000000 0.637266 0.637266 -0.433341 92 92 92
-4.000000 3.000000 9.000000 0.637266 0.637266 -0.433341 92 92 92
-3.600000 3.280000 10.000000 0.637266 0.637266 -0.433341 92 92 92
-1.800000 1.480000 10.000000 0.637266 0.637266 -0.433341 92 92 92
4.000000 3.000000 9.000000 -0.637266 0.637266 -0.433341 92 92 92
2.000000 1.000000 9.000000 -0.637266 0.637266 -0.433341 92 92 92
1.800000 1.480000 10.000000 -0.637266 0.637266 -0.433341 92 92 92
3.600000 3.280000 10.000000 -0.637266 0.637266 -0.433341 92 92 92
-4.000000 7.000000 9.000000 0.663665 -0.663665 -0.345106 92 92 92
-2.000000 9.000000 9.000000 0.663665 -0.663665 -0.345106 92 92 92
-1.800000 8.680000 10.000000 0.663665 -0.663665 -0.345106 92 92 92
-3.600000 6.880000 10.000000 0.663665 -0.663665 -0.345106 92 92 92
2.000000 1.000000 9.000000 0.000000 0.901523 -0.432731 92 92 92
-2.000000 1.000000 9.000000 0.000000 0.901523 -0.432731 92 92 92
-1.800000 1.480000 10.000000 0.000000 0.901523 -0.432731 92 92 92
1.800000 1.480000 10.000000 0.000000 0.901523 -0.432731 92 92 92
-4.000000 3.000000 9.000000 0.928477 0.000000 -0.371391 92 92 92
-4.000000 7.000000 9.000000 0.928477 0.000000 -0.371391 92 92 92
-3.600000 6.880000 10.000000 0.928477 0.000000 -0.371391 92 92 92
-3.600000 3.280000 10.000000 0.928477 0.000000 -0.371391 92 92 92
1.000000 9.000000 2.000000 0.000000 -1.000000 0.000000 92 92 92
1.000000 9.000000 0.000000 0.000000 -1.000000 0.000000 92 92 92
2.000000 9.000000 0.000000 0.000000 -1.000000 0.000000 92 92 92
2.000000 9.000000 9.000000 0.000000 -1.000000 0.000000 92 92 92
-2.000000 9.000000 9.000000 0.000000 -1.000000 0.000000 92 92 92
-2.000000 9.000000 0.000000 0.000000 -1.000000 0.000000 92 92 92
-1.000000 9.000000 0.000000 0.000000 -1.000000 0.000000 92 92 92
-1.000000 9.000000 2.000000 -0.000000 -1.000000 -0.000000 92 92 92
1.000000 9.000000 2.000000 0.000000 -0.000000 -1.000000 92 92 92
-1.000000 9.000000 2.000000 0.000000 -0.000000 -1.000000 92 92 92
-1.000000 10.000000 2.000000 0.000000 -0.000000 -1.000000 92 92 92
1.000000 10.000000 2.000000 0.000000 -0.000000 -1.000000 92 92 92
1.000000 9.000000 0.000000 -1.000000 -0.000000 -0.000000 92 92 92
1.000000 9.000000 2.000000 -1.000000 -0.000000 -0.000000 92 92 92
1.000000 10.000000 2.000000 -1.000000 -0.000000 -0.000000 92 92 92
1.000000 10.000000 0.000000 -1.000000 -0.000000 -0.000000 92 92 92
-1.000000 9.000000 2.000000 1.000000 0.000000 -0.000000 92 92 92
-1.000000 9.000000 0.000000 1.000000 0.000000 -0.000000 92 92 92
-1.000000 10.000000 0.000000 1.000000 0.000000 -0.000000 92 92 92
-1.000000 10.000000 2.000000 1.000000 0.000000 -0.000000 92 92 92
1.800000 8.680000 10.000000 -0.318064 -0.318064 -0.893124 92 92 92
3.600000 6.880000 10.000000 -0.318064 -0.318064 -0.893124 92 92 92
1.440000 6.232000 11.000000 -0.318064 -0.318064 -0.893124 92 92 92
0.720000 6.952000 11.000000 -0.318064 -0.318064 -0.893124 92 92 92
-1.800000 1.480000 10.000000 0.254135 0.254135 -0.933183 92 92 92
-3.600000 3.280000 10.000000 0.254135 0.254135 -0.933183 92 92 92
-1.440000 4.792000 11.000000 0.254135 0.254135 -0.933183 92 92 92
-0.720000 4.072000 11.000000 0.254135 0.254135 -0.933183 92 92 92
1.800000 1.480000 10.000000 0.000000 0.359944 -0.932974 92 92 92
-1.800000 1.480000 10.000000 0.000000 0.359944 -0.932974 92 92 92
-0.720000 4.072000 11.000000 0.000000 0.359944 -0.932974 92 92 92
0.720000 4.072000 11.000000 0.000000 0.359944 -0.932974 92 92 92
3.600000 6.880000 10.000000 -0.420124 0.000000 -0.907467 92 92 92
3.600000 3.280000 10.000000 -0.420124 0.000000 -0.907467 92 92 92
1.440000 4.792000 11.000000 -0.420124 0.000000 -0.907467 92 92 92
1.440000 6.232000 11.000000 -0.420124 0.000000 -0.907467 92 92 92
2.000000 1.000000 0.000000 0.000000 1.000000 0.000000 92 92 92
1.000000 1.000000 0.000000 0.000000 1.000000 0.000000 92 92 92
1.000000 1.000000 2.000000 0.000000 1.000000 0.000000 92 92 92
-2.000000 1.000000 0.000000 0.000000 1.000000 0.000000 92 92 92
-1.000000 1.000000 2.000000 0.000000 1.000000 0.000000 92 92 92
-1.000000 1.000000 0.000000 0.000000 1.000000 0.000000 92 92 92
4.000000 7.000000 0.000000 -0.000000 0.000000 1.000000 64 64 64
2.000000 9.000000 0.000000 -0.000000 0.000000 1.000000 64 64 64
-2.000000 9.000000 0.000000 0.000000 0.000000 1.000000 64 64 64
-4.000000 7.000000 0.000000 0.000000 0.000000 1.000000 64 64 64
2.000000 1.000000 0.000000 0.000000 0.000000 1.000000 64 64 64
4.000000 3.000000 0.000000 0.000000 0.000000 1.000000 64 64 64
-4.000000 3.000000 0.000000 0.000000 0.000000 1.000000 64 64 64
-2.000000 1.000000 0.000000 0.000000 0.000000 1.000000 64 64 64
0.720000 4.072000 11.000000 0.000000 0.000000 -1.000000 92 92 92
-0.720000 4.072000 11.000000 0.000000 0.000000 -1.000000 92 92 92
-1.440000 4.792000 11.000000 0.000000 0.000000 -1.000000 92 92 92
-1.440000 6.232000 11.000000 0.000000 -0.000000 -1.000000 92 92 92
-0.720000 6.952000 11.000000 0.000000 -0.000000 -1.000000 92 92 92
0.720000 6.952000 11.000000 0.000000 0.000000 -1.000000 92 92 92
1.440000 6.232000 11.000000 0.000000 0.000000 -1.000000 92 92 92
1.440000 4.792000 11.000000 0.000000 0.000000 -1.000000 92 92 92
4 0 1 2 3
4 4 5 6 7
4 8 9 10 11
4 12 13 14 15
3 16 17 18
3 18 19 20
3 18 20 16
4 21 22 23 24
4 25 26 27 28
3 29 30 31
3 31 32 33
3 31 33 29
4 34 35 36 37
4 38 39 40 41
4 42 43 44 45
4 46 47 48 49
4 50 51 52 53
4 54 55 56 57
4 58 59 60 61
4 62 63 64 65
4 66 67 68 69
4 70 71 72 73
4 74 75 76 77
4 78 79 80 81
4 82 83 84 85
4 86 87 88 89
4 90 91 92 93
4 94 95 96 97
3 98 99 100
3 100 101 102
3 102 103 104
3 102 104 105
3 98 100 102
3 98 102 105
4 106 107 108 109
4 110 111 112 113
4 114 115 116 117
4 118 119 120 121
4 122 123 124 125
4 126 127 128 129
4 130 131 132 133
4 134 135 136 54
4 137 55 138 139
3 140 141 21
3 24 142 143
3 140 21 24
3 144 145 140
3 146 147 144
3 24 143 146
3 144 140 24
3 24 146 144
3 148 149 150
3 150 151 152
3 152 153 154
3 154 155 148
3 148 150 152
3 152 154 148
