ply
format ascii 1.0
comment Created by Blender 2.79 (sub 0) - www.blender.org, source file: ''
element vertex 49
property float x
property float y
property float z
property float nx
property float ny
property float nz
property uchar red
property uchar green
property uchar blue
element face 16
property list uchar uint vertex_indices
end_header
-1.000000 0.000000 0.000000 0.000000 0.000000 1.000000 64 64 64
1.000000 0.000000 0.000000 0.000000 0.000000 1.000000 64 64 64
1.000000 1.000000 0.000000 0.000000 0.000000 1.000000 64 64 64
-1.000000 1.000000 0.000000 0.000000 0.000000 1.000000 64 64 64
1.000000 0.000000 0.000000 -1.000000 0.000000 0.000000 92 92 92
1.000000 0.000000 2.000000 -1.000000 0.000000 0.000000 92 92 92
1.000000 1.000000 2.000000 -1.000000 0.000000 0.000000 92 92 92
1.000000 1.000000 0.000000 -1.000000 0.000000 0.000000 92 92 92
1.000000 0.000000 2.000000 -0.000000 0.000000 -1.000000 92 92 92
-1.000000 0.000000 2.000000 -0.000000 0.000000 -1.000000 92 92 92
-1.000000 1.000000 2.000000 -0.000000 0.000000 -1.000000 92 92 92
1.000000 1.000000 2.000000 -0.000000 0.000000 -1.000000 92 92 92
-1.000000 0.000000 2.000000 1.000000 -0.000000 -0.000000 92 92 92
-1.000000 0.000000 0.000000 1.000000 -0.000000 -0.000000 92 92 92
-1.000000 1.000000 0.000000 1.000000 -0.000000 -0.000000 92 92 92
-1.000000 1.000000 2.000000 1.000000 -0.000000 -0.000000 92 92 92
-2.000000 1.000000 0.000000 0.000000 -0.000000 1.000000 64 64 64
2.000000 1.000000 -0.000000 0.000000 -0.000000 1.000000 64 64 64
2.000000 6.000000 0.000000 0.000000 -0.000000 1.000000 64 64 64
-2.000000 6.000000 0.000000 0.000000 -0.000000 1.000000 64 64 64
-2.000000 1.000000 3.000000 1.000000 0.000000 0.000000 92 92 92
-2.000000 1.000000 0.000000 1.000000 0.000000 0.000000 92 92 92
-2.000000 6.000000 0.000000 1.000000 0.000000 0.000000 92 92 92
-2.000000 6.000000 3.000000 1.000000 0.000000 0.000000 92 92 92
2.000000 1.000000 -0.000000 -1.000000 0.000000 0.000000 92 92 92
2.000000 1.000000 2.999999 -1.000000 0.000000 0.000000 92 92 92
2.000000 6.000000 3.000000 -1.000000 0.000000 0.000000 92 92 92
2.000000 6.000000 0.000000 -1.000000 0.000000 0.000000 92 92 92
2.000000 1.000000 2.999999 -0.000000 0.000000 -1.000000 92 92 92
-2.000000 1.000000 3.000000 -0.000000 0.000000 -1.000000 92 92 92
-2.000000 6.000000 3.000000 -0.000000 0.000000 -1.000000 92 92 92
2.000000 6.000000 3.000000 -0.000000 0.000000 -1.000000 92 92 92
2.000000 6.000000 0.000000 0.000000 -1.000000 0.000000 92 92 92
2.000000 6.000000 3.000000 0.000000 -1.000000 0.000000 92 92 92
-2.000000 6.000000 3.000000 0.000000 -1.000000 0.000000 92 92 92
-2.000000 6.000000 0.000000 0.000000 -1.000000 0.000000 92 92 92
1.000000 1.000000 2.000000 -0.000000 1.000000 0.000000 92 92 92
-1.000000 1.000000 2.000000 -0.000000 1.000000 0.000000 92 92 92
-1.000000 1.000000 3.000000 -0.000000 1.000000 0.000000 92 92 92
1.000000 1.000000 3.000000 -0.000000 1.000000 0.000000 92 92 92
1.000000 1.000000 0.000000 0.894427 -0.447214 0.000000 92 92 92
1.000000 1.000000 2.000000 0.894427 -0.447214 0.000000 92 92 92
1.000000 1.000000 3.000000 0.894427 -0.447214 0.000000 92 92 92
2.000000 1.000000 2.999999 -0.000000 1.000000 0.000000 92 92 92
2.000000 1.000000 -0.000000 -0.000000 1.000000 0.000000 92 92 92
1.000000 1.000000 0.000000 -0.000000 1.000000 0.000000 92 92 92
-1.000000 1.000000 0.000000 -0.000000 1.000000 0.000000 92 92 92
-2.000000 1.000000 0.000000 -0.000000 1.000000 0.000000 92 92 92
-2.000000 1.000000 3.000000 -0.000000 1.000000 0.000000 92 92 92
4 0 1 2 3
4 4 5 6 7
4 8 9 10 11
4 12 13 14 15
4 16 17 18 19
4 20 21 22 23
4 24 25 26 27
4 28 29 30 31
4 32 33 34 35
4 36 37 38 39
3 40 41 42
3 39 43 44
3 39 44 45
3 46 47 48
3 48 38 37
3 48 37 46
