ply
format ascii 1.0
comment Created by Blender 2.79 (sub 0) - www.blender.org, source file: 'up_chamber.blend'
element vertex 214
property float x
property float y
property float z
property float nx
property float ny
property float nz
property uchar red
property uchar green
property uchar blue
element face 81
property list uchar uint vertex_indices
end_header
-3.000000 2.000000 0.000000 0.000000 0.000000 1.000000 64 64 64
3.000000 2.000000 0.000000 0.000000 0.000000 1.000000 64 64 64
3.000000 8.000000 0.000000 0.000000 0.000000 1.000000 64 64 64
-3.000000 8.000000 0.000000 0.000000 0.000000 1.000000 64 64 64
2.000000 9.000000 0.000000 0.000000 0.000000 1.000000 64 64 64
-2.000000 9.000000 0.000000 0.000000 0.000000 1.000000 64 64 64
-4.000000 7.000000 0.000000 -0.000000 0.000000 1.000000 64 64 64
-4.000000 3.000000 0.000000 -0.000000 0.000000 1.000000 64 64 64
-1.000000 0.000000 0.000000 0.000000 -0.000000 1.000000 64 64 64
1.000000 0.000000 0.000000 0.000000 -0.000000 1.000000 64 64 64
1.000000 1.000000 0.000000 0.000000 -0.000000 1.000000 64 64 64
-1.000000 1.000000 0.000000 0.000000 -0.000000 1.000000 64 64 64
-2.000000 1.000000 0.000000 0.000000 -0.000000 1.000000 64 64 64
2.000000 1.000000 0.000000 0.000000 -0.000000 1.000000 64 64 64
1.000000 9.000000 8.000000 0.000000 -1.000000 -0.000000 92 92 92
2.000000 9.000000 8.000000 0.000000 -1.000000 -0.000000 92 92 92
2.000000 9.000000 10.000000 0.000000 -1.000000 -0.000000 92 92 92
1.000000 9.000000 10.000000 0.000000 -1.000000 -0.000000 92 92 92
-4.000000 3.000000 8.000000 1.000000 0.000000 0.000000 92 92 92
-4.000000 7.000000 8.000000 1.000000 0.000000 0.000000 92 92 92
-4.000000 7.000000 10.000000 1.000000 0.000000 0.000000 92 92 92
-4.000000 3.000000 10.000000 1.000000 0.000000 0.000000 92 92 92
4.000000 7.000000 8.000000 -1.000000 0.000000 0.000000 92 92 92
4.000000 3.000000 8.000000 -1.000000 0.000000 0.000000 92 92 92
4.000000 3.000000 10.000000 -1.000000 0.000000 0.000000 92 92 92
4.000000 7.000000 10.000000 -1.000000 0.000000 0.000000 92 92 92
-1.000000 1.000000 0.000000 0.000000 1.000000 -0.000000 92 92 92
-2.000000 1.000000 0.000000 0.000000 1.000000 -0.000000 92 92 92
-2.000000 1.000000 10.000000 0.000000 1.000000 -0.000000 92 92 92
-1.000000 1.000000 10.000000 0.000000 1.000000 -0.000000 92 92 92
2.000000 1.000000 0.000000 0.000000 1.000000 0.000000 92 92 92
1.000000 1.000000 0.000000 0.000000 1.000000 0.000000 92 92 92
1.000000 1.000000 10.000000 0.000000 1.000000 0.000000 92 92 92
2.000000 1.000000 10.000000 0.000000 1.000000 0.000000 92 92 92
1.000000 1.000000 2.000000 -0.000000 1.000000 0.000000 92 92 92
-1.000000 1.000000 2.000000 -0.000000 1.000000 0.000000 92 92 92
4.000000 3.000000 0.000000 0.000000 0.000000 1.000000 64 64 64
4.000000 7.000000 0.000000 0.000000 0.000000 1.000000 64 64 64
2.000000 1.000000 10.000000 -0.707107 0.707107 0.000000 92 92 92
4.000000 3.000000 10.000000 -0.707107 0.707107 0.000000 92 92 92
4.000000 3.000000 8.000000 -0.707107 0.707107 0.000000 92 92 92
4.000000 3.000000 0.000000 -0.707107 0.707107 -0.000000 92 92 92
3.000000 2.000000 0.000000 -0.707107 0.707107 -0.000000 92 92 92
2.000000 1.000000 0.000000 -0.707107 0.707107 0.000000 92 92 92
-4.000000 3.000000 8.000000 0.707107 0.707107 0.000000 92 92 92
-4.000000 3.000000 10.000000 0.707107 0.707107 0.000000 92 92 92
-2.000000 1.000000 10.000000 0.707107 0.707107 0.000000 92 92 92
-2.000000 1.000000 0.000000 0.707107 0.707107 -0.000000 92 92 92
-3.000000 2.000000 0.000000 0.707107 0.707107 -0.000000 92 92 92
-4.000000 3.000000 0.000000 0.707107 0.707107 0.000000 92 92 92
-4.000000 7.000000 8.000000 0.707107 -0.707107 0.000000 92 92 92
-2.000000 9.000000 8.000000 0.707107 -0.707107 0.000000 92 92 92
-2.000000 9.000000 10.000000 0.707107 -0.707107 0.000000 92 92 92
-4.000000 7.000000 10.000000 0.707107 -0.707107 0.000000 92 92 92
4.000000 7.000000 8.000000 -0.707107 -0.707107 0.000000 92 92 92
2.000000 9.000000 8.000000 -0.707107 -0.707107 0.000000 92 92 92
2.000000 9.000000 0.000000 -0.707107 -0.707107 0.000000 92 92 92
4.000000 7.000000 0.000000 -0.707107 -0.707107 0.000000 92 92 92
1.000000 0.000000 2.000000 -0.000000 0.000000 -1.000000 92 92 92
-1.000000 -0.000000 2.000000 -0.000000 0.000000 -1.000000 92 92 92
-1.000000 1.000000 2.000000 -0.000000 0.000000 -1.000000 92 92 92
1.000000 1.000000 2.000000 -0.000000 0.000000 -1.000000 92 92 92
1.000000 0.000000 0.000000 -1.000000 -0.000000 -0.000000 92 92 92
1.000000 0.000000 2.000000 -1.000000 -0.000000 -0.000000 92 92 92
1.000000 1.000000 2.000000 -1.000000 -0.000000 -0.000000 92 92 92
1.000000 1.000000 0.000000 -1.000000 -0.000000 -0.000000 92 92 92
-1.000000 -0.000000 2.000000 1.000000 0.000000 -0.000000 92 92 92
-1.000000 0.000000 0.000000 1.000000 0.000000 -0.000000 92 92 92
-1.000000 1.000000 0.000000 1.000000 0.000000 -0.000000 92 92 92
-1.000000 1.000000 2.000000 1.000000 0.000000 -0.000000 92 92 92
-1.000000 9.000000 8.000000 0.000000 0.000000 1.000000 64 64 64
1.000000 9.000000 8.000000 0.000000 0.000000 1.000000 64 64 64
1.000000 10.000000 8.000000 0.000000 0.000000 1.000000 64 64 64
-1.000000 10.000000 8.000000 0.000000 0.000000 1.000000 64 64 64
1.000000 9.000000 10.000000 0.000000 -0.000000 -1.000000 92 92 92
-1.000000 9.000000 10.000000 0.000000 -0.000000 -1.000000 92 92 92
-1.000000 10.000000 10.000000 0.000000 -0.000000 -1.000000 92 92 92
1.000000 10.000000 10.000000 0.000000 -0.000000 -1.000000 92 92 92
1.000000 9.000000 8.000000 -1.000000 -0.000000 -0.000000 92 92 92
1.000000 9.000000 10.000000 -1.000000 -0.000000 -0.000000 92 92 92
1.000000 10.000000 10.000000 -1.000000 -0.000000 -0.000000 92 92 92
1.000000 10.000000 8.000000 -1.000000 -0.000000 -0.000000 92 92 92
-1.000000 9.000000 10.000000 1.000000 0.000000 -0.000000 92 92 92
-1.000000 9.000000 8.000000 1.000000 0.000000 -0.000000 92 92 92
-1.000000 10.000000 8.000000 1.000000 0.000000 -0.000000 92 92 92
-1.000000 10.000000 10.000000 1.000000 0.000000 -0.000000 92 92 92
4.000000 7.000000 10.000000 -0.707107 -0.707107 0.000000 92 92 92
2.000000 9.000000 10.000000 -0.707107 -0.707107 0.000000 92 92 92
-4.000000 7.000000 0.000000 0.707107 -0.707107 0.000000 92 92 92
-2.000000 9.000000 0.000000 0.707107 -0.707107 0.000000 92 92 92
4.000000 7.000000 0.000000 -1.000000 0.000000 -0.000000 92 92 92
4.000000 3.000000 0.000000 -1.000000 0.000000 -0.000000 92 92 92
-4.000000 3.000000 0.000000 1.000000 0.000000 0.000000 92 92 92
-4.000000 7.000000 0.000000 1.000000 0.000000 0.000000 92 92 92
-2.000000 9.000000 0.000000 0.000000 -1.000000 -0.000000 92 92 92
2.000000 9.000000 0.000000 0.000000 -1.000000 -0.000000 92 92 92
-2.000000 9.000000 8.000000 0.000000 -1.000000 -0.000000 92 92 92
-1.000000 9.000000 8.000000 0.000000 -1.000000 0.000000 92 92 92
-1.000000 9.000000 10.000000 0.000000 -1.000000 0.000000 92 92 92
-2.000000 9.000000 10.000000 0.000000 -1.000000 0.000000 92 92 92
-1.000000 9.000000 12.000000 0.000000 -1.000000 -0.000000 92 92 92
-2.000000 9.000000 12.000000 0.000000 -1.000000 -0.000000 92 92 92
1.000000 1.000000 12.000000 0.000000 1.000000 0.000000 92 92 92
2.000000 1.000000 12.000000 0.000000 1.000000 0.000000 92 92 92
-4.000000 7.000000 12.000000 1.000000 0.000000 0.000000 92 92 92
-4.000000 3.000000 12.000000 1.000000 0.000000 0.000000 92 92 92
4.000000 7.000000 12.000000 -0.707107 -0.707107 0.000000 92 92 92
2.000000 9.000000 12.000000 -0.707107 -0.707107 0.000000 92 92 92
2.000000 1.000000 12.000000 -0.707107 0.707107 0.000000 92 92 92
4.000000 3.000000 12.000000 -0.707107 0.707107 0.000000 92 92 92
-2.000000 9.000000 12.000000 0.707107 -0.707107 0.000000 92 92 92
-4.000000 7.000000 12.000000 0.707107 -0.707107 0.000000 92 92 92
4.000000 3.000000 12.000000 -1.000000 0.000000 0.000000 92 92 92
4.000000 7.000000 12.000000 -1.000000 0.000000 0.000000 92 92 92
2.000000 9.000000 12.000000 0.000000 -1.000000 -0.000000 92 92 92
1.000000 9.000000 12.000000 0.000000 -1.000000 -0.000000 92 92 92
-2.000000 1.000000 12.000000 0.000000 1.000000 0.000000 92 92 92
-1.000000 1.000000 12.000000 0.000000 1.000000 0.000000 92 92 92
-4.000000 3.000000 12.000000 0.707107 0.707107 0.000000 92 92 92
-2.000000 1.000000 12.000000 0.707107 0.707107 0.000000 92 92 92
-4.000000 7.000000 12.000000 0.539164 -0.539164 -0.646997 92 92 92
-2.000000 9.000000 12.000000 0.539164 -0.539164 -0.646997 92 92 92
-1.600000 8.200000 13.000000 0.539164 -0.539164 -0.646997 92 92 92
-3.200000 6.600000 13.000000 0.539164 -0.539164 -0.646997 92 92 92
-1.000000 1.000000 12.000000 0.000000 0.780869 -0.624695 92 92 92
-2.000000 1.000000 12.000000 0.000000 0.780869 -0.624695 92 92 92
-1.600000 1.800000 13.000000 0.000000 0.780869 -0.624695 92 92 92
-0.800000 1.800000 13.000000 0.000000 0.780869 -0.624695 92 92 92
-1.000000 9.000000 12.000000 0.000000 -0.780869 -0.624695 92 92 92
1.000000 9.000000 12.000000 0.000000 -0.780869 -0.624695 92 92 92
0.800000 8.200000 13.000000 0.000000 -0.780869 -0.624695 92 92 92
-0.800000 8.200000 13.000000 0.000000 -0.780869 -0.624695 92 92 92
-2.000000 1.000000 12.000000 0.539164 0.539164 -0.646997 92 92 92
-4.000000 3.000000 12.000000 0.539164 0.539164 -0.646997 92 92 92
-3.200000 3.400000 13.000000 0.539164 0.539164 -0.646997 92 92 92
-1.600000 1.800000 13.000000 0.539164 0.539164 -0.646997 92 92 92
2.000000 1.000000 12.000000 0.000000 0.780869 -0.624695 92 92 92
1.000000 1.000000 12.000000 0.000000 0.780869 -0.624695 92 92 92
0.800000 1.800000 13.000000 0.000000 0.780869 -0.624695 92 92 92
1.600000 1.800000 13.000000 0.000000 0.780869 -0.624695 92 92 92
2.000000 9.000000 12.000000 0.000000 -0.780869 -0.624695 92 92 92
1.600000 8.200000 13.000000 0.000000 -0.780869 -0.624695 92 92 92
-4.000000 3.000000 12.000000 0.780869 0.000000 -0.624695 92 92 92
-4.000000 7.000000 12.000000 0.780869 0.000000 -0.624695 92 92 92
-3.200000 6.600000 13.000000 0.780869 0.000000 -0.624695 92 92 92
-3.200000 3.400000 13.000000 0.780869 0.000000 -0.624695 92 92 92
4.000000 3.000000 12.000000 -0.539164 0.539164 -0.646997 92 92 92
2.000000 1.000000 12.000000 -0.539164 0.539164 -0.646997 92 92 92
1.600000 1.800000 13.000000 -0.539164 0.539164 -0.646997 92 92 92
3.200000 3.400000 13.000000 -0.539164 0.539164 -0.646997 92 92 92
2.000000 9.000000 12.000000 -0.539164 -0.539164 -0.646997 92 92 92
4.000000 7.000000 12.000000 -0.539164 -0.539164 -0.646997 92 92 92
3.200000 6.600000 13.000000 -0.539164 -0.539164 -0.646997 92 92 92
1.600000 8.200000 13.000000 -0.539164 -0.539164 -0.646997 92 92 92
-2.000000 9.000000 12.000000 0.000000 -0.780869 -0.624695 92 92 92
-1.600000 8.200000 13.000000 0.000000 -0.780869 -0.624695 92 92 92
4.000000 7.000000 12.000000 -0.780869 0.000000 -0.624695 92 92 92
4.000000 3.000000 12.000000 -0.780869 0.000000 -0.624695 92 92 92
3.200000 3.400000 13.000000 -0.780869 0.000000 -0.624695 92 92 92
3.200000 6.600000 13.000000 -0.780869 0.000000 -0.624695 92 92 92
0.800000 1.800000 13.000000 -0.000000 0.407651 -0.913138 92 92 92
-0.800000 1.800000 13.000000 -0.000000 0.407651 -0.913138 92 92 92
-0.240000 4.040000 14.000000 -0.000000 0.407651 -0.913138 92 92 92
0.240000 4.040000 14.000000 -0.000000 0.407651 -0.913138 92 92 92
-3.200000 6.600000 13.000000 0.274312 -0.274312 -0.921687 92 92 92
-1.600000 8.200000 13.000000 0.274312 -0.274312 -0.921687 92 92 92
-0.480000 5.960000 14.000000 0.274312 -0.274312 -0.921687 92 92 92
-0.960000 5.480000 14.000000 0.274312 -0.274312 -0.921687 92 92 92
-1.600000 1.800000 13.000000 0.000000 0.407651 -0.913138 92 92 92
-0.480000 4.040000 14.000000 0.000000 0.407651 -0.913138 92 92 92
-0.800000 8.200000 13.000000 0.000000 -0.407651 -0.913138 92 92 92
0.800000 8.200000 13.000000 0.000000 -0.407651 -0.913138 92 92 92
0.240000 5.960000 14.000000 0.000000 -0.407651 -0.913138 92 92 92
-0.240000 5.960000 14.000000 0.000000 -0.407651 -0.913138 92 92 92
-1.600000 1.800000 13.000000 0.274312 0.274312 -0.921687 92 92 92
-3.200000 3.400000 13.000000 0.274312 0.274312 -0.921687 92 92 92
-0.960000 4.520000 14.000000 0.274312 0.274312 -0.921687 92 92 92
-0.480000 4.040000 14.000000 0.274312 0.274312 -0.921687 92 92 92
1.600000 1.800000 13.000000 0.000000 0.407651 -0.913138 92 92 92
0.480000 4.040000 14.000000 0.000000 0.407651 -0.913138 92 92 92
1.600000 8.200000 13.000000 0.000000 -0.407651 -0.913138 92 92 92
0.480000 5.960000 14.000000 0.000000 -0.407651 -0.913138 92 92 92
-3.200000 3.400000 13.000000 0.407651 0.000000 -0.913138 92 92 92
-3.200000 6.600000 13.000000 0.407651 0.000000 -0.913138 92 92 92
-0.960000 5.480000 14.000000 0.407651 0.000000 -0.913138 92 92 92
-0.960000 4.520000 14.000000 0.407651 0.000000 -0.913138 92 92 92
3.200000 3.400000 13.000000 -0.274312 0.274312 -0.921687 92 92 92
1.600000 1.800000 13.000000 -0.274312 0.274312 -0.921687 92 92 92
0.480000 4.040000 14.000000 -0.274312 0.274312 -0.921687 92 92 92
0.960000 4.520000 14.000000 -0.274312 0.274312 -0.921687 92 92 92
1.600000 8.200000 13.000000 -0.274312 -0.274312 -0.921687 92 92 92
3.200000 6.600000 13.000000 -0.274312 -0.274312 -0.921687 92 92 92
0.960000 5.480000 14.000000 -0.274312 -0.274312 -0.921687 92 92 92
0.480000 5.960000 14.000000 -0.274312 -0.274312 -0.921687 92 92 92
-1.600000 8.200000 13.000000 0.000000 -0.407651 -0.913138 92 92 92
-0.480000 5.960000 14.000000 0.000000 -0.407651 -0.913138 92 92 92
3.200000 6.600000 13.000000 -0.407651 0.000000 -0.913138 92 92 92
3.200000 3.400000 13.000000 -0.407651 0.000000 -0.913138 92 92 92
0.960000 4.520000 14.000000 -0.407651 0.000000 -0.913138 92 92 92
0.960000 5.480000 14.000000 -0.407651 0.000000 -0.913138 92 92 92
-0.960000 4.520000 14.000000 0.000000 -0.000000 -1.000000 92 92 92
-0.960000 5.480000 14.000000 0.000000 -0.000000 -1.000000 92 92 92
-0.480000 5.960000 14.000000 0.000000 -0.000000 -1.000000 92 92 92
-0.240000 5.960000 14.000000 0.000000 0.000000 0.000000 92 92 92
0.240000 5.960000 14.000000 0.000000 0.000000 0.000000 92 92 92
0.480000 5.960000 14.000000 0.000000 0.000000 0.000000 92 92 92
-0.240000 5.960000 14.000000 -0.000000 0.000000 -1.000000 92 92 92
-0.240000 4.040000 14.000000 0.000000 0.000000 -1.000000 92 92 92
-0.480000 4.040000 14.000000 0.000000 0.000000 -1.000000 92 92 92
0.960000 4.520000 14.000000 0.000000 0.000000 -1.000000 92 92 92
0.480000 4.040000 14.000000 0.000000 0.000000 -1.000000 92 92 92
0.240000 4.040000 14.000000 0.000000 0.000000 -1.000000 92 92 92
0.480000 5.960000 14.000000 -0.000000 0.000000 -1.000000 92 92 92
0.960000 5.480000 14.000000 0.000000 0.000000 -1.000000 92 92 92
4 0 1 2 3
4 3 2 4 5
4 0 3 6 7
4 8 9 10 11
4 1 0 12 13
4 14 15 16 17
4 18 19 20 21
4 22 23 24 25
4 26 27 28 29
4 30 31 32 33
4 29 32 34 35
4 1 36 37 2
3 38 39 40
3 40 41 42
3 42 43 38
3 40 42 38
3 44 45 46
3 46 47 48
3 48 49 44
3 46 48 44
4 50 51 52 53
4 54 55 56 57
4 58 59 60 61
4 62 63 64 65
4 66 67 68 69
4 70 71 72 73
4 74 75 76 77
4 78 79 80 81
4 82 83 84 85
4 86 87 55 54
4 88 89 51 50
4 90 91 23 22
4 92 93 19 18
4 94 95 15 96
4 97 98 99 96
4 99 98 100 101
4 33 32 102 103
4 21 20 104 105
4 87 86 106 107
4 39 38 108 109
4 53 52 110 111
4 25 24 112 113
4 17 16 114 115
4 29 28 116 117
4 32 29 117 102
4 98 17 115 100
4 46 45 118 119
4 120 121 122 123
4 124 125 126 127
4 128 129 130 131
4 132 133 134 135
4 136 137 138 139
4 129 140 141 130
4 142 143 144 145
4 146 147 148 149
4 150 151 152 153
4 154 128 131 155
4 156 157 158 159
4 137 124 127 138
4 160 161 162 163
4 164 165 166 167
4 161 168 169 162
4 170 171 172 173
4 174 175 176 177
4 178 160 163 179
4 171 180 181 172
4 182 183 184 185
4 186 187 188 189
4 190 191 192 193
4 194 170 173 195
4 196 197 198 199
3 200 201 202
3 203 204 205
3 200 202 206
3 207 208 200
3 209 210 211
3 211 207 200
3 200 206 212
3 212 213 209
3 209 211 200
3 212 209 200
