ply
format ascii 1.0
comment Created by Blender 2.79 (sub 0) - www.blender.org, source file: 'bench.blend'
element vertex 348
property float x
property float y
property float z
property float nx
property float ny
property float nz
property uchar red
property uchar green
property uchar blue
element face 122
property list uchar uint vertex_indices
end_header
0.008777 -0.469824 1.559813 0.000000 0.000000 -1.000000 129 129 129
0.008777 -0.639688 1.559813 0.000000 0.000000 -1.000000 129 129 129
-1.947614 -0.639688 1.559813 0.000000 0.000000 -1.000000 129 129 129
-1.739396 -0.469824 1.559813 -0.000000 0.000000 -1.000000 129 129 129
-1.156672 -0.469824 1.559813 -0.000000 0.000000 -1.000000 129 129 129
-0.573947 -0.469824 1.559813 0.000000 0.000000 -1.000000 129 129 129
0.008777 0.794560 1.559813 -0.000000 -0.000000 -1.000000 129 129 129
0.008777 0.964424 1.559813 -0.000000 -0.000000 -1.000000 129 129 129
1.965168 0.964424 1.559813 -0.000000 -0.000000 -1.000000 129 129 129
1.756949 0.794560 1.559813 0.000000 0.000000 -1.000000 129 129 129
1.174225 0.794560 1.559813 0.000000 0.000000 -1.000000 129 129 129
0.591501 0.794560 1.559813 0.000000 -0.000000 -1.000000 129 129 129
1.968777 -0.675264 1.599813 0.000000 -1.000000 0.000000 129 129 129
1.968777 -0.675264 2.063716 0.000000 -1.000000 0.000000 129 129 129
0.008777 -0.675264 2.063716 0.000000 -1.000000 0.000000 129 129 129
0.008777 -0.675264 1.599813 0.000000 -1.000000 0.000000 129 129 129
0.008777 0.960000 2.103716 0.000000 -0.000000 1.000000 129 129 129
-1.951223 0.960000 2.103716 0.000000 -0.000000 1.000000 129 129 129
-1.951223 -0.635264 2.103716 0.000000 -0.000000 1.000000 129 129 129
0.008777 -0.635264 2.103716 0.000000 -0.000000 1.000000 129 129 129
-1.951223 -0.675264 2.063716 0.000000 -1.000000 0.000000 129 129 129
-1.951223 -0.675264 1.599813 0.000000 -1.000000 0.000000 129 129 129
-1.951223 1.000000 1.599813 0.000000 1.000000 0.000000 129 129 129
-1.951223 1.000000 2.063716 0.000000 1.000000 0.000000 129 129 129
0.008777 1.000000 2.063716 0.000000 1.000000 0.000000 129 129 129
0.008777 1.000000 1.599813 0.000000 1.000000 0.000000 129 129 129
-1.156672 0.264853 1.559813 0.000000 -1.000000 0.000000 97 77 48
-1.739396 0.264853 1.559813 0.000000 -1.000000 0.000000 97 77 48
-1.739396 0.264853 1.407441 0.000000 -1.000000 0.000000 97 77 48
-1.156672 0.264853 1.407441 0.000000 -1.000000 0.000000 97 77 48
-1.991223 -0.635264 1.599813 -1.000000 -0.000000 0.000000 129 129 129
-1.991223 -0.635264 2.063716 -1.000000 -0.000000 0.000000 129 129 129
-1.991223 0.960000 2.063716 -1.000000 -0.000000 0.000000 129 129 129
-1.991223 0.960000 1.599813 -1.000000 -0.000000 0.000000 129 129 129
2.008777 0.960000 1.599813 1.000000 -0.000000 0.000000 129 129 129
2.008777 0.960000 2.063716 1.000000 -0.000000 0.000000 129 129 129
2.008777 -0.635264 2.063716 1.000000 -0.000000 0.000000 129 129 129
2.008777 -0.635264 1.599813 1.000000 -0.000000 0.000000 129 129 129
1.965168 -0.639688 1.559813 -0.000000 0.000000 -1.000000 129 129 129
1.756949 -0.469824 1.559813 0.000000 0.000000 -1.000000 129 129 129
1.756949 0.059883 1.559813 0.000000 0.000000 -1.000000 129 129 129
1.756949 0.264853 1.559813 -0.000000 -0.000000 -1.000000 129 129 129
-0.573948 0.059883 1.559813 0.000000 0.000000 -1.000000 129 129 129
0.008777 0.059883 1.559813 0.000000 0.000000 -1.000000 129 129 129
1.968777 1.000000 2.063716 0.000000 1.000000 0.000000 129 129 129
1.968777 1.000000 1.599813 0.000000 1.000000 0.000000 129 129 129
1.968777 0.960000 2.103716 0.000000 -0.000000 1.000000 129 129 129
1.968777 -0.635264 2.103716 0.000000 -0.000000 1.000000 129 129 129
0.591501 -0.469824 1.559813 -0.000000 -0.000000 -1.000000 129 129 129
1.174225 -0.469824 1.559813 0.000000 0.000000 -1.000000 129 129 129
-1.739396 0.794560 1.559813 -0.000000 -0.000000 -1.000000 129 129 129
-1.947614 0.964424 1.559813 -0.000000 -0.000000 -1.000000 129 129 129
-0.573948 0.794560 1.559813 0.000000 0.000000 -1.000000 129 129 129
-1.156672 0.794560 1.559813 0.000000 -0.000000 -1.000000 129 129 129
1.756949 0.794560 1.559813 1.000000 0.000000 -0.000000 97 77 48
1.756949 0.264853 1.559813 1.000000 0.000000 -0.000000 97 77 48
1.756949 0.264853 1.407441 1.000000 0.000000 -0.000000 97 77 48
1.756949 0.794560 1.407441 1.000000 0.000000 -0.000000 97 77 48
-1.156672 0.059883 1.559813 0.000000 0.000000 -1.000000 129 129 129
1.756949 0.059883 1.559813 1.000000 0.000000 -0.000000 97 77 48
1.756949 -0.469824 1.559813 1.000000 0.000000 -0.000000 97 77 48
1.756949 -0.469824 1.407441 1.000000 0.000000 -0.000000 97 77 48
1.756949 0.059883 1.407441 1.000000 0.000000 -0.000000 97 77 48
-1.739396 0.264853 1.559813 0.000000 0.000000 -1.000000 129 129 129
-1.156672 0.264853 1.559813 0.000000 0.000000 -1.000000 129 129 129
-1.739396 0.059883 1.559813 0.000000 0.000000 -1.000000 129 129 129
-0.573948 0.264853 1.559813 0.000000 0.000000 -1.000000 129 129 129
0.008777 0.264853 1.559813 0.000000 0.000000 -1.000000 129 129 129
0.591501 0.059883 1.559813 0.000000 0.000000 -1.000000 129 129 129
1.174225 0.059883 1.559813 0.000000 0.000000 -1.000000 129 129 129
0.591501 0.264853 1.559813 0.000000 0.000000 -1.000000 129 129 129
1.174225 0.264853 1.559813 0.000000 0.000000 -1.000000 129 129 129
-1.739396 0.794560 1.559813 0.000000 1.000000 -0.000000 97 77 48
-1.156672 0.794560 1.559813 0.000000 1.000000 -0.000000 97 77 48
-1.156672 0.794560 1.407441 0.000000 1.000000 -0.000000 97 77 48
-1.739396 0.794560 1.407441 0.000000 1.000000 -0.000000 97 77 48
-1.739396 0.264853 1.407441 -0.758007 0.000000 -0.652247 97 77 48
-1.739396 0.794560 1.407441 -0.758007 0.000000 -0.652247 97 77 48
-1.622851 0.688618 1.271998 -0.758007 0.000000 -0.652247 97 77 48
-1.622851 0.370794 1.271998 -0.758007 0.000000 -0.652247 97 77 48
-1.739396 0.059883 1.407441 0.000000 0.787666 -0.616103 97 77 48
-1.156672 0.059883 1.407441 0.000000 0.787666 -0.616103 97 77 48
-1.273217 -0.046059 1.271998 0.000000 0.787666 -0.616103 97 77 48
-1.622851 -0.046059 1.271998 0.000000 0.787666 -0.616103 97 77 48
1.756949 -0.469824 1.407441 0.000000 -0.787666 -0.616103 97 77 48
1.174225 -0.469824 1.407441 0.000000 -0.787666 -0.616103 97 77 48
1.290770 -0.363883 1.271998 0.000000 -0.787666 -0.616103 97 77 48
1.640404 -0.363883 1.271998 0.000000 -0.787666 -0.616103 97 77 48
-1.156672 0.264853 1.407441 0.000000 -0.787666 -0.616103 97 77 48
-1.739396 0.264853 1.407441 0.000000 -0.787666 -0.616103 97 77 48
-1.622851 0.370794 1.271998 0.000000 -0.787666 -0.616103 97 77 48
-1.273217 0.370794 1.271998 0.000000 -0.787666 -0.616103 97 77 48
1.756949 -0.469824 1.559813 0.000000 -1.000000 0.000000 97 77 48
1.174225 -0.469824 1.559813 0.000000 -1.000000 0.000000 97 77 48
1.174225 -0.469824 1.407441 0.000000 -1.000000 0.000000 97 77 48
1.756949 -0.469824 1.407441 0.000000 -1.000000 0.000000 97 77 48
-1.739396 0.059883 1.559813 0.000000 1.000000 -0.000000 97 77 48
-1.156672 0.059883 1.559813 0.000000 1.000000 -0.000000 97 77 48
-1.156672 0.059883 1.407441 0.000000 1.000000 -0.000000 97 77 48
-1.739396 0.059883 1.407441 0.000000 1.000000 -0.000000 97 77 48
1.756949 0.264853 1.559813 0.000000 -1.000000 0.000000 97 77 48
1.174225 0.264853 1.559813 0.000000 -1.000000 0.000000 97 77 48
1.174225 0.264853 1.407441 0.000000 -1.000000 0.000000 97 77 48
1.756949 0.264853 1.407441 0.000000 -1.000000 0.000000 97 77 48
-1.156672 0.059883 1.559813 1.000000 0.000000 0.000000 97 77 48
-1.156672 -0.469824 1.559813 1.000000 0.000000 0.000000 97 77 48
-1.156672 -0.469824 1.407441 1.000000 0.000000 0.000000 97 77 48
-1.156672 0.059883 1.407441 1.000000 0.000000 0.000000 97 77 48
1.174225 -0.469824 1.559813 -1.000000 0.000000 0.000000 97 77 48
1.174225 0.059883 1.559813 -1.000000 0.000000 0.000000 97 77 48
1.174225 0.059883 1.407441 -1.000000 0.000000 0.000000 97 77 48
1.174225 -0.469824 1.407441 -1.000000 0.000000 0.000000 97 77 48
1.174225 0.059883 1.559813 0.000000 1.000000 -0.000000 97 77 48
1.756949 0.059883 1.559813 0.000000 1.000000 -0.000000 97 77 48
1.756949 0.059883 1.407441 0.000000 1.000000 -0.000000 97 77 48
1.174225 0.059883 1.407441 0.000000 1.000000 -0.000000 97 77 48
-1.739396 0.264853 1.559813 -1.000000 0.000000 0.000000 97 77 48
-1.739396 0.794560 1.559813 -1.000000 0.000000 0.000000 97 77 48
-1.739396 0.794560 1.407441 -1.000000 0.000000 0.000000 97 77 48
-1.739396 0.264853 1.407441 -1.000000 0.000000 0.000000 97 77 48
-1.156672 0.794560 1.559813 1.000000 0.000000 -0.000000 97 77 48
-1.156672 0.264853 1.559813 1.000000 0.000000 -0.000000 97 77 48
-1.156672 0.264853 1.407441 1.000000 0.000000 -0.000000 97 77 48
-1.156672 0.794560 1.407441 1.000000 0.000000 -0.000000 97 77 48
1.174225 0.264853 1.559813 -1.000000 0.000000 0.000000 97 77 48
1.174225 0.794560 1.559813 -1.000000 0.000000 0.000000 97 77 48
1.174225 0.794560 1.407441 -1.000000 0.000000 0.000000 97 77 48
1.174225 0.264853 1.407441 -1.000000 0.000000 0.000000 97 77 48
1.174225 0.794560 1.559813 0.000000 1.000000 -0.000000 97 77 48
1.756949 0.794560 1.559813 0.000000 1.000000 -0.000000 97 77 48
1.756949 0.794560 1.407441 0.000000 1.000000 -0.000000 97 77 48
1.174225 0.794560 1.407441 0.000000 1.000000 -0.000000 97 77 48
-1.739396 -0.469824 1.559813 -1.000000 0.000000 0.000000 97 77 48
-1.739396 0.059883 1.559813 -1.000000 0.000000 0.000000 97 77 48
-1.739396 0.059883 1.407441 -1.000000 0.000000 0.000000 97 77 48
-1.739396 -0.469824 1.407441 -1.000000 0.000000 0.000000 97 77 48
-1.156672 -0.469824 1.559813 0.000000 -1.000000 0.000000 97 77 48
-1.739396 -0.469824 1.559813 0.000000 -1.000000 0.000000 97 77 48
-1.739396 -0.469824 1.407441 0.000000 -1.000000 0.000000 97 77 48
-1.156672 -0.469824 1.407441 0.000000 -1.000000 0.000000 97 77 48
-1.622851 0.688618 1.271998 0.000000 0.999895 -0.014505 97 77 48
-1.273217 0.688618 1.271998 0.000000 0.999895 -0.014505 97 77 48
-1.246468 0.674251 0.281577 0.000000 0.999895 -0.014505 97 77 48
-1.588807 0.674251 0.281577 0.000000 0.999895 -0.014505 97 77 48
-1.273217 -0.046059 1.271998 0.999636 0.000000 0.026998 97 77 48
-1.273216 -0.363883 1.271998 0.999636 0.000000 0.026998 97 77 48
-1.246468 -0.349515 0.281577 0.999636 0.000000 0.026998 97 77 48
-1.246468 -0.038322 0.281577 0.999636 0.000000 0.026998 97 77 48
1.290770 -0.046059 1.271998 0.000000 0.999969 0.007811 97 77 48
1.640404 -0.046059 1.271998 0.000000 0.999969 0.007811 97 77 48
1.606361 -0.038322 0.281577 0.000000 0.999969 0.007811 97 77 48
1.264021 -0.038322 0.281577 0.000000 0.999969 0.007811 97 77 48
-1.622851 -0.363883 1.271998 -0.999410 0.000000 -0.034353 97 77 48
-1.622851 -0.046059 1.271998 -0.999410 0.000000 -0.034353 97 77 48
-1.588807 -0.038322 0.281577 -0.999410 0.000000 -0.034353 97 77 48
-1.588807 -0.349515 0.281577 -0.999410 0.000000 -0.034353 97 77 48
1.174225 -0.469824 1.407441 -0.758007 0.000000 -0.652247 97 77 48
1.174225 0.059883 1.407441 -0.758007 0.000000 -0.652247 97 77 48
1.290770 -0.046059 1.271998 -0.758007 0.000000 -0.652247 97 77 48
1.290770 -0.363883 1.271998 -0.758007 0.000000 -0.652247 97 77 48
1.756949 0.059883 1.407441 0.758007 0.000000 -0.652247 97 77 48
1.756949 -0.469824 1.407441 0.758007 0.000000 -0.652247 97 77 48
1.640404 -0.363883 1.271998 0.758007 0.000000 -0.652247 97 77 48
1.640404 -0.046059 1.271998 0.758007 0.000000 -0.652247 97 77 48
1.174225 0.264853 1.407441 -0.758007 0.000000 -0.652247 97 77 48
1.174225 0.794560 1.407441 -0.758007 0.000000 -0.652247 97 77 48
1.290770 0.688618 1.271998 -0.758007 0.000000 -0.652247 97 77 48
1.290770 0.370794 1.271998 -0.758007 0.000000 -0.652247 97 77 48
1.174225 0.794560 1.407441 0.000000 0.787666 -0.616103 97 77 48
1.756949 0.794560 1.407441 0.000000 0.787666 -0.616103 97 77 48
1.640404 0.688618 1.271998 0.000000 0.787666 -0.616103 97 77 48
1.290770 0.688618 1.271998 0.000000 0.787666 -0.616103 97 77 48
1.756949 0.264853 1.407441 0.000000 -0.787666 -0.616103 97 77 48
1.174225 0.264853 1.407441 0.000000 -0.787666 -0.616103 97 77 48
1.290770 0.370794 1.271998 0.000000 -0.787666 -0.616103 97 77 48
1.640404 0.370794 1.271998 0.000000 -0.787666 -0.616103 97 77 48
-1.156672 -0.469824 1.407441 0.000000 -0.787666 -0.616103 97 77 48
-1.739396 -0.469824 1.407441 0.000000 -0.787666 -0.616103 97 77 48
-1.622851 -0.363883 1.271998 0.000000 -0.787666 -0.616103 97 77 48
-1.273216 -0.363883 1.271998 0.000000 -0.787666 -0.616103 97 77 48
-1.739396 -0.469824 1.407441 -0.758007 0.000000 -0.652247 97 77 48
-1.739396 0.059883 1.407441 -0.758007 0.000000 -0.652247 97 77 48
-1.622851 -0.046059 1.271998 -0.758007 0.000000 -0.652247 97 77 48
-1.622851 -0.363883 1.271998 -0.758007 0.000000 -0.652247 97 77 48
1.174225 0.059883 1.407441 0.000000 0.787666 -0.616103 97 77 48
1.756949 0.059883 1.407441 0.000000 0.787666 -0.616103 97 77 48
1.640404 -0.046059 1.271998 0.000000 0.787666 -0.616103 97 77 48
1.290770 -0.046059 1.271998 0.000000 0.787666 -0.616103 97 77 48
-1.156672 0.059883 1.407441 0.758007 0.000000 -0.652247 97 77 48
-1.156672 -0.469824 1.407441 0.758007 0.000000 -0.652247 97 77 48
-1.273216 -0.363883 1.271998 0.758007 0.000000 -0.652247 97 77 48
-1.273217 -0.046059 1.271998 0.758007 0.000000 -0.652247 97 77 48
-1.739396 0.794560 1.407441 0.000000 0.787666 -0.616103 97 77 48
-1.156672 0.794560 1.407441 0.000000 0.787666 -0.616103 97 77 48
-1.273217 0.688618 1.271998 0.000000 0.787666 -0.616103 97 77 48
-1.622851 0.688618 1.271998 0.000000 0.787666 -0.616103 97 77 48
-1.156672 0.794560 1.407441 0.758007 0.000000 -0.652247 97 77 48
-1.156672 0.264853 1.407441 0.758007 0.000000 -0.652247 97 77 48
-1.273217 0.370794 1.271998 0.758007 0.000000 -0.652247 97 77 48
-1.273217 0.688618 1.271998 0.758007 0.000000 -0.652247 97 77 48
1.756949 0.794560 1.407441 0.758007 0.000000 -0.652247 97 77 48
1.756949 0.264853 1.407441 0.758007 0.000000 -0.652247 97 77 48
1.640404 0.370794 1.271998 0.758007 0.000000 -0.652247 97 77 48
1.640404 0.688618 1.271998 0.758007 0.000000 -0.652247 97 77 48
1.264021 -0.038322 0.281577 0.000000 0.000000 -1.000000 97 77 48
1.606361 -0.038322 0.281577 0.000000 0.000000 -1.000000 97 77 48
1.606361 -0.349515 0.281577 0.000000 0.000000 -1.000000 97 77 48
1.264021 -0.349515 0.281577 0.000000 0.000000 -1.000000 97 77 48
-1.588807 -0.038322 0.281577 0.000000 0.000000 -1.000000 97 77 48
-1.246468 -0.038322 0.281577 0.000000 0.000000 -1.000000 97 77 48
-1.246468 -0.349515 0.281577 0.000000 0.000000 -1.000000 97 77 48
-1.588807 -0.349515 0.281577 0.000000 0.000000 -1.000000 97 77 48
-1.588807 0.674251 0.281577 0.000000 0.000000 -1.000000 97 77 48
-1.246468 0.674251 0.281577 0.000000 0.000000 -1.000000 97 77 48
-1.246468 0.363058 0.281577 0.000000 0.000000 -1.000000 97 77 48
-1.588807 0.363058 0.281577 0.000000 0.000000 -1.000000 97 77 48
1.264021 0.674251 0.281577 0.000000 0.000000 -1.000000 97 77 48
1.606361 0.674251 0.281577 0.000000 0.000000 -1.000000 97 77 48
1.606361 0.363058 0.281577 0.000000 0.000000 -1.000000 97 77 48
1.264021 0.363058 0.281577 0.000000 0.000000 -1.000000 97 77 48
-1.273217 0.688618 1.271998 0.999636 0.000000 0.026998 97 77 48
-1.273217 0.370794 1.271998 0.999636 0.000000 0.026998 97 77 48
-1.246468 0.363058 0.281577 0.999636 0.000000 0.026998 97 77 48
-1.246468 0.674251 0.281577 0.999636 0.000000 0.026998 97 77 48
1.640404 0.688618 1.271998 0.999410 0.000000 -0.034353 97 77 48
1.640404 0.370794 1.271998 0.999410 0.000000 -0.034353 97 77 48
1.606361 0.363058 0.281577 0.999410 0.000000 -0.034353 97 77 48
1.606361 0.674251 0.281577 0.999410 0.000000 -0.034353 97 77 48
-1.273217 0.370794 1.271998 0.000000 -0.999969 0.007811 97 77 48
-1.622851 0.370794 1.271998 0.000000 -0.999969 0.007811 97 77 48
-1.588807 0.363058 0.281577 0.000000 -0.999969 0.007811 97 77 48
-1.246468 0.363058 0.281577 0.000000 -0.999969 0.007811 97 77 48
1.640404 -0.363883 1.271998 0.000000 -0.999895 -0.014505 97 77 48
1.290770 -0.363883 1.271998 0.000000 -0.999895 -0.014505 97 77 48
1.264021 -0.349515 0.281577 0.000000 -0.999895 -0.014505 97 77 48
1.606361 -0.349515 0.281577 0.000000 -0.999895 -0.014505 97 77 48
-1.622851 -0.046059 1.271998 0.000000 0.999969 0.007811 97 77 48
-1.273217 -0.046059 1.271998 0.000000 0.999969 0.007811 97 77 48
-1.246468 -0.038322 0.281577 0.000000 0.999969 0.007811 97 77 48
-1.588807 -0.038322 0.281577 0.000000 0.999969 0.007811 97 77 48
-1.622851 0.370794 1.271998 -0.999410 0.000000 -0.034353 97 77 48
-1.622851 0.688618 1.271998 -0.999410 0.000000 -0.034353 97 77 48
-1.588807 0.674251 0.281577 -0.999410 0.000000 -0.034353 97 77 48
-1.588807 0.363058 0.281577 -0.999410 0.000000 -0.034353 97 77 48
1.290770 -0.363883 1.271998 -0.999636 0.000000 0.026998 97 77 48
1.290770 -0.046059 1.271998 -0.999636 0.000000 0.026998 97 77 48
1.264021 -0.038322 0.281577 -0.999636 0.000000 0.026998 97 77 48
1.264021 -0.349515 0.281577 -0.999636 0.000000 0.026998 97 77 48
1.640404 -0.046059 1.271998 0.999410 0.000000 -0.034353 97 77 48
1.640404 -0.363883 1.271998 0.999410 0.000000 -0.034353 97 77 48
1.606361 -0.349515 0.281577 0.999410 0.000000 -0.034353 97 77 48
1.606361 -0.038322 0.281577 0.999410 0.000000 -0.034353 97 77 48
1.290770 0.370794 1.271998 -0.999636 0.000000 0.026998 97 77 48
1.290770 0.688618 1.271998 -0.999636 0.000000 0.026998 97 77 48
1.264021 0.674251 0.281577 -0.999636 0.000000 0.026998 97 77 48
1.264021 0.363058 0.281577 -0.999636 0.000000 0.026998 97 77 48
1.290770 0.688618 1.271998 0.000000 0.999895 -0.014505 97 77 48
1.640404 0.688618 1.271998 0.000000 0.999895 -0.014505 97 77 48
1.606361 0.674251 0.281577 0.000000 0.999895 -0.014505 97 77 48
1.264021 0.674251 0.281577 0.000000 0.999895 -0.014505 97 77 48
1.640404 0.370794 1.271998 0.000000 -0.999969 0.007811 97 77 48
1.290770 0.370794 1.271998 0.000000 -0.999969 0.007811 97 77 48
1.264021 0.363058 0.281577 0.000000 -0.999969 0.007811 97 77 48
1.606361 0.363058 0.281577 0.000000 -0.999969 0.007811 97 77 48
-1.273216 -0.363883 1.271998 0.000000 -0.999895 -0.014505 97 77 48
-1.622851 -0.363883 1.271998 0.000000 -0.999895 -0.014505 97 77 48
-1.588807 -0.349515 0.281577 0.000000 -0.999895 -0.014505 97 77 48
-1.246468 -0.349515 0.281577 0.000000 -0.999895 -0.014505 97 77 48
-1.947614 -0.639688 1.559813 -0.581272 -0.581270 -0.569428 129 129 129
-1.951223 -0.675264 1.599813 -0.581272 -0.581270 -0.569428 129 129 129
-1.991223 -0.635264 1.599813 -0.581272 -0.581270 -0.569428 129 129 129
-1.951223 -0.675264 2.063716 -0.577351 -0.577349 0.577351 129 129 129
-1.951223 -0.635264 2.103716 -0.577351 -0.577349 0.577351 129 129 129
-1.991223 -0.635264 2.063716 -0.577351 -0.577349 0.577351 129 129 129
-1.991223 0.960000 1.599813 -0.581272 0.581271 -0.569427 129 129 129
-1.951223 1.000000 1.599813 -0.581272 0.581271 -0.569427 129 129 129
-1.947614 0.964424 1.559813 -0.581272 0.581271 -0.569427 129 129 129
-1.951223 0.960000 2.103716 -0.577351 0.577350 0.577351 129 129 129
-1.951223 1.000000 2.063716 -0.577351 0.577350 0.577351 129 129 129
-1.991223 0.960000 2.063716 -0.577351 0.577350 0.577351 129 129 129
2.008777 -0.635264 1.599813 0.581271 -0.581269 -0.569429 129 129 129
1.968777 -0.675264 1.599813 0.581271 -0.581269 -0.569429 129 129 129
1.965168 -0.639688 1.559813 0.581271 -0.581269 -0.569429 129 129 129
1.968777 -0.635264 2.103716 0.577351 -0.577349 0.577351 129 129 129
1.968777 -0.675264 2.063716 0.577351 -0.577349 0.577351 129 129 129
2.008777 -0.635264 2.063716 0.577351 -0.577349 0.577351 129 129 129
1.968777 1.000000 1.599813 0.581272 0.581271 -0.569427 129 129 129
2.008777 0.960000 1.599813 0.581272 0.581271 -0.569427 129 129 129
1.965168 0.964424 1.559813 0.581272 0.581271 -0.569427 129 129 129
1.968777 0.960000 2.103716 0.577351 0.577350 0.577351 129 129 129
2.008777 0.960000 2.063716 0.577351 0.577350 0.577351 129 129 129
1.968777 1.000000 2.063716 0.577351 0.577350 0.577351 129 129 129
-1.947614 0.964424 1.559813 -0.675955 0.000000 -0.736943 129 129 129
-1.947614 -0.639688 1.559813 -0.675955 0.000000 -0.736943 129 129 129
-1.991223 -0.635264 1.599813 -0.675955 0.000000 -0.736943 129 129 129
-1.991223 0.960000 1.599813 -0.675955 0.000000 -0.736943 129 129 129
-1.951223 -0.675264 1.599813 -0.707108 -0.707106 0.000000 129 129 129
-1.951223 -0.675264 2.063716 -0.707108 -0.707106 0.000000 129 129 129
-1.991223 -0.635264 2.063716 -0.707108 -0.707106 0.000000 129 129 129
-1.991223 -0.635264 1.599813 -0.707108 -0.707106 0.000000 129 129 129
-1.951223 -0.635264 2.103716 -0.707107 0.000000 0.707107 129 129 129
-1.951223 0.960000 2.103716 -0.707107 0.000000 0.707107 129 129 129
-1.991223 0.960000 2.063716 -0.707107 0.000000 0.707107 129 129 129
-1.991223 -0.635264 2.063716 -0.707107 0.000000 0.707107 129 129 129
-1.951223 1.000000 2.063716 -0.707107 0.707106 0.000000 129 129 129
-1.951223 1.000000 1.599813 -0.707107 0.707106 0.000000 129 129 129
-1.991223 0.960000 1.599813 -0.707107 0.707106 0.000000 129 129 129
-1.991223 0.960000 2.063716 -0.707107 0.707106 0.000000 129 129 129
0.008777 0.964424 1.559813 0.000000 0.747219 -0.664577 129 129 129
-1.947614 0.964424 1.559813 0.000000 0.747219 -0.664577 129 129 129
-1.951223 1.000000 1.599813 0.000000 0.747219 -0.664577 129 129 129
0.008777 1.000000 1.599813 0.000000 0.747219 -0.664577 129 129 129
0.008777 0.960000 2.103716 0.000000 0.707106 0.707107 129 129 129
1.968777 0.960000 2.103716 0.000000 0.707106 0.707107 129 129 129
1.968777 1.000000 2.063716 0.000000 0.707106 0.707107 129 129 129
0.008777 1.000000 2.063716 0.000000 0.707106 0.707107 129 129 129
2.008777 0.960000 2.063716 0.707107 0.707106 0.000000 129 129 129
2.008777 0.960000 1.599813 0.707107 0.707106 0.000000 129 129 129
1.968777 1.000000 1.599813 0.707107 0.707106 0.000000 129 129 129
1.968777 1.000000 2.063716 0.707107 0.707106 0.000000 129 129 129
1.965168 -0.639688 1.559813 0.675955 -0.000000 -0.736943 129 129 129
1.965168 0.964424 1.559813 0.675955 -0.000000 -0.736943 129 129 129
2.008777 0.960000 1.599813 0.675955 -0.000000 -0.736943 129 129 129
2.008777 -0.635264 1.599813 0.675955 -0.000000 -0.736943 129 129 129
1.968777 0.960000 2.103716 0.707107 0.000000 0.707107 129 129 129
1.968777 -0.635264 2.103716 0.707107 0.000000 0.707107 129 129 129
2.008777 -0.635264 2.063716 0.707107 0.000000 0.707107 129 129 129
2.008777 0.960000 2.063716 0.707107 0.000000 0.707107 129 129 129
1.968777 -0.675264 2.063716 0.707108 -0.707106 0.000000 129 129 129
1.968777 -0.675264 1.599813 0.707108 -0.707106 0.000000 129 129 129
2.008777 -0.635264 1.599813 0.707108 -0.707106 0.000000 129 129 129
2.008777 -0.635264 2.063716 0.707108 -0.707106 0.000000 129 129 129
0.008777 -0.639688 1.559813 0.000000 -0.747218 -0.664579 129 129 129
1.965168 -0.639688 1.559813 0.000000 -0.747218 -0.664579 129 129 129
1.968777 -0.675264 1.599813 0.000000 -0.747218 -0.664579 129 129 129
0.008777 -0.675264 1.599813 0.000000 -0.747218 -0.664579 129 129 129
0.008777 -0.635264 2.103716 0.000000 -0.707106 0.707108 129 129 129
-1.951223 -0.635264 2.103716 0.000000 -0.707106 0.707108 129 129 129
-1.951223 -0.675264 2.063716 0.000000 -0.707106 0.707108 129 129 129
0.008777 -0.675264 2.063716 0.000000 -0.707106 0.707108 129 129 129
1.965168 0.964424 1.559813 0.000000 0.747219 -0.664577 129 129 129
1.968777 1.000000 1.599813 0.000000 0.747219 -0.664577 129 129 129
-1.951223 0.960000 2.103716 0.000000 0.707106 0.707107 129 129 129
-1.951223 1.000000 2.063716 0.000000 0.707106 0.707107 129 129 129
-1.947614 -0.639688 1.559813 0.000000 -0.747218 -0.664579 129 129 129
-1.951223 -0.675264 1.599813 0.000000 -0.747218 -0.664579 129 129 129
1.968777 -0.635264 2.103716 0.000000 -0.707106 0.707108 129 129 129
1.968777 -0.675264 2.063716 0.000000 -0.707106 0.707108 129 129 129
3 0 1 2
3 2 3 4
3 5 0 2
3 2 4 5
3 6 7 8
3 8 9 10
3 11 6 8
3 8 10 11
4 12 13 14 15
4 16 17 18 19
4 15 14 20 21
4 22 23 24 25
4 26 27 28 29
4 30 31 32 33
4 34 35 36 37
3 9 8 38
3 38 39 40
3 41 9 38
3 38 40 41
4 42 43 0 5
4 25 24 44 45
4 46 16 19 47
3 39 38 1
3 1 0 48
3 49 39 1
3 1 48 49
3 50 51 7
3 7 6 52
3 53 50 7
3 7 52 53
4 54 55 56 57
4 58 42 5 4
4 59 60 61 62
4 63 64 58 65
4 53 52 66 64
4 64 66 42 58
4 52 6 67 66
4 66 67 43 42
4 43 68 48 0
4 68 69 49 48
4 6 11 70 67
4 67 70 68 43
4 11 10 71 70
4 70 71 69 68
4 72 73 74 75
4 71 41 40 69
4 76 77 78 79
4 80 81 82 83
4 84 85 86 87
4 88 89 90 91
4 92 93 94 95
4 96 97 98 99
4 100 101 102 103
4 104 105 106 107
4 108 109 110 111
4 112 113 114 115
4 116 117 118 119
4 120 121 122 123
4 124 125 126 127
4 128 129 130 131
4 132 133 134 135
4 136 137 138 139
4 140 141 142 143
4 144 145 146 147
4 148 149 150 151
4 152 153 154 155
4 156 157 158 159
4 160 161 162 163
4 164 165 166 167
4 168 169 170 171
4 172 173 174 175
4 176 177 178 179
4 180 181 182 183
4 184 185 186 187
4 188 189 190 191
4 192 193 194 195
4 196 197 198 199
4 200 201 202 203
4 204 205 206 207
4 208 209 210 211
4 212 213 214 215
4 216 217 218 219
4 220 221 222 223
4 224 225 226 227
4 228 229 230 231
4 232 233 234 235
4 236 237 238 239
4 240 241 242 243
4 244 245 246 247
4 248 249 250 251
4 252 253 254 255
4 256 257 258 259
4 260 261 262 263
4 264 265 266 267
3 268 269 270
3 271 272 273
3 274 275 276
3 277 278 279
3 280 281 282
3 283 284 285
3 286 287 288
3 289 290 291
4 292 293 294 295
4 296 297 298 299
4 300 301 302 303
4 304 305 306 307
4 308 309 310 311
4 312 313 314 315
4 316 317 318 319
4 320 321 322 323
4 324 325 326 327
4 328 329 330 331
4 332 333 334 335
4 336 337 338 339
4 340 308 311 341
4 342 312 315 343
4 344 332 335 345
4 346 336 339 347
3 3 2 51
3 51 50 63
3 65 3 51
3 51 63 65
