ply
format ascii 1.0
comment Created by Blender 2.79 (sub 0) - www.blender.org, source file: 'bookStack brown.blend'
element vertex 176
property float x
property float y
property float z
property float nx
property float ny
property float nz
property uchar red
property uchar green
property uchar blue
element face 60
property list uchar uint vertex_indices
end_header
-2.740468 -3.947291 1.335240 -1.000000 -0.000000 0.000000 66 47 30
-2.740468 -3.947291 1.619263 -1.000000 -0.000000 0.000000 66 47 30
-2.740468 3.947291 1.619263 -1.000000 -0.000000 0.000000 66 47 30
-2.740468 3.947291 1.335240 -1.000000 -0.000000 0.000000 66 47 30
2.353704 -3.947291 1.335240 0.000000 -1.000000 0.000000 66 47 30
2.353704 -3.947291 1.619263 0.000000 -1.000000 0.000000 66 47 30
-2.740468 -3.947291 1.619263 0.000000 -1.000000 0.000000 66 47 30
-2.740468 -3.947291 1.335240 0.000000 -1.000000 0.000000 66 47 30
2.353704 3.947291 -0.005149 0.000000 0.000000 -1.000000 66 47 30
2.740468 3.947291 -0.005149 0.000000 0.000000 -1.000000 66 47 30
2.740468 -3.947291 -0.005149 0.000000 0.000000 -1.000000 66 47 30
2.353704 -3.947291 -0.005149 0.000000 0.000000 -1.000000 66 47 30
2.740468 3.947291 1.335240 1.000000 -0.000000 0.000000 66 47 30
2.740468 3.947291 1.619263 1.000000 -0.000000 0.000000 66 47 30
2.740468 -3.947291 1.619263 1.000000 -0.000000 0.000000 66 47 30
2.740468 -3.947291 1.335240 1.000000 -0.000000 0.000000 66 47 30
2.353704 3.947291 1.619263 0.000000 -0.000000 1.000000 66 47 30
-2.740468 3.947291 1.619263 0.000000 -0.000000 1.000000 66 47 30
-2.740468 -3.947291 1.619263 0.000000 -0.000000 1.000000 66 47 30
2.353704 -3.947291 1.619263 0.000000 -0.000000 1.000000 66 47 30
2.740468 3.947291 1.619263 -0.000000 1.000000 0.000000 66 47 30
2.740468 3.947291 1.335240 -0.000000 1.000000 0.000000 66 47 30
2.353704 3.947291 1.335240 -0.000000 1.000000 0.000000 66 47 30
2.353704 3.947291 1.619263 -0.000000 1.000000 0.000000 66 47 30
2.353704 3.947291 -0.005149 0.000000 1.000000 0.000000 66 47 30
2.353704 3.947291 0.253960 0.000000 1.000000 0.000000 66 47 30
2.740468 3.947291 0.253960 0.000000 1.000000 0.000000 66 47 30
2.740468 3.947291 -0.005149 0.000000 1.000000 0.000000 66 47 30
2.740468 3.947291 -0.005149 1.000000 -0.000000 0.000000 66 47 30
2.740468 3.947291 0.253960 1.000000 -0.000000 0.000000 66 47 30
2.740468 -3.947291 0.253960 1.000000 -0.000000 0.000000 66 47 30
2.740468 -3.947291 -0.005149 1.000000 -0.000000 0.000000 66 47 30
2.353704 -3.947291 -0.005149 0.000000 -1.000000 0.000000 66 47 30
2.353704 -3.947291 0.253960 0.000000 -1.000000 0.000000 66 47 30
-2.740468 -3.947291 0.253960 0.000000 -1.000000 0.000000 66 47 30
-2.740468 -3.947291 -0.005149 0.000000 -1.000000 0.000000 66 47 30
-2.740468 -3.947291 -0.005149 -1.000000 -0.000000 0.000000 66 47 30
-2.740468 -3.947291 0.253960 -1.000000 -0.000000 0.000000 66 47 30
-2.740468 3.947291 0.253960 -1.000000 -0.000000 0.000000 66 47 30
-2.740468 3.947291 -0.005149 -1.000000 -0.000000 0.000000 66 47 30
-2.740468 -3.947291 0.253960 0.000000 0.000000 1.000000 66 47 30
2.353704 -3.947291 0.253960 0.000000 0.000000 1.000000 66 47 30
2.157586 -3.736642 0.253960 0.000000 0.000000 1.000000 66 47 30
-2.544350 -3.736642 0.253960 0.000000 0.000000 1.000000 66 47 30
2.353704 -3.947291 1.335240 0.000000 -0.000000 -1.000000 66 47 30
-2.740468 -3.947291 1.335240 0.000000 -0.000000 -1.000000 66 47 30
-2.544350 -3.736642 1.335240 0.000000 -0.000000 -1.000000 66 47 30
2.157586 -3.736642 1.335240 0.000000 -0.000000 -1.000000 66 47 30
2.740468 -3.947291 0.253960 0.000000 -1.000000 0.000000 66 47 30
2.740468 -3.947291 1.335240 0.000000 -1.000000 0.000000 66 47 30
2.353704 3.947291 1.335240 -0.731899 0.681413 0.000000 66 47 30
2.353704 3.947291 0.253960 -0.731899 0.681413 0.000000 66 47 30
2.157586 3.736642 0.253960 -0.731899 0.681413 0.000000 66 47 30
2.157586 3.736642 1.335240 -0.731899 0.681413 0.000000 66 47 30
2.740468 -3.947291 -0.005149 0.000000 -1.000000 0.000000 66 47 30
-2.740468 3.947291 -0.005149 0.000000 1.000000 0.000000 66 47 30
-2.740468 3.947291 0.253960 0.000000 1.000000 0.000000 66 47 30
-2.740468 3.947291 1.335240 0.000000 1.000000 0.000000 66 47 30
-2.740468 3.947291 1.619263 0.000000 1.000000 0.000000 66 47 30
2.740468 3.947291 1.619263 0.000000 -0.000000 1.000000 66 47 30
2.740468 -3.947291 1.619263 0.000000 -0.000000 1.000000 66 47 30
-2.740468 3.947291 -0.005149 0.000000 0.000000 -1.000000 66 47 30
-2.740468 -3.947291 -0.005149 0.000000 0.000000 -1.000000 66 47 30
2.740468 -3.947291 1.619263 0.000000 -1.000000 0.000000 66 47 30
2.157586 -3.736642 0.253960 0.000000 -1.000000 0.000000 131 131 131
2.157586 -3.736642 1.335240 0.000000 -1.000000 0.000000 131 131 131
-2.544350 -3.736642 1.335240 0.000000 -1.000000 0.000000 131 131 131
-2.544350 -3.736642 0.253960 0.000000 -1.000000 0.000000 131 131 131
-2.544350 -3.736642 0.253960 -1.000000 -0.000000 0.000000 131 131 131
-2.544350 -3.736642 1.335240 -1.000000 -0.000000 0.000000 131 131 131
-2.544350 3.736642 1.335240 -1.000000 -0.000000 0.000000 131 131 131
-2.544350 3.736642 0.253960 -1.000000 -0.000000 0.000000 131 131 131
-2.544350 3.736642 0.253960 0.000000 1.000000 0.000000 131 131 131
-2.544350 3.736642 1.335240 0.000000 1.000000 0.000000 131 131 131
2.157586 3.736642 1.335240 0.000000 1.000000 0.000000 131 131 131
2.157586 3.736642 0.253960 0.000000 1.000000 0.000000 131 131 131
-2.740468 3.947291 1.335240 -0.000000 0.000000 -1.000000 66 47 30
-2.544350 3.736642 1.335240 -0.000000 0.000000 -1.000000 66 47 30
2.353704 -3.947291 0.253960 -0.731899 -0.681413 0.000000 66 47 30
2.353704 -3.947291 1.335240 -0.731899 -0.681413 0.000000 66 47 30
2.157586 -3.736642 1.335240 -0.731899 -0.681413 0.000000 66 47 30
2.157586 -3.736642 0.253960 -0.731899 -0.681413 0.000000 66 47 30
2.353704 3.947291 1.335240 0.000000 0.000000 -1.000000 66 47 30
2.157586 3.736642 1.335240 0.000000 0.000000 -1.000000 66 47 30
2.353704 3.947291 0.253960 0.000000 -0.000000 1.000000 66 47 30
-2.740468 3.947291 0.253960 0.000000 -0.000000 1.000000 66 47 30
-2.544350 3.736642 0.253960 0.000000 -0.000000 1.000000 66 47 30
2.157586 3.736642 0.253960 0.000000 -0.000000 1.000000 66 47 30
-2.352821 -3.228235 2.324292 -0.986827 0.161776 0.000000 66 47 30
-2.352821 -3.228235 2.473860 -0.986827 0.161776 0.000000 66 47 30
-1.375285 2.734686 2.473860 -0.986827 0.161776 0.000000 66 47 30
-1.375285 2.734686 2.324292 -0.986827 0.161776 0.000000 66 47 30
1.494900 -3.859014 2.324292 -0.161776 -0.986827 0.000000 66 47 30
1.494900 -3.859014 2.473860 -0.161776 -0.986827 0.000000 66 47 30
-2.352821 -3.228235 2.473860 -0.161776 -0.986827 0.000000 66 47 30
-2.352821 -3.228235 2.324292 -0.161776 -0.986827 0.000000 66 47 30
2.472435 2.103908 1.618432 0.000000 0.000000 -1.000000 66 47 30
2.764565 2.056017 1.618432 0.000000 0.000000 -1.000000 66 47 30
1.787029 -3.906904 1.618432 0.000000 0.000000 -1.000000 66 47 30
1.494900 -3.859014 1.618432 0.000000 0.000000 -1.000000 66 47 30
2.764565 2.056017 2.324292 0.986827 -0.161776 0.000000 66 47 30
2.764565 2.056017 2.473860 0.986827 -0.161776 0.000000 66 47 30
1.787029 -3.906904 2.473860 0.986827 -0.161776 0.000000 66 47 30
1.787029 -3.906904 2.324292 0.986827 -0.161776 0.000000 66 47 30
2.472435 2.103908 2.473860 0.000000 -0.000000 1.000000 66 47 30
-1.375285 2.734686 2.473860 0.000000 -0.000000 1.000000 66 47 30
-2.352821 -3.228235 2.473860 0.000000 -0.000000 1.000000 66 47 30
1.494900 -3.859014 2.473860 0.000000 -0.000000 1.000000 66 47 30
2.472435 2.103908 2.324292 0.161776 0.986827 0.000000 66 47 30
2.472435 2.103908 2.473860 0.161776 0.986827 0.000000 66 47 30
2.764565 2.056017 2.473860 0.161776 0.986827 0.000000 66 47 30
2.764565 2.056017 2.324292 0.161776 0.986827 0.000000 66 47 30
2.472435 2.103908 1.618432 0.161776 0.986827 0.000000 66 47 30
2.472435 2.103908 1.754881 0.161776 0.986827 0.000000 66 47 30
2.764565 2.056017 1.754881 0.161776 0.986827 0.000000 66 47 30
2.764565 2.056017 1.618432 0.161776 0.986827 0.000000 66 47 30
2.764565 2.056017 1.618432 0.986827 -0.161776 0.000000 66 47 30
2.764565 2.056017 1.754881 0.986827 -0.161776 0.000000 66 47 30
1.787029 -3.906904 1.754881 0.986827 -0.161776 0.000000 66 47 30
1.787029 -3.906904 1.618432 0.986827 -0.161776 0.000000 66 47 30
1.494900 -3.859014 1.618432 -0.161776 -0.986827 0.000000 66 47 30
1.494900 -3.859014 1.754881 -0.161776 -0.986827 0.000000 66 47 30
-2.352821 -3.228235 1.754881 -0.161776 -0.986827 0.000000 66 47 30
-2.352821 -3.228235 1.618432 -0.161776 -0.986827 0.000000 66 47 30
-2.352821 -3.228235 1.618432 -0.986827 0.161776 0.000000 66 47 30
-2.352821 -3.228235 1.754881 -0.986827 0.161776 0.000000 66 47 30
-1.375285 2.734686 1.754881 -0.986827 0.161776 0.000000 66 47 30
-1.375285 2.734686 1.618432 -0.986827 0.161776 0.000000 66 47 30
-2.352821 -3.228235 1.754881 0.000000 0.000000 1.000000 66 47 30
1.494900 -3.859014 1.754881 0.000000 0.000000 1.000000 66 47 30
1.372851 -3.675623 1.754881 0.000000 0.000000 1.000000 66 47 30
-2.178606 -3.093413 1.754881 0.000000 0.000000 1.000000 66 47 30
1.494900 -3.859014 2.324292 -0.000000 -0.000000 -1.000000 66 47 30
-2.352821 -3.228235 2.324292 -0.000000 -0.000000 -1.000000 66 47 30
-2.178606 -3.093413 2.324292 -0.000000 -0.000000 -1.000000 66 47 30
1.372851 -3.675623 2.324292 -0.000000 -0.000000 -1.000000 66 47 30
1.787029 -3.906904 1.754881 -0.161776 -0.986827 0.000000 66 47 30
1.787029 -3.906904 2.324292 -0.161776 -0.986827 0.000000 66 47 30
2.472435 2.103908 2.324292 -0.612022 0.790841 0.000000 66 47 30
2.472435 2.103908 1.754881 -0.612022 0.790841 0.000000 66 47 30
2.298220 1.969085 1.754881 -0.612022 0.790841 0.000000 66 47 30
2.298220 1.969085 2.324292 -0.612022 0.790841 0.000000 66 47 30
1.787029 -3.906904 1.618432 -0.161776 -0.986827 0.000000 66 47 30
-1.375285 2.734686 1.618432 0.161776 0.986827 0.000000 66 47 30
-1.375285 2.734686 1.754881 0.161776 0.986827 0.000000 66 47 30
-1.375285 2.734686 2.324292 0.161776 0.986827 0.000000 66 47 30
-1.375285 2.734686 2.473860 0.161776 0.986827 0.000000 66 47 30
2.764565 2.056017 2.473860 0.000000 0.000000 1.000000 66 47 30
1.787029 -3.906904 2.473860 0.000000 0.000000 1.000000 66 47 30
-1.375285 2.734686 1.618432 0.000000 0.000000 -1.000000 66 47 30
-2.352821 -3.228235 1.618432 0.000000 0.000000 -1.000000 66 47 30
1.787029 -3.906904 2.473860 -0.161776 -0.986827 0.000000 66 47 30
1.372851 -3.675623 1.754881 -0.161776 -0.986827 0.000000 131 131 131
1.372851 -3.675623 2.324292 -0.161776 -0.986827 0.000000 131 131 131
-2.178606 -3.093413 2.324292 -0.161776 -0.986827 0.000000 131 131 131
-2.178606 -3.093413 1.754881 -0.161776 -0.986827 0.000000 131 131 131
-2.178606 -3.093413 1.754881 -0.986828 0.161776 0.000000 131 131 131
-2.178606 -3.093413 2.324292 -0.986828 0.161776 0.000000 131 131 131
-1.253237 2.551296 2.324292 -0.986828 0.161776 0.000000 131 131 131
-1.253237 2.551296 1.754881 -0.986828 0.161776 0.000000 131 131 131
-1.253237 2.551296 1.754881 0.161776 0.986827 0.000000 131 131 131
-1.253237 2.551296 2.324292 0.161776 0.986827 0.000000 131 131 131
2.298220 1.969085 2.324292 0.161776 0.986827 0.000000 131 131 131
2.298220 1.969085 1.754881 0.161776 0.986827 0.000000 131 131 131
-1.375285 2.734686 2.324292 -0.000000 0.000000 -1.000000 66 47 30
-1.253237 2.551296 2.324292 -0.000000 0.000000 -1.000000 66 47 30
1.494900 -3.859014 1.754881 -0.832494 -0.554034 0.000000 66 47 30
1.494900 -3.859014 2.324292 -0.832494 -0.554034 0.000000 66 47 30
1.372851 -3.675623 2.324292 -0.832494 -0.554034 0.000000 66 47 30
1.372851 -3.675623 1.754881 -0.832494 -0.554034 0.000000 66 47 30
2.472435 2.103908 2.324292 0.000000 0.000000 -1.000000 66 47 30
2.298220 1.969085 2.324292 0.000000 0.000000 -1.000000 66 47 30
2.472435 2.103908 1.754881 -0.000000 -0.000000 1.000000 66 47 30
-1.375285 2.734686 1.754881 -0.000000 -0.000000 1.000000 66 47 30
-1.253237 2.551296 1.754881 -0.000000 -0.000000 1.000000 66 47 30
2.298220 1.969085 1.754881 -0.000000 -0.000000 1.000000 66 47 30
4 0 1 2 3
4 4 5 6 7
4 8 9 10 11
4 12 13 14 15
4 16 17 18 19
4 20 21 22 23
4 24 25 26 27
4 28 29 30 31
4 32 33 34 35
4 36 37 38 39
4 25 22 21 26
4 29 12 15 30
4 40 41 42 43
4 44 45 46 47
4 48 49 4 33
4 50 51 52 53
4 54 48 33 32
4 55 56 25 24
4 57 58 23 22
4 59 16 19 60
4 61 8 11 62
4 49 63 5 4
4 64 65 66 67
4 68 69 70 71
4 72 73 74 75
4 45 76 77 46
4 78 79 80 81
4 76 82 83 77
4 84 85 86 87
4 85 40 43 86
4 88 89 90 91
4 92 93 94 95
4 96 97 98 99
4 100 101 102 103
4 104 105 106 107
4 108 109 110 111
4 112 113 114 115
4 116 117 118 119
4 120 121 122 123
4 124 125 126 127
4 113 108 111 114
4 117 100 103 118
4 128 129 130 131
4 132 133 134 135
4 136 137 92 121
4 138 139 140 141
4 142 136 121 120
4 143 144 113 112
4 145 146 109 108
4 147 104 107 148
4 149 96 99 150
4 137 151 93 92
4 152 153 154 155
4 156 157 158 159
4 160 161 162 163
4 133 164 165 134
4 166 167 168 169
4 164 170 171 165
4 172 173 174 175
4 173 128 131 174
