ply
format ascii 1.0
comment Created by Blender 2.79 (sub 0) - www.blender.org, source file: 'book shelf.blend'
element vertex 391
property float x
property float y
property float z
property float nx
property float ny
property float nz
property uchar red
property uchar green
property uchar blue
element face 186
property list uchar uint vertex_indices
end_header
1.784877 0.629666 1.349556 0.000000 1.000000 0.000000 74 66 60
1.784877 0.629666 0.000864 0.000000 1.000000 0.000000 74 66 60
-1.784876 0.629666 0.000864 0.000000 1.000000 0.000000 74 66 60
-1.784876 0.629666 1.349556 0.000000 1.000000 0.000000 74 66 60
1.780921 -0.629666 5.395632 -0.000000 -1.000000 -0.000000 74 66 60
1.780921 -0.629666 6.732031 -0.000000 -1.000000 -0.000000 74 66 60
1.684388 -0.629666 6.682493 -0.000000 -1.000000 -0.000000 74 66 60
1.684388 -0.629666 5.457462 -0.000000 -1.000000 -0.000000 74 66 60
1.784877 0.629666 6.744324 0.000000 -0.000000 1.000000 74 66 60
-1.784876 0.629666 6.744324 0.000000 -0.000000 1.000000 74 66 60
-1.784877 -0.609666 6.744324 0.000000 -0.000000 1.000000 74 66 60
1.784876 -0.609666 6.744324 0.000000 -0.000000 1.000000 74 66 60
-1.624390 -0.569666 6.682493 1.000000 -0.000000 0.000000 74 66 60
-1.624389 -0.569666 5.457462 1.000000 -0.000000 0.000000 74 66 60
-1.624389 0.465661 5.457462 1.000000 -0.000000 0.000000 74 66 60
-1.624389 0.465661 6.682493 1.000000 -0.000000 0.000000 74 66 60
1.804877 0.609666 1.349556 1.000000 -0.000000 0.000000 74 66 60
1.804877 0.609666 2.698248 1.000000 -0.000000 0.000000 74 66 60
1.804876 -0.609666 2.698248 1.000000 -0.000000 0.000000 74 66 60
1.804876 -0.609666 1.349556 1.000000 -0.000000 0.000000 74 66 60
-1.684389 -0.629666 0.062694 0.000000 -1.000000 0.000000 74 66 60
-1.780922 -0.629666 0.013157 0.000000 -1.000000 0.000000 74 66 60
-1.784877 -0.629666 0.000864 0.000000 -1.000000 0.000000 74 66 60
1.784877 -0.629666 0.000864 -0.000000 -1.000000 -0.000000 74 66 60
1.780922 -0.629666 0.013157 -0.000000 -1.000000 -0.000000 74 66 60
1.684389 -0.629666 0.062694 0.000000 -1.000000 0.000000 74 66 60
1.564389 -0.629666 0.062694 0.000000 -1.000000 0.000000 74 66 60
-1.564389 -0.629666 0.062694 0.000000 -1.000000 0.000000 74 66 60
1.804877 0.609666 5.395632 1.000000 -0.000001 -0.000000 74 66 60
1.804877 0.609666 6.724324 1.000000 -0.000001 -0.000000 74 66 60
1.804875 -0.609666 6.724324 1.000000 -0.000001 -0.000000 74 66 60
1.804876 -0.609666 5.395632 1.000000 -0.000001 -0.000000 74 66 60
1.780921 -0.629666 1.349556 0.000000 -1.000000 -0.000000 74 66 60
1.780921 -0.629666 2.698248 0.000000 -1.000000 -0.000000 74 66 60
1.684388 -0.629666 2.636418 0.000000 -1.000000 -0.000000 74 66 60
1.684389 -0.629666 1.411386 0.000000 -1.000000 -0.000000 74 66 60
1.804877 0.609666 4.046940 1.000000 -0.000001 0.000000 74 66 60
1.804876 -0.609666 4.046940 1.000000 -0.000001 0.000000 74 66 60
1.804877 0.609666 2.698248 1.000000 -0.000001 0.000000 74 66 60
1.804876 -0.609666 2.698248 1.000000 -0.000001 0.000000 74 66 60
-1.780922 -0.629666 1.349556 -0.000000 -1.000000 0.000000 74 66 60
-1.684389 -0.629666 1.287726 -0.000000 -1.000000 0.000000 74 66 60
-1.780922 -0.629666 4.046940 0.000000 -1.000000 0.000000 74 66 60
-1.780922 -0.629666 2.698248 0.000000 -1.000000 0.000000 74 66 60
-1.684389 -0.629666 2.760078 0.000000 -1.000000 0.000000 74 66 60
-1.684389 -0.629666 3.985110 0.000000 -1.000000 0.000000 74 66 60
-1.780922 -0.629666 5.395632 0.000000 -1.000000 0.000000 74 66 60
-1.684389 -0.629666 4.108770 0.000000 -1.000000 0.000000 74 66 60
-1.684389 -0.629666 5.333801 0.000000 -1.000000 0.000000 74 66 60
-1.624389 -0.569666 1.287726 1.000000 -0.000000 0.000000 74 66 60
-1.624389 -0.569666 0.062694 1.000000 -0.000000 0.000000 74 66 60
-1.624389 0.465661 0.062694 1.000000 -0.000000 0.000000 74 66 60
-1.624389 0.465661 1.287726 1.000000 -0.000000 0.000000 74 66 60
1.684389 -0.629666 1.287726 -0.000000 -1.000000 0.000000 74 66 60
-1.564389 -0.629666 1.287726 0.000000 -1.000000 0.000000 74 66 60
1.564389 -0.629666 1.287726 0.000000 -1.000000 0.000003 74 66 60
1.684389 -0.629666 1.287726 0.000000 -1.000000 0.000003 74 66 60
-1.780922 -0.629666 1.349556 0.000000 -1.000000 0.000003 74 66 60
1.564389 -0.629666 1.287726 -0.000000 -1.000000 -0.000000 74 66 60
-1.624389 -0.569666 3.985110 1.000000 -0.000000 0.000000 74 66 60
-1.624389 -0.569666 2.760078 1.000000 -0.000000 0.000000 74 66 60
-1.624389 0.465661 2.760078 1.000000 -0.000000 0.000000 74 66 60
-1.624389 0.465661 3.985110 1.000000 -0.000000 0.000000 74 66 60
1.684388 -0.629666 3.985110 -0.000000 -1.000000 0.000000 74 66 60
1.780921 -0.629666 4.046940 -0.000000 -1.000000 0.000000 74 66 60
-1.564389 -0.629666 3.985110 0.000000 -1.000000 0.000000 74 66 60
1.564388 -0.629666 3.985110 0.000000 -1.000000 0.000006 74 66 60
1.684388 -0.629666 3.985110 0.000000 -1.000000 0.000006 74 66 60
-1.780922 -0.629666 4.046940 0.000000 -1.000000 0.000006 74 66 60
1.564388 -0.629666 3.985110 -0.000000 -1.000000 -0.000000 74 66 60
-1.784876 0.629666 0.000864 0.000000 0.000000 -1.000000 74 66 60
1.784877 0.629666 0.000864 0.000000 0.000000 -1.000000 74 66 60
1.804877 0.609666 0.000864 0.000000 0.000000 -1.000000 74 66 60
1.804877 -0.609666 0.000864 0.000000 0.000000 -1.000000 74 66 60
1.784877 -0.629666 0.000864 0.000000 0.000000 -1.000000 74 66 60
-1.784877 -0.629666 0.000864 0.000000 0.000000 -1.000000 74 66 60
-1.804877 -0.609666 0.000864 0.000000 0.000000 -1.000000 74 66 60
-1.804876 0.609666 0.000864 0.000000 0.000000 -1.000000 74 66 60
1.784877 0.629666 2.698248 0.000000 1.000000 0.000000 74 66 60
-1.784876 0.629666 2.698248 0.000000 1.000000 0.000000 74 66 60
1.784877 0.629666 4.046940 0.000000 1.000000 0.000000 74 66 60
-1.784876 0.629666 4.046940 0.000000 1.000000 0.000000 74 66 60
1.784877 0.629666 5.395632 0.000000 1.000000 0.000000 74 66 60
-1.784876 0.629666 5.395632 0.000000 1.000000 0.000000 74 66 60
1.684388 -0.629666 5.333801 0.000000 -1.000000 -0.000000 74 66 60
1.684388 -0.629666 4.108770 0.000000 -1.000000 -0.000000 74 66 60
1.624389 0.465661 1.287726 -1.000000 0.000000 -0.000000 74 66 60
1.624389 0.465661 0.062694 -1.000000 0.000000 -0.000000 74 66 60
1.624389 -0.569666 0.062694 -1.000000 0.000000 -0.000000 74 66 60
1.624389 -0.569666 1.287726 -1.000000 0.000000 -0.000000 74 66 60
1.624389 -0.569666 1.411386 -1.000000 0.000000 -0.000000 74 66 60
1.624388 -0.569666 2.636418 -1.000000 0.000000 -0.000000 74 66 60
1.624389 0.465660 2.636418 -1.000000 0.000000 -0.000000 74 66 60
1.624389 0.465661 1.411386 -1.000000 0.000000 -0.000000 74 66 60
1.624389 0.465661 1.287726 0.000000 0.000000 -1.000000 74 66 60
1.624389 -0.569666 1.287726 0.000000 0.000000 -1.000000 74 66 60
1.564389 -0.629666 1.287726 0.000000 0.000000 -1.000000 74 66 60
-1.564389 -0.629666 1.287726 0.000000 0.000000 -1.000000 74 66 60
-1.624389 -0.569666 1.287726 0.000000 0.000000 -1.000000 74 66 60
-1.624389 0.465661 1.287726 -0.000000 0.000000 -1.000000 74 66 60
-1.804877 -0.609666 0.000864 -1.000000 0.000001 -0.000000 74 66 60
-1.804877 -0.609666 1.349556 -1.000000 0.000001 -0.000000 74 66 60
-1.804876 0.609666 1.349556 -1.000000 0.000001 -0.000000 74 66 60
-1.804876 0.609666 0.000864 -1.000000 0.000001 -0.000000 74 66 60
-1.684389 -0.629666 2.636418 0.000000 -1.000000 0.000000 74 66 60
-1.564389 -0.629666 2.636418 0.000000 -1.000000 0.000000 74 66 60
1.564389 -0.629666 2.636418 0.000000 -1.000000 0.000004 74 66 60
1.684388 -0.629666 2.636418 0.000000 -1.000000 0.000004 74 66 60
-1.780922 -0.629666 2.698248 0.000000 -1.000000 0.000004 74 66 60
1.564389 -0.629666 2.636418 -0.000000 -1.000000 -0.000000 74 66 60
-1.624389 0.465661 1.411386 0.000000 -0.000000 1.000000 74 66 60
-1.624389 -0.569666 1.411386 0.000000 -0.000000 1.000000 74 66 60
-1.564389 -0.629666 1.411386 0.000000 -0.000000 1.000000 74 66 60
1.564389 -0.629666 1.411386 0.000000 0.000000 1.000000 74 66 60
1.624389 -0.569666 1.411386 0.000000 0.000000 1.000000 74 66 60
1.624389 0.465661 1.411386 0.000000 0.000000 1.000000 74 66 60
-1.624389 -0.569666 2.636418 1.000000 -0.000000 0.000000 74 66 60
-1.624389 -0.569666 1.411386 1.000000 -0.000000 0.000000 74 66 60
-1.624389 0.465661 1.411386 1.000000 -0.000000 0.000000 74 66 60
-1.624389 0.465661 2.636418 1.000000 -0.000000 0.000000 74 66 60
1.684388 -0.629666 2.760078 0.000000 -1.000000 -0.000000 74 66 60
1.624388 0.465660 3.985110 0.000000 0.000000 -1.000000 74 66 60
1.624388 -0.569666 3.985110 0.000000 0.000000 -1.000000 74 66 60
1.564388 -0.629666 3.985110 0.000000 0.000000 -1.000000 74 66 60
-1.564389 -0.629666 3.985110 0.000000 0.000000 -1.000000 74 66 60
-1.624389 -0.569666 3.985110 0.000000 0.000000 -1.000000 74 66 60
-1.624389 0.465661 3.985110 -0.000000 0.000000 -1.000000 74 66 60
1.624388 -0.569666 4.108770 -1.000000 0.000000 -0.000000 74 66 60
1.624388 -0.569666 5.333801 -1.000000 0.000000 -0.000000 74 66 60
1.624388 0.465660 5.333801 -1.000000 0.000000 -0.000000 74 66 60
1.624388 0.465660 4.108770 -1.000000 0.000000 -0.000000 74 66 60
-1.624389 0.465661 2.760078 0.000000 -0.000000 1.000000 74 66 60
-1.624389 -0.569666 2.760078 0.000000 -0.000000 1.000000 74 66 60
-1.564389 -0.629666 2.760078 0.000000 -0.000000 1.000000 74 66 60
1.564388 -0.629666 2.760078 0.000000 0.000000 1.000000 74 66 60
1.624388 -0.569666 2.760078 0.000000 0.000000 1.000000 74 66 60
1.624388 0.465660 2.760078 0.000000 0.000000 1.000000 74 66 60
1.624388 -0.569666 5.457462 -1.000000 0.000000 -0.000000 74 66 60
1.624388 -0.569666 6.682493 -1.000000 0.000000 -0.000000 74 66 60
1.624388 0.465660 6.682493 -1.000000 0.000000 -0.000000 74 66 60
1.624388 0.465660 5.457462 -1.000000 0.000000 -0.000000 74 66 60
-1.624389 0.465661 4.108770 0.000000 -0.000000 1.000000 74 66 60
-1.624389 -0.569666 4.108770 0.000000 -0.000000 1.000000 74 66 60
-1.564389 -0.629666 4.108770 0.000000 -0.000000 1.000000 74 66 60
1.564388 -0.629666 4.108770 0.000000 0.000000 1.000000 74 66 60
1.624388 -0.569666 4.108770 0.000000 0.000000 1.000000 74 66 60
1.624388 0.465660 4.108770 0.000000 0.000000 1.000000 74 66 60
-1.624389 -0.569666 5.333801 1.000000 -0.000000 0.000000 74 66 60
-1.624389 -0.569666 4.108770 1.000000 -0.000000 0.000000 74 66 60
-1.624389 0.465661 4.108770 1.000000 -0.000000 0.000000 74 66 60
-1.624389 0.465661 5.333801 1.000000 -0.000000 0.000000 74 66 60
1.624388 0.465660 6.682493 0.000000 0.000000 -1.000000 74 66 60
1.624388 -0.569666 6.682493 0.000000 0.000000 -1.000000 74 66 60
1.564388 -0.629666 6.682493 0.000000 0.000000 -1.000000 74 66 60
-1.564390 -0.629666 6.682493 0.000000 0.000000 -1.000000 74 66 60
-1.624390 -0.569666 6.682493 0.000000 0.000000 -1.000000 74 66 60
-1.624389 0.465661 6.682493 -0.000000 0.000000 -1.000000 74 66 60
1.684388 -0.629666 6.682493 -0.000000 -1.000000 -0.000001 74 66 60
1.780921 -0.629666 6.732031 -0.000000 -1.000000 -0.000001 74 66 60
-1.780923 -0.629666 6.732031 -0.000000 -1.000000 -0.000001 74 66 60
-1.780923 -0.629666 6.732031 0.000000 -1.000000 0.000000 74 66 60
-1.684389 -0.629666 6.682493 0.000000 -1.000000 0.000000 74 66 60
-1.564390 -0.629666 6.682493 0.000000 -1.000000 0.000000 74 66 60
1.564388 -0.629666 6.682493 0.000000 -1.000000 0.000011 74 66 60
1.684388 -0.629666 6.682493 0.000000 -1.000000 0.000011 74 66 60
-1.780923 -0.629666 6.732031 0.000000 -1.000000 0.000011 74 66 60
-1.564390 -0.629666 6.682493 -0.000000 -1.000000 -0.000001 74 66 60
1.564388 -0.629666 6.682493 -0.000000 -1.000000 -0.000001 74 66 60
-1.624389 0.465661 5.457462 0.000000 -0.000000 1.000000 74 66 60
-1.624389 -0.569666 5.457462 0.000000 -0.000000 1.000000 74 66 60
-1.564389 -0.629666 5.457462 0.000000 -0.000000 1.000000 74 66 60
1.564388 -0.629666 5.457462 0.000000 0.000000 1.000000 74 66 60
1.624388 -0.569666 5.457462 0.000000 0.000000 1.000000 74 66 60
1.624388 0.465660 5.457462 0.000000 0.000000 1.000000 74 66 60
1.624389 0.465661 0.062694 -0.000000 -1.000000 -0.000000 74 66 60
1.624389 0.465661 1.287726 -0.000000 -1.000000 -0.000000 74 66 60
-1.624389 0.465661 1.287726 -0.000000 -1.000000 -0.000000 74 66 60
-1.624389 0.465661 0.062694 -0.000000 -1.000000 -0.000000 74 66 60
1.624389 0.465661 1.411386 -0.000000 -1.000000 -0.000000 74 66 60
1.624389 0.465660 2.636418 -0.000000 -1.000000 -0.000000 74 66 60
-1.624389 0.465661 2.636418 -0.000000 -1.000000 -0.000000 74 66 60
-1.624389 0.465661 1.411386 -0.000000 -1.000000 -0.000000 74 66 60
1.624388 0.465660 2.760078 -0.000000 -1.000000 0.000000 74 66 60
1.624388 0.465660 3.985110 -0.000000 -1.000000 0.000000 74 66 60
-1.624389 0.465661 3.985110 -0.000000 -1.000000 0.000000 74 66 60
-1.624389 0.465661 2.760078 -0.000000 -1.000000 0.000000 74 66 60
1.624388 0.465660 4.108770 -0.000000 -1.000000 0.000000 74 66 60
1.624388 0.465660 5.333801 -0.000000 -1.000000 0.000000 74 66 60
-1.624389 0.465661 5.333801 -0.000000 -1.000000 0.000000 74 66 60
-1.624389 0.465661 4.108770 -0.000000 -1.000000 0.000000 74 66 60
1.624388 0.465660 5.457462 -0.000000 -1.000000 -0.000000 74 66 60
1.624388 0.465660 6.682493 -0.000000 -1.000000 -0.000000 74 66 60
-1.624389 0.465661 6.682493 -0.000000 -1.000000 -0.000000 74 66 60
-1.624389 0.465661 5.457462 -0.000000 -1.000000 -0.000000 74 66 60
-1.804877 -0.609666 2.698248 -1.000000 0.000001 -0.000000 74 66 60
-1.804876 0.609666 2.698248 -1.000000 0.000001 -0.000000 74 66 60
-1.564389 -0.629666 5.333801 0.000000 -1.000000 0.000000 74 66 60
1.564388 -0.629666 5.333801 0.000000 -1.000000 0.000008 74 66 60
1.684388 -0.629666 5.333801 0.000000 -1.000000 0.000008 74 66 60
-1.780922 -0.629666 5.395632 0.000000 -1.000000 0.000008 74 66 60
-1.780922 -0.629666 5.395632 -0.000000 -1.000000 -0.000001 74 66 60
-1.564389 -0.629666 5.333801 -0.000000 -1.000000 -0.000001 74 66 60
1.564388 -0.629666 5.333801 -0.000000 -1.000000 -0.000001 74 66 60
1.784877 0.629666 6.744324 0.000000 1.000000 0.000000 74 66 60
-1.784876 0.629666 6.744324 0.000000 1.000000 0.000000 74 66 60
-1.804877 -0.609666 4.046940 -1.000000 0.000001 -0.000000 74 66 60
-1.804876 0.609666 4.046940 -1.000000 0.000001 -0.000000 74 66 60
-1.684389 -0.629666 1.411386 -0.000000 -1.000000 0.000000 74 66 60
1.624389 0.465660 2.636418 0.000000 0.000000 -1.000000 74 66 60
1.624388 -0.569666 2.636418 0.000000 0.000000 -1.000000 74 66 60
1.564389 -0.629666 2.636418 0.000000 0.000000 -1.000000 74 66 60
-1.564389 -0.629666 2.636418 0.000000 0.000000 -1.000000 74 66 60
-1.624389 -0.569666 2.636418 0.000000 0.000000 -1.000000 74 66 60
-1.624389 0.465661 2.636418 -0.000000 0.000000 -1.000000 74 66 60
-1.804877 -0.609666 5.395632 -1.000000 0.000001 -0.000000 74 66 60
-1.804876 0.609666 5.395632 -1.000000 0.000001 -0.000000 74 66 60
1.564389 -0.629666 1.411386 0.000000 -1.000000 0.000000 74 66 60
-1.564389 -0.629666 1.411386 0.000000 -1.000000 0.000003 74 66 60
-1.684389 -0.629666 1.411386 0.000000 -1.000000 0.000003 74 66 60
1.780921 -0.629666 1.349556 0.000000 -1.000000 0.000003 74 66 60
-1.564389 -0.629666 1.411386 -0.000000 -1.000000 -0.000000 74 66 60
1.624388 -0.569666 2.760078 -1.000000 0.000000 0.000000 74 66 60
1.624388 -0.569666 3.985110 -1.000000 0.000000 0.000000 74 66 60
1.624388 0.465660 3.985110 -1.000000 0.000000 0.000000 74 66 60
1.624388 0.465660 2.760078 -1.000000 0.000000 0.000000 74 66 60
-1.804877 -0.609666 6.724324 -1.000000 0.000001 -0.000000 74 66 60
-1.804876 0.609666 6.724324 -1.000000 0.000001 -0.000000 74 66 60
1.564388 -0.629666 2.760078 0.000000 -1.000000 0.000000 74 66 60
-1.564389 -0.629666 2.760078 0.000000 -1.000000 0.000004 74 66 60
-1.684389 -0.629666 2.760078 0.000000 -1.000000 0.000004 74 66 60
1.780921 -0.629666 2.698248 0.000000 -1.000000 0.000004 74 66 60
-1.564389 -0.629666 2.760078 -0.000000 -1.000000 -0.000000 74 66 60
1.624388 0.465660 5.333801 0.000000 0.000000 -1.000000 74 66 60
1.624388 -0.569666 5.333801 0.000000 0.000000 -1.000000 74 66 60
1.564388 -0.629666 5.333801 0.000000 0.000000 -1.000000 74 66 60
-1.564389 -0.629666 5.333801 0.000000 0.000000 -1.000000 74 66 60
-1.624389 -0.569666 5.333801 0.000000 0.000000 -1.000000 74 66 60
-1.624389 0.465661 5.333801 -0.000000 0.000000 -1.000000 74 66 60
1.564388 -0.629666 4.108770 0.000000 -1.000000 0.000000 74 66 60
-1.564389 -0.629666 4.108770 0.000000 -1.000000 0.000006 74 66 60
-1.684389 -0.629666 4.108770 0.000000 -1.000000 0.000006 74 66 60
1.780921 -0.629666 4.046940 0.000000 -1.000000 0.000006 74 66 60
-1.564389 -0.629666 4.108770 -0.000000 -1.000000 -0.000000 74 66 60
-1.684389 -0.629666 5.457462 -0.000000 -1.000000 0.000000 74 66 60
1.564388 -0.629666 5.457462 0.000000 -1.000000 0.000000 74 66 60
-1.564389 -0.629666 5.457462 0.000000 -1.000000 0.000008 74 66 60
-1.684389 -0.629666 5.457462 0.000000 -1.000000 0.000008 74 66 60
1.780921 -0.629666 5.395632 0.000000 -1.000000 0.000008 74 66 60
1.780921 -0.629666 5.395632 -0.000000 -1.000000 -0.000001 74 66 60
1.564388 -0.629666 5.457462 -0.000000 -1.000000 -0.000001 74 66 60
-1.564389 -0.629666 5.457462 -0.000000 -1.000000 -0.000001 74 66 60
1.684389 -0.629666 0.062694 -0.000000 0.000000 1.000000 74 66 60
1.624389 -0.569666 0.062694 -0.000000 0.000000 1.000000 74 66 60
1.564389 -0.629666 0.062694 -0.000000 0.000000 1.000000 74 66 60
-1.624389 -0.569666 0.062694 0.000000 -0.000000 1.000000 74 66 60
-1.684389 -0.629666 0.062694 0.000000 -0.000000 1.000000 74 66 60
-1.564389 -0.629666 0.062694 0.000000 -0.000000 1.000000 74 66 60
1.684389 -0.629666 1.287726 0.000000 0.000000 -1.000000 74 66 60
-1.684389 -0.629666 1.287726 -0.000000 0.000000 -1.000000 74 66 60
1.684389 -0.629666 1.411386 -0.000000 0.000000 1.000000 74 66 60
1.684388 -0.629666 2.636418 0.000000 0.000000 -1.000000 74 66 60
-1.684389 -0.629666 1.411386 0.000000 -0.000000 1.000000 74 66 60
-1.684389 -0.629666 2.636418 -0.000000 0.000000 -1.000000 74 66 60
1.684388 -0.629666 2.760078 -0.000000 0.000000 1.000000 74 66 60
1.684388 -0.629666 3.985110 0.000000 0.000000 -1.000000 74 66 60
-1.684389 -0.629666 2.760078 0.000000 -0.000000 1.000000 74 66 60
-1.684389 -0.629666 3.985110 -0.000000 0.000000 -1.000000 74 66 60
1.684388 -0.629666 4.108770 -0.000000 0.000000 1.000000 74 66 60
1.684388 -0.629666 5.333801 0.000000 0.000000 -1.000000 74 66 60
-1.684389 -0.629666 4.108770 0.000000 -0.000000 1.000000 74 66 60
-1.684389 -0.629666 5.333801 -0.000000 0.000000 -1.000000 74 66 60
1.684388 -0.629666 5.457462 -0.000000 0.000000 1.000000 74 66 60
1.684388 -0.629666 6.682493 0.000000 0.000000 -1.000000 74 66 60
-1.684389 -0.629666 5.457462 0.000000 -0.000000 1.000000 74 66 60
-1.684389 -0.629666 6.682493 -0.000000 0.000000 -1.000000 74 66 60
1.684389 -0.629666 0.062694 -0.707107 -0.707106 -0.000000 74 66 60
1.684389 -0.629666 1.287726 -0.707107 -0.707106 -0.000000 74 66 60
1.624389 -0.569666 1.287726 -0.707107 -0.707106 -0.000000 74 66 60
1.624389 -0.569666 0.062694 -0.707107 -0.707106 -0.000000 74 66 60
-1.624389 -0.569666 0.062694 0.707107 -0.707106 0.000000 74 66 60
-1.624389 -0.569666 1.287726 0.707107 -0.707106 0.000000 74 66 60
-1.684389 -0.629666 1.287726 0.707107 -0.707106 0.000000 74 66 60
-1.684389 -0.629666 0.062694 0.707107 -0.707106 0.000000 74 66 60
1.684389 -0.629666 1.411386 -0.707107 -0.707106 -0.000000 74 66 60
1.684388 -0.629666 2.636418 -0.707107 -0.707106 -0.000000 74 66 60
1.624388 -0.569666 2.636418 -0.707107 -0.707106 -0.000000 74 66 60
1.624389 -0.569666 1.411386 -0.707107 -0.707106 -0.000000 74 66 60
-1.624389 -0.569666 1.411386 0.707107 -0.707106 0.000000 74 66 60
-1.624389 -0.569666 2.636418 0.707107 -0.707106 0.000000 74 66 60
-1.684389 -0.629666 2.636418 0.707107 -0.707106 0.000000 74 66 60
-1.684389 -0.629666 1.411386 0.707107 -0.707106 0.000000 74 66 60
1.684388 -0.629666 2.760078 -0.707107 -0.707106 -0.000000 74 66 60
1.684388 -0.629666 3.985110 -0.707107 -0.707106 -0.000000 74 66 60
1.624388 -0.569666 3.985110 -0.707107 -0.707106 -0.000000 74 66 60
1.624388 -0.569666 2.760078 -0.707107 -0.707106 -0.000000 74 66 60
-1.624389 -0.569666 2.760078 0.707107 -0.707106 0.000000 74 66 60
-1.624389 -0.569666 3.985110 0.707107 -0.707106 0.000000 74 66 60
-1.684389 -0.629666 3.985110 0.707107 -0.707106 0.000000 74 66 60
-1.684389 -0.629666 2.760078 0.707107 -0.707106 0.000000 74 66 60
1.684388 -0.629666 4.108770 -0.707107 -0.707106 -0.000000 74 66 60
1.684388 -0.629666 5.333801 -0.707107 -0.707106 -0.000000 74 66 60
1.624388 -0.569666 5.333801 -0.707107 -0.707106 -0.000000 74 66 60
1.624388 -0.569666 4.108770 -0.707107 -0.707106 -0.000000 74 66 60
-1.624389 -0.569666 4.108770 0.707107 -0.707106 0.000000 74 66 60
-1.624389 -0.569666 5.333801 0.707107 -0.707106 0.000000 74 66 60
-1.684389 -0.629666 5.333801 0.707107 -0.707106 0.000000 74 66 60
-1.684389 -0.629666 4.108770 0.707107 -0.707106 0.000000 74 66 60
1.684388 -0.629666 5.457462 -0.707107 -0.707106 -0.000000 74 66 60
1.684388 -0.629666 6.682493 -0.707107 -0.707106 -0.000000 74 66 60
1.624388 -0.569666 6.682493 -0.707107 -0.707106 -0.000000 74 66 60
1.624388 -0.569666 5.457462 -0.707107 -0.707106 -0.000000 74 66 60
-1.624389 -0.569666 5.457462 0.707107 -0.707106 0.000000 74 66 60
-1.624390 -0.569666 6.682493 0.707107 -0.707106 0.000000 74 66 60
-1.684389 -0.629666 6.682493 0.707107 -0.707106 0.000000 74 66 60
-1.684389 -0.629666 5.457462 0.707107 -0.707106 0.000000 74 66 60
-1.624389 0.465661 0.062694 0.000000 -0.000000 1.000000 74 66 60
1.624389 0.465661 0.062694 0.000000 0.000000 1.000000 74 66 60
1.804877 -0.609666 0.000864 0.689489 -0.689489 0.221830 74 66 60
1.780922 -0.629666 0.013157 0.689489 -0.689489 0.221830 74 66 60
1.784877 -0.629666 0.000864 0.689489 -0.689489 0.221830 74 66 60
-1.780922 -0.629666 0.013157 -0.689492 -0.689492 0.221814 74 66 60
-1.804877 -0.609666 0.000864 -0.689492 -0.689492 0.221814 74 66 60
-1.784877 -0.629666 0.000864 -0.689492 -0.689492 0.221814 74 66 60
1.804875 -0.609666 6.724324 0.613141 -0.498112 0.613141 74 66 60
1.784876 -0.609666 6.744324 0.613141 -0.498112 0.613141 74 66 60
1.780921 -0.629666 6.732031 0.613141 -0.498112 0.613141 74 66 60
-1.780923 -0.629666 6.732031 -0.613144 -0.498104 0.613144 74 66 60
-1.784877 -0.609666 6.744324 -0.613144 -0.498104 0.613144 74 66 60
-1.804877 -0.609666 6.724324 -0.613144 -0.498104 0.613144 74 66 60
1.784877 0.629666 5.395632 0.707107 0.707107 0.000000 74 66 60
1.784877 0.629666 6.744324 0.707107 0.707107 0.000000 74 66 60
1.804877 0.609666 6.724324 0.707107 0.707107 0.000000 74 66 60
1.804877 0.609666 5.395632 0.707107 0.707107 0.000000 74 66 60
1.804876 -0.609666 5.395632 0.640893 -0.767630 -0.000000 74 66 60
1.804875 -0.609666 6.724324 0.640893 -0.767630 -0.000000 74 66 60
1.780921 -0.629666 6.732031 0.640893 -0.767630 -0.000000 74 66 60
1.780921 -0.629666 5.395632 0.640893 -0.767630 -0.000000 74 66 60
-1.780922 -0.629666 5.395632 -0.640899 -0.767625 -0.000000 74 66 60
-1.780923 -0.629666 6.732031 -0.640899 -0.767625 -0.000000 74 66 60
-1.804877 -0.609666 6.724324 -0.640899 -0.767625 -0.000000 74 66 60
-1.804877 -0.609666 5.395632 -0.640899 -0.767625 -0.000000 74 66 60
-1.804876 0.609666 5.395632 -0.707107 0.707107 0.000000 74 66 60
-1.804876 0.609666 6.724324 -0.707107 0.707107 0.000000 74 66 60
-1.784876 0.629666 6.744324 -0.707107 0.707107 0.000000 74 66 60
-1.784876 0.629666 5.395632 -0.707107 0.707107 0.000000 74 66 60
1.784877 0.629666 6.744324 0.707107 -0.000001 0.707107 74 66 60
1.784876 -0.609666 6.744324 0.707107 -0.000001 0.707107 74 66 60
1.804875 -0.609666 6.724324 0.707107 -0.000001 0.707107 74 66 60
1.804877 0.609666 6.724324 0.707107 -0.000001 0.707107 74 66 60
1.784876 -0.609666 6.744324 -0.000000 -0.523640 0.851940 74 66 60
-1.784877 -0.609666 6.744324 -0.000000 -0.523640 0.851940 74 66 60
-1.780923 -0.629666 6.732031 -0.000000 -0.523640 0.851940 74 66 60
1.780921 -0.629666 6.732031 -0.000000 -0.523640 0.851940 74 66 60
-1.784877 -0.609666 6.744324 -0.707107 0.000000 0.707107 74 66 60
-1.784876 0.629666 6.744324 -0.707107 0.000000 0.707107 74 66 60
-1.804876 0.609666 6.724324 -0.707107 0.000000 0.707107 74 66 60
-1.804877 -0.609666 6.724324 -0.707107 0.000000 0.707107 74 66 60
1.784877 0.629666 0.000864 0.707107 0.707107 -0.000000 74 66 60
1.784877 0.629666 1.349556 0.707107 0.707107 -0.000000 74 66 60
1.804877 0.609666 1.349556 0.707107 0.707107 -0.000000 74 66 60
1.804877 0.609666 0.000864 0.707107 0.707107 -0.000000 74 66 60
1.784877 0.629666 2.698248 0.707107 0.707107 -0.000000 74 66 60
1.804877 0.609666 2.698248 0.707107 0.707107 -0.000000 74 66 60
1.784877 0.629666 4.046940 0.707107 0.707107 -0.000000 74 66 60
1.804877 0.609666 4.046940 0.707107 0.707107 -0.000000 74 66 60
1.804877 -0.609666 0.000864 0.640893 -0.767630 0.000000 74 66 60
1.804876 -0.609666 1.349556 0.640893 -0.767630 0.000000 74 66 60
1.780921 -0.629666 1.349556 0.640893 -0.767630 0.000000 74 66 60
1.780922 -0.629666 0.013157 0.640893 -0.767630 0.000000 74 66 60
1.804876 -0.609666 2.698248 0.640893 -0.767630 0.000000 74 66 60
1.780921 -0.629666 2.698248 0.640893 -0.767630 0.000000 74 66 60
1.804876 -0.609666 4.046940 0.640893 -0.767630 0.000000 74 66 60
1.780921 -0.629666 4.046940 0.640893 -0.767630 0.000000 74 66 60
-1.780922 -0.629666 0.013157 -0.640899 -0.767625 -0.000000 74 66 60
-1.780922 -0.629666 1.349556 -0.640899 -0.767625 -0.000000 74 66 60
-1.804877 -0.609666 1.349556 -0.640899 -0.767625 -0.000000 74 66 60
-1.804877 -0.609666 0.000864 -0.640899 -0.767625 -0.000000 74 66 60
-1.780922 -0.629666 2.698248 -0.640899 -0.767625 -0.000000 74 66 60
-1.804877 -0.609666 2.698248 -0.640899 -0.767625 -0.000000 74 66 60
-1.780922 -0.629666 4.046940 -0.640899 -0.767625 0.000000 74 66 60
-1.804877 -0.609666 4.046940 -0.640899 -0.767625 0.000000 74 66 60
-1.804876 0.609666 0.000864 -0.707107 0.707107 -0.000000 74 66 60
-1.804876 0.609666 1.349556 -0.707107 0.707107 -0.000000 74 66 60
-1.784876 0.629666 1.349556 -0.707107 0.707107 -0.000000 74 66 60
-1.784876 0.629666 0.000864 -0.707107 0.707107 -0.000000 74 66 60
-1.804876 0.609666 2.698248 -0.707107 0.707107 -0.000000 74 66 60
-1.784876 0.629666 2.698248 -0.707107 0.707107 -0.000000 74 66 60
-1.804876 0.609666 4.046940 -0.707107 0.707107 -0.000000 74 66 60
-1.784876 0.629666 4.046940 -0.707107 0.707107 -0.000000 74 66 60
1.804877 0.609666 0.000864 1.000000 -0.000000 0.000000 74 66 60
1.804877 -0.609666 0.000864 1.000000 -0.000000 0.000000 74 66 60
4 0 1 2 3
4 4 5 6 7
4 8 9 10 11
4 12 13 14 15
4 16 17 18 19
3 20 21 22
3 22 23 24
3 24 25 26
3 27 20 22
3 24 26 27
3 22 24 27
4 28 29 30 31
4 32 33 34 35
4 36 28 31 37
4 38 36 37 39
4 40 21 20 41
4 42 43 44 45
4 46 42 47 48
4 49 50 51 52
3 53 32 40
3 40 41 54
3 55 56 57
3 40 54 58
4 59 60 61 62
3 63 64 42
3 42 45 65
3 66 67 68
3 42 65 69
3 70 71 72
3 72 73 74
3 74 75 76
3 76 77 70
3 70 72 74
3 74 76 70
4 78 0 3 79
4 80 78 79 81
4 82 80 81 83
4 64 4 84 85
4 86 87 88 89
4 90 91 92 93
3 94 95 96
3 96 97 98
3 98 99 94
3 96 98 94
4 100 101 102 103
3 34 33 43
3 43 104 105
3 106 107 108
3 43 105 109
3 110 111 112
3 112 113 114
3 114 115 110
3 112 114 110
4 116 117 118 119
4 33 64 63 120
3 121 122 123
3 123 124 125
3 125 126 121
3 123 125 121
4 127 128 129 130
3 131 132 133
3 133 134 135
3 135 136 131
3 133 135 131
4 24 32 53 25
4 137 138 139 140
3 141 142 143
3 143 144 145
3 145 146 141
3 143 145 141
4 147 148 149 150
3 151 152 153
3 153 154 155
3 155 156 151
3 153 155 151
3 157 158 159
3 160 161 162
3 163 164 165
3 159 166 167
3 168 169 170
3 170 171 172
3 172 173 168
3 170 172 168
4 174 175 176 177
4 178 179 180 181
4 182 183 184 185
4 186 187 188 189
4 190 191 192 193
4 101 194 195 102
3 84 4 46
3 46 48 196
3 197 198 199
3 200 201 202
4 203 82 83 204
4 194 205 206 195
4 43 40 207 104
3 208 209 210
3 210 211 212
3 212 213 208
3 210 212 208
4 205 214 215 206
3 207 40 32
3 32 35 216
3 217 218 219
3 32 216 220
4 221 222 223 224
4 214 225 226 215
3 44 43 33
3 33 120 227
3 228 229 230
3 33 227 231
3 232 233 234
3 234 235 236
3 236 237 232
3 234 236 232
3 47 42 64
3 64 85 238
3 239 240 241
3 64 238 242
4 160 46 243 161
3 243 46 4
3 4 7 244
3 245 246 247
3 248 249 250
3 251 252 253
3 254 255 256
3 95 257 96
3 258 98 97
3 259 114 113
3 209 260 210
3 111 261 112
3 262 212 211
3 263 135 134
3 122 264 123
3 132 265 133
3 266 125 124
3 267 145 144
3 233 268 234
3 142 269 143
3 270 236 235
3 271 172 171
3 152 272 153
3 169 273 170
3 274 155 154
4 275 276 277 278
4 279 280 281 282
4 283 284 285 286
4 287 288 289 290
4 291 292 293 294
4 295 296 297 298
4 299 300 301 302
4 303 304 305 306
4 307 308 309 310
4 311 312 313 314
3 315 254 256
3 256 253 252
3 252 316 315
3 256 252 315
3 317 318 319
3 320 321 322
3 323 324 325
3 326 327 328
4 329 330 331 332
4 333 334 335 336
4 337 338 339 340
4 341 342 343 344
4 345 346 347 348
4 349 350 351 352
4 353 354 355 356
4 357 358 359 360
4 358 361 362 359
4 361 363 364 362
4 363 329 332 364
4 365 366 367 368
4 366 369 370 367
4 369 371 372 370
4 371 333 336 372
4 373 374 375 376
4 374 377 378 375
4 377 379 380 378
4 379 337 340 380
4 381 382 383 384
4 382 385 386 383
4 385 387 388 386
4 387 341 344 388
4 389 16 19 390
