ply
format ascii 1.0
comment Created by Blender 2.79 (sub 0) - www.blender.org, source file: 'book.blend'
element vertex 108
property float x
property float y
property float z
property float nx
property float ny
property float nz
property uchar red
property uchar green
property uchar blue
element face 40
property list uchar uint vertex_indices
end_header
-5.342967 -0.819127 7.895905 -1.000000 0.000000 0.000000 66 47 30
-5.342967 -0.535104 7.895905 -1.000000 0.000000 0.000000 66 47 30
-5.342967 -0.535103 0.001323 -1.000000 0.000000 0.000000 66 47 30
-5.342967 -0.819127 0.001323 -1.000000 0.000000 0.000000 66 47 30
-0.248796 -0.535103 0.001323 0.000000 0.000001 -1.000000 66 47 30
-0.248796 -0.819127 0.001323 0.000000 0.000001 -1.000000 66 47 30
-5.342967 -0.819127 0.001323 0.000000 0.000001 -1.000000 66 47 30
-5.342967 -0.535103 0.001323 0.000000 0.000001 -1.000000 66 47 30
-0.248796 -0.535103 0.001323 0.000000 0.000006 -1.000000 66 47 30
0.137969 -0.535103 0.001323 0.000000 0.000006 -1.000000 66 47 30
0.137969 -0.619126 0.001323 0.000000 0.000006 -1.000000 66 47 30
0.137969 -0.619126 0.001323 0.000000 -0.000001 -1.000000 66 47 30
-0.062032 -0.819127 0.001323 0.000000 -0.000001 -1.000000 66 47 30
-0.248796 -0.819127 0.001323 0.000000 -0.000001 -1.000000 66 47 30
0.137969 -0.619126 0.001323 -0.000001 0.000001 -1.000000 66 47 30
-0.248796 -0.819127 0.001323 -0.000001 0.000001 -1.000000 66 47 30
-0.248796 -0.535103 0.001323 -0.000001 0.000001 -1.000000 66 47 30
0.137969 0.605285 7.895905 1.000000 0.000000 -0.000000 66 47 30
0.137969 0.546176 7.895905 1.000000 0.000000 -0.000000 66 47 30
0.137969 0.546176 0.001323 1.000000 0.000000 -0.000000 66 47 30
0.137969 0.605285 0.001323 1.000000 0.000000 -0.000000 66 47 30
-0.248796 -0.819127 7.895905 0.000000 -1.000000 0.000000 66 47 30
-5.342967 -0.819127 7.895905 0.000000 -1.000000 0.000000 66 47 30
-5.342967 -0.819127 0.001323 0.000000 -1.000000 0.000000 66 47 30
-0.248796 -0.819127 0.001323 0.000000 -1.000000 0.000000 66 47 30
0.137969 -0.535104 7.895905 1.000000 0.000000 -0.000000 66 47 30
0.137969 -0.619127 7.895905 1.000000 0.000000 -0.000000 66 47 30
0.137969 -0.619126 0.001323 1.000000 0.000000 -0.000000 66 47 30
0.137969 -0.535103 0.001323 1.000000 0.000000 -0.000000 66 47 30
-0.248796 0.805285 7.895905 0.000000 1.000000 0.000000 66 47 30
-0.062032 0.805285 7.895905 0.000000 1.000000 0.000000 66 47 30
-0.062032 0.805285 0.001323 0.000000 1.000000 0.000000 66 47 30
-0.248796 0.805285 0.001323 0.000000 1.000000 0.000000 66 47 30
-0.062032 0.805285 7.895905 0.000000 0.000000 1.000000 66 47 30
-0.248796 0.805285 7.895905 0.000000 0.000000 1.000000 66 47 30
-0.248796 0.546176 7.895905 0.000000 0.000000 1.000000 66 47 30
0.137969 0.546176 7.895905 0.000000 0.000000 1.000000 66 47 30
0.137969 0.605285 7.895905 0.000000 0.000000 1.000000 66 47 30
-0.248796 0.805285 0.001323 0.000000 0.000000 -1.000000 66 47 30
-0.248796 0.546176 0.001323 0.000000 0.000000 -1.000000 66 47 30
-5.342967 0.546176 0.001323 0.000000 0.000000 -1.000000 66 47 30
-5.342967 0.805285 0.001323 0.000000 0.000000 -1.000000 66 47 30
-5.342967 0.805285 0.001323 -1.000000 0.000000 -0.000000 66 47 30
-5.342967 0.546176 0.001323 -1.000000 0.000000 -0.000000 66 47 30
-5.342967 0.546176 7.895905 -1.000000 0.000000 -0.000000 66 47 30
-5.342967 0.805285 7.895905 -1.000000 0.000000 -0.000000 66 47 30
-0.248796 -0.535104 7.895905 0.000000 0.000000 1.000000 66 47 30
0.137969 -0.535104 7.895905 0.000000 0.000000 1.000000 66 47 30
-5.342967 0.546176 0.001323 0.000000 -1.000000 -0.000000 66 47 30
-0.248796 0.546176 0.001323 0.000000 -1.000000 -0.000000 66 47 30
-0.444913 0.546176 0.211971 0.000000 -1.000000 -0.000000 66 47 30
-5.146849 0.546176 0.211971 0.000000 -1.000000 -0.000000 66 47 30
-0.248796 -0.535103 0.001323 0.000000 1.000000 0.000000 66 47 30
-5.342967 -0.535103 0.001323 0.000000 1.000000 0.000000 66 47 30
-5.146849 -0.535103 0.211972 0.000000 1.000000 0.000000 66 47 30
-0.444913 -0.535103 0.211972 0.000000 1.000000 0.000000 66 47 30
0.137969 0.546176 0.001323 0.000000 -0.000000 -1.000000 66 47 30
0.137969 -0.535103 0.001323 0.000000 -0.000000 -1.000000 66 47 30
-0.248796 -0.535103 0.001323 0.000000 -0.000000 -1.000000 66 47 30
-0.248796 -0.535104 7.895905 -0.731899 0.000000 0.681413 66 47 30
-0.248796 0.546176 7.895905 -0.731899 0.000000 0.681413 66 47 30
-0.444913 0.546176 7.685256 -0.731899 0.000000 0.681413 66 47 30
-0.444913 -0.535104 7.685256 -0.731899 0.000000 0.681413 66 47 30
-5.342967 0.805285 7.895905 0.000000 0.000000 1.000000 66 47 30
-5.342967 0.546176 7.895905 0.000000 0.000000 1.000000 66 47 30
-5.342967 -0.535104 7.895905 0.000000 0.000000 1.000000 66 47 30
-5.342967 -0.819127 7.895905 0.000000 0.000000 1.000000 66 47 30
-0.248796 -0.819127 7.895905 0.000000 0.000000 1.000000 66 47 30
-0.062032 -0.819127 7.895905 0.000000 0.000000 1.000000 66 47 30
0.137969 -0.619127 7.895905 0.000000 0.000000 1.000000 66 47 30
-5.342967 0.805285 7.895905 0.000000 1.000000 0.000000 66 47 30
-5.342967 0.805285 0.001323 0.000000 1.000000 0.000000 66 47 30
-0.062032 0.805285 0.001323 0.000000 0.000000 -1.000000 66 47 30
0.137969 0.605285 0.001323 0.000000 0.000000 -1.000000 66 47 30
-0.444913 0.546176 0.211971 0.000000 -0.000000 -1.000000 131 131 131
-0.444913 -0.535103 0.211972 0.000000 -0.000000 -1.000000 131 131 131
-5.146849 -0.535103 0.211972 0.000000 -0.000000 -1.000000 131 131 131
-5.146849 0.546176 0.211971 0.000000 -0.000000 -1.000000 131 131 131
-5.146849 0.546176 0.211971 -1.000000 0.000000 -0.000000 131 131 131
-5.146849 -0.535103 0.211972 -1.000000 0.000000 -0.000000 131 131 131
-5.146849 -0.535104 7.685256 -1.000000 0.000000 -0.000000 131 131 131
-5.146849 0.546176 7.685256 -1.000000 0.000000 -0.000000 131 131 131
-5.146849 0.546176 7.685256 0.000000 0.000000 1.000000 131 131 131
-5.146849 -0.535104 7.685256 0.000000 0.000000 1.000000 131 131 131
-0.444913 -0.535104 7.685256 0.000000 0.000000 1.000000 131 131 131
-0.444913 0.546176 7.685256 0.000000 0.000000 1.000000 131 131 131
-5.342967 -0.535104 7.895905 0.000000 1.000000 0.000000 66 47 30
-5.146849 -0.535104 7.685256 0.000000 1.000000 0.000000 66 47 30
-0.248796 0.546176 0.001323 -0.731900 -0.000000 -0.681413 66 47 30
-0.248796 -0.535103 0.001323 -0.731900 -0.000000 -0.681413 66 47 30
-0.444913 -0.535103 0.211972 -0.731900 -0.000000 -0.681413 66 47 30
-0.444913 0.546176 0.211971 -0.731900 -0.000000 -0.681413 66 47 30
-0.248796 -0.535104 7.895905 0.000000 1.000000 -0.000000 66 47 30
-0.444913 -0.535104 7.685256 0.000000 1.000000 -0.000000 66 47 30
-0.248796 0.546176 7.895905 0.000000 -1.000000 0.000000 66 47 30
-5.342967 0.546176 7.895905 0.000000 -1.000000 0.000000 66 47 30
-5.146849 0.546176 7.685256 0.000000 -1.000000 0.000000 66 47 30
-0.444913 0.546176 7.685256 0.000000 -1.000000 0.000000 66 47 30
-0.062032 0.805285 0.001323 0.707107 0.707107 0.000000 66 47 30
-0.062032 0.805285 7.895905 0.707107 0.707107 0.000000 66 47 30
0.137969 0.605285 7.895905 0.707107 0.707107 0.000000 66 47 30
0.137969 0.605285 0.001323 0.707107 0.707107 0.000000 66 47 30
-0.062032 -0.819127 7.895905 0.707106 -0.707107 -0.000000 66 47 30
-0.062032 -0.819127 0.001323 0.707106 -0.707107 -0.000000 66 47 30
0.137969 -0.619126 0.001323 0.707106 -0.707107 -0.000000 66 47 30
0.137969 -0.619127 7.895905 0.707106 -0.707107 -0.000000 66 47 30
-0.062032 -0.819127 7.895905 0.000000 -1.000000 0.000000 66 47 30
-0.062032 -0.819127 0.001323 0.000000 -1.000000 0.000000 66 47 30
4 0 1 2 3
4 4 5 6 7
3 8 9 10
3 11 12 13
3 14 15 16
4 17 18 19 20
4 21 22 23 24
4 25 26 27 28
4 29 30 31 32
3 33 34 35
3 35 36 37
3 35 37 33
4 38 39 40 41
4 42 43 44 45
4 35 46 47 36
4 18 25 28 19
4 48 49 50 51
4 52 53 54 55
4 56 57 58 39
4 59 60 61 62
4 63 64 35 34
4 65 66 67 46
3 47 46 67
3 67 68 69
3 67 69 47
4 70 29 32 71
3 38 72 73
3 73 56 39
3 73 39 38
4 74 75 76 77
4 78 79 80 81
4 82 83 84 85
4 53 86 87 54
4 88 89 90 91
4 86 92 93 87
4 94 95 96 97
4 95 48 51 96
4 98 99 100 101
4 102 103 104 105
4 106 21 24 107
