ply
format ascii 1.0
comment Created by Blender 2.79 (sub 0) - www.blender.org, source file: 'chair.blend'
element vertex 407
property float x
property float y
property float z
property float nx
property float ny
property float nz
property uchar red
property uchar green
property uchar blue
element face 121
property list uchar uint vertex_indices
end_header
0.940000 1.000000 1.866919 0.000000 1.000000 0.000001 129 129 129
0.940000 1.000000 1.534760 0.000000 1.000000 0.000001 129 129 129
-0.940000 1.000000 1.534760 0.000000 1.000000 0.000001 129 129 129
-0.940000 1.000000 1.866919 0.000000 1.000000 0.000001 129 129 129
-1.000000 0.940000 1.866919 -1.000000 0.000000 -0.000000 129 129 129
-1.000000 0.562110 1.806919 -1.000000 0.000000 -0.000000 129 129 129
-1.000000 0.623059 4.132784 -1.000000 0.000000 -0.000000 129 129 129
-1.000000 1.000949 4.132784 -1.000000 0.000000 -0.000000 129 129 129
0.826373 -0.826373 1.474760 0.000000 0.000000 -1.000000 129 129 129
0.940000 -0.940000 1.474760 0.000000 0.000000 -1.000000 129 129 129
-0.940000 -0.940000 1.474760 0.000000 0.000000 -1.000000 129 129 129
-0.826373 -0.826372 1.474760 -0.000000 0.000000 -1.000000 129 129 129
-0.275458 -0.826373 1.474760 -0.000000 0.000000 -1.000000 129 129 129
0.275457 -0.826373 1.474760 0.000000 0.000000 -1.000000 129 129 129
-1.000000 -0.940000 1.534760 -1.000000 0.000000 -0.000001 129 129 129
-1.000000 -0.940000 1.806919 -1.000000 0.000000 -0.000001 129 129 129
-1.000000 0.562110 1.806919 -1.000000 0.000000 -0.000001 129 129 129
-1.000000 0.502110 1.534760 -1.000000 0.000000 -0.000001 129 129 129
0.940000 1.000000 1.866919 0.000000 0.999638 -0.026889 129 129 129
-0.940000 1.000000 1.866919 0.000000 0.999638 -0.026889 129 129 129
-0.940000 1.060949 4.132784 0.000000 0.999638 -0.026889 129 129 129
0.940000 1.060948 4.132784 0.000000 0.999638 -0.026889 129 129 129
1.000000 0.940000 1.534760 1.000000 -0.000000 -0.000001 129 129 129
1.000000 0.940000 1.866919 1.000000 -0.000000 -0.000001 129 129 129
1.000000 0.562109 1.806919 1.000000 -0.000000 -0.000001 129 129 129
1.000000 0.502110 1.534760 1.000000 -0.000000 -0.000001 129 129 129
0.826373 0.826373 1.474760 1.000000 0.000000 -0.000000 97 77 48
0.826373 0.275458 1.474760 1.000000 0.000000 -0.000000 97 77 48
0.826373 0.275458 1.326621 1.000000 0.000000 -0.000000 97 77 48
0.826373 0.826373 1.326621 1.000000 0.000000 -0.000000 97 77 48
-1.000000 0.940000 1.866919 -1.000000 0.000000 -0.000001 129 129 129
-1.000000 0.940000 1.534760 -1.000000 0.000000 -0.000001 129 129 129
0.940000 -1.000000 1.534760 -0.000000 -1.000000 -0.000000 129 129 129
0.939999 -1.000000 1.806919 -0.000000 -1.000000 -0.000000 129 129 129
-0.940000 -1.000000 1.806919 -0.000000 -1.000000 -0.000000 129 129 129
-0.940000 -1.000000 1.534760 -0.000000 -1.000000 -0.000000 129 129 129
0.826373 0.826373 1.474760 -0.000001 -0.000000 -1.000000 129 129 129
0.940000 0.940000 1.474760 -0.000001 -0.000000 -1.000000 129 129 129
0.940000 0.502110 1.474760 -0.000001 -0.000000 -1.000000 129 129 129
0.940000 0.502110 1.474760 0.000000 0.000000 -1.000000 129 129 129
0.826373 -0.826373 1.474760 0.000000 0.000000 0.000000 129 129 129
0.826373 -0.275458 1.474760 0.000000 0.000000 0.000000 129 129 129
0.826373 0.275458 1.474760 0.000000 0.000000 0.000000 129 129 129
0.826373 0.275458 1.474760 -0.000000 -0.000000 -1.000000 129 129 129
0.826373 0.826373 1.474760 -0.000000 -0.000000 -1.000000 129 129 129
0.826373 -0.275458 1.474760 1.000000 0.000000 -0.000000 97 77 48
0.826373 -0.826373 1.474760 1.000000 0.000000 -0.000000 97 77 48
0.826373 -0.826373 1.326621 1.000000 0.000000 -0.000000 97 77 48
0.826373 -0.275458 1.326621 1.000000 0.000000 -0.000000 97 77 48
-0.275457 0.275458 1.474760 0.000000 0.000000 -1.000000 129 129 129
-0.275458 -0.275457 1.474760 0.000000 0.000000 -1.000000 129 129 129
-0.826373 -0.275457 1.474760 0.000000 0.000000 -1.000000 129 129 129
-0.826372 0.275458 1.474760 0.000000 0.000000 -1.000000 129 129 129
0.275458 0.275458 1.474760 -1.000000 0.000000 0.000000 97 77 48
0.275458 0.826373 1.474760 -1.000000 0.000000 0.000000 97 77 48
0.275458 0.826373 1.326621 -1.000000 0.000000 0.000000 97 77 48
0.275458 0.275458 1.326621 -1.000000 0.000000 0.000000 97 77 48
0.275458 0.826373 1.474760 0.000000 0.000000 -1.000000 129 129 129
0.275458 0.275458 1.474760 0.000000 0.000000 -1.000000 129 129 129
-0.275457 0.826373 1.474760 0.000000 0.000000 -1.000000 129 129 129
0.826373 -0.275458 1.474760 0.000000 0.000000 -1.000000 129 129 129
0.275458 -0.275457 1.474760 0.000000 0.000000 -1.000000 129 129 129
-0.826373 -0.826372 1.474760 -1.000000 0.000000 0.000000 97 77 48
-0.826373 -0.275457 1.474760 -1.000000 0.000000 0.000000 97 77 48
-0.826373 -0.275457 1.326621 -1.000000 0.000000 0.000000 97 77 48
-0.826373 -0.826372 1.326621 -1.000000 0.000000 0.000000 97 77 48
-0.826372 0.826373 1.326621 0.000000 0.746058 -0.665881 97 77 48
-0.275457 0.826373 1.326621 0.000000 0.746058 -0.665881 97 77 48
-0.385640 0.716190 1.203171 0.000000 0.746058 -0.665881 97 77 48
-0.716189 0.716190 1.203171 0.000000 0.746058 -0.665881 97 77 48
-0.275457 0.275458 1.326621 -0.000000 -0.746058 -0.665881 97 77 48
-0.826372 0.275458 1.326621 -0.000000 -0.746058 -0.665881 97 77 48
-0.716189 0.385641 1.203171 -0.000000 -0.746058 -0.665881 97 77 48
-0.385640 0.385641 1.203171 -0.000000 -0.746058 -0.665881 97 77 48
-0.275458 -0.275457 1.326621 0.746058 -0.000000 -0.665881 97 77 48
-0.275458 -0.826373 1.326621 0.746058 -0.000000 -0.665881 97 77 48
-0.385641 -0.716189 1.203171 0.746058 -0.000000 -0.665881 97 77 48
-0.385641 -0.385640 1.203171 0.746058 -0.000000 -0.665881 97 77 48
0.826373 -0.275458 1.326621 0.746058 0.000000 -0.665881 97 77 48
0.826373 -0.826373 1.326621 0.746058 0.000000 -0.665881 97 77 48
0.716190 -0.716190 1.203171 0.746058 0.000000 -0.665881 97 77 48
0.716190 -0.385641 1.203171 0.746058 0.000000 -0.665881 97 77 48
-0.275457 0.826373 1.474760 1.000000 -0.000000 0.000000 97 77 48
-0.275457 0.275458 1.474760 1.000000 -0.000000 0.000000 97 77 48
-0.275457 0.275458 1.326621 1.000000 -0.000000 0.000000 97 77 48
-0.275457 0.826373 1.326621 1.000000 -0.000000 0.000000 97 77 48
-0.826372 0.826373 1.474760 0.000000 1.000000 0.000000 97 77 48
-0.275457 0.826373 1.474760 0.000000 1.000000 0.000000 97 77 48
-0.275457 0.826373 1.326621 0.000000 1.000000 0.000000 97 77 48
-0.826372 0.826373 1.326621 0.000000 1.000000 0.000000 97 77 48
-0.275457 0.275458 1.474760 -0.000000 -1.000000 0.000000 97 77 48
-0.826372 0.275458 1.474760 -0.000000 -1.000000 0.000000 97 77 48
-0.826372 0.275458 1.326621 -0.000000 -1.000000 0.000000 97 77 48
-0.275457 0.275458 1.326621 -0.000000 -1.000000 0.000000 97 77 48
-0.275458 -0.826373 1.474760 -0.000000 -1.000000 0.000000 97 77 48
-0.826373 -0.826372 1.474760 -0.000000 -1.000000 0.000000 97 77 48
-0.826373 -0.826372 1.326621 -0.000000 -1.000000 0.000000 97 77 48
-0.275458 -0.826373 1.326621 -0.000000 -1.000000 0.000000 97 77 48
0.826373 0.275458 1.474760 -0.000000 -1.000000 0.000000 97 77 48
0.275458 0.275458 1.474760 -0.000000 -1.000000 0.000000 97 77 48
0.275458 0.275458 1.326621 -0.000000 -1.000000 0.000000 97 77 48
0.826373 0.275458 1.326621 -0.000000 -1.000000 0.000000 97 77 48
0.275458 0.826373 1.474760 0.000000 1.000000 0.000000 97 77 48
0.826373 0.826373 1.474760 0.000000 1.000000 0.000000 97 77 48
0.826373 0.826373 1.326621 0.000000 1.000000 0.000000 97 77 48
0.275458 0.826373 1.326621 0.000000 1.000000 0.000000 97 77 48
-0.826372 0.275458 1.474760 -1.000000 0.000000 0.000000 97 77 48
-0.826372 0.826373 1.474760 -1.000000 0.000000 0.000000 97 77 48
-0.826372 0.826373 1.326621 -1.000000 0.000000 0.000000 97 77 48
-0.826372 0.275458 1.326621 -1.000000 0.000000 0.000000 97 77 48
0.275457 -0.826373 1.474760 -1.000000 0.000000 0.000000 97 77 48
0.275458 -0.275457 1.474760 -1.000000 0.000000 0.000000 97 77 48
0.275458 -0.275457 1.326621 -1.000000 0.000000 0.000000 97 77 48
0.275457 -0.826373 1.326621 -1.000000 0.000000 0.000000 97 77 48
-0.826373 -0.275457 1.474760 0.000000 1.000000 0.000000 97 77 48
-0.275458 -0.275457 1.474760 0.000000 1.000000 0.000000 97 77 48
-0.275458 -0.275457 1.326621 0.000000 1.000000 0.000000 97 77 48
-0.826373 -0.275457 1.326621 0.000000 1.000000 0.000000 97 77 48
0.826373 -0.826373 1.474760 -0.000000 -1.000000 0.000000 97 77 48
0.275457 -0.826373 1.474760 -0.000000 -1.000000 0.000000 97 77 48
0.275457 -0.826373 1.326621 -0.000000 -1.000000 0.000000 97 77 48
0.826373 -0.826373 1.326621 -0.000000 -1.000000 0.000000 97 77 48
-0.275458 -0.275457 1.474760 1.000000 -0.000000 0.000000 97 77 48
-0.275458 -0.826373 1.474760 1.000000 -0.000000 0.000000 97 77 48
-0.275458 -0.826373 1.326621 1.000000 -0.000000 0.000000 97 77 48
-0.275458 -0.275457 1.326621 1.000000 -0.000000 0.000000 97 77 48
0.275458 -0.275457 1.474760 0.000000 1.000000 0.000000 97 77 48
0.826373 -0.275458 1.474760 0.000000 1.000000 0.000000 97 77 48
0.826373 -0.275458 1.326621 0.000000 1.000000 0.000000 97 77 48
0.275458 -0.275457 1.326621 0.000000 1.000000 0.000000 97 77 48
0.385640 -0.716190 1.203171 -0.999951 0.000000 0.009898 97 77 48
0.385641 -0.385641 1.203171 -0.999951 0.000000 0.009898 97 77 48
0.373560 -0.373560 -0.017219 -0.999951 0.000000 0.009898 97 77 48
0.373560 -0.693755 -0.017219 -0.999951 0.000000 0.009898 97 77 48
0.716190 -0.716190 1.203171 -0.000000 -0.999831 -0.018380 97 77 48
0.385640 -0.716190 1.203171 -0.000000 -0.999831 -0.018380 97 77 48
0.373560 -0.693755 -0.017219 -0.000000 -0.999831 -0.018380 97 77 48
0.693755 -0.693755 -0.017219 -0.000000 -0.999831 -0.018380 97 77 48
-0.385640 0.716190 1.203171 0.999951 -0.000000 0.009898 97 77 48
-0.385640 0.385641 1.203171 0.999951 -0.000000 0.009898 97 77 48
-0.373560 0.373561 -0.017219 0.999951 -0.000000 0.009898 97 77 48
-0.373560 0.693756 -0.017219 0.999951 -0.000000 0.009898 97 77 48
0.385641 0.716190 1.203171 0.000000 0.999831 -0.018380 97 77 48
0.716190 0.716190 1.203171 0.000000 0.999831 -0.018380 97 77 48
0.693755 0.693755 -0.017219 0.000000 0.999831 -0.018380 97 77 48
0.373560 0.693755 -0.017219 0.000000 0.999831 -0.018380 97 77 48
0.826373 0.275458 1.326621 -0.000000 -0.746058 -0.665881 97 77 48
0.275458 0.275458 1.326621 -0.000000 -0.746058 -0.665881 97 77 48
0.385641 0.385641 1.203171 -0.000000 -0.746058 -0.665881 97 77 48
0.716190 0.385641 1.203171 -0.000000 -0.746058 -0.665881 97 77 48
-0.275458 -0.826373 1.326621 -0.000000 -0.746058 -0.665881 97 77 48
-0.826373 -0.826372 1.326621 -0.000000 -0.746058 -0.665881 97 77 48
-0.716190 -0.716189 1.203171 -0.000000 -0.746058 -0.665881 97 77 48
-0.385641 -0.716189 1.203171 -0.000000 -0.746058 -0.665881 97 77 48
-0.826373 -0.275457 1.326621 0.000000 0.746058 -0.665881 97 77 48
-0.275458 -0.275457 1.326621 0.000000 0.746058 -0.665881 97 77 48
-0.385641 -0.385640 1.203171 0.000000 0.746058 -0.665881 97 77 48
-0.716190 -0.385640 1.203171 0.000000 0.746058 -0.665881 97 77 48
-0.826372 0.275458 1.326621 -0.746058 0.000000 -0.665881 97 77 48
-0.826372 0.826373 1.326621 -0.746058 0.000000 -0.665881 97 77 48
-0.716189 0.716190 1.203171 -0.746058 0.000000 -0.665881 97 77 48
-0.716189 0.385641 1.203171 -0.746058 0.000000 -0.665881 97 77 48
0.275458 -0.275457 1.326621 0.000000 0.746058 -0.665881 97 77 48
0.826373 -0.275458 1.326621 0.000000 0.746058 -0.665881 97 77 48
0.716190 -0.385641 1.203171 0.000000 0.746058 -0.665881 97 77 48
0.385641 -0.385641 1.203171 0.000000 0.746058 -0.665881 97 77 48
0.826373 0.826373 1.326621 0.746058 0.000000 -0.665881 97 77 48
0.826373 0.275458 1.326621 0.746058 0.000000 -0.665881 97 77 48
0.716190 0.385641 1.203171 0.746058 0.000000 -0.665881 97 77 48
0.716190 0.716190 1.203171 0.746058 0.000000 -0.665881 97 77 48
0.275458 0.275458 1.326621 -0.746058 0.000000 -0.665881 97 77 48
0.275458 0.826373 1.326621 -0.746058 0.000000 -0.665881 97 77 48
0.385641 0.716190 1.203171 -0.746058 0.000000 -0.665881 97 77 48
0.385641 0.385641 1.203171 -0.746058 0.000000 -0.665881 97 77 48
0.275458 0.826373 1.326621 0.000000 0.746058 -0.665881 97 77 48
0.826373 0.826373 1.326621 0.000000 0.746058 -0.665881 97 77 48
0.716190 0.716190 1.203171 0.000000 0.746058 -0.665881 97 77 48
0.385641 0.716190 1.203171 0.000000 0.746058 -0.665881 97 77 48
-0.275457 0.826373 1.326621 0.746058 -0.000000 -0.665881 97 77 48
-0.275457 0.275458 1.326621 0.746058 -0.000000 -0.665881 97 77 48
-0.385640 0.385641 1.203171 0.746058 -0.000000 -0.665881 97 77 48
-0.385640 0.716190 1.203171 0.746058 -0.000000 -0.665881 97 77 48
0.826373 -0.826373 1.326621 -0.000000 -0.746058 -0.665881 97 77 48
0.275457 -0.826373 1.326621 -0.000000 -0.746058 -0.665881 97 77 48
0.385640 -0.716190 1.203171 -0.000000 -0.746058 -0.665881 97 77 48
0.716190 -0.716190 1.203171 -0.000000 -0.746058 -0.665881 97 77 48
0.275457 -0.826373 1.326621 -0.746058 0.000000 -0.665881 97 77 48
0.275458 -0.275457 1.326621 -0.746058 0.000000 -0.665881 97 77 48
0.385641 -0.385641 1.203171 -0.746058 0.000000 -0.665881 97 77 48
0.385640 -0.716190 1.203171 -0.746058 0.000000 -0.665881 97 77 48
-0.826373 -0.826372 1.326621 -0.746058 0.000000 -0.665881 97 77 48
-0.826373 -0.275457 1.326621 -0.746058 0.000000 -0.665881 97 77 48
-0.716190 -0.385640 1.203171 -0.746058 0.000000 -0.665881 97 77 48
-0.716190 -0.716189 1.203171 -0.746058 0.000000 -0.665881 97 77 48
-0.373561 -0.373560 -0.017219 0.000000 0.000000 -1.000000 97 77 48
-0.373561 -0.693755 -0.017219 0.000000 0.000000 -1.000000 97 77 48
-0.693755 -0.693755 -0.017219 0.000000 0.000000 -1.000000 97 77 48
-0.693755 -0.373560 -0.017219 0.000000 0.000000 -1.000000 97 77 48
-0.373560 0.693756 -0.017219 0.000000 0.000000 -1.000000 97 77 48
-0.373560 0.373561 -0.017219 0.000000 0.000000 -1.000000 97 77 48
-0.693755 0.373561 -0.017219 0.000000 0.000000 -1.000000 97 77 48
-0.693755 0.693756 -0.017219 0.000000 0.000000 -1.000000 97 77 48
0.693755 0.693755 -0.017219 0.000000 0.000000 -1.000000 97 77 48
0.693755 0.373561 -0.017219 0.000000 0.000000 -1.000000 97 77 48
0.373560 0.373561 -0.017219 0.000000 0.000000 -1.000000 97 77 48
0.373560 0.693755 -0.017219 0.000000 0.000000 -1.000000 97 77 48
0.693755 -0.373561 -0.017219 0.000000 0.000000 -1.000000 97 77 48
0.693755 -0.693755 -0.017219 0.000000 0.000000 -1.000000 97 77 48
0.373560 -0.693755 -0.017219 0.000000 0.000000 -1.000000 97 77 48
0.373560 -0.373560 -0.017219 0.000000 0.000000 -1.000000 97 77 48
-0.716190 -0.716189 1.203171 -0.999831 0.000000 -0.018380 97 77 48
-0.716190 -0.385640 1.203171 -0.999831 0.000000 -0.018380 97 77 48
-0.693755 -0.373560 -0.017219 -0.999831 0.000000 -0.018380 97 77 48
-0.693755 -0.693755 -0.017219 -0.999831 0.000000 -0.018380 97 77 48
0.716190 -0.385641 1.203171 0.999831 0.000000 -0.018380 97 77 48
0.716190 -0.716190 1.203171 0.999831 0.000000 -0.018380 97 77 48
0.693755 -0.693755 -0.017219 0.999831 0.000000 -0.018380 97 77 48
0.693755 -0.373561 -0.017219 0.999831 0.000000 -0.018380 97 77 48
-0.385641 -0.385640 1.203171 0.999951 -0.000000 0.009898 97 77 48
-0.385641 -0.716189 1.203171 0.999951 -0.000000 0.009898 97 77 48
-0.373561 -0.693755 -0.017219 0.999951 -0.000000 0.009898 97 77 48
-0.373561 -0.373560 -0.017219 0.999951 -0.000000 0.009898 97 77 48
-0.385640 0.385641 1.203171 -0.000000 -0.999951 0.009898 97 77 48
-0.716189 0.385641 1.203171 -0.000000 -0.999951 0.009898 97 77 48
-0.693755 0.373561 -0.017219 -0.000000 -0.999951 0.009898 97 77 48
-0.373560 0.373561 -0.017219 -0.000000 -0.999951 0.009898 97 77 48
-0.716189 0.716190 1.203171 0.000000 0.999831 -0.018380 97 77 48
-0.385640 0.716190 1.203171 0.000000 0.999831 -0.018380 97 77 48
-0.373560 0.693756 -0.017219 0.000000 0.999831 -0.018380 97 77 48
-0.693755 0.693756 -0.017219 0.000000 0.999831 -0.018380 97 77 48
0.716190 0.385641 1.203171 -0.000000 -0.999951 0.009898 97 77 48
0.385641 0.385641 1.203171 -0.000000 -0.999951 0.009898 97 77 48
0.373560 0.373561 -0.017219 -0.000000 -0.999951 0.009898 97 77 48
0.693755 0.373561 -0.017219 -0.000000 -0.999951 0.009898 97 77 48
-0.385641 -0.716189 1.203171 -0.000000 -0.999831 -0.018380 97 77 48
-0.716190 -0.716189 1.203171 -0.000000 -0.999831 -0.018380 97 77 48
-0.693755 -0.693755 -0.017219 -0.000000 -0.999831 -0.018380 97 77 48
-0.373561 -0.693755 -0.017219 -0.000000 -0.999831 -0.018380 97 77 48
-0.716190 -0.385640 1.203171 0.000000 0.999951 0.009898 97 77 48
-0.385641 -0.385640 1.203171 0.000000 0.999951 0.009898 97 77 48
-0.373561 -0.373560 -0.017219 0.000000 0.999951 0.009898 97 77 48
-0.693755 -0.373560 -0.017219 0.000000 0.999951 0.009898 97 77 48
-0.716189 0.385641 1.203171 -0.999831 0.000000 -0.018380 97 77 48
-0.716189 0.716190 1.203171 -0.999831 0.000000 -0.018380 97 77 48
-0.693755 0.693756 -0.017219 -0.999831 0.000000 -0.018380 97 77 48
-0.693755 0.373561 -0.017219 -0.999831 0.000000 -0.018380 97 77 48
0.385641 -0.385641 1.203171 0.000000 0.999951 0.009898 97 77 48
0.716190 -0.385641 1.203171 0.000000 0.999951 0.009898 97 77 48
0.693755 -0.373561 -0.017219 0.000000 0.999951 0.009898 97 77 48
0.373560 -0.373560 -0.017219 0.000000 0.999951 0.009898 97 77 48
0.716190 0.716190 1.203171 0.999831 0.000000 -0.018380 97 77 48
0.716190 0.385641 1.203171 0.999831 0.000000 -0.018380 97 77 48
0.693755 0.373561 -0.017219 0.999831 0.000000 -0.018380 97 77 48
0.693755 0.693755 -0.017219 0.999831 0.000000 -0.018380 97 77 48
0.385641 0.385641 1.203171 -0.999951 0.000000 0.009898 97 77 48
0.385641 0.716190 1.203171 -0.999951 0.000000 0.009898 97 77 48
0.373560 0.693755 -0.017219 -0.999951 0.000000 0.009898 97 77 48
0.373560 0.373561 -0.017219 -0.999951 0.000000 0.009898 97 77 48
-0.940000 0.502110 1.474760 0.000000 -0.000000 -1.000000 129 129 129
-0.940000 0.940000 1.474760 -0.000000 0.000000 -1.000000 129 129 129
-0.826372 0.826373 1.474760 -0.000000 0.000000 -1.000000 129 129 129
1.000000 0.502110 1.534760 1.000000 -0.000000 0.000000 129 129 129
1.000000 0.562109 1.806919 1.000000 -0.000000 0.000000 129 129 129
1.000000 -0.940000 1.806919 1.000000 -0.000000 0.000000 129 129 129
1.000000 -0.940000 1.534760 1.000000 -0.000000 0.000000 129 129 129
0.940000 0.442109 1.866919 0.000000 -0.000000 1.000000 129 129 129
-0.940000 0.442110 1.866919 0.000000 -0.000000 1.000000 129 129 129
-0.940000 -0.940000 1.866919 0.000000 -0.000000 1.000000 129 129 129
0.939999 -0.940001 1.866919 0.000000 -0.000000 1.000000 129 129 129
-0.940000 0.502110 1.926919 -0.000000 -0.999618 0.027620 129 129 129
0.940000 0.502109 1.926919 -0.000000 -0.999618 0.027620 129 129 129
0.940000 0.563058 4.132784 -0.000000 -0.999618 0.027620 129 129 129
-0.940000 0.563059 4.132784 -0.000000 -0.999618 0.027620 129 129 129
1.000000 0.562109 1.806919 1.000000 -0.000001 0.000000 129 129 129
1.000000 0.940000 1.866919 1.000000 -0.000001 0.000000 129 129 129
1.000000 1.000948 4.132784 1.000000 -0.000001 0.000000 129 129 129
1.000000 0.623058 4.132784 1.000000 -0.000001 0.000000 129 129 129
0.940000 1.000948 4.192784 0.000000 -0.000000 1.000000 129 129 129
-0.940000 1.000949 4.192784 0.000000 -0.000000 1.000000 129 129 129
-0.940000 0.623059 4.192784 0.000000 -0.000000 1.000000 129 129 129
0.940000 0.623058 4.192784 0.000000 -0.000000 1.000000 129 129 129
0.940000 1.000000 1.534760 0.577351 0.577351 -0.577349 129 129 129
1.000000 0.940000 1.534760 0.577351 0.577351 -0.577349 129 129 129
0.940000 0.940000 1.474760 0.577351 0.577351 -0.577349 129 129 129
1.000000 -0.940000 1.534760 0.577351 -0.577351 -0.577350 129 129 129
0.940000 -1.000000 1.534760 0.577351 -0.577351 -0.577350 129 129 129
0.940000 -0.940000 1.474760 0.577351 -0.577351 -0.577350 129 129 129
-0.940000 -1.000000 1.534760 -0.577351 -0.577350 -0.577350 129 129 129
-1.000000 -0.940000 1.534760 -0.577351 -0.577350 -0.577350 129 129 129
-0.940000 -0.940000 1.474760 -0.577351 -0.577350 -0.577350 129 129 129
-0.940000 0.940000 1.474760 -0.577351 0.577350 -0.577350 129 129 129
-1.000000 0.940000 1.534760 -0.577351 0.577350 -0.577350 129 129 129
-0.940000 1.000000 1.534760 -0.577351 0.577350 -0.577350 129 129 129
0.939999 -1.000000 1.806919 0.577350 -0.577350 0.577351 129 129 129
1.000000 -0.940000 1.806919 0.577350 -0.577350 0.577351 129 129 129
0.939999 -0.940001 1.866919 0.577350 -0.577350 0.577351 129 129 129
-1.000000 -0.940000 1.806919 -0.577350 -0.577350 0.577350 129 129 129
-0.940000 -1.000000 1.806919 -0.577350 -0.577350 0.577350 129 129 129
-0.940000 -0.940000 1.866919 -0.577350 -0.577350 0.577350 129 129 129
0.940000 0.442109 1.866919 0.904534 -0.301512 0.301511 129 129 129
1.000000 0.562109 1.806919 0.904534 -0.301512 0.301511 129 129 129
0.940000 0.502109 1.926919 0.904534 -0.301512 0.301511 129 129 129
-0.940000 0.442110 1.866919 -0.904534 -0.301511 0.301512 129 129 129
-0.940000 0.502110 1.926919 -0.904534 -0.301511 0.301512 129 129 129
-1.000000 0.562110 1.806919 -0.904534 -0.301511 0.301512 129 129 129
0.940000 1.060948 4.132784 0.577350 0.577350 0.577351 129 129 129
0.940000 1.000948 4.192784 0.577350 0.577350 0.577351 129 129 129
1.000000 1.000948 4.132784 0.577350 0.577350 0.577351 129 129 129
-0.940000 1.060949 4.132784 -0.577350 0.577350 0.577351 129 129 129
-1.000000 1.000949 4.132784 -0.577350 0.577350 0.577351 129 129 129
-0.940000 1.000949 4.192784 -0.577350 0.577350 0.577351 129 129 129
-1.000000 0.623059 4.132784 -0.577350 -0.577350 0.577351 129 129 129
-0.940000 0.563059 4.132784 -0.577350 -0.577350 0.577351 129 129 129
-0.940000 0.623059 4.192784 -0.577350 -0.577350 0.577351 129 129 129
1.000000 0.623058 4.132784 0.577350 -0.577350 0.577351 129 129 129
0.940000 0.623058 4.192784 0.577350 -0.577350 0.577351 129 129 129
0.940000 0.563058 4.132784 0.577350 -0.577350 0.577351 129 129 129
1.000000 0.502110 1.534760 0.707107 -0.000000 -0.707106 129 129 129
1.000000 -0.940000 1.534760 0.707107 -0.000000 -0.707106 129 129 129
0.940000 -0.940000 1.474760 0.707107 -0.000000 -0.707106 129 129 129
0.940000 0.502110 1.474760 0.707107 -0.000000 -0.707106 129 129 129
0.940000 0.940000 1.474760 0.000000 0.707108 -0.707106 129 129 129
-0.940000 0.940000 1.474760 0.000000 0.707108 -0.707106 129 129 129
-0.940000 1.000000 1.534760 0.000000 0.707108 -0.707106 129 129 129
0.940000 1.000000 1.534760 0.000000 0.707108 -0.707106 129 129 129
0.940000 1.000000 1.534760 0.707107 0.707107 -0.000000 129 129 129
0.940000 1.000000 1.866919 0.707107 0.707107 -0.000000 129 129 129
1.000000 0.940000 1.866919 0.707107 0.707107 -0.000000 129 129 129
1.000000 0.940000 1.534760 0.707107 0.707107 -0.000000 129 129 129
0.940000 -1.000000 1.534760 -0.000000 -0.707107 -0.707107 129 129 129
-0.940000 -1.000000 1.534760 -0.000000 -0.707107 -0.707107 129 129 129
-0.940000 -0.940000 1.474760 -0.000000 -0.707107 -0.707107 129 129 129
0.940000 -0.940000 1.474760 -0.000000 -0.707107 -0.707107 129 129 129
1.000000 -0.940000 1.534760 0.707107 -0.707107 -0.000000 129 129 129
1.000000 -0.940000 1.806919 0.707107 -0.707107 -0.000000 129 129 129
0.939999 -1.000000 1.806919 0.707107 -0.707107 -0.000000 129 129 129
0.940000 -1.000000 1.534760 0.707107 -0.707107 -0.000000 129 129 129
-1.000000 0.502110 1.534760 -0.707107 0.000000 -0.707107 129 129 129
-1.000000 0.940000 1.534760 -0.707107 0.000000 -0.707107 129 129 129
-0.940000 0.940000 1.474760 -0.707107 0.000000 -0.707107 129 129 129
-0.940000 0.502110 1.474760 -0.707107 0.000000 -0.707107 129 129 129
-0.940000 -1.000000 1.534760 -0.707107 -0.707107 -0.000000 129 129 129
-0.940000 -1.000000 1.806919 -0.707107 -0.707107 -0.000000 129 129 129
-1.000000 -0.940000 1.806919 -0.707107 -0.707107 -0.000000 129 129 129
-1.000000 -0.940000 1.534760 -0.707107 -0.707107 -0.000000 129 129 129
-1.000000 0.940000 1.534760 -0.707107 0.707107 0.000000 129 129 129
-1.000000 0.940000 1.866919 -0.707107 0.707107 0.000000 129 129 129
-0.940000 1.000000 1.866919 -0.707107 0.707107 0.000000 129 129 129
-0.940000 1.000000 1.534760 -0.707107 0.707107 0.000000 129 129 129
0.940000 0.442109 1.866919 0.707106 -0.000000 0.707107 129 129 129
0.939999 -0.940001 1.866919 0.707106 -0.000000 0.707107 129 129 129
1.000000 -0.940000 1.806919 0.707106 -0.000000 0.707107 129 129 129
1.000000 0.562109 1.806919 0.707106 -0.000000 0.707107 129 129 129
0.939999 -0.940001 1.866919 -0.000000 -0.707107 0.707107 129 129 129
-0.940000 -0.940000 1.866919 -0.000000 -0.707107 0.707107 129 129 129
-0.940000 -1.000000 1.806919 -0.000000 -0.707107 0.707107 129 129 129
0.939999 -1.000000 1.806919 -0.000000 -0.707107 0.707107 129 129 129
1.000000 0.940000 1.534760 0.707107 -0.000000 -0.707106 129 129 129
0.940000 0.940000 1.474760 0.707107 -0.000000 -0.707106 129 129 129
-1.000000 -0.940000 1.534760 -0.707107 0.000000 -0.707107 129 129 129
-0.940000 -0.940000 1.474760 -0.707107 0.000000 -0.707107 129 129 129
-0.940000 -0.940000 1.866919 -0.707106 0.000000 0.707107 129 129 129
-0.940000 0.442110 1.866919 -0.707106 0.000000 0.707107 129 129 129
-1.000000 0.562110 1.806919 -0.707106 0.000000 0.707107 129 129 129
-1.000000 -0.940000 1.806919 -0.707106 0.000000 0.707107 129 129 129
-0.940000 0.442110 1.866919 -0.000000 -0.707107 0.707107 129 129 129
0.940000 0.442109 1.866919 -0.000000 -0.707107 0.707107 129 129 129
0.940000 0.502109 1.926919 -0.000000 -0.707107 0.707107 129 129 129
-0.940000 0.502110 1.926919 -0.000000 -0.707107 0.707107 129 129 129
0.940000 1.060948 4.132784 0.000000 0.707106 0.707107 129 129 129
-0.940000 1.060949 4.132784 0.000000 0.707106 0.707107 129 129 129
-0.940000 1.000949 4.192784 0.000000 0.707106 0.707107 129 129 129
0.940000 1.000948 4.192784 0.000000 0.707106 0.707107 129 129 129
-0.940000 0.623059 4.192784 -0.707106 0.000000 0.707107 129 129 129
-0.940000 1.000949 4.192784 -0.707106 0.000000 0.707107 129 129 129
-1.000000 1.000949 4.132784 -0.707106 0.000000 0.707107 129 129 129
-1.000000 0.623059 4.132784 -0.707106 0.000000 0.707107 129 129 129
0.940000 1.000948 4.192784 0.707106 -0.000000 0.707107 129 129 129
0.940000 0.623058 4.192784 0.707106 -0.000000 0.707107 129 129 129
1.000000 0.623058 4.132784 0.707106 -0.000000 0.707107 129 129 129
1.000000 1.000948 4.132784 0.707106 -0.000000 0.707107 129 129 129
-0.940000 0.563059 4.132784 -0.000000 -0.707106 0.707107 129 129 129
0.940000 0.563058 4.132784 -0.000000 -0.707106 0.707107 129 129 129
0.940000 0.623058 4.192784 -0.000000 -0.707106 0.707107 129 129 129
-0.940000 0.623059 4.192784 -0.000000 -0.707106 0.707107 129 129 129
0.940000 1.000000 1.866919 0.706979 0.706979 -0.019017 129 129 129
0.940000 1.060948 4.132784 0.706979 0.706979 -0.019017 129 129 129
1.000000 1.000948 4.132784 0.706979 0.706979 -0.019017 129 129 129
1.000000 0.940000 1.866919 0.706979 0.706979 -0.019017 129 129 129
0.940000 0.563058 4.132784 0.716302 -0.697539 0.018763 129 129 129
0.940000 0.502109 1.926919 0.716302 -0.697539 0.018763 129 129 129
1.000000 0.562109 1.806919 0.716302 -0.697539 0.018763 129 129 129
1.000000 0.623058 4.132784 0.716302 -0.697539 0.018763 129 129 129
-0.940000 0.502110 1.926919 -0.716302 -0.697539 0.018763 129 129 129
-0.940000 0.563059 4.132784 -0.716302 -0.697539 0.018763 129 129 129
-1.000000 0.623059 4.132784 -0.716302 -0.697539 0.018763 129 129 129
-1.000000 0.562110 1.806919 -0.716302 -0.697539 0.018763 129 129 129
-0.940000 1.060949 4.132784 -0.706979 0.706979 -0.019017 129 129 129
-0.940000 1.000000 1.866919 -0.706979 0.706979 -0.019017 129 129 129
-1.000000 0.940000 1.866919 -0.706979 0.706979 -0.019017 129 129 129
-1.000000 1.000949 4.132784 -0.706979 0.706979 -0.019017 129 129 129
0.940000 0.940000 1.474760 -0.000000 -0.000000 -1.000000 129 129 129
0.940000 0.940000 1.474760 -0.000000 -0.000001 -1.000000 129 129 129
0.826373 0.826373 1.474760 -0.000000 -0.000001 -1.000000 129 129 129
0.275458 0.826373 1.474760 -0.000000 -0.000001 -1.000000 129 129 129
-0.275457 0.826373 1.474760 -0.000000 -0.000001 -1.000000 129 129 129
-0.826372 0.826373 1.474760 -0.000000 -0.000001 -1.000000 129 129 129
4 0 1 2 3
4 4 5 6 7
3 8 9 10
3 10 11 12
3 13 8 10
3 10 12 13
4 14 15 16 17
4 18 19 20 21
4 22 23 24 25
4 26 27 28 29
4 17 16 30 31
4 32 33 34 35
3 36 37 38
3 39 9 8
3 40 41 42
3 43 44 39
3 39 8 43
4 45 46 47 48
4 49 50 51 52
4 53 54 55 56
4 57 58 49 59
4 43 60 61 58
4 58 61 50 49
4 62 63 64 65
4 61 13 12 50
4 66 67 68 69
4 70 71 72 73
4 74 75 76 77
4 78 79 80 81
4 82 83 84 85
4 86 87 88 89
4 90 91 92 93
4 94 95 96 97
4 98 99 100 101
4 102 103 104 105
4 106 107 108 109
4 110 111 112 113
4 114 115 116 117
4 118 119 120 121
4 122 123 124 125
4 126 127 128 129
4 130 131 132 133
4 134 135 136 137
4 138 139 140 141
4 142 143 144 145
4 146 147 148 149
4 150 151 152 153
4 154 155 156 157
4 158 159 160 161
4 162 163 164 165
4 166 167 168 169
4 170 171 172 173
4 174 175 176 177
4 178 179 180 181
4 182 183 184 185
4 186 187 188 189
4 190 191 192 193
4 194 195 196 197
4 198 199 200 201
4 202 203 204 205
4 206 207 208 209
4 210 211 212 213
4 214 215 216 217
4 218 219 220 221
4 222 223 224 225
4 226 227 228 229
4 230 231 232 233
4 234 235 236 237
4 238 239 240 241
4 242 243 244 245
4 246 247 248 249
4 250 251 252 253
4 254 255 256 257
3 11 10 258
3 258 259 260
3 260 52 51
3 51 11 258
3 258 260 51
4 261 262 263 264
4 265 266 267 268
4 269 270 271 272
4 273 274 275 276
4 277 278 279 280
3 281 282 283
3 284 285 286
3 287 288 289
3 290 291 292
3 293 294 295
3 296 297 298
3 299 300 301
3 302 303 304
3 305 306 307
3 308 309 310
3 311 312 313
3 314 315 316
4 317 318 319 320
4 321 322 323 324
4 325 326 327 328
4 329 330 331 332
4 333 334 335 336
4 337 338 339 340
4 341 342 343 344
4 345 346 347 348
4 349 350 351 352
4 353 354 355 356
4 357 317 320 358
4 359 337 340 360
4 361 362 363 364
4 365 366 367 368
4 369 370 371 372
4 373 374 375 376
4 377 378 379 380
4 381 382 383 384
4 385 386 387 388
4 389 390 391 392
4 393 394 395 396
4 397 398 399 400
3 260 259 401
3 402 403 404
3 405 406 402
3 402 404 405
