ply
format ascii 1.0
comment Created by Blender 2.79 (sub 0) - www.blender.org, source file: 'cityDISP.blend'
element vertex 292
property float x
property float y
property float z
property float nx
property float ny
property float nz
property uchar red
property uchar green
property uchar blue
element face 79
property list uchar uint vertex_indices
end_header
13.900000 -22.164604 16.299999 1.000000 0.000000 -0.000000 235 0 255
13.900000 -69.864601 16.299999 1.000000 0.000000 -0.000000 235 0 255
13.900000 -69.864601 0.010000 1.000000 0.000000 -0.000000 235 0 255
13.900000 -22.164604 0.010000 1.000000 0.000000 -0.000000 235 0 255
25.900000 -22.164604 16.299999 1.000000 0.000000 -0.000000 235 0 255
25.900000 -69.864601 16.299999 1.000000 0.000000 -0.000000 235 0 255
25.900000 -69.864601 0.010000 1.000000 0.000000 -0.000000 235 0 255
25.900000 -22.164604 0.010000 1.000000 0.000000 -0.000000 235 0 255
-26.000000 -70.020012 0.000000 -1.000000 0.000000 0.000000 235 0 255
-26.000000 34.020008 0.000000 -1.000000 0.000000 0.000000 235 0 255
-26.000000 34.020008 -2.000000 -1.000000 0.000000 0.000000 235 0 255
-26.000000 -70.020012 -2.000000 -1.000000 0.000000 0.000000 235 0 255
-2.100000 -22.164604 0.010000 0.000000 0.000000 -1.000000 235 0 255
-2.100000 -69.864601 0.010000 0.000000 0.000000 -1.000000 235 0 255
-9.900002 -69.864601 0.010000 0.000000 0.000000 -1.000000 235 0 255
-9.900002 -22.164604 0.010000 0.000000 0.000000 -1.000000 235 0 255
-1.900000 34.035400 16.299999 0.000001 1.000000 -0.000000 235 0 255
2.020070 34.035397 16.299999 0.000001 1.000000 -0.000000 235 0 255
2.020070 34.035397 0.000000 0.000001 1.000000 -0.000000 235 0 255
-9.979931 34.035397 0.000000 0.000000 1.000000 0.000000 235 0 255
-9.979931 34.035397 16.299999 0.000000 1.000000 0.000000 235 0 255
-6.000000 34.035397 16.299999 0.000000 1.000000 0.000000 235 0 255
-6.000000 34.035397 0.100000 0.000000 1.000000 -0.000000 235 0 255
-1.900000 34.035397 0.100000 -0.000000 1.000000 -0.000000 235 0 255
-1.900000 34.035400 16.299999 -0.000000 1.000000 -0.000000 235 0 255
2.020070 34.035397 0.000000 -0.000000 1.000000 -0.000000 235 0 255
-14.100000 33.835396 0.010000 0.000000 0.000000 -1.000000 235 0 255
-14.100000 18.135397 0.010000 0.000000 0.000000 -1.000000 235 0 255
-21.900002 18.135397 0.010000 0.000000 0.000000 -1.000000 235 0 255
-21.900002 33.835396 0.010000 0.000000 0.000000 -1.000000 235 0 255
30.000000 34.020008 -2.000000 0.000000 0.000000 -1.000000 235 0 255
30.000000 -70.020012 -2.000000 0.000000 0.000000 -1.000000 235 0 255
-26.000000 -70.020012 -2.000000 0.000000 0.000000 -1.000000 235 0 255
-26.000000 34.020008 -2.000000 0.000000 0.000000 -1.000000 235 0 255
30.000000 34.020008 0.000000 1.000000 0.000000 -0.000000 235 0 255
30.000000 -70.020012 0.000000 1.000000 0.000000 -0.000000 235 0 255
30.000000 -70.020012 -2.000000 1.000000 0.000000 -0.000000 235 0 255
30.000000 34.020008 -2.000000 1.000000 0.000000 -0.000000 235 0 255
-9.979931 18.035395 16.299999 -1.000000 0.000000 0.000000 235 0 255
-9.979931 34.035397 16.299999 -1.000000 0.000000 0.000000 235 0 255
-9.979931 34.035397 0.000000 -1.000000 0.000000 0.000000 235 0 255
-9.979931 18.035395 0.000000 -1.000000 0.000000 0.000000 235 0 255
25.900000 -22.164604 0.010000 0.000000 0.000000 -1.000000 235 0 255
25.900000 -69.864601 0.010000 0.000000 0.000000 -1.000000 235 0 255
18.099998 -69.864601 0.010000 0.000000 0.000000 -1.000000 235 0 255
18.099998 -22.164604 0.010000 0.000000 0.000000 -1.000000 235 0 255
18.099998 -22.164604 16.299999 0.000000 0.000000 1.000000 235 0 255
18.099998 -69.864601 16.299999 0.000000 0.000000 1.000000 235 0 255
25.900000 -69.864601 16.299999 0.000000 0.000000 1.000000 235 0 255
25.900000 -22.164604 16.299999 0.000000 0.000000 1.000000 235 0 255
-26.000000 34.020008 0.000000 0.000000 1.000000 -0.000000 235 0 255
30.000000 34.020008 0.000000 0.000000 1.000000 -0.000000 235 0 255
30.000000 34.020008 -2.000000 0.000000 1.000000 -0.000000 235 0 255
-26.000000 34.020008 -2.000000 0.000000 1.000000 -0.000000 235 0 255
-14.100000 18.135397 16.299999 0.000000 -1.000000 0.000000 235 0 255
-21.900002 18.135397 16.299999 0.000000 -1.000000 0.000000 235 0 255
-21.900002 18.135397 0.010000 0.000000 -1.000000 0.000000 235 0 255
-14.100000 18.135397 0.010000 0.000000 -1.000000 0.000000 235 0 255
25.900000 13.835397 0.010000 0.000000 0.000000 -1.000000 235 0 255
25.900000 -17.864603 0.010000 0.000000 0.000000 -1.000000 235 0 255
18.099998 -17.864603 0.010000 0.000000 0.000000 -1.000000 235 0 255
18.099998 13.835397 0.010000 0.000000 0.000000 -1.000000 235 0 255
6.099998 -22.164604 16.299999 0.000000 1.000000 -0.000000 235 0 255
13.900000 -22.164604 16.299999 0.000000 1.000000 -0.000000 235 0 255
13.900000 -22.164604 0.010000 0.000000 1.000000 -0.000000 235 0 255
6.099998 -22.164604 0.010000 0.000000 1.000000 -0.000000 235 0 255
-6.000000 22.000000 0.100000 0.000000 1.000000 0.000000 235 0 255
-6.000000 22.000000 16.300001 0.000000 1.000000 0.000000 235 0 255
-1.900000 22.000000 16.300001 0.000000 1.000000 0.000000 235 0 255
-1.900000 22.000000 0.100000 0.000000 1.000000 0.000000 235 0 255
18.099998 -22.164604 16.299999 0.000000 1.000000 -0.000000 235 0 255
25.900000 -22.164604 16.299999 0.000000 1.000000 -0.000000 235 0 255
25.900000 -22.164604 0.010000 0.000000 1.000000 -0.000000 235 0 255
18.099998 -22.164604 0.010000 0.000000 1.000000 -0.000000 235 0 255
-6.000000 22.000000 0.100000 0.000000 0.000000 1.000000 235 0 255
-1.900000 22.000000 0.100000 0.000000 0.000000 1.000000 235 0 255
-1.900000 34.035397 0.100000 0.000000 0.000000 1.000000 235 0 255
-6.000000 34.035397 0.100000 0.000000 0.000000 1.000000 235 0 255
13.900000 -69.864601 16.299999 0.000000 -1.000000 0.000000 235 0 255
6.099998 -69.864601 16.299999 0.000000 -1.000000 0.000000 235 0 255
6.099998 -69.864601 0.010000 0.000000 -1.000000 0.000000 235 0 255
13.900000 -69.864601 0.010000 0.000000 -1.000000 0.000000 235 0 255
-9.900002 -22.164604 16.299999 0.000000 1.000000 -0.000000 235 0 255
-2.100000 -22.164604 16.299999 0.000000 1.000000 -0.000000 235 0 255
-2.100000 -22.164604 0.010000 0.000000 1.000000 -0.000000 235 0 255
-9.900002 -22.164604 0.010000 0.000000 1.000000 -0.000000 235 0 255
-14.100000 -22.164604 16.299999 1.000000 0.000000 -0.000000 235 0 255
-14.100000 -69.864601 16.299999 1.000000 0.000000 -0.000000 235 0 255
-14.100000 -69.864601 0.010000 1.000000 0.000000 -0.000000 235 0 255
-14.100000 -22.164604 0.010000 1.000000 0.000000 -0.000000 235 0 255
6.099998 -69.864601 16.299999 -1.000000 0.000000 0.000000 235 0 255
6.099998 -22.164604 16.299999 -1.000000 0.000000 0.000000 235 0 255
6.099998 -22.164604 0.010000 -1.000000 0.000000 0.000000 235 0 255
6.099998 -69.864601 0.010000 -1.000000 0.000000 0.000000 235 0 255
-14.100000 13.835397 16.299999 1.000000 0.000000 -0.000000 235 0 255
-14.100000 -17.864603 16.299999 1.000000 0.000000 -0.000000 235 0 255
-14.100000 -17.864603 0.010000 1.000000 0.000000 -0.000000 235 0 255
-14.100000 13.835397 0.010000 1.000000 0.000000 -0.000000 235 0 255
-14.100000 -22.164604 0.010000 0.000000 0.000000 -1.000000 235 0 255
-14.100000 -69.864601 0.010000 0.000000 0.000000 -1.000000 235 0 255
-21.900002 -69.864601 0.010000 0.000000 0.000000 -1.000000 235 0 255
-21.900002 -22.164604 0.010000 0.000000 0.000000 -1.000000 235 0 255
13.900000 18.135397 16.299999 0.000000 -1.000000 0.000000 235 0 255
6.099998 18.135397 16.299999 0.000000 -1.000000 0.000000 235 0 255
6.099998 18.135397 0.010000 0.000000 -1.000000 0.000000 235 0 255
13.900000 18.135397 0.010000 0.000000 -1.000000 0.000000 235 0 255
6.099998 18.135397 16.299999 -1.000000 0.000000 0.000000 235 0 255
6.099998 33.835396 16.299999 -1.000000 0.000000 0.000000 235 0 255
6.099998 33.835396 0.010000 -1.000000 0.000000 0.000000 235 0 255
6.099998 18.135397 0.010000 -1.000000 0.000000 0.000000 235 0 255
-2.100000 -69.864601 16.299999 0.000000 -1.000000 0.000000 235 0 255
-9.900002 -69.864601 16.299999 0.000000 -1.000000 0.000000 235 0 255
-9.900002 -69.864601 0.010000 0.000000 -1.000000 0.000000 235 0 255
-2.100000 -69.864601 0.010000 0.000000 -1.000000 0.000000 235 0 255
2.020070 34.035397 16.299999 1.000000 0.000000 -0.000000 235 0 255
2.020070 18.035395 16.299999 1.000000 0.000000 -0.000000 235 0 255
2.020070 18.035395 0.000000 1.000000 0.000000 -0.000000 235 0 255
2.020070 34.035397 0.000000 1.000000 0.000000 -0.000000 235 0 255
25.900000 33.835396 0.010000 0.000000 0.000000 -1.000000 235 0 255
25.900000 18.135397 0.010000 0.000000 0.000000 -1.000000 235 0 255
18.099998 18.135397 0.010000 0.000000 0.000000 -1.000000 235 0 255
18.099998 33.835396 0.010000 0.000000 0.000000 -1.000000 235 0 255
-14.100000 13.835397 0.010000 0.000000 0.000000 -1.000000 235 0 255
-14.100000 -17.864603 0.010000 0.000000 0.000000 -1.000000 235 0 255
-21.900002 -17.864603 0.010000 0.000000 0.000000 -1.000000 235 0 255
-21.900002 13.835397 0.010000 0.000000 0.000000 -1.000000 235 0 255
18.099998 33.835396 16.299999 0.000000 0.000000 1.000000 235 0 255
18.099998 18.135397 16.299999 0.000000 0.000000 1.000000 235 0 255
25.900000 18.135397 16.299999 0.000000 0.000000 1.000000 235 0 255
25.900000 33.835396 16.299999 0.000000 0.000000 1.000000 235 0 255
-21.900002 -17.864603 16.299999 -1.000000 0.000000 0.000000 235 0 255
-21.900002 13.835397 16.299999 -1.000000 0.000000 0.000000 235 0 255
-21.900002 13.835397 0.010000 -1.000000 0.000000 0.000000 235 0 255
-21.900002 -17.864603 0.010000 -1.000000 0.000000 0.000000 235 0 255
6.099998 -22.164604 16.299999 0.000000 0.000000 1.000000 235 0 255
6.099998 -69.864601 16.299999 0.000000 0.000000 1.000000 235 0 255
13.900000 -69.864601 16.299999 0.000000 0.000000 1.000000 235 0 255
13.900000 -22.164604 16.299999 0.000000 0.000000 1.000000 235 0 255
-21.900002 13.835397 16.299999 0.000000 1.000000 -0.000000 235 0 255
-14.100000 13.835397 16.299999 0.000000 1.000000 -0.000000 235 0 255
-14.100000 13.835397 0.010000 0.000000 1.000000 -0.000000 235 0 255
-21.900002 13.835397 0.010000 0.000000 1.000000 -0.000000 235 0 255
18.099998 33.835396 16.299999 0.000000 1.000000 -0.000000 235 0 255
25.900000 33.835396 16.299999 0.000000 1.000000 -0.000000 235 0 255
25.900000 33.835396 0.010000 0.000000 1.000000 -0.000000 235 0 255
18.099998 33.835396 0.010000 0.000000 1.000000 -0.000000 235 0 255
18.099998 13.835397 16.299999 0.000000 1.000000 -0.000000 235 0 255
25.900000 13.835397 16.299999 0.000000 1.000000 -0.000000 235 0 255
25.900000 13.835397 0.010000 0.000000 1.000000 -0.000000 235 0 255
18.099998 13.835397 0.010000 0.000000 1.000000 -0.000000 235 0 255
-2.100000 -22.164604 16.299999 1.000000 0.000000 -0.000000 235 0 255
-2.100000 -69.864601 16.299999 1.000000 0.000000 -0.000000 235 0 255
-2.100000 -69.864601 0.010000 1.000000 0.000000 -0.000000 235 0 255
-2.100000 -22.164604 0.010000 1.000000 0.000000 -0.000000 235 0 255
-9.900002 -22.164604 16.299999 0.000000 0.000000 1.000000 235 0 255
-9.900002 -69.864601 16.299999 0.000000 0.000000 1.000000 235 0 255
-2.100000 -69.864601 16.299999 0.000000 0.000000 1.000000 235 0 255
-2.100000 -22.164604 16.299999 0.000000 0.000000 1.000000 235 0 255
25.900000 13.835397 16.299999 1.000000 0.000000 -0.000000 235 0 255
25.900000 -17.864603 16.299999 1.000000 0.000000 -0.000000 235 0 255
25.900000 -17.864603 0.010000 1.000000 0.000000 -0.000000 235 0 255
25.900000 13.835397 0.010000 1.000000 0.000000 -0.000000 235 0 255
-14.100000 -69.864601 16.299999 0.000000 -1.000000 0.000000 235 0 255
-21.900002 -69.864601 16.299999 0.000000 -1.000000 0.000000 235 0 255
-21.900002 -69.864601 0.010000 0.000000 -1.000000 0.000000 235 0 255
-14.100000 -69.864601 0.010000 0.000000 -1.000000 0.000000 235 0 255
25.900000 18.135397 16.299999 0.000000 -1.000000 0.000000 235 0 255
18.099998 18.135397 16.299999 0.000000 -1.000000 0.000000 235 0 255
18.099998 18.135397 0.010000 0.000000 -1.000000 0.000000 235 0 255
25.900000 18.135397 0.010000 0.000000 -1.000000 0.000000 235 0 255
25.900000 33.835396 16.299999 1.000000 0.000000 -0.000000 235 0 255
25.900000 18.135397 16.299999 1.000000 0.000000 -0.000000 235 0 255
25.900000 18.135397 0.010000 1.000000 0.000000 -0.000000 235 0 255
25.900000 33.835396 0.010000 1.000000 0.000000 -0.000000 235 0 255
-21.900002 -22.164604 16.299999 0.000000 0.000000 1.000000 235 0 255
-21.900002 -69.864601 16.299999 0.000000 0.000000 1.000000 235 0 255
-14.100000 -69.864601 16.299999 0.000000 0.000000 1.000000 235 0 255
-14.100000 -22.164604 16.299999 0.000000 0.000000 1.000000 235 0 255
-21.900002 13.835397 16.299999 0.000000 0.000000 1.000000 235 0 255
-21.900002 -17.864603 16.299999 0.000000 0.000000 1.000000 235 0 255
-14.100000 -17.864603 16.299999 0.000000 0.000000 1.000000 235 0 255
-14.100000 13.835397 16.299999 0.000000 0.000000 1.000000 235 0 255
25.900000 -17.864603 16.299999 0.000000 -1.000000 0.000000 235 0 255
18.099998 -17.864603 16.299999 0.000000 -1.000000 0.000000 235 0 255
18.099998 -17.864603 0.010000 0.000000 -1.000000 0.000000 235 0 255
25.900000 -17.864603 0.010000 0.000000 -1.000000 0.000000 235 0 255
-14.100000 -17.864603 16.299999 0.000000 -1.000000 0.000000 235 0 255
-21.900002 -17.864603 16.299999 0.000000 -1.000000 0.000000 235 0 255
-21.900002 -17.864603 0.010000 0.000000 -1.000000 0.000000 235 0 255
-14.100000 -17.864603 0.010000 0.000000 -1.000000 0.000000 235 0 255
18.099998 -17.864603 16.299999 -1.000000 0.000000 0.000000 235 0 255
18.099998 13.835397 16.299999 -1.000000 0.000000 0.000000 235 0 255
18.099998 13.835397 0.010000 -1.000000 0.000000 0.000000 235 0 255
18.099998 -17.864603 0.010000 -1.000000 0.000000 0.000000 235 0 255
2.020070 34.035397 0.000000 0.000000 0.000000 -1.000000 235 0 255
2.020070 18.035395 0.000000 0.000000 0.000000 -1.000000 235 0 255
-9.979931 18.035395 0.000000 0.000000 0.000000 -1.000000 235 0 255
-9.979931 34.035397 0.000000 0.000000 0.000000 -1.000000 235 0 255
-21.900002 -22.164604 16.299999 0.000000 1.000000 -0.000000 235 0 255
-14.100000 -22.164604 16.299999 0.000000 1.000000 -0.000000 235 0 255
-14.100000 -22.164604 0.010000 0.000000 1.000000 -0.000000 235 0 255
-21.900002 -22.164604 0.010000 0.000000 1.000000 -0.000000 235 0 255
-6.000000 34.035397 0.100000 1.000000 -0.000000 -0.000000 235 0 255
-6.000000 34.035397 16.299999 1.000000 -0.000000 -0.000000 235 0 255
-6.000000 22.000000 16.300001 1.000000 -0.000000 -0.000000 235 0 255
-6.000000 22.000000 0.100000 1.000000 -0.000000 -0.000000 235 0 255
18.099998 18.135397 16.299999 -1.000000 0.000000 0.000000 235 0 255
18.099998 33.835396 16.299999 -1.000000 0.000000 0.000000 235 0 255
18.099998 33.835396 0.010000 -1.000000 0.000000 0.000000 235 0 255
18.099998 18.135397 0.010000 -1.000000 0.000000 0.000000 235 0 255
6.099998 33.835396 16.299999 0.000000 1.000000 -0.000000 235 0 255
13.900000 33.835396 16.299999 0.000000 1.000000 -0.000000 235 0 255
13.900000 33.835396 0.010000 0.000000 1.000000 -0.000000 235 0 255
6.099998 33.835396 0.010000 0.000000 1.000000 -0.000000 235 0 255
6.099998 33.835396 16.299999 0.000000 0.000000 1.000000 235 0 255
6.099998 18.135397 16.299999 0.000000 0.000000 1.000000 235 0 255
13.900000 18.135397 16.299999 0.000000 0.000000 1.000000 235 0 255
13.900000 33.835396 16.299999 0.000000 0.000000 1.000000 235 0 255
-9.900002 -69.864601 16.299999 -1.000000 0.000000 0.000000 235 0 255
-9.900002 -22.164604 16.299999 -1.000000 0.000000 0.000000 235 0 255
-9.900002 -22.164604 0.010000 -1.000000 0.000000 0.000000 235 0 255
-9.900002 -69.864601 0.010000 -1.000000 0.000000 0.000000 235 0 255
13.900000 33.835396 0.010000 0.000000 0.000000 -1.000000 235 0 255
13.900000 18.135397 0.010000 0.000000 0.000000 -1.000000 235 0 255
6.099998 18.135397 0.010000 0.000000 0.000000 -1.000000 235 0 255
6.099998 33.835396 0.010000 0.000000 0.000000 -1.000000 235 0 255
18.099998 13.835397 16.299999 0.000000 0.000000 1.000000 235 0 255
18.099998 -17.864603 16.299999 0.000000 0.000000 1.000000 235 0 255
25.900000 -17.864603 16.299999 0.000000 0.000000 1.000000 235 0 255
25.900000 13.835397 16.299999 0.000000 0.000000 1.000000 235 0 255
-21.900002 18.135397 16.299999 -1.000000 0.000000 0.000000 235 0 255
-21.900002 33.835396 16.299999 -1.000000 0.000000 0.000000 235 0 255
-21.900002 33.835396 0.010000 -1.000000 0.000000 0.000000 235 0 255
-21.900002 18.135397 0.010000 -1.000000 0.000000 0.000000 235 0 255
13.900000 -22.164604 0.010000 0.000000 0.000000 -1.000000 235 0 255
13.900000 -69.864601 0.010000 0.000000 0.000000 -1.000000 235 0 255
6.099998 -69.864601 0.010000 0.000000 0.000000 -1.000000 235 0 255
6.099998 -22.164604 0.010000 0.000000 0.000000 -1.000000 235 0 255
-14.100000 33.835396 16.299999 1.000000 0.000000 -0.000000 235 0 255
-14.100000 18.135397 16.299999 1.000000 0.000000 -0.000000 235 0 255
-14.100000 18.135397 0.010000 1.000000 0.000000 -0.000000 235 0 255
-14.100000 33.835396 0.010000 1.000000 0.000000 -0.000000 235 0 255
30.000000 -70.020012 0.000000 0.000000 -1.000000 0.000000 235 0 255
-26.000000 -70.020012 0.000000 0.000000 -1.000000 0.000000 235 0 255
-26.000000 -70.020012 -2.000000 0.000000 -1.000000 0.000000 235 0 255
30.000000 -70.020012 -2.000000 0.000000 -1.000000 0.000000 235 0 255
-21.900002 33.835396 16.299999 0.000000 0.000000 1.000000 235 0 255
-21.900002 18.135397 16.299999 0.000000 0.000000 1.000000 235 0 255
-14.100000 18.135397 16.299999 0.000000 0.000000 1.000000 235 0 255
-14.100000 33.835396 16.299999 0.000000 0.000000 1.000000 235 0 255
18.099998 -69.864601 16.299999 -1.000000 0.000000 0.000000 235 0 255
18.099998 -22.164604 16.299999 -1.000000 0.000000 0.000000 235 0 255
18.099998 -22.164604 0.010000 -1.000000 0.000000 0.000000 235 0 255
18.099998 -69.864601 0.010000 -1.000000 0.000000 0.000000 235 0 255
25.900000 -69.864601 16.299999 0.000000 -1.000000 0.000000 235 0 255
18.099998 -69.864601 16.299999 0.000000 -1.000000 0.000000 235 0 255
18.099998 -69.864601 0.010000 0.000000 -1.000000 0.000000 235 0 255
25.900000 -69.864601 0.010000 0.000000 -1.000000 0.000000 235 0 255
-21.900002 -69.864601 16.299999 -1.000000 0.000000 0.000000 235 0 255
-21.900002 -22.164604 16.299999 -1.000000 0.000000 0.000000 235 0 255
-21.900002 -22.164604 0.010000 -1.000000 0.000000 0.000000 235 0 255
-21.900002 -69.864601 0.010000 -1.000000 0.000000 0.000000 235 0 255
-21.900002 33.835396 16.299999 0.000000 1.000000 -0.000000 235 0 255
-14.100000 33.835396 16.299999 0.000000 1.000000 -0.000000 235 0 255
-14.100000 33.835396 0.010000 0.000000 1.000000 -0.000000 235 0 255
-21.900002 33.835396 0.010000 0.000000 1.000000 -0.000000 235 0 255
13.900000 33.835396 16.299999 1.000000 0.000000 -0.000000 235 0 255
13.900000 18.135397 16.299999 1.000000 0.000000 -0.000000 235 0 255
13.900000 18.135397 0.010000 1.000000 0.000000 -0.000000 235 0 255
13.900000 33.835396 0.010000 1.000000 0.000000 -0.000000 235 0 255
2.020070 18.035395 16.299999 0.000000 0.000000 1.000000 235 0 255
2.020070 34.035397 16.299999 0.000000 0.000000 1.000000 235 0 255
-1.900000 34.035400 16.299999 0.000000 0.000000 1.000000 235 0 255
2.020070 18.035395 16.299999 0.000001 0.000000 1.000000 235 0 255
-1.900000 34.035400 16.299999 0.000001 0.000000 1.000000 235 0 255
-1.900000 22.000000 16.300001 0.000001 0.000000 1.000000 235 0 255
-6.000000 34.035397 16.299999 0.000000 0.000000 1.000000 235 0 255
-9.979931 34.035397 16.299999 0.000000 0.000000 1.000000 235 0 255
-9.979931 18.035395 16.299999 0.000000 0.000000 1.000000 235 0 255
-1.900000 22.000000 16.300001 0.000000 -0.000000 1.000000 235 0 255
-6.000000 22.000000 16.300001 0.000000 -0.000000 1.000000 235 0 255
-6.000000 22.000000 16.300001 -0.000001 0.000000 1.000000 235 0 255
-6.000000 34.035397 16.299999 -0.000001 0.000000 1.000000 235 0 255
-9.979931 18.035395 16.299999 -0.000001 0.000000 1.000000 235 0 255
2.020070 18.035395 16.299999 0.000000 -1.000000 0.000000 235 0 255
-9.979931 18.035395 16.299999 0.000000 -1.000000 0.000000 235 0 255
-9.979931 18.035395 0.000000 0.000000 -1.000000 0.000000 235 0 255
2.020070 18.035395 0.000000 0.000000 -1.000000 0.000000 235 0 255
-1.900000 22.000000 0.100000 -1.000000 -0.000000 -0.000000 235 0 255
-1.900000 22.000000 16.300001 -1.000000 -0.000000 -0.000000 235 0 255
-1.900000 34.035400 16.299999 -1.000000 -0.000000 -0.000000 235 0 255
-1.900000 34.035397 0.100000 -1.000000 -0.000000 -0.000000 235 0 255
4 0 1 2 3
4 4 5 6 7
4 8 9 10 11
4 12 13 14 15
3 16 17 18
3 19 20 21
3 19 21 22
3 23 24 25
3 19 22 23
3 25 19 23
4 26 27 28 29
4 30 31 32 33
4 34 35 36 37
4 38 39 40 41
4 42 43 44 45
4 46 47 48 49
4 50 51 52 53
4 54 55 56 57
4 58 59 60 61
4 62 63 64 65
4 66 67 68 69
4 70 71 72 73
4 74 75 76 77
4 78 79 80 81
4 82 83 84 85
4 86 87 88 89
4 90 91 92 93
4 94 95 96 97
4 98 99 100 101
4 102 103 104 105
4 106 107 108 109
4 110 111 112 113
4 114 115 116 117
4 118 119 120 121
4 122 123 124 125
4 126 127 128 129
4 130 131 132 133
4 134 135 136 137
4 138 139 140 141
4 142 143 144 145
4 146 147 148 149
4 150 151 152 153
4 154 155 156 157
4 158 159 160 161
4 162 163 164 165
4 166 167 168 169
4 170 171 172 173
4 174 175 176 177
4 178 179 180 181
4 182 183 184 185
4 186 187 188 189
4 190 191 192 193
4 194 195 196 197
4 198 199 200 201
4 202 203 204 205
4 206 207 208 209
4 210 211 212 213
4 214 215 216 217
4 218 219 220 221
4 222 223 224 225
4 226 227 228 229
4 230 231 232 233
4 234 235 236 237
4 238 239 240 241
4 242 243 244 245
4 246 247 248 249
4 250 251 252 253
4 254 255 256 257
4 258 259 260 261
4 262 263 264 265
4 266 267 268 269
3 270 271 272
3 273 274 275
3 276 277 278
3 270 279 280
3 281 282 283
3 280 278 270
4 284 285 286 287
4 288 289 290 291
