ply
format ascii 1.0
comment Created by Blender 2.79 (sub 0) - www.blender.org, source file: 'coaster.blend'
element vertex 158
property float x
property float y
property float z
property float nx
property float ny
property float nz
property uchar red
property uchar green
property uchar blue
element face 60
property list uchar uint vertex_indices
end_header
-0.960000 0.000000 -0.151585 0.000000 0.000000 -1.000000 99 88 77
0.000000 0.000000 -0.151585 0.000000 0.000000 -1.000000 99 88 77
-0.000000 -0.960000 -0.151585 0.000000 0.000000 -1.000000 99 88 77
-0.783432 -0.960000 -0.151585 0.000000 0.000000 -1.000000 99 88 77
-0.960000 -0.783431 -0.151585 0.000000 0.000000 -1.000000 99 88 77
0.800000 1.000000 0.111585 0.000000 1.000000 0.000001 99 88 77
0.800000 1.000000 -0.111585 0.000000 1.000000 0.000001 99 88 77
0.000000 1.000000 -0.111585 0.000000 1.000000 0.000001 99 88 77
0.000000 1.000000 0.111585 0.000000 1.000000 0.000001 99 88 77
-0.000001 -0.960000 0.151585 0.000000 0.000000 1.000000 99 88 77
-0.000000 -0.000000 0.151585 0.000000 0.000000 1.000000 99 88 77
-0.960000 0.000000 0.151585 0.000000 0.000000 1.000000 99 88 77
-0.960000 -0.783431 0.151585 0.000000 -0.000000 1.000000 99 88 77
-0.783432 -0.960000 0.151585 0.000000 -0.000000 1.000000 99 88 77
1.000000 -0.800000 -0.111585 0.707106 -0.707107 0.000000 99 88 77
1.000000 -0.800001 0.111585 0.707106 -0.707107 0.000000 99 88 77
0.799999 -1.000000 0.111585 0.707106 -0.707107 0.000000 99 88 77
0.800000 -1.000000 -0.111585 0.707106 -0.707107 0.000000 99 88 77
0.960000 -0.000000 0.151585 0.000000 0.000000 1.000000 99 88 77
0.960000 0.783431 0.151585 0.000000 0.000000 1.000000 99 88 77
0.783432 0.960000 0.151585 0.000000 0.000000 1.000000 99 88 77
0.000000 0.960000 0.151585 -0.000000 0.000000 1.000000 99 88 77
0.960000 0.000000 -0.151585 0.000000 0.000000 -1.000000 99 88 77
0.960000 -0.783432 -0.151585 0.000000 0.000000 -1.000000 99 88 77
0.783431 -0.960000 -0.151585 0.000000 0.000000 -1.000000 99 88 77
-0.800000 1.000000 -0.111585 0.000000 1.000000 0.000001 99 88 77
-0.800000 1.000000 0.111585 0.000000 1.000000 0.000001 99 88 77
1.000000 0.800000 -0.111585 1.000000 -0.000000 -0.000001 99 88 77
1.000000 0.800000 0.111585 1.000000 -0.000000 -0.000001 99 88 77
1.000000 -0.000000 0.111585 1.000000 -0.000000 -0.000001 99 88 77
1.000000 -0.000000 -0.111585 1.000000 -0.000000 -0.000001 99 88 77
0.959999 -0.783432 0.151585 0.000000 0.000000 1.000000 99 88 77
0.783431 -0.960000 0.151585 0.000000 -0.000000 1.000000 99 88 77
0.800000 1.000000 -0.111585 0.707107 0.707107 -0.000000 99 88 77
0.800000 1.000000 0.111585 0.707107 0.707107 -0.000000 99 88 77
1.000000 0.800000 0.111585 0.707107 0.707107 -0.000000 99 88 77
1.000000 0.800000 -0.111585 0.707107 0.707107 -0.000000 99 88 77
0.800000 -1.000000 -0.111585 -0.000000 -1.000000 -0.000001 99 88 77
0.799999 -1.000000 0.111585 -0.000000 -1.000000 -0.000001 99 88 77
-0.000000 -1.000000 0.111585 -0.000000 -1.000000 -0.000001 99 88 77
-0.000000 -1.000000 -0.111585 -0.000000 -1.000000 -0.000001 99 88 77
1.000000 -0.000000 -0.111585 1.000000 -0.000000 0.000001 99 88 77
1.000000 -0.000000 0.111585 1.000000 -0.000000 0.000001 99 88 77
1.000000 -0.800001 0.111585 1.000000 -0.000000 0.000001 99 88 77
1.000000 -0.800000 -0.111585 1.000000 -0.000000 0.000001 99 88 77
-0.000000 -1.000000 -0.111585 -0.000000 -1.000000 -0.000000 99 88 77
-0.000000 -1.000000 0.111585 -0.000000 -1.000000 -0.000000 99 88 77
-0.800000 -1.000000 0.111585 -0.000000 -1.000000 -0.000000 99 88 77
-0.800000 -1.000000 -0.111585 -0.000000 -1.000000 -0.000000 99 88 77
-0.783431 0.960000 0.151585 0.000000 0.000000 1.000000 99 88 77
-0.960000 0.783432 0.151585 0.000000 0.000000 1.000000 99 88 77
-1.000000 0.000000 -0.111585 -1.000000 0.000000 -0.000001 99 88 77
-1.000000 0.000000 0.111585 -1.000000 0.000000 -0.000001 99 88 77
-1.000000 0.800000 0.111585 -1.000000 0.000000 -0.000001 99 88 77
-1.000000 0.800000 -0.111585 -1.000000 0.000000 -0.000001 99 88 77
-0.800000 -1.000000 -0.111585 -0.707107 -0.707107 -0.000000 99 88 77
-0.800000 -1.000000 0.111585 -0.707107 -0.707107 -0.000000 99 88 77
-1.000000 -0.800000 0.111585 -0.707107 -0.707107 -0.000000 99 88 77
-1.000000 -0.800000 -0.111585 -0.707107 -0.707107 -0.000000 99 88 77
-1.000000 0.800000 -0.111585 -0.707107 0.707107 0.000000 99 88 77
-1.000000 0.800000 0.111585 -0.707107 0.707107 0.000000 99 88 77
-0.800000 1.000000 0.111585 -0.707107 0.707107 0.000000 99 88 77
-0.800000 1.000000 -0.111585 -0.707107 0.707107 0.000000 99 88 77
-1.000000 -0.800000 -0.111585 -1.000000 0.000000 -0.000001 99 88 77
-1.000000 -0.800000 0.111585 -1.000000 0.000000 -0.000001 99 88 77
0.783432 0.960000 0.151585 0.500000 0.500000 0.707107 99 88 77
0.960000 0.783431 0.151585 0.500000 0.500000 0.707107 99 88 77
1.000000 0.800000 0.111585 0.500000 0.500000 0.707107 99 88 77
0.800000 1.000000 0.111585 0.500000 0.500000 0.707107 99 88 77
0.959999 -0.783432 0.151585 0.500000 -0.500000 0.707107 99 88 77
0.783431 -0.960000 0.151585 0.500000 -0.500000 0.707107 99 88 77
0.799999 -1.000000 0.111585 0.500000 -0.500000 0.707107 99 88 77
1.000000 -0.800001 0.111585 0.500000 -0.500000 0.707107 99 88 77
-0.783432 -0.960000 0.151585 -0.500000 -0.500000 0.707106 99 88 77
-0.960000 -0.783431 0.151585 -0.500000 -0.500000 0.707106 99 88 77
-1.000000 -0.800000 0.111585 -0.500000 -0.500000 0.707106 99 88 77
-0.800000 -1.000000 0.111585 -0.500000 -0.500000 0.707106 99 88 77
-0.960000 0.783432 0.151585 -0.500000 0.500000 0.707107 99 88 77
-0.783431 0.960000 0.151585 -0.500000 0.500000 0.707107 99 88 77
-0.800000 1.000000 0.111585 -0.500000 0.500000 0.707107 99 88 77
-1.000000 0.800000 0.111585 -0.500000 0.500000 0.707107 99 88 77
0.960000 0.783431 0.151585 0.707107 -0.000000 0.707107 99 88 77
0.960000 -0.000000 0.151585 0.707107 -0.000000 0.707107 99 88 77
1.000000 -0.000000 0.111585 0.707107 -0.000000 0.707107 99 88 77
1.000000 0.800000 0.111585 0.707107 -0.000000 0.707107 99 88 77
0.000000 0.960000 0.151585 0.000000 0.707106 0.707108 99 88 77
0.783432 0.960000 0.151585 0.000000 0.707106 0.707108 99 88 77
0.800000 1.000000 0.111585 0.000000 0.707106 0.707108 99 88 77
0.000000 1.000000 0.111585 0.000000 0.707106 0.707108 99 88 77
0.960000 -0.000000 0.151585 0.707106 -0.000000 0.707107 99 88 77
0.959999 -0.783432 0.151585 0.707106 -0.000000 0.707107 99 88 77
1.000000 -0.800001 0.111585 0.707106 -0.000000 0.707107 99 88 77
1.000000 -0.000000 0.111585 0.707106 -0.000000 0.707107 99 88 77
0.783431 -0.960000 0.151585 -0.000000 -0.707107 0.707106 99 88 77
-0.000001 -0.960000 0.151585 -0.000000 -0.707107 0.707106 99 88 77
-0.000000 -1.000000 0.111585 -0.000000 -0.707107 0.707106 99 88 77
0.799999 -1.000000 0.111585 -0.000000 -0.707107 0.707106 99 88 77
-0.000001 -0.960000 0.151585 -0.000000 -0.707107 0.707107 99 88 77
-0.783432 -0.960000 0.151585 -0.000000 -0.707107 0.707107 99 88 77
-0.800000 -1.000000 0.111585 -0.000000 -0.707107 0.707107 99 88 77
-0.000000 -1.000000 0.111585 -0.000000 -0.707107 0.707107 99 88 77
-0.960000 -0.783431 0.151585 -0.707107 0.000000 0.707107 99 88 77
-0.960000 0.000000 0.151585 -0.707107 0.000000 0.707107 99 88 77
-1.000000 0.000000 0.111585 -0.707107 0.000000 0.707107 99 88 77
-1.000000 -0.800000 0.111585 -0.707107 0.000000 0.707107 99 88 77
-0.960000 0.783432 0.151585 -0.707107 0.000000 0.707107 99 88 77
-1.000000 0.800000 0.111585 -0.707107 0.000000 0.707107 99 88 77
-0.783431 0.960000 0.151585 0.000000 0.707106 0.707108 99 88 77
-0.800000 1.000000 0.111585 0.000000 0.707106 0.707108 99 88 77
-0.783431 0.960000 -0.151585 0.000000 0.000000 -1.000000 99 88 77
0.000000 0.960000 -0.151585 0.000000 0.000000 -1.000000 99 88 77
-0.960000 0.783432 -0.151585 0.000000 -0.000000 -1.000000 99 88 77
0.960000 0.783432 -0.151585 0.500000 0.500000 -0.707107 99 88 77
0.783431 0.960000 -0.151585 0.500000 0.500000 -0.707107 99 88 77
0.800000 1.000000 -0.111585 0.500000 0.500000 -0.707107 99 88 77
1.000000 0.800000 -0.111585 0.500000 0.500000 -0.707107 99 88 77
0.783431 -0.960000 -0.151585 0.500000 -0.500000 -0.707106 99 88 77
0.960000 -0.783432 -0.151585 0.500000 -0.500000 -0.707106 99 88 77
1.000000 -0.800000 -0.111585 0.500000 -0.500000 -0.707106 99 88 77
0.800000 -1.000000 -0.111585 0.500000 -0.500000 -0.707106 99 88 77
-0.960000 -0.783431 -0.151585 -0.500000 -0.500000 -0.707107 99 88 77
-0.783432 -0.960000 -0.151585 -0.500000 -0.500000 -0.707107 99 88 77
-0.800000 -1.000000 -0.111585 -0.500000 -0.500000 -0.707107 99 88 77
-1.000000 -0.800000 -0.111585 -0.500000 -0.500000 -0.707107 99 88 77
-0.783431 0.960000 -0.151585 -0.500000 0.500000 -0.707107 99 88 77
-0.960000 0.783432 -0.151585 -0.500000 0.500000 -0.707107 99 88 77
-1.000000 0.800000 -0.111585 -0.500000 0.500000 -0.707107 99 88 77
-0.800000 1.000000 -0.111585 -0.500000 0.500000 -0.707107 99 88 77
0.960000 0.000000 -0.151585 0.707106 -0.000000 -0.707107 99 88 77
0.960000 0.783432 -0.151585 0.707106 -0.000000 -0.707107 99 88 77
1.000000 0.800000 -0.111585 0.707106 -0.000000 -0.707107 99 88 77
1.000000 -0.000000 -0.111585 0.707106 -0.000000 -0.707107 99 88 77
0.783431 0.960000 -0.151585 0.000000 0.707107 -0.707106 99 88 77
0.000000 0.960000 -0.151585 0.000000 0.707107 -0.707106 99 88 77
0.000000 1.000000 -0.111585 0.000000 0.707107 -0.707106 99 88 77
0.800000 1.000000 -0.111585 0.000000 0.707107 -0.707106 99 88 77
1.000000 -0.000000 -0.111585 0.707107 -0.000000 -0.707107 99 88 77
1.000000 -0.800000 -0.111585 0.707107 -0.000000 -0.707107 99 88 77
0.960000 -0.783432 -0.151585 0.707107 -0.000000 -0.707107 99 88 77
0.960000 0.000000 -0.151585 0.707107 -0.000000 -0.707107 99 88 77
0.800000 -1.000000 -0.111585 -0.000000 -0.707106 -0.707107 99 88 77
-0.000000 -1.000000 -0.111585 -0.000000 -0.707106 -0.707107 99 88 77
-0.000000 -0.960000 -0.151585 -0.000000 -0.707106 -0.707107 99 88 77
0.783431 -0.960000 -0.151585 -0.000000 -0.707106 -0.707107 99 88 77
-0.783432 -0.960000 -0.151585 -0.000000 -0.707106 -0.707107 99 88 77
-0.800000 -1.000000 -0.111585 -0.000000 -0.707106 -0.707107 99 88 77
-0.960000 0.000000 -0.151585 -0.707106 0.000000 -0.707107 99 88 77
-0.960000 -0.783431 -0.151585 -0.707106 0.000000 -0.707107 99 88 77
-1.000000 -0.800000 -0.111585 -0.707106 0.000000 -0.707107 99 88 77
-1.000000 0.000000 -0.111585 -0.707106 0.000000 -0.707107 99 88 77
-0.800000 1.000000 -0.111585 0.000000 0.707107 -0.707106 99 88 77
-0.783431 0.960000 -0.151585 0.000000 0.707107 -0.707106 99 88 77
-1.000000 0.000000 -0.111585 -0.707106 0.000000 -0.707108 99 88 77
-1.000000 0.800000 -0.111585 -0.707106 0.000000 -0.707108 99 88 77
-0.960000 0.783432 -0.151585 -0.707106 0.000000 -0.707108 99 88 77
-0.960000 0.000000 -0.151585 -0.707106 0.000000 -0.707108 99 88 77
0.783431 0.960000 -0.151585 0.000000 0.000000 -1.000000 99 88 77
0.960000 0.783432 -0.151585 0.000000 0.000000 -1.000000 99 88 77
3 0 1 2
3 2 3 4
3 2 4 0
4 5 6 7 8
3 9 10 11
3 11 12 13
3 11 13 9
4 14 15 16 17
3 18 19 20
3 20 21 10
3 20 10 18
3 1 22 23
3 23 24 2
3 23 2 1
4 8 7 25 26
4 27 28 29 30
3 31 18 10
3 10 9 32
3 10 32 31
4 33 34 35 36
4 37 38 39 40
4 41 42 43 44
4 45 46 47 48
3 10 21 49
3 49 50 11
3 49 11 10
4 51 52 53 54
4 55 56 57 58
4 59 60 61 62
4 63 64 52 51
4 65 66 67 68
4 69 70 71 72
4 73 74 75 76
4 77 78 79 80
4 81 82 83 84
4 85 86 87 88
4 89 90 91 92
4 93 94 95 96
4 97 98 99 100
4 101 102 103 104
4 102 105 106 103
4 107 85 88 108
3 109 110 1
3 1 0 111
3 1 111 109
4 112 113 114 115
4 116 117 118 119
4 120 121 122 123
4 124 125 126 127
4 128 129 130 131
4 132 133 134 135
4 136 137 138 139
4 140 141 142 143
4 144 142 141 145
4 146 147 148 149
4 150 134 133 151
4 152 153 154 155
3 110 156 157
3 157 22 1
3 157 1 110
