ply
format ascii 1.0
comment Created by Blender 2.79 (sub 0) - www.blender.org, source file: 'coffee table.blend'
element vertex 450
property float x
property float y
property float z
property float nx
property float ny
property float nz
property uchar red
property uchar green
property uchar blue
element face 192
property list uchar uint vertex_indices
end_header
2.286876 -1.173206 0.941770 -0.000000 -0.952204 -0.305462 82 70 58
0.944865 -1.173205 0.941770 -0.000000 -0.952204 -0.305462 82 70 58
0.932107 -1.157365 0.892390 -0.000000 -0.952204 -0.305462 82 70 58
2.248603 -1.157365 0.892390 -0.000000 -0.952204 -0.305462 82 70 58
-0.944864 1.173205 1.102309 0.000000 0.894867 0.446333 82 70 58
-2.286876 1.173205 1.102309 0.000000 0.894867 0.446333 82 70 58
-2.235870 1.152095 1.144634 0.000000 0.894867 0.446333 82 70 58
-0.927862 1.152095 1.144634 0.000000 0.894867 0.446333 82 70 58
2.286876 -1.173206 0.941770 -0.000000 -1.000000 -0.000003 82 70 58
2.286875 -1.173206 1.102309 -0.000000 -1.000000 -0.000003 82 70 58
0.944863 -1.173206 1.102309 -0.000000 -1.000000 -0.000003 82 70 58
0.944865 -1.173205 0.941770 -0.000000 -1.000000 -0.000003 82 70 58
-2.834594 -0.665541 0.941770 -1.000000 0.000001 -0.000004 82 70 58
-2.834595 -0.665541 1.102309 -1.000000 0.000001 -0.000004 82 70 58
-2.834595 0.000000 1.102309 -1.000000 0.000001 -0.000004 82 70 58
-2.834594 0.000000 0.941770 -1.000000 0.000001 -0.000004 82 70 58
-0.944864 1.173205 1.102309 0.000000 1.000000 0.000003 82 70 58
-0.944864 1.173206 0.941770 0.000000 1.000000 0.000003 82 70 58
-2.286875 1.173206 0.941770 0.000000 1.000000 0.000003 82 70 58
-2.286876 1.173205 1.102309 0.000000 1.000000 0.000003 82 70 58
-2.834594 0.000000 0.941770 -0.790385 0.000001 -0.612610 82 70 58
-2.834594 0.665541 0.941770 -0.790385 0.000001 -0.612610 82 70 58
-2.796320 0.649700 0.892390 -0.790385 0.000001 -0.612610 82 70 58
-2.796321 0.000000 0.892390 -0.790385 0.000001 -0.612610 82 70 58
2.488693 0.855793 0.892390 -0.000000 0.000000 -1.000000 82 70 58
2.488729 0.855828 0.892390 -0.000000 0.000000 -1.000000 82 70 58
2.796321 0.649700 0.892390 -0.000000 0.000000 -1.000000 82 70 58
2.796321 -0.000000 0.892390 0.000000 0.000000 -1.000000 82 70 58
2.488693 -0.000000 0.892390 0.000000 0.000000 -1.000000 82 70 58
2.488693 0.427897 0.892390 -0.000000 -0.000000 -1.000000 82 70 58
-2.834594 0.665541 1.102309 -0.638583 0.000000 0.769553 82 70 58
-2.834595 0.000000 1.102309 -0.638583 0.000000 0.769553 82 70 58
-2.783588 0.000000 1.144634 -0.638583 0.000000 0.769553 82 70 58
-2.783588 0.644430 1.144634 -0.638583 0.000000 0.769553 82 70 58
-2.286877 -1.173205 1.102309 -0.000000 -0.894865 0.446337 82 70 58
-0.944866 -1.173206 1.102309 -0.000000 -0.894865 0.446337 82 70 58
-0.927864 -1.152095 1.144634 -0.000000 -0.894865 0.446337 82 70 58
-2.235871 -1.152094 1.144634 -0.000000 -0.894865 0.446337 82 70 58
2.834594 -0.665542 1.102309 0.638584 -0.000001 0.769552 82 70 58
2.834594 -0.000001 1.102309 0.638584 -0.000001 0.769552 82 70 58
2.783588 -0.000000 1.144634 0.638584 -0.000001 0.769552 82 70 58
2.783587 -0.644431 1.144634 0.638584 -0.000001 0.769552 82 70 58
-2.073910 0.855793 0.892390 0.000000 0.000000 -1.000000 82 70 58
-2.488692 0.855793 0.892390 0.000000 0.000000 -1.000000 82 70 58
-2.488728 0.855828 0.892390 0.000000 0.000000 -1.000000 82 70 58
-2.248601 1.157365 0.892390 -0.000000 0.000000 -1.000000 82 70 58
-0.932106 1.157365 0.892390 -0.000000 0.000000 -1.000000 82 70 58
-0.829564 0.855793 0.892390 0.000000 0.000000 -1.000000 82 70 58
-1.659128 0.855793 0.892390 0.000000 0.000000 -1.000000 82 70 58
2.286877 1.173205 1.102309 0.000000 0.894867 0.446332 82 70 58
0.944866 1.173205 1.102309 0.000000 0.894867 0.446332 82 70 58
0.927864 1.152094 1.144634 0.000000 0.894867 0.446332 82 70 58
2.235871 1.152094 1.144634 0.000000 0.894867 0.446332 82 70 58
-2.834594 -0.665541 0.941770 -0.790385 0.000001 -0.612610 82 70 58
-2.796321 -0.649700 0.892390 -0.790385 0.000001 -0.612610 82 70 58
2.834594 0.665541 0.941770 0.790385 0.000000 -0.612610 82 70 58
2.834594 0.000000 0.941770 0.790385 0.000000 -0.612610 82 70 58
2.796321 -0.000000 0.892390 0.790385 0.000000 -0.612610 82 70 58
2.796321 0.649700 0.892390 0.790385 0.000000 -0.612610 82 70 58
2.796321 -0.649700 0.892390 0.000000 0.000000 -1.000000 82 70 58
2.488729 -0.855828 0.892390 0.000000 0.000000 -1.000000 82 70 58
2.488693 -0.855793 0.892390 0.000000 0.000000 -1.000000 82 70 58
2.488693 -0.427897 0.892390 -0.000000 -0.000000 -1.000000 82 70 58
-2.796321 0.000000 0.892390 0.000000 0.000000 -1.000000 82 70 58
-2.488693 0.000000 0.892390 0.000000 0.000000 -1.000000 82 70 58
-2.488693 -0.427896 0.892390 0.000000 0.000000 -1.000000 82 70 58
-2.488693 -0.855793 0.892390 0.000000 0.000000 -1.000000 82 70 58
-2.488729 -0.855828 0.892390 0.000000 0.000000 -1.000000 82 70 58
-2.796321 -0.649700 0.892390 0.000000 -0.000000 -1.000000 82 70 58
2.073911 -0.855793 0.892390 0.000000 0.000000 -1.000000 82 70 58
2.248603 -1.157365 0.892390 0.000000 0.000000 -1.000000 82 70 58
0.932107 -1.157365 0.892390 0.000000 0.000000 -1.000000 82 70 58
0.829564 -0.855793 0.892390 -0.000000 -0.000000 -1.000000 82 70 58
1.659129 -0.855793 0.892390 -0.000000 -0.000000 -1.000000 82 70 58
0.000001 1.157365 0.892390 0.000000 0.000000 -1.000000 82 70 58
0.932107 1.157365 0.892390 0.000000 0.000000 -1.000000 82 70 58
0.829564 0.855793 0.892390 0.000000 0.000000 -1.000000 82 70 58
0.000000 0.855793 0.892390 0.000000 0.000000 -1.000000 82 70 58
-2.834594 0.000000 0.941770 -1.000000 0.000001 -0.000005 82 70 58
-2.834595 0.000000 1.102309 -1.000000 0.000001 -0.000005 82 70 58
-2.834594 0.665541 1.102309 -1.000000 0.000001 -0.000005 82 70 58
-2.834594 0.665541 0.941770 -1.000000 0.000001 -0.000005 82 70 58
0.000001 1.173206 0.941770 0.000000 0.952203 -0.305465 82 70 58
0.944865 1.173206 0.941770 0.000000 0.952203 -0.305465 82 70 58
0.932107 1.157365 0.892390 0.000000 0.952203 -0.305465 82 70 58
0.000001 1.157365 0.892390 0.000000 0.952203 -0.305465 82 70 58
-0.944865 -1.173205 0.941770 -0.000000 -0.952205 -0.305461 82 70 58
-2.286876 -1.173205 0.941770 -0.000000 -0.952205 -0.305461 82 70 58
-2.248603 -1.157364 0.892390 -0.000000 -0.952205 -0.305461 82 70 58
-0.932107 -1.157365 0.892390 -0.000000 -0.952205 -0.305461 82 70 58
-0.000000 -1.173205 0.941770 0.000000 -0.952205 -0.305461 82 70 58
-0.000000 -1.157365 0.892390 0.000000 -0.952205 -0.305461 82 70 58
-2.488692 0.427897 0.892390 0.000000 0.000000 -1.000000 82 70 58
-2.796320 0.649700 0.892390 0.000000 0.000000 -1.000000 82 70 58
-0.000000 -1.157365 0.892390 0.000000 -0.000000 -1.000000 82 70 58
-0.932107 -1.157365 0.892390 0.000000 -0.000000 -1.000000 82 70 58
-0.829565 -0.855793 0.892390 0.000000 -0.000000 -1.000000 82 70 58
-0.000000 -0.855793 0.892390 0.000000 -0.000000 -1.000000 82 70 58
-2.834595 -0.665541 1.102309 -0.638583 0.000000 0.769553 82 70 58
-2.783589 -0.644430 1.144634 -0.638583 0.000000 0.769553 82 70 58
-0.000001 -1.173206 1.102309 -0.000000 -0.894865 0.446337 82 70 58
0.944863 -1.173206 1.102309 -0.000000 -0.894865 0.446337 82 70 58
0.927861 -1.152095 1.144634 -0.000000 -0.894865 0.446337 82 70 58
-0.000001 -1.152095 1.144634 -0.000000 -0.894865 0.446337 82 70 58
2.834594 -0.000001 1.102309 0.638584 -0.000001 0.769553 82 70 58
2.834595 0.665540 1.102309 0.638584 -0.000001 0.769553 82 70 58
2.783589 0.644430 1.144634 0.638584 -0.000001 0.769553 82 70 58
2.783588 -0.000000 1.144634 0.638584 -0.000001 0.769553 82 70 58
0.000001 1.173205 1.102309 0.000000 0.894867 0.446333 82 70 58
0.000001 1.152095 1.144634 0.000000 0.894867 0.446333 82 70 58
-0.927863 0.000000 1.144634 0.000000 0.000000 1.000000 82 70 58
-0.927862 1.152095 1.144634 0.000000 0.000000 1.000000 82 70 58
-2.235870 1.152095 1.144634 0.000000 0.000000 1.000000 82 70 58
-2.783588 0.644430 1.144634 0.000000 0.000000 1.000000 82 70 58
-2.783588 0.000000 1.144634 0.000000 0.000000 1.000000 82 70 58
-0.000000 -0.000000 1.144634 0.000000 -0.000000 1.000000 82 70 58
-0.927864 -1.152095 1.144634 0.000000 -0.000000 1.000000 82 70 58
-0.000001 -1.152095 1.144634 0.000000 -0.000000 1.000000 82 70 58
2.834594 0.000000 0.941770 1.000000 -0.000001 0.000004 82 70 58
2.834594 -0.000001 1.102309 1.000000 -0.000001 0.000004 82 70 58
2.834594 -0.665542 1.102309 1.000000 -0.000001 0.000004 82 70 58
2.834594 -0.665541 0.941770 1.000000 -0.000001 0.000004 82 70 58
0.000001 1.173205 1.102309 0.000000 1.000000 0.000003 82 70 58
0.000001 1.173206 0.941770 0.000000 1.000000 0.000003 82 70 58
2.834594 -0.665541 0.941770 0.790385 0.000000 -0.612610 82 70 58
2.796321 -0.649700 0.892390 0.790385 0.000000 -0.612610 82 70 58
-0.000000 -1.173205 0.941770 -0.000000 -1.000000 -0.000002 82 70 58
-0.000001 -1.173206 1.102309 -0.000000 -1.000000 -0.000002 82 70 58
-0.944866 -1.173206 1.102309 -0.000000 -1.000000 -0.000002 82 70 58
-0.944865 -1.173205 0.941770 -0.000000 -1.000000 -0.000002 82 70 58
1.659129 0.427897 0.892390 0.000000 -0.000000 -1.000000 82 70 58
0.829564 0.427897 0.892390 0.000000 -0.000000 -1.000000 82 70 58
1.659129 0.855793 0.892390 0.000000 -0.000000 -1.000000 82 70 58
0.000000 0.000000 0.892390 -0.000000 0.000000 -1.000000 82 70 58
0.829564 0.000000 0.892390 -0.000000 0.000000 -1.000000 82 70 58
0.829564 -0.427897 0.892390 0.000000 0.000000 -1.000000 82 70 58
2.488693 -0.855793 0.892390 -0.000000 -1.000000 0.000000 82 70 58
2.073911 -0.855793 0.892390 -0.000000 -1.000000 0.000000 82 70 58
2.073911 -0.855793 0.769551 -0.000000 -1.000000 0.000000 82 70 58
2.488693 -0.855793 0.769551 -0.000000 -1.000000 0.000000 82 70 58
-2.073910 0.427897 0.892390 0.000000 0.000000 -1.000000 82 70 58
-2.073911 0.000000 0.892390 0.000000 0.000000 -1.000000 82 70 58
1.659129 -0.427897 0.892390 0.000000 -0.000000 -1.000000 82 70 58
1.659129 0.000000 0.892390 0.000000 -0.000000 -1.000000 82 70 58
0.000001 1.152095 1.144634 0.000000 -0.000000 1.000000 82 70 58
2.783587 -0.644431 1.144634 0.000000 0.000000 1.000000 82 70 58
2.783588 -0.000000 1.144634 0.000000 0.000000 1.000000 82 70 58
0.927862 -0.000000 1.144634 0.000000 0.000000 1.000000 82 70 58
0.927861 -1.152095 1.144634 0.000000 -0.000000 1.000000 82 70 58
2.235868 -1.152095 1.144634 0.000000 -0.000000 1.000000 82 70 58
2.073911 0.855793 0.892390 0.000000 0.000000 -1.000000 82 70 58
2.248603 1.157365 0.892390 0.000000 0.000000 -1.000000 82 70 58
-2.248603 -1.157364 0.892390 0.000000 0.000000 -1.000000 82 70 58
-2.073911 -0.855793 0.892390 0.000000 0.000000 -1.000000 82 70 58
-1.659129 -0.855793 0.892390 0.000000 0.000000 -1.000000 82 70 58
-0.944865 -1.173205 0.941770 -0.000000 -1.000000 -0.000001 82 70 58
-0.944866 -1.173206 1.102309 -0.000000 -1.000000 -0.000001 82 70 58
-2.286877 -1.173205 1.102309 -0.000000 -1.000000 -0.000001 82 70 58
-2.286876 -1.173205 0.941770 -0.000000 -1.000000 -0.000001 82 70 58
2.286875 -1.173206 1.102309 -0.000000 -0.894865 0.446337 82 70 58
2.235868 -1.152095 1.144634 -0.000000 -0.894865 0.446337 82 70 58
-2.783589 -0.644430 1.144634 0.000000 -0.000000 1.000000 82 70 58
-2.235871 -1.152094 1.144634 0.000000 -0.000000 1.000000 82 70 58
-2.286875 1.173206 0.941770 0.000000 0.952204 -0.305464 82 70 58
-0.944864 1.173206 0.941770 0.000000 0.952204 -0.305464 82 70 58
-0.932106 1.157365 0.892390 0.000000 0.952204 -0.305464 82 70 58
-2.248601 1.157365 0.892390 0.000000 0.952204 -0.305464 82 70 58
2.286876 1.173206 0.941770 0.000000 0.952203 -0.305465 82 70 58
2.248603 1.157365 0.892390 0.000000 0.952203 -0.305465 82 70 58
2.783589 0.644430 1.144634 0.000000 0.000000 1.000000 82 70 58
2.235871 1.152094 1.144634 0.000000 0.000000 1.000000 82 70 58
0.927864 1.152094 1.144634 0.000000 0.000000 1.000000 82 70 58
2.286877 1.173205 1.102309 0.000000 1.000000 0.000003 82 70 58
2.286876 1.173206 0.941770 0.000000 1.000000 0.000003 82 70 58
0.944865 1.173206 0.941770 0.000000 1.000000 0.000003 82 70 58
0.944866 1.173205 1.102309 0.000000 1.000000 0.000003 82 70 58
2.286876 1.173206 0.941770 0.679782 0.733414 -0.000001 82 70 58
2.286877 1.173205 1.102309 0.679782 0.733414 -0.000001 82 70 58
2.834595 0.665540 1.102309 0.679782 0.733414 -0.000001 82 70 58
2.834594 0.665541 0.941770 0.679782 0.733414 -0.000001 82 70 58
2.834594 -0.665541 0.941770 0.679781 -0.733415 0.000002 82 70 58
2.834594 -0.665542 1.102309 0.679781 -0.733415 0.000002 82 70 58
2.286875 -1.173206 1.102309 0.679781 -0.733415 0.000002 82 70 58
2.286876 -1.173206 0.941770 0.679781 -0.733415 0.000002 82 70 58
-2.286876 -1.173205 0.941770 -0.679782 -0.733415 -0.000003 82 70 58
-2.286877 -1.173205 1.102309 -0.679782 -0.733415 -0.000003 82 70 58
-2.834595 -0.665541 1.102309 -0.679782 -0.733415 -0.000003 82 70 58
-2.834594 -0.665541 0.941770 -0.679782 -0.733415 -0.000003 82 70 58
-2.834594 0.665541 0.941770 -0.679781 0.733415 -0.000002 82 70 58
-2.834594 0.665541 1.102309 -0.679781 0.733415 -0.000002 82 70 58
-2.286876 1.173205 1.102309 -0.679781 0.733415 -0.000002 82 70 58
-2.286875 1.173206 0.941770 -0.679781 0.733415 -0.000002 82 70 58
-2.286877 -1.173205 1.102309 -0.438409 -0.472999 0.764244 82 70 58
-2.235871 -1.152094 1.144634 -0.438409 -0.472999 0.764244 82 70 58
-2.783589 -0.644430 1.144634 -0.438409 -0.472999 0.764244 82 70 58
-2.834595 -0.665541 1.102309 -0.438409 -0.472999 0.764244 82 70 58
-2.235870 1.152095 1.144634 -0.438410 0.473000 0.764243 82 70 58
-2.286876 1.173205 1.102309 -0.438410 0.473000 0.764243 82 70 58
-2.834594 0.665541 1.102309 -0.438410 0.473000 0.764243 82 70 58
-2.783588 0.644430 1.144634 -0.438410 0.473000 0.764243 82 70 58
2.783589 0.644430 1.144634 0.438411 0.473000 0.764243 82 70 58
2.834595 0.665540 1.102309 0.438411 0.473000 0.764243 82 70 58
2.286877 1.173205 1.102309 0.438411 0.473000 0.764243 82 70 58
2.235871 1.152094 1.144634 0.438411 0.473000 0.764243 82 70 58
2.834594 -0.665542 1.102309 0.438409 -0.473000 0.764244 82 70 58
2.783587 -0.644431 1.144634 0.438409 -0.473000 0.764244 82 70 58
2.235868 -1.152095 1.144634 0.438409 -0.473000 0.764244 82 70 58
2.286875 -1.173206 1.102309 0.438409 -0.473000 0.764244 82 70 58
2.286876 -1.173206 0.941770 0.540653 -0.583310 -0.606171 82 70 58
2.248603 -1.157365 0.892390 0.540653 -0.583310 -0.606171 82 70 58
2.796321 -0.649700 0.892390 0.540653 -0.583310 -0.606171 82 70 58
2.834594 -0.665541 0.941770 0.540653 -0.583310 -0.606171 82 70 58
2.248603 1.157365 0.892390 0.540653 0.583309 -0.606173 82 70 58
2.286876 1.173206 0.941770 0.540653 0.583309 -0.606173 82 70 58
2.834594 0.665541 0.941770 0.540653 0.583309 -0.606173 82 70 58
2.796321 0.649700 0.892390 0.540653 0.583309 -0.606173 82 70 58
-2.286875 1.173206 0.941770 -0.540652 0.583309 -0.606173 82 70 58
-2.248601 1.157365 0.892390 -0.540652 0.583309 -0.606173 82 70 58
-2.796320 0.649700 0.892390 -0.540652 0.583309 -0.606173 82 70 58
-2.834594 0.665541 0.941770 -0.540652 0.583309 -0.606173 82 70 58
-2.248603 -1.157364 0.892390 -0.540654 -0.583310 -0.606171 82 70 58
-2.286876 -1.173205 0.941770 -0.540654 -0.583310 -0.606171 82 70 58
-2.834594 -0.665541 0.941770 -0.540654 -0.583310 -0.606171 82 70 58
-2.796321 -0.649700 0.892390 -0.540654 -0.583310 -0.606171 82 70 58
2.834594 0.665541 0.941770 1.000000 -0.000001 -0.000001 82 70 58
2.834595 0.665540 1.102309 1.000000 -0.000001 -0.000001 82 70 58
2.834594 -0.000001 1.102309 1.000000 -0.000001 -0.000001 82 70 58
2.834594 0.000000 0.941770 1.000000 -0.000001 -0.000001 82 70 58
-0.829564 0.427897 0.892390 -0.000000 0.000000 -1.000000 82 70 58
-0.829564 0.000000 0.892390 0.000000 0.000000 -1.000000 82 70 58
-0.829564 -0.427896 0.892390 -0.000000 0.000000 -1.000000 82 70 58
-0.000001 -1.173206 1.102309 -0.000000 -1.000000 -0.000003 82 70 58
-0.000000 -1.173205 0.941770 -0.000000 -1.000000 -0.000003 82 70 58
0.944866 1.173205 1.102309 0.000000 0.894867 0.446333 82 70 58
0.927864 1.152094 1.144634 0.000000 0.894867 0.446333 82 70 58
0.944865 -1.173205 0.941770 -0.000000 -0.952205 -0.305461 82 70 58
0.932107 -1.157365 0.892390 -0.000000 -0.952205 -0.305461 82 70 58
-0.944864 1.173206 0.941770 0.000000 0.952203 -0.305465 82 70 58
-0.932106 1.157365 0.892390 0.000000 0.952203 -0.305465 82 70 58
2.073911 -0.427897 0.892390 0.000000 -0.000000 -1.000000 82 70 58
2.073911 -0.000000 0.892390 0.000000 -0.000000 -1.000000 82 70 58
-2.073910 0.427897 0.892390 -0.000000 -1.000000 0.000000 82 70 58
-2.488692 0.427897 0.892390 -0.000000 -1.000000 0.000000 82 70 58
-2.488692 0.427897 0.769551 -0.000000 -1.000000 0.000000 82 70 58
-2.073910 0.427897 0.769551 -0.000000 -1.000000 0.000000 82 70 58
-1.659128 0.427897 0.892390 0.000000 0.000000 -1.000000 82 70 58
-1.659128 0.000000 0.892390 0.000000 0.000000 -1.000000 82 70 58
-2.073911 -0.427896 0.892390 0.000000 0.000000 -1.000000 82 70 58
-1.659129 -0.427896 0.892390 0.000000 0.000000 -1.000000 82 70 58
2.073911 0.427897 0.892390 0.000000 -0.000000 -1.000000 82 70 58
2.073911 0.855793 0.892390 0.000000 1.000000 -0.000000 82 70 58
2.488693 0.855793 0.892390 0.000000 1.000000 -0.000000 82 70 58
2.488693 0.855793 0.769551 0.000000 1.000000 -0.000000 82 70 58
2.073911 0.855793 0.769551 0.000000 1.000000 -0.000000 82 70 58
-2.073911 -0.855793 0.892390 0.000000 -1.000000 0.000000 82 70 58
-2.488693 -0.855793 0.892390 0.000000 -1.000000 0.000000 82 70 58
-2.488693 -0.855793 0.769551 0.000000 -1.000000 0.000000 82 70 58
-2.073911 -0.855793 0.769551 0.000000 -1.000000 0.000000 82 70 58
2.488693 0.855793 0.769551 0.789793 0.000000 -0.613374 82 70 58
2.488693 0.427897 0.769551 0.789793 0.000000 -0.613374 82 70 58
2.405737 0.513476 0.662735 0.789793 0.000000 -0.613374 82 70 58
2.405737 0.770214 0.662735 0.789793 0.000000 -0.613374 82 70 58
2.488693 0.427897 0.769551 -0.000000 -0.780418 -0.625258 82 70 58
2.073911 0.427897 0.769551 -0.000000 -0.780418 -0.625258 82 70 58
2.156867 0.513476 0.662735 -0.000000 -0.780418 -0.625258 82 70 58
2.405737 0.513476 0.662735 -0.000000 -0.780418 -0.625258 82 70 58
2.073911 0.427897 0.769551 -0.789792 0.000000 -0.613375 82 70 58
2.073911 0.855793 0.769551 -0.789792 0.000000 -0.613375 82 70 58
2.156867 0.770214 0.662735 -0.789792 0.000000 -0.613375 82 70 58
2.156867 0.513476 0.662735 -0.789792 0.000000 -0.613375 82 70 58
-2.488693 -0.427896 0.769551 0.000000 0.780418 -0.625258 82 70 58
-2.073911 -0.427896 0.769551 0.000000 0.780418 -0.625258 82 70 58
-2.156868 -0.513476 0.662735 0.000000 0.780418 -0.625258 82 70 58
-2.405737 -0.513476 0.662735 0.000000 0.780418 -0.625258 82 70 58
-2.488692 0.427897 0.892390 -1.000000 0.000001 0.000000 82 70 58
-2.488692 0.855793 0.892390 -1.000000 0.000001 0.000000 82 70 58
-2.488692 0.855793 0.769551 -1.000000 0.000001 0.000000 82 70 58
-2.488692 0.427897 0.769551 -1.000000 0.000001 0.000000 82 70 58
-2.488693 -0.855793 0.892390 -1.000000 0.000001 0.000000 82 70 58
-2.488693 -0.427896 0.892390 -1.000000 0.000001 0.000000 82 70 58
-2.488693 -0.427896 0.769551 -1.000000 0.000001 0.000000 82 70 58
-2.488693 -0.855793 0.769551 -1.000000 0.000001 0.000000 82 70 58
2.488693 0.427897 0.892390 -0.000000 -1.000000 0.000000 82 70 58
2.073911 0.427897 0.892390 -0.000000 -1.000000 0.000000 82 70 58
2.073911 0.427897 0.769551 -0.000000 -1.000000 0.000000 82 70 58
2.488693 0.427897 0.769551 -0.000000 -1.000000 0.000000 82 70 58
-2.073910 0.855793 0.892390 1.000000 -0.000001 0.000000 82 70 58
-2.073910 0.427897 0.892390 1.000000 -0.000001 0.000000 82 70 58
-2.073910 0.427897 0.769551 1.000000 -0.000001 0.000000 82 70 58
-2.073910 0.855793 0.769551 1.000000 -0.000001 0.000000 82 70 58
-2.488693 -0.427896 0.892390 0.000000 1.000000 0.000000 82 70 58
-2.073911 -0.427896 0.892390 0.000000 1.000000 0.000000 82 70 58
-2.073911 -0.427896 0.769551 0.000000 1.000000 0.000000 82 70 58
-2.488693 -0.427896 0.769551 0.000000 1.000000 0.000000 82 70 58
2.073911 0.427897 0.892390 -1.000000 0.000000 0.000000 82 70 58
2.073911 0.855793 0.892390 -1.000000 0.000000 0.000000 82 70 58
2.073911 0.855793 0.769551 -1.000000 0.000000 0.000000 82 70 58
2.073911 0.427897 0.769551 -1.000000 0.000000 0.000000 82 70 58
2.488693 -0.427897 0.892390 1.000000 0.000000 -0.000000 82 70 58
2.488693 -0.855793 0.892390 1.000000 0.000000 -0.000000 82 70 58
2.488693 -0.855793 0.769551 1.000000 0.000000 -0.000000 82 70 58
2.488693 -0.427897 0.769551 1.000000 0.000000 -0.000000 82 70 58
-2.073911 -0.427896 0.892390 1.000000 0.000000 -0.000000 82 70 58
-2.073911 -0.855793 0.892390 1.000000 0.000000 -0.000000 82 70 58
-2.073911 -0.855793 0.769551 1.000000 0.000000 -0.000000 82 70 58
-2.073911 -0.427896 0.769551 1.000000 0.000000 -0.000000 82 70 58
2.073911 -0.427897 0.892390 0.000000 1.000000 0.000000 82 70 58
2.488693 -0.427897 0.892390 0.000000 1.000000 0.000000 82 70 58
2.488693 -0.427897 0.769551 0.000000 1.000000 0.000000 82 70 58
2.073911 -0.427897 0.769551 0.000000 1.000000 0.000000 82 70 58
-2.488692 0.855793 0.892390 0.000000 1.000000 0.000000 82 70 58
-2.073910 0.855793 0.892390 0.000000 1.000000 0.000000 82 70 58
-2.073910 0.855793 0.769551 0.000000 1.000000 0.000000 82 70 58
-2.488692 0.855793 0.769551 0.000000 1.000000 0.000000 82 70 58
2.488693 0.855793 0.892390 1.000000 0.000000 -0.000000 82 70 58
2.488693 0.427897 0.892390 1.000000 0.000000 -0.000000 82 70 58
2.488693 0.427897 0.769551 1.000000 0.000000 -0.000000 82 70 58
2.488693 0.855793 0.769551 1.000000 0.000000 -0.000000 82 70 58
2.073911 -0.855793 0.892390 -1.000000 0.000000 0.000000 82 70 58
2.073911 -0.427897 0.892390 -1.000000 0.000000 0.000000 82 70 58
2.073911 -0.427897 0.769551 -1.000000 0.000000 0.000000 82 70 58
2.073911 -0.855793 0.769551 -1.000000 0.000000 0.000000 82 70 58
-2.156867 0.513476 0.662735 0.000000 -0.999940 0.010973 82 70 58
-2.405736 0.513476 0.662735 0.000000 -0.999940 0.010973 82 70 58
-2.371688 0.506209 0.000475 0.000000 -0.999940 0.010973 82 70 58
-2.126341 0.506209 0.000475 0.000000 -0.999940 0.010973 82 70 58
2.156867 0.770214 0.662735 0.000000 0.999865 -0.016458 82 70 58
2.405737 0.770214 0.662735 0.000000 0.999865 -0.016458 82 70 58
2.371689 0.759313 0.000475 0.000000 0.999865 -0.016458 82 70 58
2.126342 0.759313 0.000475 0.000000 0.999865 -0.016458 82 70 58
2.156867 -0.513476 0.662735 0.000000 0.999940 0.010973 82 70 58
2.405737 -0.513476 0.662735 0.000000 0.999940 0.010973 82 70 58
2.371689 -0.506209 0.000475 0.000000 0.999940 0.010973 82 70 58
2.126342 -0.506209 0.000475 0.000000 0.999940 0.010973 82 70 58
-2.156868 -0.513476 0.662735 0.998939 0.000000 0.046044 82 70 58
-2.156868 -0.770214 0.662735 0.998939 0.000000 0.046044 82 70 58
-2.126342 -0.759313 0.000475 0.998939 0.000000 0.046044 82 70 58
-2.126342 -0.506209 0.000475 0.998939 0.000000 0.046044 82 70 58
2.073911 -0.855793 0.769551 -0.789792 0.000000 -0.613375 82 70 58
2.073911 -0.427897 0.769551 -0.789792 0.000000 -0.613375 82 70 58
2.156867 -0.513476 0.662735 -0.789792 0.000000 -0.613375 82 70 58
2.156867 -0.770214 0.662735 -0.789792 0.000000 -0.613375 82 70 58
-2.488692 0.855793 0.769551 0.000000 0.780418 -0.625258 82 70 58
-2.073910 0.855793 0.769551 0.000000 0.780418 -0.625258 82 70 58
-2.156866 0.770214 0.662735 0.000000 0.780418 -0.625258 82 70 58
-2.405735 0.770214 0.662735 0.000000 0.780418 -0.625258 82 70 58
-2.488692 0.427897 0.769551 -0.789792 0.000001 -0.613375 82 70 58
-2.488692 0.855793 0.769551 -0.789792 0.000001 -0.613375 82 70 58
-2.405735 0.770214 0.662735 -0.789792 0.000001 -0.613375 82 70 58
-2.405736 0.513476 0.662735 -0.789792 0.000001 -0.613375 82 70 58
-2.073911 -0.855793 0.769551 0.000000 -0.780418 -0.625258 82 70 58
-2.488693 -0.855793 0.769551 0.000000 -0.780418 -0.625258 82 70 58
-2.405737 -0.770214 0.662735 0.000000 -0.780418 -0.625258 82 70 58
-2.156868 -0.770214 0.662735 0.000000 -0.780418 -0.625258 82 70 58
2.488693 -0.427897 0.769551 0.789793 0.000000 -0.613374 82 70 58
2.488693 -0.855793 0.769551 0.789793 0.000000 -0.613374 82 70 58
2.405737 -0.770214 0.662735 0.789793 0.000000 -0.613374 82 70 58
2.405737 -0.513476 0.662735 0.789793 0.000000 -0.613374 82 70 58
-2.073910 0.855793 0.769551 0.789792 -0.000001 -0.613375 82 70 58
-2.073910 0.427897 0.769551 0.789792 -0.000001 -0.613375 82 70 58
-2.156867 0.513476 0.662735 0.789792 -0.000001 -0.613375 82 70 58
-2.156866 0.770214 0.662735 0.789792 -0.000001 -0.613375 82 70 58
-2.488693 -0.855793 0.769551 -0.789792 0.000000 -0.613375 82 70 58
-2.488693 -0.427896 0.769551 -0.789792 0.000000 -0.613375 82 70 58
-2.405737 -0.513476 0.662735 -0.789792 0.000000 -0.613375 82 70 58
-2.405737 -0.770214 0.662735 -0.789792 0.000000 -0.613375 82 70 58
-2.073911 -0.427896 0.769551 0.789793 0.000000 -0.613374 82 70 58
-2.073911 -0.855793 0.769551 0.789793 0.000000 -0.613374 82 70 58
-2.156868 -0.770214 0.662735 0.789793 0.000000 -0.613374 82 70 58
-2.156868 -0.513476 0.662735 0.789793 0.000000 -0.613374 82 70 58
2.073911 -0.427897 0.769551 0.000000 0.780418 -0.625258 82 70 58
2.488693 -0.427897 0.769551 0.000000 0.780418 -0.625258 82 70 58
2.405737 -0.513476 0.662735 0.000000 0.780418 -0.625258 82 70 58
2.156867 -0.513476 0.662735 0.000000 0.780418 -0.625258 82 70 58
2.073911 0.855793 0.769551 0.000000 0.780418 -0.625258 82 70 58
2.488693 0.855793 0.769551 0.000000 0.780418 -0.625258 82 70 58
2.405737 0.770214 0.662735 0.000000 0.780418 -0.625258 82 70 58
2.156867 0.770214 0.662735 0.000000 0.780418 -0.625258 82 70 58
-2.073910 0.427897 0.769551 -0.000000 -0.780418 -0.625258 82 70 58
-2.488692 0.427897 0.769551 -0.000000 -0.780418 -0.625258 82 70 58
-2.405736 0.513476 0.662735 -0.000000 -0.780418 -0.625258 82 70 58
-2.156867 0.513476 0.662735 -0.000000 -0.780418 -0.625258 82 70 58
2.488693 -0.855793 0.769551 -0.000000 -0.780418 -0.625258 82 70 58
2.073911 -0.855793 0.769551 -0.000000 -0.780418 -0.625258 82 70 58
2.156867 -0.770214 0.662735 -0.000000 -0.780418 -0.625258 82 70 58
2.405737 -0.770214 0.662735 -0.000000 -0.780418 -0.625258 82 70 58
-2.126342 -0.506209 0.000475 0.000000 0.000000 -1.000000 82 70 58
-2.126342 -0.759313 0.000475 0.000000 0.000000 -1.000000 82 70 58
-2.371689 -0.759313 0.000475 0.000000 0.000000 -1.000000 82 70 58
-2.371689 -0.506209 0.000475 0.000000 0.000000 -1.000000 82 70 58
-2.126341 0.759313 0.000475 0.000000 0.000000 -1.000000 82 70 58
-2.126341 0.506209 0.000475 0.000000 0.000000 -1.000000 82 70 58
-2.371688 0.506209 0.000475 0.000000 0.000000 -1.000000 82 70 58
-2.371688 0.759313 0.000475 0.000000 0.000000 -1.000000 82 70 58
2.371689 0.506209 0.000475 0.000000 -0.000000 -1.000000 82 70 58
2.126342 0.506209 0.000475 0.000000 -0.000000 -1.000000 82 70 58
2.126342 0.759313 0.000475 0.000000 -0.000000 -1.000000 82 70 58
2.371689 0.759313 0.000475 0.000000 -0.000000 -1.000000 82 70 58
2.371689 -0.759313 0.000475 0.000000 -0.000000 -1.000000 82 70 58
2.126342 -0.759313 0.000475 0.000000 -0.000000 -1.000000 82 70 58
2.126342 -0.506209 0.000475 0.000000 -0.000000 -1.000000 82 70 58
2.371689 -0.506209 0.000475 0.000000 -0.000000 -1.000000 82 70 58
2.405737 -0.770214 0.662735 0.000000 -0.999865 -0.016458 82 70 58
2.156867 -0.770214 0.662735 0.000000 -0.999865 -0.016458 82 70 58
2.126342 -0.759313 0.000475 0.000000 -0.999865 -0.016458 82 70 58
2.371689 -0.759313 0.000475 0.000000 -0.999865 -0.016458 82 70 58
-2.405737 -0.513476 0.662735 0.000000 0.999940 0.010973 82 70 58
-2.156868 -0.513476 0.662735 0.000000 0.999940 0.010973 82 70 58
-2.126342 -0.506209 0.000475 0.000000 0.999940 0.010973 82 70 58
-2.371689 -0.506209 0.000475 0.000000 0.999940 0.010973 82 70 58
2.156867 0.513476 0.662735 -0.998939 0.000000 0.046044 82 70 58
2.156867 0.770214 0.662735 -0.998939 0.000000 0.046044 82 70 58
2.126342 0.759313 0.000475 -0.998939 0.000000 0.046044 82 70 58
2.126342 0.506209 0.000475 -0.998939 0.000000 0.046044 82 70 58
2.405737 0.513476 0.662735 0.000000 -0.999940 0.010973 82 70 58
2.156867 0.513476 0.662735 0.000000 -0.999940 0.010973 82 70 58
2.126342 0.506209 0.000475 0.000000 -0.999940 0.010973 82 70 58
2.371689 0.506209 0.000475 0.000000 -0.999940 0.010973 82 70 58
2.405737 0.770214 0.662735 0.998681 0.000000 -0.051344 82 70 58
2.405737 0.513476 0.662735 0.998681 0.000000 -0.051344 82 70 58
2.371689 0.506209 0.000475 0.998681 0.000000 -0.051344 82 70 58
2.371689 0.759313 0.000475 0.998681 0.000000 -0.051344 82 70 58
2.156867 -0.770214 0.662735 -0.998939 0.000000 0.046044 82 70 58
2.156867 -0.513476 0.662735 -0.998939 0.000000 0.046044 82 70 58
2.126342 -0.506209 0.000475 -0.998939 0.000000 0.046044 82 70 58
2.126342 -0.759313 0.000475 -0.998939 0.000000 0.046044 82 70 58
-2.405735 0.770214 0.662735 0.000000 0.999865 -0.016458 82 70 58
-2.156866 0.770214 0.662735 0.000000 0.999865 -0.016458 82 70 58
-2.126341 0.759313 0.000475 0.000000 0.999865 -0.016458 82 70 58
-2.371688 0.759313 0.000475 0.000000 0.999865 -0.016458 82 70 58
-2.405736 0.513476 0.662735 -0.998681 0.000001 -0.051344 82 70 58
-2.405735 0.770214 0.662735 -0.998681 0.000001 -0.051344 82 70 58
-2.371688 0.759313 0.000475 -0.998681 0.000001 -0.051344 82 70 58
-2.371688 0.506209 0.000475 -0.998681 0.000001 -0.051344 82 70 58
-2.156868 -0.770214 0.662735 0.000000 -0.999865 -0.016458 82 70 58
-2.405737 -0.770214 0.662735 0.000000 -0.999865 -0.016458 82 70 58
-2.371689 -0.759313 0.000475 0.000000 -0.999865 -0.016458 82 70 58
-2.126342 -0.759313 0.000475 0.000000 -0.999865 -0.016458 82 70 58
2.405737 -0.513476 0.662735 0.998681 0.000000 -0.051344 82 70 58
2.405737 -0.770214 0.662735 0.998681 0.000000 -0.051344 82 70 58
2.371689 -0.759313 0.000475 0.998681 0.000000 -0.051344 82 70 58
2.371689 -0.506209 0.000475 0.998681 0.000000 -0.051344 82 70 58
-2.156866 0.770214 0.662735 0.998939 -0.000001 0.046044 82 70 58
-2.156867 0.513476 0.662735 0.998939 -0.000001 0.046044 82 70 58
-2.126341 0.506209 0.000475 0.998939 -0.000001 0.046044 82 70 58
-2.126341 0.759313 0.000475 0.998939 -0.000001 0.046044 82 70 58
-2.405737 -0.770214 0.662735 -0.998681 0.000000 -0.051344 82 70 58
-2.405737 -0.513476 0.662735 -0.998681 0.000000 -0.051344 82 70 58
-2.371689 -0.506209 0.000475 -0.998681 0.000000 -0.051344 82 70 58
-2.371689 -0.759313 0.000475 -0.998681 0.000000 -0.051344 82 70 58
4 0 1 2 3
4 4 5 6 7
4 8 9 10 11
4 12 13 14 15
4 16 17 18 19
4 20 21 22 23
3 24 25 26
3 26 27 28
3 29 24 26
3 26 28 29
4 30 31 32 33
4 34 35 36 37
4 38 39 40 41
3 42 43 44
3 44 45 46
3 46 47 48
3 48 42 44
3 44 46 48
4 49 50 51 52
4 53 20 23 54
4 55 56 57 58
3 28 27 59
3 59 60 61
3 62 28 59
3 59 61 62
3 63 64 65
3 65 66 67
3 67 68 63
3 65 67 63
3 69 61 60
3 60 70 71
3 71 72 73
3 73 69 60
3 60 71 73
4 74 75 76 77
4 78 79 80 81
4 82 83 84 85
4 86 87 88 89
4 90 86 89 91
3 44 43 92
3 92 64 63
3 63 93 44
3 92 63 44
4 94 95 96 97
4 31 98 99 32
4 100 101 102 103
4 104 105 106 107
4 108 4 7 109
3 110 111 112
3 112 113 114
3 112 114 110
4 115 110 116 117
4 118 119 120 121
4 122 123 17 16
4 56 124 125 57
4 126 127 128 129
4 130 131 76 132
3 97 133 134
3 135 72 97
3 134 135 97
4 136 137 138 139
4 140 141 64 92
3 133 77 76
3 131 134 133
3 76 131 133
4 142 135 134 143
4 144 111 110 115
3 145 146 147
3 147 148 149
3 147 149 145
3 25 24 150
3 132 76 75
3 25 150 132
3 75 151 25
3 132 75 25
3 96 95 152
3 152 67 66
3 66 153 154
3 154 96 152
3 152 66 154
4 155 156 157 158
4 101 159 160 102
3 116 110 114
3 114 161 162
3 114 162 116
4 163 164 165 166
4 83 167 168 84
3 146 169 170
3 170 171 147
3 170 147 146
4 172 173 174 175
3 151 26 25
3 59 70 60
3 93 45 44
3 152 68 67
4 176 177 178 179
4 180 181 182 183
4 184 185 186 187
4 188 189 190 191
4 192 193 194 195
4 196 197 198 199
4 200 201 202 203
4 204 205 206 207
4 208 209 210 211
4 212 213 214 215
4 216 217 218 219
4 220 221 222 223
4 224 225 226 227
4 171 144 115 147
3 228 47 77
3 77 133 229
3 77 229 228
3 230 229 133
3 133 97 96
3 133 96 230
4 11 10 231 232
4 175 174 123 122
4 147 115 117 148
4 233 108 109 234
4 35 100 103 36
4 71 94 97 72
4 235 90 91 236
4 237 82 85 238
4 46 74 77 47
4 239 142 143 240
4 69 73 142 239
4 73 72 135 142
4 241 242 243 244
4 47 228 245 48
4 228 229 246 245
4 141 247 65 64
4 229 230 248 246
4 230 96 154 248
4 249 130 132 150
4 240 143 130 249
4 143 134 131 130
4 246 248 247 141
4 48 245 140 42
4 245 246 141 140
4 248 154 153 247
4 28 240 249 29
4 250 251 252 253
4 254 255 256 257
4 62 239 240 28
4 258 259 260 261
4 262 263 264 265
4 266 267 268 269
4 270 271 272 273
4 274 275 276 277
4 278 279 280 281
4 282 283 284 285
4 286 287 288 289
4 290 291 292 293
4 294 295 296 297
4 298 299 300 301
4 302 303 304 305
4 306 307 308 309
4 310 311 312 313
4 314 315 316 317
4 318 319 320 321
4 322 323 324 325
4 326 327 328 329
4 330 331 332 333
4 334 335 336 337
4 338 339 340 341
4 342 343 344 345
4 346 347 348 349
4 350 351 352 353
4 354 355 356 357
4 358 359 360 361
4 362 363 364 365
4 366 367 368 369
4 370 371 372 373
4 374 375 376 377
4 378 379 380 381
4 382 383 384 385
4 386 387 388 389
4 390 391 392 393
4 394 395 396 397
4 398 399 400 401
4 402 403 404 405
4 406 407 408 409
4 410 411 412 413
4 414 415 416 417
4 418 419 420 421
4 422 423 424 425
4 426 427 428 429
4 430 431 432 433
4 434 435 436 437
4 438 439 440 441
4 442 443 444 445
4 446 447 448 449
