ply
format ascii 1.0
comment Created by Blender 2.79 (sub 0) - www.blender.org, source file: 'floor2.blend'
element vertex 107
property float x
property float y
property float z
property float nx
property float ny
property float nz
property uchar red
property uchar green
property uchar blue
element face 47
property list uchar uint vertex_indices
end_header
-10.000000 -10.000000 -0.758881 -1.000000 -0.000000 0.000000 231 88 255
-10.000000 -10.000000 9.639769 -1.000000 -0.000000 0.000000 231 88 255
-10.000000 10.000000 9.639769 -1.000000 -0.000000 0.000000 231 88 255
-10.000000 10.000000 -0.758881 -1.000000 -0.000000 0.000000 231 88 255
-7.777778 10.000000 1.305959 0.000000 0.000000 1.000000 231 88 255
-7.777778 -10.000000 1.305959 0.000000 0.000000 1.000000 231 88 255
-5.555556 -10.000000 1.305959 0.000000 0.000000 1.000000 231 88 255
-5.555556 10.000000 1.305959 0.000000 0.000000 1.000000 231 88 255
-3.333333 10.000000 0.100440 0.000000 0.000000 1.000000 231 88 255
-3.333333 -10.000000 0.100440 0.000000 0.000000 1.000000 231 88 255
3.333334 -10.000000 0.100440 0.000000 0.000000 1.000000 231 88 255
3.333334 10.000000 0.100440 0.000000 0.000000 1.000000 231 88 255
-3.333333 -10.000000 0.100440 0.476838 0.000000 0.878991 231 88 255
-3.333333 10.000000 0.100440 0.476838 0.000000 0.878991 231 88 255
-5.555556 10.000000 1.305959 0.476838 0.000000 0.878991 231 88 255
-5.555556 -10.000000 1.305959 0.476838 0.000000 0.878991 231 88 255
7.777778 -10.000000 1.305959 -0.000000 0.000000 1.000000 231 88 255
7.777778 10.000000 1.305959 -0.000000 0.000000 1.000000 231 88 255
5.555556 10.000000 1.305959 -0.000000 0.000000 1.000000 231 88 255
5.555556 -10.000000 1.305959 -0.000000 0.000000 1.000000 231 88 255
5.555556 -10.000000 1.305959 -0.476838 0.000000 0.878991 231 88 255
5.555556 10.000000 1.305959 -0.476838 0.000000 0.878991 231 88 255
3.333334 10.000000 0.100440 -0.476838 0.000000 0.878991 231 88 255
3.333334 -10.000000 0.100440 -0.476838 0.000000 0.878991 231 88 255
10.000000 10.000000 -0.758881 0.000000 0.000000 -1.000000 231 88 255
10.000000 -10.000000 -0.758881 0.000000 0.000000 -1.000000 231 88 255
7.777778 -10.000000 -0.758881 0.000000 0.000000 -1.000000 231 88 255
5.555556 -10.000000 -0.758881 0.000000 0.000000 0.000000 231 88 255
3.333334 -10.000000 -0.758881 0.000000 0.000000 0.000000 231 88 255
-3.333333 -10.000000 -0.758881 0.000000 0.000000 0.000000 231 88 255
5.555556 -10.000000 -0.758881 0.000000 0.000000 -1.000000 231 88 255
3.333334 10.000000 -0.758881 0.000000 0.000000 0.000000 231 88 255
5.555556 10.000000 -0.758881 0.000000 0.000000 0.000000 231 88 255
7.777778 10.000000 -0.758881 0.000000 0.000000 0.000000 231 88 255
7.777778 10.000000 -0.758881 0.000000 0.000000 -1.000000 231 88 255
-5.555556 -10.000000 -0.758881 0.000000 0.000000 0.000000 231 88 255
-7.777778 -10.000000 -0.758881 0.000000 0.000000 0.000000 231 88 255
-3.333333 -10.000000 -0.758881 0.000000 0.000000 -1.000000 231 88 255
-5.555556 10.000000 -0.758881 0.000000 0.000000 0.000000 231 88 255
-3.333333 10.000000 -0.758881 0.000000 0.000000 0.000000 231 88 255
3.333334 10.000000 -0.758881 0.000000 0.000000 -1.000000 231 88 255
-7.777778 -10.000000 -0.758881 0.000000 0.000000 -1.000000 231 88 255
-10.000000 -10.000000 -0.758881 0.000000 0.000000 -1.000000 231 88 255
-10.000000 10.000000 -0.758881 0.000000 0.000000 -1.000000 231 88 255
-10.000000 10.000000 -0.758881 0.000000 0.000000 0.000000 231 88 255
-7.777778 10.000000 -0.758881 0.000000 0.000000 0.000000 231 88 255
-5.555556 10.000000 -0.758881 0.000000 0.000000 -1.000000 231 88 255
3.333334 -10.000000 0.100440 -0.000000 -1.000000 0.000000 231 88 255
3.333334 -10.000000 -0.758881 -0.000000 -1.000000 0.000000 231 88 255
5.555556 -10.000000 -0.758881 -0.000000 -1.000000 0.000000 231 88 255
5.555556 -10.000000 1.305959 -0.000000 -1.000000 0.000000 231 88 255
-3.333333 10.000000 0.100440 -0.000000 1.000000 0.000000 231 88 255
-3.333333 10.000000 -0.758881 -0.000000 1.000000 0.000000 231 88 255
-5.555556 10.000000 -0.758881 -0.000000 1.000000 0.000000 231 88 255
-5.555556 10.000000 1.305959 -0.000000 1.000000 0.000000 231 88 255
7.777778 10.000000 1.305959 0.000000 0.000000 0.000000 231 88 255
7.777778 10.000000 9.639769 0.000000 0.000000 0.000000 231 88 255
7.777778 10.000000 9.639769 0.000000 1.000000 -0.000000 231 88 255
10.000000 10.000000 9.639769 0.000000 1.000000 -0.000000 231 88 255
10.000000 10.000000 -0.758881 0.000000 1.000000 -0.000000 231 88 255
7.777778 10.000000 -0.758881 0.000000 1.000000 -0.000000 231 88 255
-5.555556 -10.000000 1.305959 -0.000000 -1.000000 0.000000 231 88 255
-5.555556 -10.000000 -0.758881 -0.000000 -1.000000 0.000000 231 88 255
-3.333333 -10.000000 -0.758881 -0.000000 -1.000000 0.000000 231 88 255
-3.333333 -10.000000 0.100440 -0.000000 -1.000000 0.000000 231 88 255
7.777778 -10.000000 -0.758881 -0.000000 -1.000000 0.000000 231 88 255
7.777778 -10.000000 1.305959 -0.000000 -1.000000 0.000000 231 88 255
3.333334 10.000000 0.100440 0.000000 1.000000 0.000000 231 88 255
3.333334 10.000000 -0.758881 0.000000 1.000000 0.000000 231 88 255
-7.777778 10.000000 -0.758881 -0.000000 1.000000 0.000000 231 88 255
-10.000000 10.000000 -0.758881 -0.000000 1.000000 0.000000 231 88 255
-10.000000 10.000000 9.639769 -0.000000 1.000000 0.000000 231 88 255
-7.777778 10.000000 9.639769 0.000000 1.000000 -0.000000 231 88 255
-7.777778 10.000000 1.305959 0.000000 1.000000 -0.000000 231 88 255
5.555556 10.000000 1.305959 -0.000000 1.000000 0.000000 231 88 255
5.555556 10.000000 -0.758881 -0.000000 1.000000 0.000000 231 88 255
10.000000 -10.000000 -0.758881 0.000000 -1.000000 0.000000 231 88 255
10.000000 -10.000000 9.639769 0.000000 -1.000000 0.000000 231 88 255
7.777778 -10.000000 9.639769 0.000000 -1.000000 0.000000 231 88 255
10.000000 10.000000 -0.758881 1.000000 -0.000000 0.000000 231 88 255
10.000000 10.000000 9.639769 1.000000 -0.000000 0.000000 231 88 255
10.000000 -10.000000 9.639769 1.000000 -0.000000 0.000000 231 88 255
10.000000 -10.000000 -0.758881 1.000000 -0.000000 0.000000 231 88 255
-7.777778 -10.000000 1.305959 0.000000 0.000000 0.000000 231 88 255
-7.777778 -10.000000 9.639769 0.000000 0.000000 0.000000 231 88 255
-7.777778 -10.000000 9.639769 0.000000 -1.000000 0.000000 231 88 255
-10.000000 -10.000000 9.639769 0.000000 -1.000000 0.000000 231 88 255
-10.000000 -10.000000 -0.758881 0.000000 -1.000000 0.000000 231 88 255
-7.777778 -10.000000 -0.758881 0.000000 -1.000000 0.000000 231 88 255
7.777778 10.000000 1.305959 -0.000000 1.000000 0.000000 231 88 255
-7.777778 -10.000000 1.305959 -0.000000 -1.000000 0.000000 231 88 255
-7.777778 -10.000000 9.639769 -0.000000 0.000000 1.000000 231 88 255
-7.777778 10.000000 9.639769 -0.000000 0.000000 1.000000 231 88 255
-10.000000 10.000000 9.639769 -0.000000 0.000000 1.000000 231 88 255
-10.000000 -10.000000 9.639769 -0.000000 0.000000 1.000000 231 88 255
10.000000 -10.000000 9.639769 -0.000000 0.000000 1.000000 231 88 255
10.000000 10.000000 9.639769 -0.000000 0.000000 1.000000 231 88 255
7.777778 10.000000 9.639769 -0.000000 0.000000 1.000000 231 88 255
7.777778 -10.000000 9.639769 -0.000000 0.000000 1.000000 231 88 255
-7.777778 -10.000000 1.305959 1.000000 0.000000 0.000000 231 88 255
-7.777778 10.000000 1.305959 1.000000 0.000000 0.000000 231 88 255
-7.777778 10.000000 9.639769 1.000000 0.000000 0.000000 231 88 255
-7.777778 -10.000000 9.639769 1.000000 0.000000 0.000000 231 88 255
7.777778 -10.000000 1.305959 -1.000000 -0.000000 0.000000 231 88 255
7.777778 -10.000000 9.639769 -1.000000 -0.000000 0.000000 231 88 255
7.777778 10.000000 9.639769 -1.000000 -0.000000 0.000000 231 88 255
7.777778 10.000000 1.305959 -1.000000 -0.000000 0.000000 231 88 255
4 0 1 2 3
4 4 5 6 7
4 8 9 10 11
4 12 13 14 15
4 16 17 18 19
4 20 21 22 23
3 24 25 26
3 27 28 29
3 24 26 30
3 31 32 33
3 34 24 30
3 29 35 36
3 34 30 37
3 38 39 31
3 40 34 37
3 41 42 43
3 40 37 41
3 44 45 38
3 46 40 41
3 41 43 46
4 47 48 49 50
4 51 52 53 54
3 33 55 56
3 57 58 59
3 57 59 60
4 61 62 63 64
4 50 49 65 66
4 52 51 67 68
4 63 48 47 64
3 69 70 71
3 71 72 73
3 71 73 69
4 74 75 68 67
3 66 65 76
3 76 77 78
3 66 76 78
4 79 80 81 82
3 36 83 84
3 85 86 87
3 85 87 88
4 89 60 75 74
4 90 88 62 61
4 54 53 69 73
4 91 92 93 94
4 95 96 97 98
4 99 100 101 102
4 103 104 105 106
