ply
format ascii 1.0
comment Created by Blender 2.79 (sub 0) - www.blender.org, source file: 'floor 4.blend'
element vertex 244
property float x
property float y
property float z
property float nx
property float ny
property float nz
property uchar red
property uchar green
property uchar blue
element face 120
property list uchar uint vertex_indices
end_header
-2.789219 -2.789219 0.486499 0.000000 -0.000000 1.000000 255 158 115
-4.183829 -2.789218 0.486499 0.000000 -0.000000 1.000000 255 158 115
-4.183830 -4.183828 0.486499 0.000000 -0.000000 1.000000 255 158 115
-2.789220 -4.183828 0.486499 0.000000 -0.000000 1.000000 255 158 115
-2.789221 -2.789219 -0.486499 0.000000 0.000000 -1.000000 255 158 115
-2.789221 -4.183828 -0.486499 0.000000 0.000000 -1.000000 255 158 115
-4.183831 -4.183828 -0.486499 0.000000 0.000000 -1.000000 255 158 115
-4.183830 -2.789218 -0.486499 0.000000 0.000000 -1.000000 255 158 115
4.183829 -2.789220 0.969215 1.000000 -0.000000 -0.000001 255 158 115
4.183829 -4.183829 0.969215 1.000000 -0.000000 -0.000001 255 158 115
4.183827 -4.183832 -0.486499 1.000000 -0.000000 -0.000001 255 158 115
4.183827 -2.789222 -0.486499 1.000000 -0.000000 -0.000001 255 158 115
-2.789220 -4.183828 0.486499 -0.000000 -1.000000 -0.000000 255 158 115
-4.183830 -4.183828 0.486499 -0.000000 -1.000000 -0.000000 255 158 115
-4.183831 -4.183828 -0.486499 -0.000000 -1.000000 -0.000000 255 158 115
-2.789221 -4.183828 -0.486499 -0.000000 -1.000000 -0.000000 255 158 115
-4.183827 2.789221 0.969215 -1.000000 0.000000 0.000001 255 158 115
-4.183827 4.183831 0.969215 -1.000000 0.000000 0.000001 255 158 115
-4.183829 4.183829 -0.486499 -1.000000 0.000000 0.000001 255 158 115
-4.183829 2.789220 -0.486499 -1.000000 0.000000 0.000001 255 158 115
-2.789219 4.183829 -0.486499 0.000000 1.000000 -0.000001 255 158 115
-4.183829 4.183829 -0.486499 0.000000 1.000000 -0.000001 255 158 115
-4.183827 4.183831 0.969215 0.000000 1.000000 -0.000001 255 158 115
-2.789218 4.183830 0.969215 0.000000 1.000000 -0.000001 255 158 115
2.789220 4.183829 0.969215 0.000000 1.000000 -0.000001 255 158 115
4.183829 4.183829 0.969215 0.000000 1.000000 -0.000001 255 158 115
4.183831 4.183827 -0.486499 0.000000 1.000000 -0.000001 255 158 115
2.789221 4.183828 -0.486499 0.000000 1.000000 -0.000001 255 158 115
1.394611 4.183828 -0.486499 0.000000 1.000000 -0.000001 255 158 115
1.394610 4.183830 0.969215 0.000000 1.000000 -0.000001 255 158 115
0.000001 4.183828 -0.486499 0.000000 1.000000 -0.000001 255 158 115
0.000001 4.183830 0.969215 0.000000 1.000000 -0.000001 255 158 115
-1.394609 4.183829 -0.486499 0.000000 1.000000 -0.000001 255 158 115
-1.394609 4.183830 0.969215 0.000000 1.000000 -0.000001 255 158 115
4.183829 -4.183829 0.969215 -0.000000 -1.000000 0.000001 255 158 115
2.789219 -4.183829 0.969215 -0.000000 -1.000000 0.000001 255 158 115
2.789217 -4.183831 -0.486499 -0.000000 -1.000000 0.000001 255 158 115
4.183827 -4.183832 -0.486499 -0.000000 -1.000000 0.000001 255 158 115
1.394610 -4.183829 0.486499 -0.000000 -1.000000 0.000001 255 158 115
1.394608 -4.183831 -0.486499 -0.000000 -1.000000 0.000001 255 158 115
-0.000000 -4.183829 0.486499 -0.000000 -1.000000 0.000001 255 158 115
-0.000002 -4.183830 -0.486499 -0.000000 -1.000000 0.000001 255 158 115
-0.000000 -4.183829 0.486499 -0.000001 -1.000000 0.000001 255 158 115
-1.394610 -4.183829 0.486499 -0.000001 -1.000000 0.000001 255 158 115
-1.394612 -4.183829 -0.486499 -0.000001 -1.000000 0.000001 255 158 115
-0.000002 -4.183830 -0.486499 -0.000001 -1.000000 0.000001 255 158 115
-1.394610 -4.183829 0.486499 -0.000001 -1.000000 0.000000 255 158 115
-2.789220 -4.183828 0.486499 -0.000001 -1.000000 0.000000 255 158 115
-2.789221 -4.183828 -0.486499 -0.000001 -1.000000 0.000000 255 158 115
-1.394612 -4.183829 -0.486499 -0.000001 -1.000000 0.000000 255 158 115
4.183827 -2.789222 -0.486499 0.000000 0.000000 -1.000000 255 158 115
4.183827 -4.183832 -0.486499 0.000000 0.000000 -1.000000 255 158 115
2.789217 -4.183831 -0.486499 0.000000 0.000000 -1.000000 255 158 115
2.789218 -2.789221 -0.486499 0.000000 0.000000 -1.000000 255 158 115
1.394608 -4.183831 -0.486499 0.000000 0.000000 -1.000000 255 158 115
1.394608 -2.789221 -0.486499 0.000000 0.000000 -1.000000 255 158 115
-0.000002 -4.183830 -0.486499 0.000000 0.000000 -1.000000 255 158 115
-0.000002 -2.789220 -0.486499 0.000000 0.000000 -1.000000 255 158 115
-1.394612 -4.183829 -0.486499 0.000000 0.000000 -1.000000 255 158 115
-1.394611 -2.789219 -0.486499 0.000000 0.000000 -1.000000 255 158 115
4.183829 -0.000000 0.969215 1.000000 0.000000 0.000000 255 158 115
4.183829 1.394610 0.969215 1.000000 0.000000 0.000000 255 158 115
4.183829 1.394610 4.787058 1.000000 0.000000 0.000000 255 158 115
4.183829 -0.000000 4.787058 1.000000 0.000000 0.000000 255 158 115
2.789219 -2.789220 0.969215 -0.327090 0.000000 0.944993 255 158 115
1.394610 -2.789219 0.486499 -0.327090 0.000000 0.944993 255 158 115
1.394610 -4.183829 0.486499 -0.327090 0.000000 0.944993 255 158 115
2.789219 -4.183829 0.969215 -0.327090 0.000000 0.944993 255 158 115
1.394610 -2.789219 0.486499 0.000000 -0.000000 1.000000 255 158 115
-0.000000 -2.789219 0.486499 0.000000 -0.000000 1.000000 255 158 115
-0.000000 -4.183829 0.486499 0.000000 -0.000000 1.000000 255 158 115
1.394610 -4.183829 0.486499 0.000000 -0.000000 1.000000 255 158 115
-1.394610 -2.789219 0.486499 0.000000 -0.000000 1.000000 255 158 115
-1.394610 -4.183829 0.486499 0.000000 -0.000000 1.000000 255 158 115
2.789219 -4.183829 0.969215 0.000000 -1.000000 -0.000000 255 158 115
4.183829 -4.183829 0.969215 0.000000 -1.000000 -0.000000 255 158 115
4.183829 -4.183829 4.787058 0.000000 -1.000000 -0.000000 255 158 115
2.789219 -4.183829 4.787058 0.000000 -1.000000 -0.000000 255 158 115
-1.394609 2.789220 0.969215 0.000000 -0.327090 0.944993 255 158 115
-2.789218 2.789220 0.969215 0.000000 -0.327090 0.944993 255 158 115
-2.789218 1.394611 0.486499 0.000000 -0.327090 0.944993 255 158 115
-1.394609 1.394611 0.486499 0.000000 -0.327090 0.944993 255 158 115
-1.394609 1.394611 0.486499 0.000000 -0.000000 1.000000 255 158 115
-2.789218 1.394611 0.486499 0.000000 -0.000000 1.000000 255 158 115
-2.789219 0.000001 0.486499 0.000000 -0.000000 1.000000 255 158 115
-1.394609 0.000001 0.486499 0.000000 -0.000000 1.000000 255 158 115
-2.789219 -1.394609 0.486499 0.000000 -0.000000 1.000000 255 158 115
-1.394609 -1.394609 0.486499 0.000000 -0.000000 1.000000 255 158 115
-4.183827 2.789221 0.969215 -0.000000 -1.000000 0.000000 255 158 115
-2.789218 2.789220 0.969215 -0.000000 -1.000000 0.000000 255 158 115
-2.789218 2.789220 4.787058 -0.000000 -1.000000 0.000000 255 158 115
-4.183827 2.789221 4.787058 -0.000000 -1.000000 0.000000 255 158 115
0.000001 2.789220 0.969215 -0.000000 -0.327090 0.944993 255 158 115
0.000001 1.394610 0.486499 -0.000000 -0.327090 0.944993 255 158 115
0.000001 1.394610 0.486499 0.000000 -0.000000 1.000000 255 158 115
0.000000 0.000000 0.486499 0.000000 -0.000000 1.000000 255 158 115
0.000000 -1.394609 0.486499 0.000000 -0.000000 1.000000 255 158 115
2.789220 2.789219 0.969215 -1.000000 0.000000 -0.000000 255 158 115
2.789220 1.394610 0.969215 -1.000000 0.000000 -0.000000 255 158 115
2.789220 1.394610 4.787058 -1.000000 0.000000 -0.000000 255 158 115
2.789220 2.789219 4.787058 -1.000000 0.000000 -0.000000 255 158 115
1.394610 2.789220 0.969215 -0.000000 -0.327090 0.944993 255 158 115
1.394610 1.394610 0.486499 -0.000000 -0.327090 0.944993 255 158 115
1.394610 1.394610 0.486499 0.000000 -0.000000 1.000000 255 158 115
1.394610 0.000000 0.486499 0.000000 -0.000000 1.000000 255 158 115
1.394610 -1.394610 0.486499 0.000000 -0.000000 1.000000 255 158 115
4.183829 2.789219 0.969215 1.000000 0.000000 0.000000 255 158 115
4.183829 2.789219 4.787058 1.000000 0.000000 0.000000 255 158 115
2.789220 2.789219 0.969215 -0.168103 -0.168103 0.971330 255 158 115
1.394610 2.789220 0.969215 -0.168103 -0.168103 0.971330 255 158 115
1.394610 1.394610 0.486499 -0.168103 -0.168103 0.971330 255 158 115
2.789220 1.394610 0.969215 -0.168103 -0.168103 0.971330 255 158 115
2.789220 1.394610 0.969215 -0.327090 0.000000 0.944993 255 158 115
1.394610 1.394610 0.486499 -0.327090 0.000000 0.944993 255 158 115
1.394610 0.000000 0.486499 -0.327090 0.000000 0.944993 255 158 115
2.789220 -0.000000 0.969215 -0.327090 0.000000 0.944993 255 158 115
1.394610 -1.394610 0.486499 -0.327090 0.000000 0.944993 255 158 115
2.789220 -1.394610 0.969215 -0.327090 0.000000 0.944993 255 158 115
-1.394609 4.183830 0.969215 0.000000 1.000000 0.000000 255 158 115
-2.789218 4.183830 0.969215 0.000000 1.000000 0.000000 255 158 115
-2.789218 4.183830 4.787058 0.000000 1.000000 0.000000 255 158 115
-1.394609 4.183830 4.787058 0.000000 1.000000 0.000000 255 158 115
-1.394609 2.789220 0.969215 0.000000 -1.000000 -0.000000 255 158 115
0.000001 2.789220 0.969215 0.000000 -1.000000 -0.000000 255 158 115
0.000001 2.789220 4.787058 0.000000 -1.000000 -0.000000 255 158 115
-1.394609 2.789220 4.787058 0.000000 -1.000000 -0.000000 255 158 115
-4.183827 4.183831 0.969215 0.000000 1.000000 0.000000 255 158 115
-4.183827 4.183831 4.787058 0.000000 1.000000 0.000000 255 158 115
4.183829 4.183829 0.969215 1.000000 0.000000 0.000000 255 158 115
4.183829 4.183829 4.787058 1.000000 0.000000 0.000000 255 158 115
0.000001 4.183830 0.969215 0.000000 1.000000 0.000000 255 158 115
0.000001 4.183830 4.787058 0.000000 1.000000 0.000000 255 158 115
-1.394609 4.183829 -0.486499 0.000000 0.000000 -1.000000 255 158 115
-1.394609 2.789219 -0.486499 0.000000 0.000000 -1.000000 255 158 115
-2.789219 2.789220 -0.486499 0.000000 0.000000 -1.000000 255 158 115
-2.789219 4.183829 -0.486499 0.000000 0.000000 -1.000000 255 158 115
-1.394610 1.394610 -0.486499 0.000000 0.000000 -1.000000 255 158 115
-2.789220 1.394610 -0.486499 0.000000 0.000000 -1.000000 255 158 115
-1.394610 0.000000 -0.486499 0.000000 0.000000 -1.000000 255 158 115
-2.789220 0.000001 -0.486499 0.000000 0.000000 -1.000000 255 158 115
-1.394611 -1.394610 -0.486499 0.000000 0.000000 -1.000000 255 158 115
-2.789220 -1.394609 -0.486499 0.000000 0.000000 -1.000000 255 158 115
0.000001 4.183828 -0.486499 0.000000 0.000000 -1.000000 255 158 115
0.000001 2.789219 -0.486499 0.000000 0.000000 -1.000000 255 158 115
0.000000 1.394609 -0.486499 0.000000 0.000000 -1.000000 255 158 115
-0.000000 -0.000001 -0.486499 0.000000 0.000000 -1.000000 255 158 115
-0.000001 -1.394611 -0.486499 0.000000 0.000000 -1.000000 255 158 115
1.394611 4.183828 -0.486499 0.000000 0.000000 -1.000000 255 158 115
1.394610 2.789218 -0.486499 0.000000 0.000000 -1.000000 255 158 115
1.394610 1.394609 -0.486499 0.000000 0.000000 -1.000000 255 158 115
1.394609 -0.000001 -0.486499 0.000000 0.000000 -1.000000 255 158 115
1.394609 -1.394611 -0.486499 0.000000 0.000000 -1.000000 255 158 115
2.789221 4.183828 -0.486499 0.000000 0.000000 -1.000000 255 158 115
2.789220 2.789218 -0.486499 0.000000 0.000000 -1.000000 255 158 115
2.789220 1.394608 -0.486499 0.000000 0.000000 -1.000000 255 158 115
2.789219 -0.000002 -0.486499 0.000000 0.000000 -1.000000 255 158 115
2.789219 -1.394611 -0.486499 0.000000 0.000000 -1.000000 255 158 115
4.183831 4.183827 -0.486499 0.000000 0.000000 -1.000000 255 158 115
4.183830 2.789217 -0.486499 0.000000 0.000000 -1.000000 255 158 115
4.183830 1.394608 -0.486499 0.000000 0.000000 -1.000000 255 158 115
4.183829 -0.000002 -0.486499 0.000000 0.000000 -1.000000 255 158 115
4.183828 -1.394612 -0.486499 0.000000 0.000000 -1.000000 255 158 115
-4.183830 -4.183828 0.486499 -1.000000 0.000000 0.000001 255 158 115
-4.183829 -2.789218 0.486499 -1.000000 0.000000 0.000001 255 158 115
-4.183830 -2.789218 -0.486499 -1.000000 0.000000 0.000001 255 158 115
-4.183831 -4.183828 -0.486499 -1.000000 0.000000 0.000001 255 158 115
-4.183829 -1.394609 0.486499 -1.000000 0.000000 0.000001 255 158 115
-4.183830 -1.394609 -0.486499 -1.000000 0.000000 0.000001 255 158 115
-4.183828 0.000001 0.486499 -1.000000 0.000000 0.000001 255 158 115
-4.183829 0.000001 -0.486499 -1.000000 0.000000 0.000001 255 158 115
-4.183828 1.394611 0.486499 -1.000000 0.000000 0.000001 255 158 115
-4.183829 1.394610 -0.486499 -1.000000 0.000000 0.000001 255 158 115
4.183829 4.183829 0.969215 1.000000 -0.000000 0.000001 255 158 115
4.183829 2.789219 0.969215 1.000000 -0.000000 0.000001 255 158 115
4.183830 2.789217 -0.486499 1.000000 -0.000000 0.000001 255 158 115
4.183831 4.183827 -0.486499 1.000000 -0.000000 0.000001 255 158 115
4.183830 1.394608 -0.486499 1.000000 -0.000000 0.000000 255 158 115
4.183830 2.789217 -0.486499 1.000000 -0.000000 0.000000 255 158 115
4.183829 -0.000002 -0.486499 1.000000 -0.000000 0.000000 255 158 115
4.183829 -1.394610 0.969215 1.000000 -0.000000 -0.000000 255 158 115
4.183828 -1.394612 -0.486499 1.000000 -0.000000 -0.000000 255 158 115
4.183829 -1.394610 0.969215 1.000000 -0.000000 -0.000001 255 158 115
4.183828 -1.394612 -0.486499 1.000000 -0.000000 -0.000001 255 158 115
-4.183829 2.789220 -0.486499 0.000000 0.000000 -1.000000 255 158 115
-4.183829 4.183829 -0.486499 0.000000 0.000000 -1.000000 255 158 115
-4.183829 1.394610 -0.486499 0.000000 0.000000 -1.000000 255 158 115
-4.183829 0.000001 -0.486499 0.000000 0.000000 -1.000000 255 158 115
-4.183830 -1.394609 -0.486499 0.000000 0.000000 -1.000000 255 158 115
4.183829 -4.183829 0.969215 1.000000 0.000000 0.000000 255 158 115
4.183829 -2.789220 0.969215 1.000000 0.000000 0.000000 255 158 115
4.183829 -2.789220 4.787058 1.000000 0.000000 0.000000 255 158 115
4.183829 -4.183829 4.787058 1.000000 0.000000 0.000000 255 158 115
-4.183827 2.789221 0.969215 -0.000000 -0.327090 0.944993 255 158 115
-4.183828 1.394611 0.486499 -0.000000 -0.327090 0.944993 255 158 115
-4.183828 1.394611 0.486499 0.000000 -0.000000 1.000000 255 158 115
-4.183828 0.000001 0.486499 0.000000 -0.000000 1.000000 255 158 115
-4.183829 -1.394609 0.486499 0.000000 -0.000000 1.000000 255 158 115
4.183829 -2.789220 4.787058 0.000000 -0.000000 1.000000 255 158 115
2.789219 -2.789220 4.787058 0.000000 -0.000000 1.000000 255 158 115
2.789219 -4.183829 4.787058 0.000000 -0.000000 1.000000 255 158 115
4.183829 -4.183829 4.787058 0.000000 -0.000000 1.000000 255 158 115
-1.394609 4.183830 4.787058 0.000000 -0.000000 1.000000 255 158 115
-2.789218 4.183830 4.787058 0.000000 -0.000000 1.000000 255 158 115
-2.789218 2.789220 4.787058 0.000000 -0.000000 1.000000 255 158 115
-1.394609 2.789220 4.787058 0.000000 -0.000000 1.000000 255 158 115
0.000001 4.183830 4.787058 0.000000 -0.000000 1.000000 255 158 115
0.000001 2.789220 4.787058 0.000000 -0.000000 1.000000 255 158 115
1.394610 4.183830 4.787058 0.000000 -0.000000 1.000000 255 158 115
1.394610 2.789220 4.787058 0.000000 -0.000000 1.000000 255 158 115
2.789220 4.183829 4.787058 0.000000 -0.000000 1.000000 255 158 115
2.789220 2.789219 4.787058 0.000000 -0.000000 1.000000 255 158 115
4.183829 4.183829 4.787058 0.000000 -0.000000 1.000000 255 158 115
4.183829 2.789219 4.787058 0.000000 -0.000000 1.000000 255 158 115
2.789220 1.394610 4.787058 0.000000 -0.000000 1.000000 255 158 115
4.183829 1.394610 4.787058 0.000000 -0.000000 1.000000 255 158 115
2.789220 -0.000000 4.787058 0.000000 -0.000000 1.000000 255 158 115
4.183829 -0.000000 4.787058 0.000000 -0.000000 1.000000 255 158 115
2.789220 -1.394610 4.787058 0.000000 -0.000000 1.000000 255 158 115
4.183829 -1.394610 4.787058 0.000000 -0.000000 1.000000 255 158 115
-4.183827 4.183831 4.787058 0.000000 -0.000000 1.000000 255 158 115
-4.183827 2.789221 4.787058 0.000000 -0.000000 1.000000 255 158 115
2.789219 -2.789220 0.969215 -1.000000 0.000000 -0.000000 255 158 115
2.789219 -4.183829 0.969215 -1.000000 0.000000 -0.000000 255 158 115
2.789219 -4.183829 4.787058 -1.000000 0.000000 -0.000000 255 158 115
2.789219 -2.789220 4.787058 -1.000000 0.000000 -0.000000 255 158 115
2.789220 -0.000000 0.969215 -1.000000 0.000000 -0.000000 255 158 115
2.789220 -0.000000 4.787058 -1.000000 0.000000 -0.000000 255 158 115
4.183829 -1.394610 4.787058 1.000000 0.000000 0.000000 255 158 115
1.394610 2.789220 0.969215 -0.000000 -1.000000 0.000000 255 158 115
2.789220 2.789219 0.969215 -0.000000 -1.000000 0.000000 255 158 115
2.789220 2.789219 4.787058 -0.000000 -1.000000 0.000000 255 158 115
1.394610 2.789220 4.787058 -0.000000 -1.000000 0.000000 255 158 115
2.789220 -1.394610 0.969215 -1.000000 0.000000 0.000000 255 158 115
2.789220 -1.394610 4.787058 -1.000000 0.000000 0.000000 255 158 115
4.183829 4.183829 0.969215 0.000000 1.000000 0.000000 255 158 115
2.789220 4.183829 0.969215 0.000000 1.000000 0.000000 255 158 115
2.789220 4.183829 4.787058 0.000000 1.000000 0.000000 255 158 115
4.183829 4.183829 4.787058 0.000000 1.000000 0.000000 255 158 115
-4.183827 4.183831 0.969215 -1.000000 0.000000 -0.000000 255 158 115
-4.183827 2.789221 0.969215 -1.000000 0.000000 -0.000000 255 158 115
-4.183827 2.789221 4.787058 -1.000000 0.000000 -0.000000 255 158 115
-4.183827 4.183831 4.787058 -1.000000 0.000000 -0.000000 255 158 115
1.394610 4.183830 0.969215 0.000000 1.000000 0.000000 255 158 115
1.394610 4.183830 4.787058 0.000000 1.000000 0.000000 255 158 115
4 0 1 2 3
4 4 5 6 7
4 8 9 10 11
4 12 13 14 15
4 16 17 18 19
4 20 21 22 23
4 24 25 26 27
4 27 28 29 24
4 28 30 31 29
4 30 32 33 31
4 32 20 23 33
4 34 35 36 37
4 35 38 39 36
4 38 40 41 39
4 42 43 44 45
4 46 47 48 49
4 50 51 52 53
4 53 52 54 55
4 55 54 56 57
4 57 56 58 59
4 59 58 5 4
4 60 61 62 63
4 64 65 66 67
4 68 69 70 71
4 69 72 73 70
4 72 0 3 73
4 74 75 76 77
4 78 79 80 81
4 82 83 84 85
4 85 84 86 87
4 87 86 0 72
4 88 89 90 91
4 92 78 81 93
4 94 82 85 95
4 95 85 87 96
4 96 87 72 69
4 97 98 99 100
4 101 92 93 102
4 103 94 95 104
4 104 95 96 105
4 105 96 69 68
4 61 106 107 62
4 108 109 110 111
4 112 113 114 115
4 115 114 116 117
4 117 116 65 64
4 118 119 120 121
4 122 123 124 125
4 119 126 127 120
4 106 128 129 107
4 130 118 121 131
4 132 133 134 135
4 133 136 137 134
4 136 138 139 137
4 138 140 141 139
4 140 59 4 141
4 142 143 133 132
4 143 144 136 133
4 144 145 138 136
4 145 146 140 138
4 146 57 59 140
4 147 148 143 142
4 148 149 144 143
4 149 150 145 144
4 150 151 146 145
4 151 55 57 146
4 152 153 148 147
4 153 154 149 148
4 154 155 150 149
4 155 156 151 150
4 156 53 55 151
4 157 158 153 152
4 158 159 154 153
4 159 160 155 154
4 160 161 156 155
4 161 50 53 156
4 162 163 164 165
4 163 166 167 164
4 166 168 169 167
4 168 170 171 169
4 170 16 19 171
4 172 173 174 175
4 106 61 176 177
4 61 60 178 176
4 60 179 180 178
4 181 8 11 182
4 135 134 183 184
4 134 137 185 183
4 137 139 186 185
4 139 141 187 186
4 141 4 7 187
4 188 189 190 191
4 79 192 193 80
4 83 194 195 84
4 84 195 196 86
4 86 196 1 0
4 197 198 199 200
4 201 202 203 204
4 205 201 204 206
4 207 205 206 208
4 209 207 208 210
4 211 209 210 212
4 212 210 213 214
4 214 213 215 216
4 216 215 217 218
4 218 217 198 197
4 202 219 220 203
4 221 222 223 224
4 98 225 226 99
4 179 60 63 227
4 89 122 125 90
4 228 229 230 231
4 225 232 233 226
4 189 179 227 190
4 234 235 236 237
4 232 221 224 233
4 238 239 240 241
4 235 242 243 236
4 123 228 231 124
4 242 130 131 243
