ply
format ascii 1.0
comment Created by Blender 2.79 (sub 0) - www.blender.org, source file: 'floor 3.blend'
element vertex 62
property float x
property float y
property float z
property float nx
property float ny
property float nz
property uchar red
property uchar green
property uchar blue
element face 18
property list uchar uint vertex_indices
end_header
-2.235376 2.935593 0.155937 0.559187 -0.000000 0.829042 255 65 247
-2.935591 2.935593 0.628230 0.559187 -0.000000 0.829042 255 65 247
-2.935593 -2.935592 0.628230 0.559187 -0.000000 0.829042 255 65 247
-2.235378 -2.935592 0.155937 0.559187 -0.000000 0.829042 255 65 247
-2.235377 2.935592 -0.155937 0.000000 0.000000 -1.000000 255 65 247
-2.235379 -2.935592 -0.155937 0.000000 0.000000 -1.000000 255 65 247
-2.935593 -2.935591 -0.155937 0.000000 0.000000 -1.000000 255 65 247
-2.935592 2.935592 -0.155937 0.000000 0.000000 -1.000000 255 65 247
2.935592 2.935592 0.155937 1.000000 -0.000000 -0.000000 255 65 247
2.935592 -2.935592 0.155937 1.000000 -0.000000 -0.000000 255 65 247
2.935591 -2.935594 -0.155937 1.000000 -0.000000 -0.000000 255 65 247
2.935594 2.935591 -0.155937 1.000000 -0.000000 -0.000000 255 65 247
-2.235378 -2.935592 0.155937 -0.000000 -1.000000 -0.000000 255 65 247
-2.935593 -2.935592 0.628230 -0.000000 -1.000000 -0.000000 255 65 247
-2.935593 -2.935591 -0.155937 -0.000000 -1.000000 -0.000000 255 65 247
-2.235379 -2.935592 -0.155937 -0.000000 -1.000000 -0.000000 255 65 247
-5.811477 2.935593 -0.155934 -0.000001 0.000000 -1.000000 255 65 247
-5.811478 -2.935591 -0.155934 -0.000001 0.000000 -1.000000 255 65 247
-8.687362 -2.935590 -0.155931 -0.000001 0.000000 -1.000000 255 65 247
-8.687361 2.935594 -0.155931 -0.000001 0.000000 -1.000000 255 65 247
-2.235377 2.935592 -0.155937 -0.000000 1.000000 -0.000002 255 65 247
-2.935592 2.935592 -0.155937 -0.000000 1.000000 -0.000002 255 65 247
-2.935591 2.935593 0.628230 -0.000000 1.000000 -0.000002 255 65 247
-2.235376 2.935593 0.155937 -0.000000 1.000000 -0.000002 255 65 247
-2.235376 2.935593 0.155937 0.000000 1.000000 -0.000004 255 65 247
2.935592 2.935592 0.155937 0.000000 1.000000 -0.000004 255 65 247
2.935594 2.935591 -0.155937 0.000000 1.000000 -0.000004 255 65 247
-2.235377 2.935592 -0.155937 0.000000 1.000000 -0.000004 255 65 247
2.935592 -2.935592 0.155937 -0.000000 -1.000000 0.000003 255 65 247
-2.235378 -2.935592 0.155937 -0.000000 -1.000000 0.000003 255 65 247
-2.235379 -2.935592 -0.155937 -0.000000 -1.000000 0.000003 255 65 247
2.935591 -2.935594 -0.155937 -0.000000 -1.000000 0.000003 255 65 247
2.935594 2.935591 -0.155937 0.000000 0.000000 -1.000000 255 65 247
2.935591 -2.935594 -0.155937 0.000000 0.000000 -1.000000 255 65 247
2.935592 2.935592 0.155937 0.000000 -0.000000 1.000000 255 65 247
-2.235376 2.935593 0.155937 0.000000 -0.000000 1.000000 255 65 247
-2.235378 -2.935592 0.155937 0.000000 -0.000000 1.000000 255 65 247
2.935592 -2.935592 0.155937 0.000000 -0.000000 1.000000 255 65 247
-8.687361 -2.935591 0.917772 -1.000000 0.000000 0.000001 255 65 247
-8.687360 2.935595 0.917772 -1.000000 0.000000 0.000001 255 65 247
-8.687361 2.935594 -0.155931 -1.000000 0.000000 0.000001 255 65 247
-8.687362 -2.935590 -0.155931 -1.000000 0.000000 0.000001 255 65 247
-5.811476 2.935594 0.628233 0.000000 1.000000 -0.000001 255 65 247
-5.811477 2.935593 -0.155934 0.000000 1.000000 -0.000001 255 65 247
-8.687361 2.935594 -0.155931 0.000000 1.000000 -0.000001 255 65 247
-8.687360 2.935595 0.917772 0.000000 1.000000 -0.000001 255 65 247
-5.811477 -2.935591 0.628233 0.100172 -0.000000 0.994970 255 65 247
-5.811476 2.935594 0.628233 0.100172 -0.000000 0.994970 255 65 247
-8.687360 2.935595 0.917772 0.100172 -0.000000 0.994970 255 65 247
-8.687361 -2.935591 0.917772 0.100172 -0.000000 0.994970 255 65 247
-5.811478 -2.935591 -0.155934 -0.000000 -1.000000 -0.000000 255 65 247
-5.811477 -2.935591 0.628233 -0.000000 -1.000000 -0.000000 255 65 247
-8.687361 -2.935591 0.917772 -0.000000 -1.000000 -0.000000 255 65 247
-8.687362 -2.935590 -0.155931 -0.000000 -1.000000 -0.000000 255 65 247
-2.935593 -2.935592 0.628230 0.000001 -0.000000 1.000000 255 65 247
-2.935591 2.935593 0.628230 0.000001 -0.000000 1.000000 255 65 247
-5.811476 2.935594 0.628233 0.000001 -0.000000 1.000000 255 65 247
-5.811477 -2.935591 0.628233 0.000001 -0.000000 1.000000 255 65 247
-2.935591 2.935593 0.628230 0.000000 1.000000 -0.000001 255 65 247
-2.935592 2.935592 -0.155937 0.000000 1.000000 -0.000001 255 65 247
-2.935592 2.935592 -0.155937 -0.000001 0.000000 -1.000000 255 65 247
-2.935593 -2.935591 -0.155937 -0.000001 0.000000 -1.000000 255 65 247
4 0 1 2 3
4 4 5 6 7
4 8 9 10 11
4 12 13 14 15
4 16 17 18 19
4 20 21 22 23
4 24 25 26 27
4 28 29 30 31
4 32 33 5 4
4 34 35 36 37
4 38 39 40 41
4 42 43 44 45
4 46 47 48 49
4 50 51 52 53
4 14 13 51 50
4 54 55 56 57
4 58 59 43 42
4 60 61 17 16
