ply
format ascii 1.0
comment Created by Blender 2.79 (sub 0) - www.blender.org, source file: 'Pic frame.blend'
element vertex 80
property float x
property float y
property float z
property float nx
property float ny
property float nz
property uchar red
property uchar green
property uchar blue
element face 22
property list uchar uint vertex_indices
end_header
1.000000 0.173549 -0.019851 -0.000000 -0.092527 -0.995710 43 34 21
1.000000 -0.162157 0.011344 -0.000000 -0.092527 -0.995710 43 34 21
-1.000000 -0.162157 0.011344 -0.000000 -0.092527 -0.995710 43 34 21
-1.000000 0.173549 -0.019851 -0.000000 -0.092527 -0.995710 43 34 21
1.000000 0.440938 2.857606 0.000000 0.092527 0.995710 43 34 21
-1.000000 0.440938 2.857606 0.000000 0.092527 0.995710 43 34 21
-1.000000 0.105232 2.888802 0.000000 0.092527 0.995710 43 34 21
0.999999 0.105231 2.888802 0.000000 0.092527 0.995710 43 34 21
1.000000 0.173549 -0.019851 1.000000 -0.000002 0.000000 43 34 21
1.000000 0.440938 2.857606 1.000000 -0.000002 0.000000 43 34 21
0.999999 0.105231 2.888802 1.000000 -0.000002 0.000000 43 34 21
1.000000 -0.162157 0.011344 1.000000 -0.000002 0.000000 43 34 21
-1.000000 0.105232 2.888802 -0.059301 -0.994308 0.088509 43 34 21
-1.000000 -0.162157 0.011344 -0.059301 -0.994308 0.088509 43 34 21
-0.822581 -0.146284 0.182156 -0.059301 -0.994308 0.088509 43 34 21
-0.822581 0.068196 2.717990 -0.059301 -0.994308 0.088509 43 34 21
-1.000000 -0.162157 0.011344 -1.000000 0.000001 -0.000000 43 34 21
-1.000000 0.105232 2.888802 -1.000000 0.000001 -0.000000 43 34 21
-1.000000 0.440938 2.857606 -1.000000 0.000001 -0.000000 43 34 21
-1.000000 0.173549 -0.019851 -1.000000 0.000001 -0.000000 43 34 21
-1.000000 0.173549 -0.019851 0.000000 0.995710 -0.092527 43 34 21
-1.000000 0.440938 2.857606 0.000000 0.995710 -0.092527 43 34 21
-0.162927 0.329026 1.653286 0.000000 0.995710 -0.092527 43 34 21
-0.162927 0.285461 1.184469 0.000000 0.995710 -0.092527 43 34 21
0.822580 0.068196 2.717990 -0.000000 -0.071551 -0.997437 43 34 21
-0.822581 0.068196 2.717990 -0.000000 -0.071551 -0.997437 43 34 21
-0.822581 0.161004 2.711333 -0.000000 -0.071551 -0.997437 43 34 21
0.822580 0.161004 2.711333 -0.000000 -0.071551 -0.997437 43 34 21
1.000000 -0.162157 0.011344 0.117941 -0.988761 0.091881 43 34 21
0.999999 0.105231 2.888802 0.117941 -0.988761 0.091881 43 34 21
0.822580 0.068196 2.717990 0.117941 -0.988761 0.091881 43 34 21
0.822581 -0.167447 0.182156 0.117941 -0.988761 0.091881 43 34 21
-1.000000 -0.162157 0.011344 -0.005803 -0.999504 0.030962 43 34 21
1.000000 -0.162157 0.011344 -0.005803 -0.999504 0.030962 43 34 21
0.822581 -0.167447 0.182156 -0.005803 -0.999504 0.030962 43 34 21
-0.822581 -0.146284 0.182156 -0.005803 -0.999504 0.030962 43 34 21
0.999999 0.105231 2.888802 -0.000000 -0.977292 0.211897 43 34 21
-1.000000 0.105232 2.888802 -0.000000 -0.977292 0.211897 43 34 21
-0.822581 0.068196 2.717990 -0.000000 -0.977292 0.211897 43 34 21
0.822580 0.068196 2.717990 -0.000000 -0.977292 0.211897 43 34 21
0.822581 -0.074639 0.175498 -0.000000 -0.995710 0.092527 221 221 201
0.822580 0.161004 2.711333 -0.000000 -0.995710 0.092527 221 221 201
-0.822581 0.161004 2.711333 -0.000000 -0.995710 0.092527 221 221 201
-0.822581 -0.074639 0.175498 -0.000000 -0.995710 0.092527 221 221 201
0.822581 -0.167447 0.182156 -1.000000 -0.000000 -0.000000 43 34 21
0.822580 0.068196 2.717990 -1.000000 -0.000000 -0.000000 43 34 21
0.822580 0.161004 2.711333 -1.000000 -0.000000 -0.000000 43 34 21
0.822581 -0.074639 0.175498 -1.000000 -0.000000 -0.000000 43 34 21
-0.822581 0.068196 2.717990 1.000000 0.000000 0.000000 43 34 21
-0.822581 -0.146284 0.182156 1.000000 0.000000 0.000000 43 34 21
-0.822581 -0.074639 0.175498 1.000000 0.000000 0.000000 43 34 21
-0.822581 0.161004 2.711333 1.000000 0.000000 0.000000 43 34 21
-0.822581 -0.146284 0.182156 0.000519 0.080703 0.996738 43 34 21
0.822581 -0.167447 0.182156 0.000519 0.080703 0.996738 43 34 21
0.822581 -0.074639 0.175498 0.000519 0.080703 0.996738 43 34 21
-0.822581 -0.074639 0.175498 0.000519 0.080703 0.996738 43 34 21
0.162928 0.329026 1.653286 1.000000 -0.000000 -0.000000 43 34 21
0.162928 0.285461 1.184469 1.000000 -0.000000 -0.000000 43 34 21
0.162928 0.776990 0.007994 1.000000 -0.000000 -0.000000 43 34 21
0.162928 1.021152 0.007994 1.000000 -0.000000 -0.000000 43 34 21
1.000000 0.173549 -0.019851 0.000000 0.995710 -0.092527 43 34 21
0.162928 0.285461 1.184469 0.000000 0.995710 -0.092527 43 34 21
1.000000 0.440938 2.857606 0.000000 0.995710 -0.092527 43 34 21
0.162928 0.329026 1.653286 0.000000 0.995710 -0.092527 43 34 21
0.162928 1.021152 0.007994 0.000000 0.000000 -1.000000 43 34 21
0.162928 0.776990 0.007994 0.000000 0.000000 -1.000000 43 34 21
-0.162927 0.776990 0.007994 0.000000 0.000000 -1.000000 43 34 21
-0.162927 1.021152 0.007994 0.000000 0.000000 -1.000000 43 34 21
-0.162927 0.285461 1.184469 -1.000000 0.000000 0.000000 43 34 21
-0.162927 0.329026 1.653286 -1.000000 0.000000 0.000000 43 34 21
-0.162927 1.021152 0.007994 -1.000000 0.000000 0.000000 43 34 21
-0.162927 0.776990 0.007994 -1.000000 0.000000 0.000000 43 34 21
0.162928 0.285461 1.184469 0.000000 -0.922706 -0.385505 43 34 21
-0.162927 0.285461 1.184469 0.000000 -0.922706 -0.385505 43 34 21
-0.162927 0.776990 0.007994 0.000000 -0.922706 -0.385505 43 34 21
0.162928 0.776990 0.007994 0.000000 -0.922706 -0.385505 43 34 21
-0.162927 0.329026 1.653286 0.000000 0.921761 0.387758 43 34 21
0.162928 0.329026 1.653286 0.000000 0.921761 0.387758 43 34 21
0.162928 1.021152 0.007994 0.000000 0.921761 0.387758 43 34 21
-0.162927 1.021152 0.007994 0.000000 0.921761 0.387758 43 34 21
4 0 1 2 3
4 4 5 6 7
4 8 9 10 11
4 12 13 14 15
4 16 17 18 19
4 20 21 22 23
4 24 25 26 27
4 28 29 30 31
4 32 33 34 35
4 36 37 38 39
4 40 41 42 43
4 44 45 46 47
4 48 49 50 51
4 52 53 54 55
4 56 57 58 59
4 60 20 23 61
4 62 60 61 63
4 21 62 63 22
4 64 65 66 67
4 68 69 70 71
4 72 73 74 75
4 76 77 78 79
