ply
format ascii 1.0
comment Created by Blender 2.79 (sub 0) - www.blender.org, source file: 'pillow 2.blend'
element vertex 208
property float x
property float y
property float z
property float nx
property float ny
property float nz
property uchar red
property uchar green
property uchar blue
element face 82
property list uchar uint vertex_indices
end_header
1.000000 -0.333333 -0.102718 1.000000 -0.000000 0.000000 140 140 140
1.000000 -0.333333 -0.034239 1.000000 -0.000000 0.000000 140 140 140
1.000000 -0.929340 -0.034239 1.000000 -0.000000 0.000000 140 140 140
1.000000 -0.929340 -0.082080 1.000000 -0.000000 0.000000 140 140 140
1.000000 0.929340 0.034239 1.000000 -0.000000 0.000000 140 140 140
1.000000 0.929340 0.082080 1.000000 -0.000000 0.000000 140 140 140
1.000000 0.333333 0.102718 1.000000 -0.000000 0.000000 140 140 140
1.000000 0.333333 0.034239 1.000000 -0.000000 0.000000 140 140 140
1.000000 0.929340 -0.082080 1.000000 -0.000000 0.000000 140 140 140
1.000000 0.929340 -0.034239 1.000000 -0.000000 0.000000 140 140 140
1.000000 0.333333 -0.034239 1.000000 -0.000000 0.000000 140 140 140
1.000000 0.333333 -0.102718 1.000000 -0.000000 0.000000 140 140 140
-0.333333 -1.000000 0.102718 -0.034290 -0.134955 0.990258 140 140 140
-0.400000 -0.400000 0.182179 -0.034290 -0.134955 0.990258 140 140 140
-0.929340 -1.000000 0.082080 -0.034290 -0.134955 0.990258 140 140 140
1.000000 -0.929340 0.082080 0.134955 -0.034290 0.990258 140 140 140
1.000000 -0.333333 0.102718 0.134955 -0.034290 0.990258 140 140 140
0.400000 -0.400000 0.182179 0.134955 -0.034290 0.990258 140 140 140
0.400000 -0.400000 0.182179 0.034290 -0.134955 0.990258 140 140 140
0.333333 -1.000000 0.102718 0.034290 -0.134955 0.990258 140 140 140
0.929340 -1.000000 0.082080 0.034290 -0.134955 0.990258 140 140 140
0.400000 -0.400000 0.182179 0.087947 -0.087947 0.992235 140 140 140
0.929340 -1.000000 0.082080 0.087947 -0.087947 0.992235 140 140 140
1.000000 -0.929340 0.082080 0.087947 -0.087947 0.992235 140 140 140
-1.000000 0.333333 -0.102718 -1.000000 -0.000000 0.000000 140 140 140
-1.000000 0.333333 -0.034239 -1.000000 -0.000000 0.000000 140 140 140
-1.000000 0.929340 -0.034239 -1.000000 -0.000000 0.000000 140 140 140
-1.000000 0.929340 -0.082080 -1.000000 -0.000000 0.000000 140 140 140
0.929340 -1.000000 0.034239 0.000000 -1.000000 0.000000 140 140 140
0.929340 -1.000000 0.082080 0.000000 -1.000000 0.000000 140 140 140
0.333333 -1.000000 0.102718 0.000000 -1.000000 0.000000 140 140 140
0.333333 -1.000000 0.034239 0.000000 -1.000000 0.000000 140 140 140
0.400000 -0.400000 0.182179 0.000000 -0.131289 0.991344 140 140 140
-0.400000 -0.400000 0.182179 0.000000 -0.131289 0.991344 140 140 140
-0.333333 -1.000000 0.102718 0.000000 -0.131289 0.991344 140 140 140
0.333333 -1.000000 0.102718 0.000000 -0.131289 0.991344 140 140 140
-0.333333 -1.000000 -0.102718 0.000000 -1.000000 0.000000 140 140 140
-0.333333 -1.000000 -0.034239 0.000000 -1.000000 0.000000 140 140 140
-0.929340 -1.000000 -0.034239 0.000000 -1.000000 0.000000 140 140 140
-0.929340 -1.000000 -0.082080 0.000000 -1.000000 0.000000 140 140 140
-0.400000 -0.400000 -0.182179 0.000000 -0.131289 -0.991344 140 140 140
0.400000 -0.400000 -0.182179 0.000000 -0.131289 -0.991344 140 140 140
0.333333 -1.000000 -0.102718 0.000000 -0.131289 -0.991344 140 140 140
-0.333333 -1.000000 -0.102718 0.000000 -0.131289 -0.991344 140 140 140
1.000000 -0.333333 0.034239 1.000000 -0.000000 0.000000 140 140 140
1.000000 -0.333333 0.102718 1.000000 -0.000000 0.000000 140 140 140
1.000000 -0.929340 0.082080 1.000000 -0.000000 0.000000 140 140 140
1.000000 -0.929340 0.034239 1.000000 -0.000000 0.000000 140 140 140
-0.333333 -1.000000 0.102718 0.000000 -1.000000 0.000000 140 140 140
-0.333333 -1.000000 0.034239 0.000000 -1.000000 0.000000 140 140 140
-1.000000 0.333333 0.034239 -1.000000 -0.000000 0.000000 140 140 140
-1.000000 0.333333 0.102718 -1.000000 -0.000000 0.000000 140 140 140
-1.000000 0.929340 0.082080 -1.000000 -0.000000 0.000000 140 140 140
-1.000000 0.929340 0.034239 -1.000000 -0.000000 0.000000 140 140 140
-0.333333 1.000000 0.034239 0.000000 1.000000 0.000000 140 140 140
-0.333333 1.000000 0.102718 0.000000 1.000000 0.000000 140 140 140
0.333333 1.000000 0.102718 0.000000 1.000000 0.000000 140 140 140
0.333333 1.000000 0.034239 0.000000 1.000000 0.000000 140 140 140
0.333333 1.000000 -0.034239 -0.000000 1.000000 0.000000 140 140 140
0.333333 1.000000 -0.102718 -0.000000 1.000000 0.000000 140 140 140
-0.333333 1.000000 -0.102718 -0.000000 1.000000 0.000000 140 140 140
-0.333333 1.000000 -0.034239 -0.000000 1.000000 0.000000 140 140 140
-1.000000 0.333333 -0.102718 -0.034586 0.034586 -0.998803 140 140 140
-1.000000 0.929340 -0.082080 -0.034586 0.034586 -0.998803 140 140 140
-0.929340 1.000000 -0.082080 -0.034586 0.034586 -0.998803 140 140 140
-0.929340 1.000000 -0.082080 -0.034290 0.134955 -0.990258 140 140 140
-0.333333 1.000000 -0.102718 -0.034290 0.134955 -0.990258 140 140 140
-0.400000 0.400000 -0.182179 -0.034290 0.134955 -0.990258 140 140 140
-0.929340 1.000000 -0.082080 -0.136074 0.045060 -0.989673 140 140 140
-0.400000 0.400000 -0.182179 -0.136074 0.045060 -0.989673 140 140 140
-1.000000 0.333333 -0.102718 -0.136074 0.045060 -0.989673 140 140 140
0.333333 -1.000000 -0.102718 0.000000 -1.000000 0.000000 140 140 140
0.333333 -1.000000 -0.034239 0.000000 -1.000000 0.000000 140 140 140
-0.929340 -1.000000 0.082080 -0.087947 -0.087947 0.992235 140 140 140
-0.400000 -0.400000 0.182179 -0.087947 -0.087947 0.992235 140 140 140
-1.000000 -0.929340 0.082080 -0.087947 -0.087947 0.992235 140 140 140
-1.000000 -0.929340 0.034239 -1.000000 -0.000000 0.000000 140 140 140
-1.000000 -0.929340 0.082080 -1.000000 -0.000000 0.000000 140 140 140
-1.000000 -0.333333 0.102718 -1.000000 -0.000000 0.000000 140 140 140
-1.000000 -0.333333 0.034239 -1.000000 -0.000000 0.000000 140 140 140
0.929340 -1.000000 -0.082080 0.000000 -1.000000 0.000000 140 140 140
0.929340 -1.000000 -0.034239 0.000000 -1.000000 0.000000 140 140 140
1.000000 0.333333 0.102718 0.034586 0.034586 0.998803 140 140 140
1.000000 0.929340 0.082080 0.034586 0.034586 0.998803 140 140 140
0.929340 1.000000 0.082080 0.034586 0.034586 0.998803 140 140 140
0.929340 1.000000 0.082080 0.034290 0.134955 0.990258 140 140 140
0.333333 1.000000 0.102718 0.034290 0.134955 0.990258 140 140 140
0.400000 0.400000 0.182179 0.034290 0.134955 0.990258 140 140 140
0.929340 1.000000 0.082080 0.136074 0.045060 0.989673 140 140 140
0.400000 0.400000 0.182179 0.136074 0.045060 0.989673 140 140 140
1.000000 0.333333 0.102718 0.136074 0.045060 0.989673 140 140 140
-0.929340 1.000000 -0.082080 0.000000 1.000000 0.000000 140 140 140
-0.929340 1.000000 -0.034239 0.000000 1.000000 0.000000 140 140 140
-0.929340 1.000000 0.034239 0.000000 1.000000 0.000000 140 140 140
-0.929340 -1.000000 0.034239 0.000000 -1.000000 0.000000 140 140 140
-1.000000 -0.333333 -0.034239 -1.000000 -0.000000 0.000000 140 140 140
-1.000000 -0.929340 -0.082080 -0.134955 -0.034290 -0.990258 140 140 140
-1.000000 -0.333333 -0.102718 -0.134955 -0.034290 -0.990258 140 140 140
-0.400000 -0.400000 -0.182179 -0.134955 -0.034290 -0.990258 140 140 140
-0.400000 -0.400000 -0.182179 -0.034290 -0.134955 -0.990258 140 140 140
-0.333333 -1.000000 -0.102718 -0.034290 -0.134955 -0.990258 140 140 140
-0.929340 -1.000000 -0.082080 -0.034290 -0.134955 -0.990258 140 140 140
-0.400000 -0.400000 -0.182179 -0.087947 -0.087947 -0.992235 140 140 140
-0.929340 -1.000000 -0.082080 -0.087947 -0.087947 -0.992235 140 140 140
-1.000000 -0.929340 -0.082080 -0.087947 -0.087947 -0.992235 140 140 140
-1.000000 -0.333333 -0.102718 -1.000000 -0.000000 0.000000 140 140 140
0.929340 1.000000 0.034239 0.000000 1.000000 0.000000 140 140 140
0.929340 1.000000 -0.034239 0.000000 1.000000 0.000000 140 140 140
0.400000 0.400000 -0.182179 0.034290 0.134955 -0.990258 140 140 140
0.333333 1.000000 -0.102718 0.034290 0.134955 -0.990258 140 140 140
0.929340 1.000000 -0.082080 0.034290 0.134955 -0.990258 140 140 140
0.929340 1.000000 -0.082080 0.034586 0.034586 -0.998803 140 140 140
1.000000 0.929340 -0.082080 0.034586 0.034586 -0.998803 140 140 140
1.000000 0.333333 -0.102718 0.034586 0.034586 -0.998803 140 140 140
0.929340 1.000000 -0.082080 0.136074 0.045060 -0.989673 140 140 140
1.000000 0.333333 -0.102718 0.136074 0.045060 -0.989673 140 140 140
0.400000 0.400000 -0.182179 0.136074 0.045060 -0.989673 140 140 140
-0.333333 1.000000 -0.102718 0.000000 0.131289 -0.991344 140 140 140
0.333333 1.000000 -0.102718 0.000000 0.131289 -0.991344 140 140 140
0.400000 0.400000 -0.182179 0.000000 0.131289 -0.991344 140 140 140
-0.400000 0.400000 -0.182179 0.000000 0.131289 -0.991344 140 140 140
-0.400000 0.400000 -0.182179 0.000000 0.000000 -1.000000 140 140 140
0.400000 0.400000 -0.182179 0.000000 0.000000 -1.000000 140 140 140
0.400000 -0.400000 -0.182179 0.000000 0.000000 -1.000000 140 140 140
-0.400000 -0.400000 -0.182179 0.000000 0.000000 -1.000000 140 140 140
-0.400000 0.400000 0.182179 -0.034290 0.134955 0.990258 140 140 140
-0.333333 1.000000 0.102718 -0.034290 0.134955 0.990258 140 140 140
-0.929340 1.000000 0.082080 -0.034290 0.134955 0.990258 140 140 140
-0.929340 1.000000 0.082080 -0.034586 0.034586 0.998803 140 140 140
-1.000000 0.929340 0.082080 -0.034586 0.034586 0.998803 140 140 140
-1.000000 0.333333 0.102718 -0.034586 0.034586 0.998803 140 140 140
-0.929340 1.000000 0.082080 -0.136074 0.045060 0.989673 140 140 140
-1.000000 0.333333 0.102718 -0.136074 0.045060 0.989673 140 140 140
-0.400000 0.400000 0.182179 -0.136074 0.045060 0.989673 140 140 140
-1.000000 0.333333 -0.102718 -0.131289 0.000000 -0.991344 140 140 140
-0.400000 0.400000 -0.182179 -0.131289 0.000000 -0.991344 140 140 140
-0.400000 -0.400000 -0.182179 -0.131289 0.000000 -0.991344 140 140 140
-1.000000 -0.333333 -0.102718 -0.131289 0.000000 -0.991344 140 140 140
0.333333 1.000000 0.102718 0.000000 0.131289 0.991344 140 140 140
-0.333333 1.000000 0.102718 0.000000 0.131289 0.991344 140 140 140
-0.400000 0.400000 0.182179 0.000000 0.131289 0.991344 140 140 140
0.400000 0.400000 0.182179 0.000000 0.131289 0.991344 140 140 140
0.400000 0.400000 0.182179 0.000000 -0.000000 1.000000 140 140 140
-0.400000 0.400000 0.182179 0.000000 -0.000000 1.000000 140 140 140
-0.400000 -0.400000 0.182179 0.000000 -0.000000 1.000000 140 140 140
0.400000 -0.400000 0.182179 0.000000 -0.000000 1.000000 140 140 140
0.929340 1.000000 0.082080 0.000000 1.000000 0.000000 140 140 140
1.000000 0.333333 0.102718 0.131289 0.000000 0.991344 140 140 140
0.400000 0.400000 0.182179 0.131289 0.000000 0.991344 140 140 140
0.400000 -0.400000 0.182179 0.131289 0.000000 0.991344 140 140 140
1.000000 -0.333333 0.102718 0.131289 0.000000 0.991344 140 140 140
-0.929340 1.000000 0.082080 0.000000 1.000000 0.000000 140 140 140
-0.400000 0.400000 0.182179 -0.131289 0.000000 0.991344 140 140 140
-1.000000 0.333333 0.102718 -0.131289 0.000000 0.991344 140 140 140
-1.000000 -0.333333 0.102718 -0.131289 0.000000 0.991344 140 140 140
-0.400000 -0.400000 0.182179 -0.131289 0.000000 0.991344 140 140 140
0.929340 1.000000 -0.082080 0.000000 1.000000 0.000000 140 140 140
0.400000 0.400000 -0.182179 0.131289 0.000000 -0.991344 140 140 140
1.000000 0.333333 -0.102718 0.131289 0.000000 -0.991344 140 140 140
1.000000 -0.333333 -0.102718 0.131289 0.000000 -0.991344 140 140 140
0.400000 -0.400000 -0.182179 0.131289 0.000000 -0.991344 140 140 140
-1.000000 -0.929340 -0.034239 -1.000000 -0.000000 0.000000 140 140 140
-0.929340 -1.000000 0.082080 0.000000 -1.000000 0.000000 140 140 140
-0.929340 -1.000000 0.034239 -0.707107 -0.707107 0.000000 140 140 140
-0.929340 -1.000000 0.082080 -0.707107 -0.707107 0.000000 140 140 140
-1.000000 -0.929340 0.082080 -0.707107 -0.707107 0.000000 140 140 140
-1.000000 -0.929340 0.034239 -0.707107 -0.707107 0.000000 140 140 140
-0.929340 1.000000 -0.034239 -0.707107 0.707107 0.000000 140 140 140
-0.929340 1.000000 -0.082080 -0.707107 0.707107 0.000000 140 140 140
-1.000000 0.929340 -0.082080 -0.707107 0.707107 0.000000 140 140 140
-1.000000 0.929340 -0.034239 -0.707107 0.707107 0.000000 140 140 140
1.000000 0.929340 -0.034239 0.707107 0.707107 0.000000 140 140 140
1.000000 0.929340 -0.082080 0.707107 0.707107 0.000000 140 140 140
0.929340 1.000000 -0.082080 0.707107 0.707107 0.000000 140 140 140
0.929340 1.000000 -0.034239 0.707107 0.707107 0.000000 140 140 140
0.929340 -1.000000 -0.034239 0.707107 -0.707107 0.000000 140 140 140
0.929340 -1.000000 -0.082080 0.707107 -0.707107 0.000000 140 140 140
1.000000 -0.929340 -0.082080 0.707107 -0.707107 0.000000 140 140 140
1.000000 -0.929340 -0.034239 0.707107 -0.707107 0.000000 140 140 140
-0.929340 -1.000000 -0.082080 -0.707107 -0.707107 0.000000 140 140 140
-0.929340 -1.000000 -0.034239 -0.707107 -0.707107 0.000000 140 140 140
-1.000000 -0.929340 -0.034239 -0.707107 -0.707107 0.000000 140 140 140
-1.000000 -0.929340 -0.082080 -0.707107 -0.707107 0.000000 140 140 140
-0.929340 1.000000 0.082080 -0.707107 0.707107 0.000000 140 140 140
-0.929340 1.000000 0.034239 -0.707107 0.707107 0.000000 140 140 140
-1.000000 0.929340 0.034239 -0.707107 0.707107 0.000000 140 140 140
-1.000000 0.929340 0.082080 -0.707107 0.707107 0.000000 140 140 140
1.000000 0.929340 0.082080 0.707107 0.707107 0.000000 140 140 140
1.000000 0.929340 0.034239 0.707107 0.707107 0.000000 140 140 140
0.929340 1.000000 0.034239 0.707107 0.707107 0.000000 140 140 140
0.929340 1.000000 0.082080 0.707107 0.707107 0.000000 140 140 140
0.929340 -1.000000 0.082080 0.707107 -0.707107 0.000000 140 140 140
0.929340 -1.000000 0.034239 0.707107 -0.707107 0.000000 140 140 140
1.000000 -0.929340 0.034239 0.707107 -0.707107 0.000000 140 140 140
1.000000 -0.929340 0.082080 0.707107 -0.707107 0.000000 140 140 140
-1.000000 -0.929340 -0.082080 -1.000000 -0.000000 0.000000 140 140 140
-1.000000 -0.333333 0.102718 -0.134955 -0.034290 0.990258 140 140 140
-1.000000 -0.929340 0.082080 -0.134955 -0.034290 0.990258 140 140 140
-0.400000 -0.400000 0.182179 -0.134955 -0.034290 0.990258 140 140 140
1.000000 -0.333333 -0.102718 0.134955 -0.034290 -0.990258 140 140 140
1.000000 -0.929340 -0.082080 0.134955 -0.034290 -0.990258 140 140 140
0.400000 -0.400000 -0.182179 0.134955 -0.034290 -0.990258 140 140 140
1.000000 -0.929340 -0.082080 0.087947 -0.087947 -0.992235 140 140 140
0.929340 -1.000000 -0.082080 0.087947 -0.087947 -0.992235 140 140 140
0.400000 -0.400000 -0.182179 0.087947 -0.087947 -0.992235 140 140 140
0.400000 -0.400000 -0.182179 0.034290 -0.134955 -0.990258 140 140 140
0.929340 -1.000000 -0.082080 0.034290 -0.134955 -0.990258 140 140 140
0.333333 -1.000000 -0.102718 0.034290 -0.134955 -0.990258 140 140 140
4 0 1 2 3
4 4 5 6 7
4 8 9 10 11
3 12 13 14
3 15 16 17
3 18 19 20
3 21 22 23
4 24 25 26 27
4 28 29 30 31
4 32 33 34 35
4 36 37 38 39
4 40 41 42 43
4 44 45 46 47
4 31 30 48 49
4 50 51 52 53
4 54 55 56 57
4 58 59 60 61
4 61 54 57 58
3 62 63 64
3 65 66 67
3 68 69 70
4 9 4 7 10
4 71 72 37 36
4 72 31 49 37
3 73 74 75
4 76 77 78 79
4 25 50 53 26
4 80 81 72 71
4 81 28 31 72
3 82 83 84
3 85 86 87
3 88 89 90
4 1 44 47 2
4 91 92 61 60
4 92 93 54 61
4 37 49 94 38
4 95 79 50 25
3 96 97 98
3 99 100 101
3 102 103 104
4 105 95 25 24
4 58 57 106 107
4 10 7 44 1
3 108 109 110
3 111 112 113
3 114 115 116
4 11 10 1 0
4 117 118 119 120
4 121 122 123 124
3 125 126 127
3 128 129 130
3 131 132 133
4 134 135 136 137
4 138 139 140 141
4 142 143 144 145
4 57 56 146 106
4 147 148 149 150
4 93 151 55 54
4 152 153 154 155
4 59 58 107 156
4 157 158 159 160
4 161 76 79 95
4 7 6 45 44
4 49 48 162 94
4 79 78 51 50
4 163 164 165 166
4 167 168 169 170
4 171 172 173 174
4 175 176 177 178
4 179 180 181 182
4 180 163 166 181
4 183 184 185 186
4 184 167 170 185
4 187 188 189 190
4 188 171 174 189
4 191 192 193 194
4 192 175 178 193
4 195 161 95 105
3 196 197 198
3 199 200 201
3 202 203 204
3 205 206 207
