ply
format ascii 1.0
comment Created by Blender 2.79 (sub 0) - www.blender.org, source file: 'side table.blend'
element vertex 416
property float x
property float y
property float z
property float nx
property float ny
property float nz
property uchar red
property uchar green
property uchar blue
element face 137
property list uchar uint vertex_indices
end_header
0.674414 1.000000 1.819816 0.000000 0.614790 0.788691 82 70 58
0.000000 1.000000 1.819816 0.000000 0.614790 0.788691 82 70 58
0.000000 0.945702 1.862142 0.000000 0.614790 0.788691 82 70 58
0.620116 0.945702 1.862142 0.000000 0.614790 0.788691 82 70 58
-1.000000 0.674414 1.819816 -0.614788 0.000000 0.788692 82 70 58
-1.000000 0.000000 1.819816 -0.614788 0.000000 0.788692 82 70 58
-0.945702 0.000000 1.862142 -0.614788 0.000000 0.788692 82 70 58
-0.945702 0.620116 1.862142 -0.614788 0.000000 0.788692 82 70 58
0.674414 -1.000000 1.644116 -0.000000 -1.000000 -0.000002 82 70 58
0.674413 -1.000000 1.819816 -0.000000 -1.000000 -0.000002 82 70 58
-0.000001 -1.000000 1.819816 -0.000000 -1.000000 -0.000002 82 70 58
-0.000000 -1.000000 1.644116 -0.000000 -1.000000 -0.000002 82 70 58
-1.000000 -0.674414 1.644116 -1.000000 0.000000 -0.000001 82 70 58
-1.000000 -0.674414 1.819816 -1.000000 0.000000 -0.000001 82 70 58
-1.000000 0.000000 1.819816 -1.000000 0.000000 -0.000001 82 70 58
-1.000000 0.000000 1.644116 -1.000000 0.000000 -0.000001 82 70 58
0.000000 1.000000 1.819816 0.000000 1.000000 0.000003 82 70 58
0.000000 1.000000 1.644116 0.000000 1.000000 0.000003 82 70 58
-0.674414 1.000000 1.644116 0.000000 1.000000 0.000003 82 70 58
-0.674414 1.000000 1.819816 0.000000 1.000000 0.000003 82 70 58
-1.000000 0.000000 1.644116 -0.731729 0.000000 -0.681595 82 70 58
-1.000000 0.674414 1.644116 -0.731729 0.000000 -0.681595 82 70 58
-0.961973 0.636388 1.603292 -0.731729 0.000000 -0.681595 82 70 58
-0.961973 0.000000 1.603292 -0.731729 0.000000 -0.681595 82 70 58
-0.799913 0.799913 1.603292 0.000000 -0.000000 -1.000000 82 70 58
-0.799948 0.799949 1.603292 0.000000 -0.000000 -1.000000 82 70 58
-0.636387 0.961974 1.603292 0.000000 -0.000000 -1.000000 82 70 58
0.000000 0.961974 1.603292 0.000000 0.000000 -1.000000 82 70 58
0.636387 0.961974 1.603292 0.000000 0.000000 -1.000000 82 70 58
0.799948 0.799948 1.603292 0.000000 0.000000 -1.000000 82 70 58
0.266638 0.799913 1.603292 0.000000 0.000000 -1.000000 82 70 58
-0.266638 0.799913 1.603292 0.000000 0.000000 -1.000000 82 70 58
0.799913 0.799913 1.603292 0.000000 0.000000 -1.000000 82 70 58
-0.674414 -1.000000 1.819816 -0.000000 -0.614788 0.788692 82 70 58
-0.000001 -1.000000 1.819816 -0.000000 -0.614788 0.788692 82 70 58
-0.000000 -0.945702 1.862142 -0.000000 -0.614788 0.788692 82 70 58
-0.620116 -0.945702 1.862142 -0.000000 -0.614788 0.788692 82 70 58
1.000000 -0.674415 1.819816 0.614788 -0.000000 0.788692 82 70 58
1.000000 -0.000000 1.819816 0.614788 -0.000000 0.788692 82 70 58
0.945702 -0.000001 1.862142 0.614788 -0.000000 0.788692 82 70 58
0.945701 -0.620117 1.862142 0.614788 -0.000000 0.788692 82 70 58
0.000000 1.000000 1.819816 0.000000 0.614789 0.788691 82 70 58
-0.674414 1.000000 1.819816 0.000000 0.614789 0.788691 82 70 58
-0.620116 0.945702 1.862142 0.000000 0.614789 0.788691 82 70 58
0.000000 0.945702 1.862142 0.000000 0.614789 0.788691 82 70 58
0.799913 -0.799913 1.603292 0.000000 0.000000 -1.000000 82 70 58
0.799948 -0.799948 1.603292 0.000000 0.000000 -1.000000 82 70 58
0.636387 -0.961974 1.603292 0.000000 0.000000 -1.000000 82 70 58
-0.000000 -0.961973 1.603292 0.000000 0.000000 -1.000000 82 70 58
-0.636388 -0.961973 1.603292 0.000000 0.000000 -1.000000 82 70 58
-0.799948 -0.799948 1.603292 0.000000 0.000000 -1.000000 82 70 58
0.799913 -0.799913 1.603292 -0.000000 0.000001 -1.000000 82 70 58
0.636387 -0.961974 1.603292 -0.000000 0.000001 -1.000000 82 70 58
-0.000000 -0.961973 1.603292 -0.000000 0.000001 -1.000000 82 70 58
-0.266638 -0.799913 1.603292 0.000000 0.000000 0.000000 82 70 58
0.266638 -0.799913 1.603292 0.000000 0.000000 0.000000 82 70 58
0.799913 -0.799913 1.603292 0.000000 0.000000 0.000000 82 70 58
-0.799913 -0.799913 1.603292 -0.000000 0.000000 -1.000000 82 70 58
-0.266638 -0.799913 1.603292 -0.000000 0.000000 -1.000000 82 70 58
-1.000000 -0.674414 1.644116 -0.731730 0.000000 -0.681595 82 70 58
-1.000000 0.000000 1.644116 -0.731730 0.000000 -0.681595 82 70 58
-0.961973 0.000000 1.603292 -0.731730 0.000000 -0.681595 82 70 58
-0.961974 -0.636387 1.603292 -0.731730 0.000000 -0.681595 82 70 58
0.674414 1.000000 1.819816 0.000000 1.000000 0.000003 82 70 58
0.674414 1.000000 1.644116 0.000000 1.000000 0.000003 82 70 58
0.674414 -1.000000 1.644116 -0.000000 -0.731730 -0.681594 82 70 58
-0.000000 -1.000000 1.644116 -0.000000 -0.731730 -0.681594 82 70 58
-0.000000 -0.961973 1.603292 -0.000000 -0.731730 -0.681594 82 70 58
0.636387 -0.961974 1.603292 -0.000000 -0.731730 -0.681594 82 70 58
0.799913 -0.266638 1.603292 1.000000 0.000000 -0.000000 82 70 58
0.799913 -0.799913 1.603292 1.000000 0.000000 -0.000000 82 70 58
0.799913 -0.799913 1.490620 1.000000 0.000000 -0.000000 82 70 58
0.799913 -0.266638 1.490620 1.000000 0.000000 -0.000000 82 70 58
0.961973 0.636388 1.603292 0.000000 -0.000000 -1.000000 82 70 58
0.961973 0.000000 1.603292 0.000000 0.000000 -1.000000 82 70 58
0.961973 -0.636388 1.603292 0.000000 0.000000 -1.000000 82 70 58
0.799913 0.799913 1.603292 0.000001 0.000000 -1.000000 82 70 58
0.961973 0.636388 1.603292 0.000001 0.000000 -1.000000 82 70 58
0.961973 0.000000 1.603292 0.000001 0.000000 -1.000000 82 70 58
0.799913 -0.266638 1.603292 0.000000 0.000000 0.000000 82 70 58
0.799913 0.266638 1.603292 0.000000 0.000000 0.000000 82 70 58
0.799913 0.266638 1.603292 -0.000000 -0.000000 -1.000000 82 70 58
-0.961974 -0.636387 1.603292 0.000000 0.000000 -1.000000 82 70 58
-0.961973 0.000000 1.603292 0.000000 0.000000 -1.000000 82 70 58
-0.961973 0.636388 1.603292 0.000000 0.000000 -1.000000 82 70 58
-0.799913 0.266638 1.603292 0.000000 0.000000 -1.000000 82 70 58
-0.799913 -0.266637 1.603292 0.000000 0.000000 -1.000000 82 70 58
0.266638 0.266638 1.603292 -1.000000 0.000000 0.000000 82 70 58
0.266638 0.799913 1.603292 -1.000000 0.000000 0.000000 82 70 58
0.266638 0.799913 1.490620 -1.000000 0.000000 0.000000 82 70 58
0.266638 0.266638 1.490620 -1.000000 0.000000 0.000000 82 70 58
-0.266638 0.266638 1.603292 0.000000 0.000000 -1.000000 82 70 58
-0.266638 -0.266637 1.603292 0.000000 0.000000 -1.000000 82 70 58
-0.799913 -0.799913 1.603292 -1.000000 0.000000 0.000000 82 70 58
-0.799913 -0.266637 1.603292 -1.000000 0.000000 0.000000 82 70 58
-0.799913 -0.266637 1.490620 -1.000000 0.000000 0.000000 82 70 58
-0.799913 -0.799913 1.490620 -1.000000 0.000000 0.000000 82 70 58
0.266638 0.266638 1.603292 0.000000 0.000000 -1.000000 82 70 58
0.799913 -0.266638 1.603292 0.000000 0.000000 -1.000000 82 70 58
0.266638 -0.266637 1.603292 0.000000 0.000000 -1.000000 82 70 58
0.266638 -0.266637 1.603292 0.000000 1.000000 0.000000 82 70 58
0.799913 -0.266638 1.603292 0.000000 1.000000 0.000000 82 70 58
0.799913 -0.266638 1.490620 0.000000 1.000000 0.000000 82 70 58
0.266638 -0.266637 1.490620 0.000000 1.000000 0.000000 82 70 58
0.266638 -0.799913 1.603292 0.000000 0.000000 -1.000000 82 70 58
-0.266638 -0.266637 1.490620 0.604005 -0.000000 -0.796981 82 70 58
-0.266638 -0.799913 1.490620 0.604005 -0.000000 -0.796981 82 70 58
-0.373293 -0.693258 1.409789 0.604005 -0.000000 -0.796981 82 70 58
-0.373293 -0.373292 1.409789 0.604005 -0.000000 -0.796981 82 70 58
0.799913 -0.266638 1.490620 0.604005 0.000000 -0.796980 82 70 58
0.799913 -0.799913 1.490620 0.604005 0.000000 -0.796980 82 70 58
0.693258 -0.693258 1.409789 0.604005 0.000000 -0.796980 82 70 58
0.693258 -0.373293 1.409789 0.604005 0.000000 -0.796980 82 70 58
-0.799913 -0.799913 1.490620 -0.604005 0.000000 -0.796980 82 70 58
-0.799913 -0.266637 1.490620 -0.604005 0.000000 -0.796980 82 70 58
-0.693258 -0.373292 1.409789 -0.604005 0.000000 -0.796980 82 70 58
-0.693258 -0.693258 1.409789 -0.604005 0.000000 -0.796980 82 70 58
0.266638 -0.799913 1.490620 -0.604005 0.000000 -0.796981 82 70 58
0.266638 -0.266637 1.490620 -0.604005 0.000000 -0.796981 82 70 58
0.373293 -0.373293 1.409789 -0.604005 0.000000 -0.796981 82 70 58
0.373293 -0.693258 1.409789 -0.604005 0.000000 -0.796981 82 70 58
0.799913 0.799913 1.603292 1.000000 0.000000 -0.000000 82 70 58
0.799913 0.266638 1.603292 1.000000 0.000000 -0.000000 82 70 58
0.799913 0.266638 1.490620 1.000000 0.000000 -0.000000 82 70 58
0.799913 0.799913 1.490620 1.000000 0.000000 -0.000000 82 70 58
-0.266638 0.799913 1.603292 1.000000 0.000000 -0.000000 82 70 58
-0.266638 0.266638 1.603292 1.000000 0.000000 -0.000000 82 70 58
-0.266638 0.266638 1.490620 1.000000 0.000000 -0.000000 82 70 58
-0.266638 0.799913 1.490620 1.000000 0.000000 -0.000000 82 70 58
-0.799913 0.799913 1.603292 0.000000 1.000000 0.000000 82 70 58
-0.266638 0.799913 1.603292 0.000000 1.000000 0.000000 82 70 58
-0.266638 0.799913 1.490620 0.000000 1.000000 0.000000 82 70 58
-0.799913 0.799913 1.490620 0.000000 1.000000 0.000000 82 70 58
-0.266638 0.266638 1.603292 -0.000000 -1.000000 0.000000 82 70 58
-0.799913 0.266638 1.603292 -0.000000 -1.000000 0.000000 82 70 58
-0.799913 0.266638 1.490620 -0.000000 -1.000000 0.000000 82 70 58
-0.266638 0.266638 1.490620 -0.000000 -1.000000 0.000000 82 70 58
-0.266638 -0.799913 1.603292 -0.000000 -1.000000 0.000000 82 70 58
-0.799913 -0.799913 1.603292 -0.000000 -1.000000 0.000000 82 70 58
-0.799913 -0.799913 1.490620 -0.000000 -1.000000 0.000000 82 70 58
-0.266638 -0.799913 1.490620 -0.000000 -1.000000 0.000000 82 70 58
0.799913 0.266638 1.603292 -0.000000 -1.000000 0.000000 82 70 58
0.266638 0.266638 1.603292 -0.000000 -1.000000 0.000000 82 70 58
0.266638 0.266638 1.490620 -0.000000 -1.000000 0.000000 82 70 58
0.799913 0.266638 1.490620 -0.000000 -1.000000 0.000000 82 70 58
0.266638 0.799913 1.603292 0.000000 1.000000 0.000000 82 70 58
0.799913 0.799913 1.603292 0.000000 1.000000 0.000000 82 70 58
0.799913 0.799913 1.490620 0.000000 1.000000 0.000000 82 70 58
0.266638 0.799913 1.490620 0.000000 1.000000 0.000000 82 70 58
-0.799913 0.266638 1.603292 -1.000000 0.000000 0.000000 82 70 58
-0.799913 0.799913 1.603292 -1.000000 0.000000 0.000000 82 70 58
-0.799913 0.799913 1.490620 -1.000000 0.000000 0.000000 82 70 58
-0.799913 0.266638 1.490620 -1.000000 0.000000 0.000000 82 70 58
0.266638 -0.799913 1.603292 -1.000000 0.000000 0.000000 82 70 58
0.266638 -0.266637 1.603292 -1.000000 0.000000 0.000000 82 70 58
0.266638 -0.266637 1.490620 -1.000000 0.000000 0.000000 82 70 58
0.266638 -0.799913 1.490620 -1.000000 0.000000 0.000000 82 70 58
-0.799913 -0.266637 1.603292 0.000000 1.000000 0.000000 82 70 58
-0.266638 -0.266637 1.603292 0.000000 1.000000 0.000000 82 70 58
-0.266638 -0.266637 1.490620 0.000000 1.000000 0.000000 82 70 58
-0.799913 -0.266637 1.490620 0.000000 1.000000 0.000000 82 70 58
0.799913 -0.799913 1.603292 -0.000000 -1.000000 0.000000 82 70 58
0.266638 -0.799913 1.603292 -0.000000 -1.000000 0.000000 82 70 58
0.266638 -0.799913 1.490620 -0.000000 -1.000000 0.000000 82 70 58
0.799913 -0.799913 1.490620 -0.000000 -1.000000 0.000000 82 70 58
-0.266638 -0.266637 1.603292 1.000000 -0.000000 0.000000 82 70 58
-0.266638 -0.799913 1.603292 1.000000 -0.000000 0.000000 82 70 58
-0.266638 -0.799913 1.490620 1.000000 -0.000000 0.000000 82 70 58
-0.266638 -0.266637 1.490620 1.000000 -0.000000 0.000000 82 70 58
0.693258 -0.693258 1.409789 0.000000 -0.996889 -0.078820 82 70 58
0.373293 -0.693258 1.409789 0.000000 -0.996889 -0.078820 82 70 58
0.313748 -0.582675 0.011180 0.000000 -0.996889 -0.078820 82 70 58
0.582675 -0.582675 0.011180 0.000000 -0.996889 -0.078820 82 70 58
-0.373293 0.693258 1.409789 0.999095 0.000000 0.042536 82 70 58
-0.373293 0.373293 1.409789 0.999095 0.000000 0.042536 82 70 58
-0.313748 0.313748 0.011180 0.999095 0.000000 0.042536 82 70 58
-0.313748 0.582675 0.011180 0.999095 0.000000 0.042536 82 70 58
0.373293 0.693258 1.409789 0.000000 0.996889 -0.078820 82 70 58
0.693258 0.693258 1.409789 0.000000 0.996889 -0.078820 82 70 58
0.582675 0.582675 0.011180 0.000000 0.996889 -0.078820 82 70 58
0.313748 0.582675 0.011180 0.000000 0.996889 -0.078820 82 70 58
0.373293 0.373293 1.409789 -0.999095 0.000000 0.042536 82 70 58
0.373293 0.693258 1.409789 -0.999095 0.000000 0.042536 82 70 58
0.313748 0.582675 0.011180 -0.999095 0.000000 0.042536 82 70 58
0.313748 0.313748 0.011180 -0.999095 0.000000 0.042536 82 70 58
-0.266638 0.266638 1.490620 -0.000000 -0.604005 -0.796980 82 70 58
-0.799913 0.266638 1.490620 -0.000000 -0.604005 -0.796980 82 70 58
-0.693258 0.373293 1.409789 -0.000000 -0.604005 -0.796980 82 70 58
-0.373293 0.373293 1.409789 -0.000000 -0.604005 -0.796980 82 70 58
-0.799913 0.799913 1.490620 0.000000 0.604005 -0.796980 82 70 58
-0.266638 0.799913 1.490620 0.000000 0.604005 -0.796980 82 70 58
-0.373293 0.693258 1.409789 0.000000 0.604005 -0.796980 82 70 58
-0.693258 0.693258 1.409789 0.000000 0.604005 -0.796980 82 70 58
0.799913 0.266638 1.490620 -0.000000 -0.604005 -0.796980 82 70 58
0.266638 0.266638 1.490620 -0.000000 -0.604005 -0.796980 82 70 58
0.373293 0.373293 1.409789 -0.000000 -0.604005 -0.796980 82 70 58
0.693258 0.373293 1.409789 -0.000000 -0.604005 -0.796980 82 70 58
-0.266638 -0.799913 1.490620 -0.000000 -0.604005 -0.796980 82 70 58
-0.799913 -0.799913 1.490620 -0.000000 -0.604005 -0.796980 82 70 58
-0.693258 -0.693258 1.409789 -0.000000 -0.604005 -0.796980 82 70 58
-0.373293 -0.693258 1.409789 -0.000000 -0.604005 -0.796980 82 70 58
-0.799913 -0.266637 1.490620 0.000000 0.604005 -0.796980 82 70 58
-0.266638 -0.266637 1.490620 0.000000 0.604005 -0.796980 82 70 58
-0.373293 -0.373292 1.409789 0.000000 0.604005 -0.796980 82 70 58
-0.693258 -0.373292 1.409789 0.000000 0.604005 -0.796980 82 70 58
-0.799913 0.266638 1.490620 -0.604005 0.000000 -0.796980 82 70 58
-0.799913 0.799913 1.490620 -0.604005 0.000000 -0.796980 82 70 58
-0.693258 0.693258 1.409789 -0.604005 0.000000 -0.796980 82 70 58
-0.693258 0.373293 1.409789 -0.604005 0.000000 -0.796980 82 70 58
0.266638 -0.266637 1.490620 0.000000 0.604005 -0.796981 82 70 58
0.799913 -0.266638 1.490620 0.000000 0.604005 -0.796981 82 70 58
0.693258 -0.373293 1.409789 0.000000 0.604005 -0.796981 82 70 58
0.373293 -0.373293 1.409789 0.000000 0.604005 -0.796981 82 70 58
0.799913 0.799913 1.490620 0.604005 0.000000 -0.796980 82 70 58
0.799913 0.266638 1.490620 0.604005 0.000000 -0.796980 82 70 58
0.693258 0.373293 1.409789 0.604005 0.000000 -0.796980 82 70 58
0.693258 0.693258 1.409789 0.604005 0.000000 -0.796980 82 70 58
0.266638 0.266638 1.490620 -0.604005 0.000000 -0.796980 82 70 58
0.266638 0.799913 1.490620 -0.604005 0.000000 -0.796980 82 70 58
0.373293 0.693258 1.409789 -0.604005 0.000000 -0.796980 82 70 58
0.373293 0.373293 1.409789 -0.604005 0.000000 -0.796980 82 70 58
0.266638 0.799913 1.490620 0.000000 0.604005 -0.796980 82 70 58
0.799913 0.799913 1.490620 0.000000 0.604005 -0.796980 82 70 58
0.693258 0.693258 1.409789 0.000000 0.604005 -0.796980 82 70 58
0.373293 0.693258 1.409789 0.000000 0.604005 -0.796980 82 70 58
-0.266638 0.799913 1.490620 0.604005 0.000000 -0.796980 82 70 58
-0.266638 0.266638 1.490620 0.604005 0.000000 -0.796980 82 70 58
-0.373293 0.373293 1.409789 0.604005 0.000000 -0.796980 82 70 58
-0.373293 0.693258 1.409789 0.604005 0.000000 -0.796980 82 70 58
0.799913 -0.799913 1.490620 -0.000000 -0.604005 -0.796980 82 70 58
0.266638 -0.799913 1.490620 -0.000000 -0.604005 -0.796980 82 70 58
0.373293 -0.693258 1.409789 -0.000000 -0.604005 -0.796980 82 70 58
0.693258 -0.693258 1.409789 -0.000000 -0.604005 -0.796980 82 70 58
-0.313748 -0.313748 0.011180 0.000000 0.000000 -1.000000 82 70 58
-0.313748 -0.582675 0.011180 0.000000 0.000000 -1.000000 82 70 58
-0.582675 -0.582675 0.011180 0.000000 0.000000 -1.000000 82 70 58
-0.582675 -0.313748 0.011180 0.000000 0.000000 -1.000000 82 70 58
-0.313748 0.582675 0.011180 0.000000 0.000000 -1.000000 82 70 58
-0.313748 0.313748 0.011180 0.000000 0.000000 -1.000000 82 70 58
-0.582675 0.313748 0.011180 0.000000 0.000000 -1.000000 82 70 58
-0.582675 0.582675 0.011180 0.000000 0.000000 -1.000000 82 70 58
0.582675 0.582675 0.011180 0.000000 0.000000 -1.000000 82 70 58
0.582675 0.313748 0.011180 0.000000 0.000000 -1.000000 82 70 58
0.313748 0.313748 0.011180 0.000000 0.000000 -1.000000 82 70 58
0.313748 0.582675 0.011180 0.000000 0.000000 -1.000000 82 70 58
0.582675 -0.313748 0.011180 0.000000 0.000000 -1.000000 82 70 58
0.582675 -0.582675 0.011180 0.000000 0.000000 -1.000000 82 70 58
0.313748 -0.582675 0.011180 0.000000 0.000000 -1.000000 82 70 58
0.313748 -0.313748 0.011180 0.000000 0.000000 -1.000000 82 70 58
0.373293 -0.693258 1.409789 -0.999095 0.000000 0.042536 82 70 58
0.373293 -0.373293 1.409789 -0.999095 0.000000 0.042536 82 70 58
0.313748 -0.313748 0.011180 -0.999095 0.000000 0.042536 82 70 58
0.313748 -0.582675 0.011180 -0.999095 0.000000 0.042536 82 70 58
-0.693258 -0.693258 1.409789 -0.996889 0.000000 -0.078820 82 70 58
-0.693258 -0.373292 1.409789 -0.996889 0.000000 -0.078820 82 70 58
-0.582675 -0.313748 0.011180 -0.996889 0.000000 -0.078820 82 70 58
-0.582675 -0.582675 0.011180 -0.996889 0.000000 -0.078820 82 70 58
0.693258 -0.373293 1.409789 0.996889 0.000000 -0.078820 82 70 58
0.693258 -0.693258 1.409789 0.996889 0.000000 -0.078820 82 70 58
0.582675 -0.582675 0.011180 0.996889 0.000000 -0.078820 82 70 58
0.582675 -0.313748 0.011180 0.996889 0.000000 -0.078820 82 70 58
-0.373293 -0.373292 1.409789 0.999095 -0.000000 0.042536 82 70 58
-0.373293 -0.693258 1.409789 0.999095 -0.000000 0.042536 82 70 58
-0.313748 -0.582675 0.011180 0.999095 -0.000000 0.042536 82 70 58
-0.313748 -0.313748 0.011180 0.999095 -0.000000 0.042536 82 70 58
-0.373293 0.373293 1.409789 0.000000 -0.999095 0.042536 82 70 58
-0.693258 0.373293 1.409789 0.000000 -0.999095 0.042536 82 70 58
-0.582675 0.313748 0.011180 0.000000 -0.999095 0.042536 82 70 58
-0.313748 0.313748 0.011180 0.000000 -0.999095 0.042536 82 70 58
-0.693258 0.693258 1.409789 0.000000 0.996889 -0.078820 82 70 58
-0.373293 0.693258 1.409789 0.000000 0.996889 -0.078820 82 70 58
-0.313748 0.582675 0.011180 0.000000 0.996889 -0.078820 82 70 58
-0.582675 0.582675 0.011180 0.000000 0.996889 -0.078820 82 70 58
0.693258 0.373293 1.409789 -0.000000 -0.999095 0.042536 82 70 58
0.373293 0.373293 1.409789 -0.000000 -0.999095 0.042536 82 70 58
0.313748 0.313748 0.011180 -0.000000 -0.999095 0.042536 82 70 58
0.582675 0.313748 0.011180 -0.000000 -0.999095 0.042536 82 70 58
-0.373293 -0.693258 1.409789 -0.000000 -0.996889 -0.078820 82 70 58
-0.693258 -0.693258 1.409789 -0.000000 -0.996889 -0.078820 82 70 58
-0.582675 -0.582675 0.011180 -0.000000 -0.996889 -0.078820 82 70 58
-0.313748 -0.582675 0.011180 -0.000000 -0.996889 -0.078820 82 70 58
-0.693258 -0.373292 1.409789 0.000000 0.999095 0.042536 82 70 58
-0.373293 -0.373292 1.409789 0.000000 0.999095 0.042536 82 70 58
-0.313748 -0.313748 0.011180 0.000000 0.999095 0.042536 82 70 58
-0.582675 -0.313748 0.011180 0.000000 0.999095 0.042536 82 70 58
-0.693258 0.373293 1.409789 -0.996889 0.000000 -0.078820 82 70 58
-0.693258 0.693258 1.409789 -0.996889 0.000000 -0.078820 82 70 58
-0.582675 0.582675 0.011180 -0.996889 0.000000 -0.078820 82 70 58
-0.582675 0.313748 0.011180 -0.996889 0.000000 -0.078820 82 70 58
0.373293 -0.373293 1.409789 0.000000 0.999095 0.042536 82 70 58
0.693258 -0.373293 1.409789 0.000000 0.999095 0.042536 82 70 58
0.582675 -0.313748 0.011180 0.000000 0.999095 0.042536 82 70 58
0.313748 -0.313748 0.011180 0.000000 0.999095 0.042536 82 70 58
0.693258 0.693258 1.409789 0.996889 0.000000 -0.078820 82 70 58
0.693258 0.373293 1.409789 0.996889 0.000000 -0.078820 82 70 58
0.582675 0.313748 0.011180 0.996889 0.000000 -0.078820 82 70 58
0.582675 0.582675 0.011180 0.996889 0.000000 -0.078820 82 70 58
-1.000000 0.000000 1.644116 -1.000000 0.000000 -0.000002 82 70 58
-1.000000 0.000000 1.819816 -1.000000 0.000000 -0.000002 82 70 58
-1.000000 0.674414 1.819816 -1.000000 0.000000 -0.000002 82 70 58
-1.000000 0.674414 1.644116 -1.000000 0.000000 -0.000002 82 70 58
1.000000 0.000000 1.644116 1.000000 -0.000000 0.000001 82 70 58
1.000000 -0.000000 1.819816 1.000000 -0.000000 0.000001 82 70 58
1.000000 -0.674415 1.819816 1.000000 -0.000000 0.000001 82 70 58
1.000000 -0.674414 1.644116 1.000000 -0.000000 0.000001 82 70 58
-1.000000 0.000000 1.819816 -0.614789 0.000000 0.788691 82 70 58
-1.000000 -0.674414 1.819816 -0.614789 0.000000 0.788691 82 70 58
-0.945702 -0.620116 1.862142 -0.614789 0.000000 0.788691 82 70 58
-0.945702 0.000000 1.862142 -0.614789 0.000000 0.788691 82 70 58
-0.000000 -0.000000 1.862142 0.000000 0.000000 1.000000 82 70 58
0.000000 0.945702 1.862142 0.000000 0.000000 1.000000 82 70 58
-0.620116 0.945702 1.862142 0.000000 0.000000 1.000000 82 70 58
-0.620116 0.945702 1.862142 -0.000001 0.000000 1.000000 82 70 58
-0.945702 0.620116 1.862142 -0.000001 0.000000 1.000000 82 70 58
-0.945702 0.000000 1.862142 -0.000001 0.000000 1.000000 82 70 58
-0.945702 0.000000 1.862142 0.000000 -0.000000 1.000000 82 70 58
1.000000 0.674414 1.644116 0.731729 0.000000 -0.681596 82 70 58
1.000000 0.000000 1.644116 0.731729 0.000000 -0.681596 82 70 58
0.961973 0.000000 1.603292 0.731729 0.000000 -0.681596 82 70 58
0.961973 0.636388 1.603292 0.731729 0.000000 -0.681596 82 70 58
-0.000000 -1.000000 1.644116 -0.000000 -0.731729 -0.681595 82 70 58
-0.674414 -1.000000 1.644116 -0.000000 -0.731729 -0.681595 82 70 58
-0.636388 -0.961973 1.603292 -0.000000 -0.731729 -0.681595 82 70 58
-0.000000 -0.961973 1.603292 -0.000000 -0.731729 -0.681595 82 70 58
1.000000 -0.000000 1.819816 0.614789 -0.000000 0.788692 82 70 58
1.000000 0.674414 1.819816 0.614789 -0.000000 0.788692 82 70 58
0.945702 0.620116 1.862142 0.614789 -0.000000 0.788692 82 70 58
0.945702 -0.000001 1.862142 0.614789 -0.000000 0.788692 82 70 58
0.945701 -0.620117 1.862142 -0.000000 -0.000000 1.000000 82 70 58
0.945702 -0.000001 1.862142 -0.000000 -0.000000 1.000000 82 70 58
-0.000000 -0.945702 1.862142 0.000000 -0.000000 1.000000 82 70 58
0.620115 -0.945702 1.862142 0.000000 -0.000000 1.000000 82 70 58
1.000000 -0.674414 1.644116 0.731729 -0.000000 -0.681596 82 70 58
0.961973 -0.636388 1.603292 0.731729 -0.000000 -0.681596 82 70 58
0.945702 0.620116 1.862142 0.000000 -0.000000 1.000000 82 70 58
0.620116 0.945702 1.862142 0.000000 -0.000000 1.000000 82 70 58
-0.000001 -1.000000 1.819816 -0.000000 -0.614789 0.788692 82 70 58
0.674413 -1.000000 1.819816 -0.000000 -0.614789 0.788692 82 70 58
0.620115 -0.945702 1.862142 -0.000000 -0.614789 0.788692 82 70 58
-0.000000 -0.945702 1.862142 -0.000000 -0.614789 0.788692 82 70 58
-0.945702 -0.620116 1.862142 0.000000 -0.000000 1.000000 82 70 58
-0.620116 -0.945702 1.862142 0.000000 -0.000000 1.000000 82 70 58
-0.674414 1.000000 1.644116 0.000000 0.731729 -0.681596 82 70 58
0.000000 1.000000 1.644116 0.000000 0.731729 -0.681596 82 70 58
0.000000 0.961974 1.603292 0.000000 0.731729 -0.681596 82 70 58
-0.636387 0.961974 1.603292 0.000000 0.731729 -0.681596 82 70 58
0.674414 1.000000 1.644116 0.000000 0.731729 -0.681596 82 70 58
0.636387 0.961974 1.603292 0.000000 0.731729 -0.681596 82 70 58
-0.000000 -1.000000 1.644116 -0.000000 -1.000000 -0.000001 82 70 58
-0.000001 -1.000000 1.819816 -0.000000 -1.000000 -0.000001 82 70 58
-0.674414 -1.000000 1.819816 -0.000000 -1.000000 -0.000001 82 70 58
-0.674414 -1.000000 1.644116 -0.000000 -1.000000 -0.000001 82 70 58
0.636387 0.961974 1.603292 0.000039 0.000039 1.000000 82 70 58
0.961973 0.636388 1.603292 0.000039 0.000039 1.000000 82 70 58
0.799948 0.799948 1.603292 0.000039 0.000039 1.000000 82 70 58
0.961973 -0.636388 1.603292 -0.000039 0.000039 1.000000 82 70 58
0.636387 -0.961974 1.603292 -0.000039 0.000039 1.000000 82 70 58
0.799948 -0.799948 1.603292 -0.000039 0.000039 1.000000 82 70 58
-0.961973 0.636388 1.603292 -0.000000 0.000000 1.000000 82 70 58
-0.636387 0.961974 1.603292 -0.000000 0.000000 1.000000 82 70 58
-0.799948 0.799949 1.603292 -0.000000 0.000000 1.000000 82 70 58
-0.636388 -0.961973 1.603292 -0.000000 -0.000000 1.000000 82 70 58
-0.961974 -0.636387 1.603292 -0.000000 -0.000000 1.000000 82 70 58
-0.799948 -0.799948 1.603292 -0.000000 -0.000000 1.000000 82 70 58
0.674414 1.000000 1.644116 0.707107 0.707107 0.000000 82 70 58
0.674414 1.000000 1.819816 0.707107 0.707107 0.000000 82 70 58
1.000000 0.674414 1.819816 0.707107 0.707107 0.000000 82 70 58
1.000000 0.674414 1.644116 0.707107 0.707107 0.000000 82 70 58
1.000000 -0.674414 1.644116 0.707106 -0.707107 -0.000001 82 70 58
1.000000 -0.674415 1.819816 0.707106 -0.707107 -0.000001 82 70 58
0.674413 -1.000000 1.819816 0.707106 -0.707107 -0.000001 82 70 58
0.674414 -1.000000 1.644116 0.707106 -0.707107 -0.000001 82 70 58
-0.674414 -1.000000 1.644116 -0.707107 -0.707106 -0.000001 82 70 58
-0.674414 -1.000000 1.819816 -0.707107 -0.707106 -0.000001 82 70 58
-1.000000 -0.674414 1.819816 -0.707107 -0.707106 -0.000001 82 70 58
-1.000000 -0.674414 1.644116 -0.707107 -0.707106 -0.000001 82 70 58
-1.000000 0.674414 1.644116 -0.707107 0.707107 0.000001 82 70 58
-1.000000 0.674414 1.819816 -0.707107 0.707107 0.000001 82 70 58
-0.674414 1.000000 1.819816 -0.707107 0.707107 0.000001 82 70 58
-0.674414 1.000000 1.644116 -0.707107 0.707107 0.000001 82 70 58
-1.000000 0.674414 1.819816 -0.341335 0.341335 0.875775 82 70 58
-0.945702 0.620116 1.862142 -0.341335 0.341335 0.875775 82 70 58
-0.620116 0.945702 1.862142 -0.341335 0.341335 0.875775 82 70 58
-0.674414 1.000000 1.819816 -0.341335 0.341335 0.875775 82 70 58
0.945702 0.620116 1.862142 0.341336 0.341335 0.875774 82 70 58
1.000000 0.674414 1.819816 0.341336 0.341335 0.875774 82 70 58
0.674414 1.000000 1.819816 0.341336 0.341335 0.875774 82 70 58
0.620116 0.945702 1.862142 0.341336 0.341335 0.875774 82 70 58
1.000000 -0.674415 1.819816 0.341335 -0.341335 0.875775 82 70 58
0.945701 -0.620117 1.862142 0.341335 -0.341335 0.875775 82 70 58
0.620115 -0.945702 1.862142 0.341335 -0.341335 0.875775 82 70 58
0.674413 -1.000000 1.819816 0.341335 -0.341335 0.875775 82 70 58
-0.945702 -0.620116 1.862142 -0.341335 -0.341335 0.875775 82 70 58
-1.000000 -0.674414 1.819816 -0.341335 -0.341335 0.875775 82 70 58
-0.674414 -1.000000 1.819816 -0.341335 -0.341335 0.875775 82 70 58
-0.620116 -0.945702 1.862142 -0.341335 -0.341335 0.875775 82 70 58
-0.674414 1.000000 1.644116 -0.427543 0.427543 -0.796501 82 70 58
-0.636387 0.961974 1.603292 -0.427543 0.427543 -0.796501 82 70 58
-0.961973 0.636388 1.603292 -0.427543 0.427543 -0.796501 82 70 58
-1.000000 0.674414 1.644116 -0.427543 0.427543 -0.796501 82 70 58
-0.636388 -0.961973 1.603292 -0.427544 -0.427543 -0.796501 82 70 58
-0.674414 -1.000000 1.644116 -0.427544 -0.427543 -0.796501 82 70 58
-1.000000 -0.674414 1.644116 -0.427544 -0.427543 -0.796501 82 70 58
-0.961974 -0.636387 1.603292 -0.427544 -0.427543 -0.796501 82 70 58
0.961973 -0.636388 1.603292 0.427544 -0.427544 -0.796500 82 70 58
1.000000 -0.674414 1.644116 0.427544 -0.427544 -0.796500 82 70 58
0.674414 -1.000000 1.644116 0.427544 -0.427544 -0.796500 82 70 58
0.636387 -0.961974 1.603292 0.427544 -0.427544 -0.796500 82 70 58
1.000000 0.674414 1.644116 0.427543 0.427543 -0.796501 82 70 58
0.961973 0.636388 1.603292 0.427543 0.427543 -0.796501 82 70 58
0.636387 0.961974 1.603292 0.427543 0.427543 -0.796501 82 70 58
0.674414 1.000000 1.644116 0.427543 0.427543 -0.796501 82 70 58
1.000000 0.674414 1.644116 1.000000 -0.000000 -0.000001 82 70 58
1.000000 0.674414 1.819816 1.000000 -0.000000 -0.000001 82 70 58
1.000000 -0.000000 1.819816 1.000000 -0.000000 -0.000001 82 70 58
1.000000 0.000000 1.644116 1.000000 -0.000000 -0.000001 82 70 58
4 0 1 2 3
4 4 5 6 7
4 8 9 10 11
4 12 13 14 15
4 16 17 18 19
4 20 21 22 23
3 24 25 26
3 27 28 29
3 24 26 27
3 30 31 24
3 29 32 30
3 24 27 29
3 29 30 24
4 33 34 35 36
4 37 38 39 40
4 41 42 43 44
3 45 46 47
3 48 49 50
3 51 52 53
3 54 55 56
3 45 48 50
3 50 57 58
3 50 58 45
4 59 60 61 62
4 63 64 17 16
4 65 66 67 68
4 69 70 71 72
3 32 29 73
3 74 75 46
3 76 77 78
3 56 79 80
3 81 32 74
3 74 46 45
3 74 45 81
3 57 50 82
3 83 84 25
3 57 82 83
3 24 85 86
3 86 57 83
3 83 25 24
3 83 24 86
4 87 88 89 90
4 91 92 86 85
4 93 94 95 96
4 30 97 91 31
4 81 98 99 97
4 97 99 92 91
4 100 101 102 103
4 99 104 58 92
4 105 106 107 108
4 109 110 111 112
4 113 114 115 116
4 117 118 119 120
4 121 122 123 124
4 125 126 127 128
4 129 130 131 132
4 133 134 135 136
4 137 138 139 140
4 141 142 143 144
4 145 146 147 148
4 149 150 151 152
4 153 154 155 156
4 157 158 159 160
4 161 162 163 164
4 165 166 167 168
4 169 170 171 172
4 173 174 175 176
4 177 178 179 180
4 181 182 183 184
4 185 186 187 188
4 189 190 191 192
4 193 194 195 196
4 197 198 199 200
4 201 202 203 204
4 205 206 207 208
4 209 210 211 212
4 213 214 215 216
4 217 218 219 220
4 221 222 223 224
4 225 226 227 228
4 229 230 231 232
4 233 234 235 236
4 237 238 239 240
4 241 242 243 244
4 245 246 247 248
4 249 250 251 252
4 253 254 255 256
4 257 258 259 260
4 261 262 263 264
4 265 266 267 268
4 269 270 271 272
4 273 274 275 276
4 277 278 279 280
4 281 282 283 284
4 285 286 287 288
4 289 290 291 292
4 293 294 295 296
4 297 298 299 300
4 301 302 303 304
4 305 306 307 308
3 309 310 311
3 312 313 314
3 311 315 309
4 316 317 318 319
4 320 321 322 323
4 324 325 326 327
3 328 329 309
3 309 330 331
3 309 331 328
4 317 332 333 318
3 329 334 335
3 335 310 309
3 335 309 329
4 336 337 338 339
3 330 309 315
3 315 340 341
3 315 341 330
4 342 343 344 345
4 343 346 347 344
4 348 349 350 351
3 352 353 354
3 355 356 357
3 358 359 360
3 361 362 363
4 364 365 366 367
4 368 369 370 371
4 372 373 374 375
4 376 377 378 379
4 380 381 382 383
4 384 385 386 387
4 388 389 390 391
4 392 393 394 395
4 396 397 398 399
4 400 401 402 403
4 404 405 406 407
4 408 409 410 411
4 412 413 414 415
