ply
format ascii 1.0
comment Created by Blender 2.79 (sub 0) - www.blender.org, source file: 'test.blend'
element vertex 16
property float x
property float y
property float z
property float nx
property float ny
property float nz
property uchar red
property uchar green
property uchar blue
element face 4
property list uchar uint vertex_indices
end_header
-1.000000 -1.000000 0.000000 0.000000 0.000000 1.000000 153 153 153
1.000000 -1.000000 0.000000 0.000000 0.000000 1.000000 153 153 153
1.000000 1.000000 0.000000 0.000000 0.000000 1.000000 153 153 153
-1.000000 1.000000 0.000000 0.000000 0.000000 1.000000 153 153 153
-1.000000 3.474677 -0.871101 0.000000 -0.999864 -0.016474 153 153 153
1.000000 3.474677 -0.871101 0.000000 -0.999864 -0.016474 153 153 153
1.000000 3.441728 1.128627 0.000000 -0.999864 -0.016474 153 153 153
-1.000000 3.441728 1.128627 0.000000 -0.999864 -0.016474 153 153 153
-1.000000 2.532093 -3.519976 0.000000 -0.024985 0.999688 153 153 153
1.000000 2.532093 -3.519976 0.000000 -0.024985 0.999688 153 153 153
1.000000 4.531469 -3.470007 0.000000 -0.024985 0.999688 153 153 153
-1.000000 4.531469 -3.470007 0.000000 -0.024985 0.999688 153 153 153
-1.000000 0.055644 -2.127258 0.000000 -0.999839 -0.017935 153 153 153
-1.000000 0.091513 -4.126936 0.000000 -0.999839 -0.017935 153 153 153
1.000000 0.091513 -4.126936 0.000000 -0.999839 -0.017935 153 153 153
1.000000 0.055644 -2.127258 0.000000 -0.999839 -0.017935 153 153 153
4 0 1 2 3
4 4 5 6 7
4 8 9 10 11
4 12 13 14 15
