ply
format ascii 1.0
comment Created by Blender 2.79 (sub 0) - www.blender.org, source file: 'testing_0.blend'
element vertex 432
property float x
property float y
property float z
property float nx
property float ny
property float nz
property uchar red
property uchar green
property uchar blue
element face 140
property list uchar uint vertex_indices
end_header
-7.212629 -7.212629 -0.694450 -1.000000 -0.000000 0.000000 102 138 255
-7.212629 -7.212629 0.694450 -1.000000 -0.000000 0.000000 102 138 255
-7.212629 7.212629 0.694450 -1.000000 -0.000000 0.000000 102 138 255
-7.212629 7.212629 -0.694450 -1.000000 -0.000000 0.000000 102 138 255
-7.212629 7.212629 -0.694450 0.000000 1.000000 0.000000 102 138 255
-7.212629 7.212629 0.694450 0.000000 1.000000 0.000000 102 138 255
7.212629 7.212629 0.694450 0.000000 1.000000 0.000000 102 138 255
7.212629 7.212629 -0.694450 0.000000 1.000000 0.000000 102 138 255
7.212629 7.212629 -0.694450 1.000000 -0.000000 0.000000 102 138 255
7.212629 7.212629 0.694450 1.000000 -0.000000 0.000000 102 138 255
7.212629 -7.212629 0.694450 1.000000 -0.000000 0.000000 102 138 255
7.212629 -7.212629 -0.694450 1.000000 -0.000000 0.000000 102 138 255
-7.212629 -7.212629 0.694450 -0.000000 -1.000000 0.000000 102 138 255
-7.212629 -7.212629 -0.694450 -0.000000 -1.000000 0.000000 102 138 255
7.212629 -7.212629 -0.694450 -0.000000 -1.000000 0.000000 102 138 255
7.212629 -7.212629 0.694450 -0.000000 -1.000000 0.000000 102 138 255
7.212629 -7.212629 -0.694450 0.000000 -0.000000 -1.000000 102 138 255
-7.212629 -7.212629 -0.694450 0.000000 -0.000000 -1.000000 102 138 255
-7.212629 7.212629 -0.694450 0.000000 -0.000000 -1.000000 102 138 255
7.212629 7.212629 -0.694450 0.000000 -0.000000 -1.000000 102 138 255
7.212629 7.212629 0.694450 0.000000 -0.000000 1.000000 102 138 255
-7.212629 7.212629 0.694450 0.000000 -0.000000 1.000000 102 138 255
-7.212629 -7.212629 0.694450 0.000000 -0.000000 1.000000 102 138 255
7.212629 -7.212629 0.694450 0.000000 -0.000000 1.000000 102 138 255
4.996910 -6.819557 0.705839 -1.000000 -0.000000 0.000000 102 138 255
4.996910 -6.819557 8.143044 -1.000000 -0.000000 0.000000 102 138 255
4.996910 7.019740 8.143044 -1.000000 -0.000000 0.000000 102 138 255
4.996910 7.019740 0.705839 -1.000000 -0.000000 0.000000 102 138 255
4.996910 7.019740 0.705839 0.000000 1.000000 0.000000 102 138 255
4.996910 7.019740 8.143044 0.000000 1.000000 0.000000 102 138 255
7.003347 7.019740 8.143044 0.000000 1.000000 0.000000 102 138 255
7.003347 7.019740 0.705839 0.000000 1.000000 0.000000 102 138 255
7.003347 7.019740 0.705839 1.000000 -0.000000 0.000000 102 138 255
7.003347 7.019740 8.143044 1.000000 -0.000000 0.000000 102 138 255
7.003347 -6.819557 8.143044 1.000000 -0.000000 0.000000 102 138 255
7.003347 -6.819557 0.705839 1.000000 -0.000000 0.000000 102 138 255
7.003347 -6.819557 0.705839 0.000000 -1.000000 0.000000 102 138 255
7.003347 -6.819557 8.143044 0.000000 -1.000000 0.000000 102 138 255
4.996910 -6.819557 8.143044 0.000000 -1.000000 0.000000 102 138 255
4.996910 -6.819557 0.705839 0.000000 -1.000000 0.000000 102 138 255
4.996910 7.019740 0.705839 0.000000 0.000000 -1.000000 102 138 255
7.003347 7.019740 0.705839 0.000000 0.000000 -1.000000 102 138 255
7.003347 -6.819557 0.705839 0.000000 0.000000 -1.000000 102 138 255
4.996910 -6.819557 0.705839 0.000000 0.000000 -1.000000 102 138 255
7.003347 7.019740 8.143044 0.000000 -0.000000 1.000000 102 138 255
4.996910 7.019740 8.143044 0.000000 -0.000000 1.000000 102 138 255
4.996910 -6.819557 8.143044 0.000000 -0.000000 1.000000 102 138 255
7.003347 -6.819557 8.143044 0.000000 -0.000000 1.000000 102 138 255
-6.877544 -6.819557 0.705839 -1.000000 -0.000000 0.000000 102 138 255
-6.877544 -6.819557 8.143044 -1.000000 -0.000000 0.000000 102 138 255
-6.877544 7.019740 8.143044 -1.000000 -0.000000 0.000000 102 138 255
-6.877544 7.019740 0.705839 -1.000000 -0.000000 0.000000 102 138 255
-6.877544 7.019740 0.705839 0.000000 1.000000 0.000000 102 138 255
-6.877544 7.019740 8.143044 0.000000 1.000000 0.000000 102 138 255
-4.871106 7.019740 8.143044 0.000000 1.000000 0.000000 102 138 255
-4.871106 7.019740 0.705839 0.000000 1.000000 0.000000 102 138 255
-4.871106 7.019740 0.705839 1.000000 -0.000000 0.000000 102 138 255
-4.871106 7.019740 8.143044 1.000000 -0.000000 0.000000 102 138 255
-4.871106 -6.819557 8.143044 1.000000 -0.000000 0.000000 102 138 255
-4.871106 -6.819557 0.705839 1.000000 -0.000000 0.000000 102 138 255
-4.871106 -6.819557 0.705839 0.000000 -1.000000 0.000000 102 138 255
-4.871106 -6.819557 8.143044 0.000000 -1.000000 0.000000 102 138 255
-6.877544 -6.819557 8.143044 0.000000 -1.000000 0.000000 102 138 255
-6.877544 -6.819557 0.705839 0.000000 -1.000000 0.000000 102 138 255
-6.877544 7.019740 0.705839 0.000000 0.000000 -1.000000 102 138 255
-4.871106 7.019740 0.705839 0.000000 0.000000 -1.000000 102 138 255
-4.871106 -6.819557 0.705839 0.000000 0.000000 -1.000000 102 138 255
-6.877544 -6.819557 0.705839 0.000000 0.000000 -1.000000 102 138 255
-4.871106 7.019740 8.143044 0.000000 -0.000000 1.000000 102 138 255
-6.877544 7.019740 8.143044 0.000000 -0.000000 1.000000 102 138 255
-6.877544 -6.819557 8.143044 0.000000 -0.000000 1.000000 102 138 255
-4.871106 -6.819557 8.143044 0.000000 -0.000000 1.000000 102 138 255
-2.835552 9.542511 0.027955 -1.000000 -0.000000 0.000000 102 138 255
-2.835552 9.542511 1.406089 -1.000000 -0.000000 0.000000 102 138 255
-2.835552 14.534334 1.406089 -1.000000 -0.000000 0.000000 102 138 255
-2.835552 14.534334 0.027955 -1.000000 -0.000000 0.000000 102 138 255
-2.835552 14.534334 0.027955 0.000000 1.000000 0.000000 102 138 255
-2.835552 14.534334 1.406089 0.000000 1.000000 0.000000 102 138 255
2.156270 14.534334 1.406089 0.000000 1.000000 0.000000 102 138 255
2.156270 14.534334 0.027955 0.000000 1.000000 0.000000 102 138 255
2.156270 14.534334 0.027955 1.000000 -0.000000 0.000000 102 138 255
2.156270 14.534334 1.406089 1.000000 -0.000000 0.000000 102 138 255
2.156270 9.542511 1.406089 1.000000 -0.000000 0.000000 102 138 255
2.156270 9.542511 0.027955 1.000000 -0.000000 0.000000 102 138 255
2.156270 9.542511 0.027955 0.000000 -1.000000 0.000000 102 138 255
2.156270 9.542511 1.406089 0.000000 -1.000000 0.000000 102 138 255
-2.835552 9.542511 1.406089 0.000000 -1.000000 0.000000 102 138 255
-2.835552 9.542511 0.027955 0.000000 -1.000000 0.000000 102 138 255
-2.835552 14.534334 0.027955 0.000000 0.000000 -1.000000 102 138 255
2.156270 14.534334 0.027955 0.000000 0.000000 -1.000000 102 138 255
2.156270 9.542511 0.027955 0.000000 0.000000 -1.000000 102 138 255
-2.835552 9.542511 0.027955 0.000000 0.000000 -1.000000 102 138 255
2.156270 14.534334 1.406089 0.000000 -0.000000 1.000000 102 138 255
-2.835552 14.534334 1.406089 0.000000 -0.000000 1.000000 102 138 255
-2.835552 9.542511 1.406089 0.000000 -0.000000 1.000000 102 138 255
2.156270 9.542511 1.406089 0.000000 -0.000000 1.000000 102 138 255
-3.628050 16.712732 -1.066447 -1.000000 -0.000000 0.000000 102 138 255
-3.628050 16.712732 0.311687 -1.000000 -0.000000 0.000000 102 138 255
-3.628050 21.704556 0.311687 -1.000000 -0.000000 0.000000 102 138 255
-3.628050 21.704556 -1.066447 -1.000000 -0.000000 0.000000 102 138 255
-3.628050 21.704556 -1.066447 0.000000 1.000000 0.000000 102 138 255
-3.628050 21.704556 0.311687 0.000000 1.000000 0.000000 102 138 255
1.363772 21.704556 0.311687 0.000000 1.000000 0.000000 102 138 255
1.363772 21.704556 -1.066447 0.000000 1.000000 0.000000 102 138 255
1.363772 21.704556 -1.066447 1.000000 -0.000000 0.000000 102 138 255
1.363772 21.704556 0.311687 1.000000 -0.000000 0.000000 102 138 255
1.363772 16.712732 0.311687 1.000000 -0.000000 0.000000 102 138 255
1.363772 16.712732 -1.066447 1.000000 -0.000000 0.000000 102 138 255
1.363772 16.712732 -1.066447 0.000000 -1.000000 0.000000 102 138 255
1.363772 16.712732 0.311687 0.000000 -1.000000 0.000000 102 138 255
-3.628050 16.712732 0.311687 0.000000 -1.000000 0.000000 102 138 255
-3.628050 16.712732 -1.066447 0.000000 -1.000000 0.000000 102 138 255
-3.628050 21.704556 -1.066447 0.000000 0.000000 -1.000000 102 138 255
1.363772 21.704556 -1.066447 0.000000 0.000000 -1.000000 102 138 255
1.363772 16.712732 -1.066447 0.000000 0.000000 -1.000000 102 138 255
-3.628050 16.712732 -1.066447 0.000000 0.000000 -1.000000 102 138 255
1.363772 21.704556 0.311687 0.000000 -0.000000 1.000000 102 138 255
-3.628050 21.704556 0.311687 0.000000 -0.000000 1.000000 102 138 255
-3.628050 16.712732 0.311687 0.000000 -0.000000 1.000000 102 138 255
1.363772 16.712732 0.311687 0.000000 -0.000000 1.000000 102 138 255
-2.911028 24.184856 -0.047521 -1.000000 -0.000000 0.000000 102 138 255
-2.911028 24.184856 1.330613 -1.000000 -0.000000 0.000000 102 138 255
-2.911028 29.176680 1.330613 -1.000000 -0.000000 0.000000 102 138 255
-2.911028 29.176680 -0.047521 -1.000000 -0.000000 0.000000 102 138 255
-2.911028 29.176680 -0.047521 0.000000 1.000000 0.000000 102 138 255
-2.911028 29.176680 1.330613 0.000000 1.000000 0.000000 102 138 255
2.080795 29.176680 1.330613 0.000000 1.000000 0.000000 102 138 255
2.080795 29.176680 -0.047521 0.000000 1.000000 0.000000 102 138 255
2.080795 29.176680 -0.047521 1.000000 -0.000000 0.000000 102 138 255
2.080795 29.176680 1.330613 1.000000 -0.000000 0.000000 102 138 255
2.080795 24.184856 1.330613 1.000000 -0.000000 0.000000 102 138 255
2.080795 24.184856 -0.047521 1.000000 -0.000000 0.000000 102 138 255
2.080795 24.184856 -0.047521 0.000000 -1.000000 0.000000 102 138 255
2.080795 24.184856 1.330613 0.000000 -1.000000 0.000000 102 138 255
-2.911028 24.184856 1.330613 0.000000 -1.000000 0.000000 102 138 255
-2.911028 24.184856 -0.047521 0.000000 -1.000000 0.000000 102 138 255
-2.911028 29.176680 -0.047521 0.000000 0.000000 -1.000000 102 138 255
2.080795 29.176680 -0.047521 0.000000 0.000000 -1.000000 102 138 255
2.080795 24.184856 -0.047521 0.000000 0.000000 -1.000000 102 138 255
-2.911028 24.184856 -0.047521 0.000000 0.000000 -1.000000 102 138 255
2.080795 29.176680 1.330613 0.000000 -0.000000 1.000000 102 138 255
-2.911028 29.176680 1.330613 0.000000 -0.000000 1.000000 102 138 255
-2.911028 24.184856 1.330613 0.000000 -0.000000 1.000000 102 138 255
2.080795 24.184856 1.330613 0.000000 -0.000000 1.000000 102 138 255
-5.914514 33.263565 -5.744100 -1.000000 -0.000000 0.000000 102 138 255
-5.914514 33.263565 -4.605170 -1.000000 -0.000000 0.000000 102 138 255
-5.914514 45.092590 -4.605170 -1.000000 -0.000000 0.000000 102 138 255
-5.914514 45.092590 -5.744100 -1.000000 -0.000000 0.000000 102 138 255
-5.914514 45.092590 -5.744100 0.000000 1.000000 0.000000 102 138 255
-5.914514 45.092590 -4.605170 0.000000 1.000000 0.000000 102 138 255
5.914514 45.092590 -4.605170 0.000000 1.000000 0.000000 102 138 255
5.914514 45.092590 -5.744100 0.000000 1.000000 0.000000 102 138 255
5.914514 45.092590 -5.744100 1.000000 -0.000000 0.000000 102 138 255
5.914514 45.092590 -4.605170 1.000000 -0.000000 0.000000 102 138 255
5.914514 33.263565 -4.605170 1.000000 -0.000000 0.000000 102 138 255
5.914514 33.263565 -5.744100 1.000000 -0.000000 0.000000 102 138 255
5.914514 33.263565 -5.744100 0.000000 -1.000000 0.000000 102 138 255
5.914514 33.263565 -4.605170 0.000000 -1.000000 0.000000 102 138 255
-5.914514 33.263565 -4.605170 0.000000 -1.000000 0.000000 102 138 255
-5.914514 33.263565 -5.744100 0.000000 -1.000000 0.000000 102 138 255
-5.914514 45.092590 -5.744100 0.000000 0.000000 -1.000000 102 138 255
5.914514 45.092590 -5.744100 0.000000 0.000000 -1.000000 102 138 255
5.914514 33.263565 -5.744100 0.000000 0.000000 -1.000000 102 138 255
-5.914514 33.263565 -5.744100 0.000000 0.000000 -1.000000 102 138 255
5.914514 45.092590 -4.605170 0.000000 -0.000000 1.000000 102 138 255
-5.914514 45.092590 -4.605170 0.000000 -0.000000 1.000000 102 138 255
-5.914514 33.263565 -4.605170 0.000000 -0.000000 1.000000 102 138 255
5.914514 33.263565 -4.605170 0.000000 -0.000000 1.000000 102 138 255
-10.067755 5.689783 -38.595200 0.000000 -1.000000 0.000000 102 138 255
-10.067755 5.689783 -3.951014 0.000000 -1.000000 0.000000 102 138 255
-13.066686 5.689783 -3.951014 0.000000 -1.000000 0.000000 102 138 255
-13.066686 5.689783 -38.595200 0.000000 -1.000000 0.000000 102 138 255
-8.929213 9.827257 -38.595200 1.000000 -0.000000 0.000000 102 138 255
-8.929213 9.827257 -3.951014 1.000000 -0.000000 0.000000 102 138 255
-8.929213 6.828323 -3.951014 1.000000 -0.000000 0.000000 102 138 255
-8.929213 6.828323 -38.595200 1.000000 -0.000000 0.000000 102 138 255
-14.205227 30.223309 -38.794308 0.000000 -0.000000 -1.000000 102 138 255
-14.205227 33.222244 -38.794308 0.000000 -0.000000 -1.000000 102 138 255
-13.066686 34.360783 -38.794308 0.000000 -0.000000 -1.000000 102 138 255
-10.067755 34.360783 -38.794308 0.000000 0.000000 -1.000000 102 138 255
-8.929213 33.222244 -38.794308 0.000000 0.000000 -1.000000 102 138 255
-8.929213 30.223309 -38.794308 0.000000 0.000000 -1.000000 102 138 255
-10.067755 29.084770 -38.794308 0.000000 0.000000 -1.000000 102 138 255
-13.066686 29.084770 -38.794308 0.000000 0.000000 -1.000000 102 138 255
-8.929213 6.828323 -3.951014 0.000000 0.000000 1.000000 102 138 255
-8.929213 9.827257 -3.951014 0.000000 0.000000 1.000000 102 138 255
-10.067755 10.965797 -3.951014 0.000000 0.000000 1.000000 102 138 255
-13.066686 10.965797 -3.951014 0.000000 0.000000 1.000000 102 138 255
-14.205227 9.827257 -3.951014 0.000000 0.000000 1.000000 102 138 255
-14.205227 6.828323 -3.951014 0.000000 -0.000000 1.000000 102 138 255
-13.066686 5.689783 -3.951014 0.000000 -0.000000 1.000000 102 138 255
-10.067755 5.689783 -3.951014 0.000000 0.000000 1.000000 102 138 255
-14.205227 6.828323 -38.595200 -1.000000 -0.000000 0.000000 102 138 255
-14.205227 6.828323 -3.951014 -1.000000 -0.000000 0.000000 102 138 255
-14.205227 9.827257 -3.951014 -1.000000 -0.000000 0.000000 102 138 255
-14.205227 9.827257 -38.595200 -1.000000 -0.000000 0.000000 102 138 255
-13.066686 10.965797 -38.595200 0.000000 1.000000 0.000000 102 138 255
-13.066686 10.965797 -3.951014 0.000000 1.000000 0.000000 102 138 255
-10.067755 10.965797 -3.951014 0.000000 1.000000 0.000000 102 138 255
-10.067755 10.965797 -38.595200 0.000000 1.000000 0.000000 102 138 255
-10.067755 29.084770 -38.794308 0.000000 -1.000000 0.000000 102 138 255
-10.067755 29.084770 -4.150118 0.000000 -1.000000 0.000000 102 138 255
-13.066686 29.084770 -4.150118 0.000000 -1.000000 0.000000 102 138 255
-13.066686 29.084770 -38.794308 0.000000 -1.000000 0.000000 102 138 255
-8.929213 33.222244 -38.794308 1.000000 -0.000000 0.000000 102 138 255
-8.929213 33.222244 -4.150118 1.000000 -0.000000 0.000000 102 138 255
-8.929213 30.223309 -4.150118 1.000000 -0.000000 0.000000 102 138 255
-8.929213 30.223309 -38.794308 1.000000 -0.000000 0.000000 102 138 255
9.189754 6.230972 -38.595200 0.000000 -0.000000 -1.000000 102 138 255
9.189754 9.229906 -38.595200 0.000000 -0.000000 -1.000000 102 138 255
10.328297 10.368446 -38.595200 0.000000 -0.000000 -1.000000 102 138 255
13.327228 10.368446 -38.595200 0.000000 0.000000 -1.000000 102 138 255
14.465769 9.229906 -38.595200 0.000000 0.000000 -1.000000 102 138 255
14.465769 6.230972 -38.595200 0.000000 0.000000 -1.000000 102 138 255
13.327228 5.092432 -38.595200 0.000000 0.000000 -1.000000 102 138 255
10.328297 5.092432 -38.595200 0.000000 0.000000 -1.000000 102 138 255
-8.929213 30.223309 -4.150118 0.000000 0.000000 1.000000 102 138 255
-8.929213 33.222244 -4.150118 0.000000 0.000000 1.000000 102 138 255
-10.067755 34.360783 -4.150118 0.000000 0.000000 1.000000 102 138 255
-13.066686 34.360783 -4.150118 0.000000 0.000000 1.000000 102 138 255
-14.205227 33.222244 -4.150118 0.000000 0.000000 1.000000 102 138 255
-14.205227 30.223309 -4.150118 0.000000 -0.000000 1.000000 102 138 255
-13.066686 29.084770 -4.150118 0.000000 -0.000000 1.000000 102 138 255
-10.067755 29.084770 -4.150118 0.000000 0.000000 1.000000 102 138 255
-14.205227 30.223309 -38.794308 -1.000000 -0.000000 0.000000 102 138 255
-14.205227 30.223309 -4.150118 -1.000000 -0.000000 0.000000 102 138 255
-14.205227 33.222244 -4.150118 -1.000000 -0.000000 0.000000 102 138 255
-14.205227 33.222244 -38.794308 -1.000000 -0.000000 0.000000 102 138 255
-13.066686 34.360783 -38.794308 0.000000 1.000000 0.000000 102 138 255
-13.066686 34.360783 -4.150118 0.000000 1.000000 0.000000 102 138 255
-10.067755 34.360783 -4.150118 0.000000 1.000000 0.000000 102 138 255
-10.067755 34.360783 -38.794308 0.000000 1.000000 0.000000 102 138 255
13.327228 5.092432 -38.595200 0.000000 -1.000000 0.000000 102 138 255
13.327228 5.092432 -3.951017 0.000000 -1.000000 0.000000 102 138 255
10.328297 5.092432 -3.951017 0.000000 -1.000000 0.000000 102 138 255
10.328297 5.092432 -38.595200 0.000000 -1.000000 0.000000 102 138 255
14.465769 9.229906 -38.595200 1.000000 -0.000000 0.000000 102 138 255
14.465769 9.229906 -3.951017 1.000000 -0.000000 0.000000 102 138 255
14.465769 6.230972 -3.951017 1.000000 -0.000000 0.000000 102 138 255
14.465769 6.230972 -38.595200 1.000000 -0.000000 0.000000 102 138 255
9.189754 29.625957 -38.794308 0.000000 -0.000000 -1.000000 102 138 255
9.189754 32.624889 -38.794308 0.000000 -0.000000 -1.000000 102 138 255
10.328297 33.763432 -38.794308 0.000000 -0.000000 -1.000000 102 138 255
13.327228 33.763432 -38.794308 0.000000 0.000000 -1.000000 102 138 255
14.465769 32.624889 -38.794308 0.000000 0.000000 -1.000000 102 138 255
14.465769 29.625957 -38.794308 0.000000 0.000000 -1.000000 102 138 255
13.327228 28.487415 -38.794308 0.000000 0.000000 -1.000000 102 138 255
10.328297 28.487415 -38.794308 0.000000 0.000000 -1.000000 102 138 255
14.465769 6.230972 -3.951017 0.000000 0.000000 1.000000 102 138 255
14.465769 9.229906 -3.951017 0.000000 0.000000 1.000000 102 138 255
13.327228 10.368446 -3.951017 0.000000 0.000000 1.000000 102 138 255
10.328297 10.368446 -3.951017 0.000000 0.000000 1.000000 102 138 255
9.189754 9.229906 -3.951017 0.000000 0.000000 1.000000 102 138 255
9.189754 6.230972 -3.951017 0.000000 -0.000000 1.000000 102 138 255
10.328297 5.092432 -3.951017 0.000000 -0.000000 1.000000 102 138 255
13.327228 5.092432 -3.951017 0.000000 0.000000 1.000000 102 138 255
9.189754 6.230972 -38.595200 -1.000000 -0.000000 0.000000 102 138 255
9.189754 6.230972 -3.951017 -1.000000 -0.000000 0.000000 102 138 255
9.189754 9.229906 -3.951017 -1.000000 -0.000000 0.000000 102 138 255
9.189754 9.229906 -38.595200 -1.000000 -0.000000 0.000000 102 138 255
10.328297 10.368446 -38.595200 0.000000 1.000000 0.000000 102 138 255
10.328297 10.368446 -3.951017 0.000000 1.000000 0.000000 102 138 255
13.327228 10.368446 -3.951017 0.000000 1.000000 0.000000 102 138 255
13.327228 10.368446 -38.595200 0.000000 1.000000 0.000000 102 138 255
13.327228 28.487415 -38.794308 0.000000 -1.000000 0.000000 102 138 255
13.327228 28.487415 -4.150124 0.000000 -1.000000 0.000000 102 138 255
10.328297 28.487415 -4.150124 0.000000 -1.000000 0.000000 102 138 255
10.328297 28.487415 -38.794308 0.000000 -1.000000 0.000000 102 138 255
14.465769 32.624889 -38.794308 1.000000 -0.000000 0.000000 102 138 255
14.465769 32.624889 -4.150124 1.000000 -0.000000 0.000000 102 138 255
14.465769 29.625957 -4.150124 1.000000 -0.000000 0.000000 102 138 255
14.465769 29.625957 -38.794308 1.000000 -0.000000 0.000000 102 138 255
14.465769 29.625957 -4.150124 0.000000 0.000000 1.000000 102 138 255
14.465769 32.624889 -4.150124 0.000000 0.000000 1.000000 102 138 255
13.327228 33.763432 -4.150124 0.000000 0.000000 1.000000 102 138 255
10.328297 33.763432 -4.150124 0.000000 0.000000 1.000000 102 138 255
9.189754 32.624889 -4.150124 0.000000 0.000000 1.000000 102 138 255
9.189754 29.625957 -4.150124 0.000000 -0.000000 1.000000 102 138 255
10.328297 28.487415 -4.150124 0.000000 -0.000000 1.000000 102 138 255
13.327228 28.487415 -4.150124 0.000000 0.000000 1.000000 102 138 255
9.189754 29.625957 -38.794308 -1.000000 -0.000000 0.000000 102 138 255
9.189754 29.625957 -4.150124 -1.000000 -0.000000 0.000000 102 138 255
9.189754 32.624889 -4.150124 -1.000000 -0.000000 0.000000 102 138 255
9.189754 32.624889 -38.794308 -1.000000 -0.000000 0.000000 102 138 255
10.328297 33.763432 -38.794308 0.000000 1.000000 0.000000 102 138 255
10.328297 33.763432 -4.150124 0.000000 1.000000 0.000000 102 138 255
13.327228 33.763432 -4.150124 0.000000 1.000000 0.000000 102 138 255
13.327228 33.763432 -38.794308 0.000000 1.000000 0.000000 102 138 255
-5.914514 33.452255 8.683348 -1.000000 -0.000000 0.000000 102 138 255
-5.914514 33.452255 9.822277 -1.000000 -0.000000 0.000000 102 138 255
-5.914514 45.281281 9.822277 -1.000000 -0.000000 0.000000 102 138 255
-5.914514 45.281281 8.683348 -1.000000 -0.000000 0.000000 102 138 255
-5.914514 45.281281 8.683348 0.000000 1.000000 0.000000 102 138 255
-5.914514 45.281281 9.822277 0.000000 1.000000 0.000000 102 138 255
5.914514 45.281281 9.822277 0.000000 1.000000 0.000000 102 138 255
5.914514 45.281281 8.683348 0.000000 1.000000 0.000000 102 138 255
5.914514 45.281281 8.683348 1.000000 -0.000000 0.000000 102 138 255
5.914514 45.281281 9.822277 1.000000 -0.000000 0.000000 102 138 255
5.914514 33.452255 9.822277 1.000000 -0.000000 0.000000 102 138 255
5.914514 33.452255 8.683348 1.000000 -0.000000 0.000000 102 138 255
5.914514 33.452255 8.683348 0.000000 -1.000000 0.000000 102 138 255
5.914514 33.452255 9.822277 0.000000 -1.000000 0.000000 102 138 255
-5.914514 33.452255 9.822277 0.000000 -1.000000 0.000000 102 138 255
-5.914514 33.452255 8.683348 0.000000 -1.000000 0.000000 102 138 255
-5.914514 45.281281 8.683348 0.000000 0.000000 -1.000000 102 138 255
5.914514 45.281281 8.683348 0.000000 0.000000 -1.000000 102 138 255
5.914514 33.452255 8.683348 0.000000 0.000000 -1.000000 102 138 255
-5.914514 33.452255 8.683348 0.000000 0.000000 -1.000000 102 138 255
5.914514 45.281281 9.822277 0.000000 -0.000000 1.000000 102 138 255
-5.914514 45.281281 9.822277 0.000000 -0.000000 1.000000 102 138 255
-5.914514 33.452255 9.822277 0.000000 -0.000000 1.000000 102 138 255
5.914514 33.452255 9.822277 0.000000 -0.000000 1.000000 102 138 255
-10.081248 27.279375 -2.462754 -1.000000 -0.000000 0.000000 102 138 255
-10.081248 27.279375 -1.084619 -1.000000 -0.000000 0.000000 102 138 255
-10.081248 32.271194 -1.084619 -1.000000 -0.000000 0.000000 102 138 255
-10.081248 32.271194 -2.462754 -1.000000 -0.000000 0.000000 102 138 255
-10.081248 32.271194 -2.462754 0.000000 1.000000 0.000000 102 138 255
-10.081248 32.271194 -1.084619 0.000000 1.000000 0.000000 102 138 255
-5.089426 32.271194 -1.084619 0.000000 1.000000 0.000000 102 138 255
-5.089426 32.271194 -2.462754 0.000000 1.000000 0.000000 102 138 255
-5.089426 32.271194 -2.462754 1.000000 -0.000000 0.000000 102 138 255
-5.089426 32.271194 -1.084619 1.000000 -0.000000 0.000000 102 138 255
-5.089426 27.279375 -1.084619 1.000000 -0.000000 0.000000 102 138 255
-5.089426 27.279375 -2.462754 1.000000 -0.000000 0.000000 102 138 255
-5.089426 27.279375 -2.462754 0.000000 -1.000000 0.000000 102 138 255
-5.089426 27.279375 -1.084619 0.000000 -1.000000 0.000000 102 138 255
-10.081248 27.279375 -1.084619 0.000000 -1.000000 0.000000 102 138 255
-10.081248 27.279375 -2.462754 0.000000 -1.000000 0.000000 102 138 255
-10.081248 32.271194 -2.462754 0.000000 0.000000 -1.000000 102 138 255
-5.089426 32.271194 -2.462754 0.000000 0.000000 -1.000000 102 138 255
-5.089426 27.279375 -2.462754 0.000000 0.000000 -1.000000 102 138 255
-10.081248 27.279375 -2.462754 0.000000 0.000000 -1.000000 102 138 255
-5.089426 32.271194 -1.084619 0.000000 -0.000000 1.000000 102 138 255
-10.081248 32.271194 -1.084619 0.000000 -0.000000 1.000000 102 138 255
-10.081248 27.279375 -1.084619 0.000000 -0.000000 1.000000 102 138 255
-5.089426 27.279375 -1.084619 0.000000 -0.000000 1.000000 102 138 255
-12.232315 33.883526 -4.160964 -1.000000 -0.000000 0.000000 102 138 255
-12.232315 33.883526 -2.782829 -1.000000 -0.000000 0.000000 102 138 255
-12.232315 38.875343 -2.782829 -1.000000 -0.000000 0.000000 102 138 255
-12.232315 38.875343 -4.160964 -1.000000 -0.000000 0.000000 102 138 255
-12.232315 38.875343 -4.160964 0.000000 1.000000 0.000000 102 138 255
-12.232315 38.875343 -2.782829 0.000000 1.000000 0.000000 102 138 255
-7.240492 38.875343 -2.782829 0.000000 1.000000 0.000000 102 138 255
-7.240492 38.875343 -4.160964 0.000000 1.000000 0.000000 102 138 255
-7.240492 38.875343 -4.160964 1.000000 -0.000000 0.000000 102 138 255
-7.240492 38.875343 -2.782829 1.000000 -0.000000 0.000000 102 138 255
-7.240492 33.883526 -2.782829 1.000000 -0.000000 0.000000 102 138 255
-7.240492 33.883526 -4.160964 1.000000 -0.000000 0.000000 102 138 255
-7.240492 33.883526 -4.160964 0.000000 -1.000000 0.000000 102 138 255
-7.240492 33.883526 -2.782829 0.000000 -1.000000 0.000000 102 138 255
-12.232315 33.883526 -2.782829 0.000000 -1.000000 0.000000 102 138 255
-12.232315 33.883526 -4.160964 0.000000 -1.000000 0.000000 102 138 255
-12.232315 38.875343 -4.160964 0.000000 0.000000 -1.000000 102 138 255
-7.240492 38.875343 -4.160964 0.000000 0.000000 -1.000000 102 138 255
-7.240492 33.883526 -4.160964 0.000000 0.000000 -1.000000 102 138 255
-12.232315 33.883526 -4.160964 0.000000 0.000000 -1.000000 102 138 255
-7.240492 38.875343 -2.782829 0.000000 -0.000000 1.000000 102 138 255
-12.232315 38.875343 -2.782829 0.000000 -0.000000 1.000000 102 138 255
-12.232315 33.883526 -2.782829 0.000000 -0.000000 1.000000 102 138 255
-7.240492 33.883526 -2.782829 0.000000 -0.000000 1.000000 102 138 255
-13.066686 5.689783 -38.595200 -0.707106 -0.707107 0.000000 102 138 255
-13.066686 5.689783 -3.951014 -0.707106 -0.707107 0.000000 102 138 255
-14.205227 6.828323 -3.951014 -0.707106 -0.707107 0.000000 102 138 255
-14.205227 6.828323 -38.595200 -0.707106 -0.707107 0.000000 102 138 255
-13.066686 10.965797 -3.951014 -0.707106 0.707107 0.000000 102 138 255
-13.066686 10.965797 -38.595200 -0.707106 0.707107 0.000000 102 138 255
-14.205227 9.827257 -38.595200 -0.707106 0.707107 0.000000 102 138 255
-14.205227 9.827257 -3.951014 -0.707106 0.707107 0.000000 102 138 255
-8.929213 9.827257 -3.951014 0.707106 0.707107 0.000000 102 138 255
-8.929213 9.827257 -38.595200 0.707106 0.707107 0.000000 102 138 255
-10.067755 10.965797 -38.595200 0.707106 0.707107 0.000000 102 138 255
-10.067755 10.965797 -3.951014 0.707106 0.707107 0.000000 102 138 255
-10.067755 5.689783 -3.951014 0.707106 -0.707107 0.000000 102 138 255
-10.067755 5.689783 -38.595200 0.707106 -0.707107 0.000000 102 138 255
-8.929213 6.828323 -38.595200 0.707106 -0.707107 0.000000 102 138 255
-8.929213 6.828323 -3.951014 0.707106 -0.707107 0.000000 102 138 255
-13.066686 29.084770 -38.794308 -0.707106 -0.707108 0.000000 102 138 255
-13.066686 29.084770 -4.150118 -0.707106 -0.707108 0.000000 102 138 255
-14.205227 30.223309 -4.150118 -0.707106 -0.707108 0.000000 102 138 255
-14.205227 30.223309 -38.794308 -0.707106 -0.707108 0.000000 102 138 255
-13.066686 34.360783 -4.150118 -0.707106 0.707108 0.000000 102 138 255
-13.066686 34.360783 -38.794308 -0.707106 0.707108 0.000000 102 138 255
-14.205227 33.222244 -38.794308 -0.707106 0.707108 0.000000 102 138 255
-14.205227 33.222244 -4.150118 -0.707106 0.707108 0.000000 102 138 255
-8.929213 33.222244 -4.150118 0.707106 0.707108 0.000000 102 138 255
-8.929213 33.222244 -38.794308 0.707106 0.707108 0.000000 102 138 255
-10.067755 34.360783 -38.794308 0.707106 0.707108 0.000000 102 138 255
-10.067755 34.360783 -4.150118 0.707106 0.707108 0.000000 102 138 255
-10.067755 29.084770 -4.150118 0.707106 -0.707108 0.000000 102 138 255
-10.067755 29.084770 -38.794308 0.707106 -0.707108 0.000000 102 138 255
-8.929213 30.223309 -38.794308 0.707106 -0.707108 0.000000 102 138 255
-8.929213 30.223309 -4.150118 0.707106 -0.707108 0.000000 102 138 255
10.328297 5.092432 -38.595200 -0.707106 -0.707107 0.000000 102 138 255
10.328297 5.092432 -3.951017 -0.707106 -0.707107 0.000000 102 138 255
9.189754 6.230972 -3.951017 -0.707106 -0.707107 0.000000 102 138 255
9.189754 6.230972 -38.595200 -0.707106 -0.707107 0.000000 102 138 255
10.328297 10.368446 -3.951017 -0.707106 0.707107 0.000000 102 138 255
10.328297 10.368446 -38.595200 -0.707106 0.707107 0.000000 102 138 255
9.189754 9.229906 -38.595200 -0.707106 0.707107 0.000000 102 138 255
9.189754 9.229906 -3.951017 -0.707106 0.707107 0.000000 102 138 255
14.465769 9.229906 -3.951017 0.707106 0.707107 0.000000 102 138 255
14.465769 9.229906 -38.595200 0.707106 0.707107 0.000000 102 138 255
13.327228 10.368446 -38.595200 0.707106 0.707107 0.000000 102 138 255
13.327228 10.368446 -3.951017 0.707106 0.707107 0.000000 102 138 255
13.327228 5.092432 -3.951017 0.707106 -0.707107 0.000000 102 138 255
13.327228 5.092432 -38.595200 0.707106 -0.707107 0.000000 102 138 255
14.465769 6.230972 -38.595200 0.707106 -0.707107 0.000000 102 138 255
14.465769 6.230972 -3.951017 0.707106 -0.707107 0.000000 102 138 255
10.328297 28.487415 -38.794308 -0.707107 -0.707107 0.000000 102 138 255
10.328297 28.487415 -4.150124 -0.707107 -0.707107 0.000000 102 138 255
9.189754 29.625957 -4.150124 -0.707107 -0.707107 0.000000 102 138 255
9.189754 29.625957 -38.794308 -0.707107 -0.707107 0.000000 102 138 255
10.328297 33.763432 -4.150124 -0.707107 0.707107 0.000000 102 138 255
10.328297 33.763432 -38.794308 -0.707107 0.707107 0.000000 102 138 255
9.189754 32.624889 -38.794308 -0.707107 0.707107 0.000000 102 138 255
9.189754 32.624889 -4.150124 -0.707107 0.707107 0.000000 102 138 255
14.465769 32.624889 -4.150124 0.707107 0.707107 0.000000 102 138 255
14.465769 32.624889 -38.794308 0.707107 0.707107 0.000000 102 138 255
13.327228 33.763432 -38.794308 0.707107 0.707107 0.000000 102 138 255
13.327228 33.763432 -4.150124 0.707107 0.707107 0.000000 102 138 255
13.327228 28.487415 -4.150124 0.707107 -0.707107 0.000000 102 138 255
13.327228 28.487415 -38.794308 0.707107 -0.707107 0.000000 102 138 255
14.465769 29.625957 -38.794308 0.707107 -0.707107 0.000000 102 138 255
14.465769 29.625957 -4.150124 0.707107 -0.707107 0.000000 102 138 255
-14.205227 6.828323 -38.595200 0.000000 -0.000000 -1.000000 102 138 255
-14.205227 9.827257 -38.595200 0.000000 -0.000000 -1.000000 102 138 255
-13.066686 10.965797 -38.595200 0.000000 -0.000000 -1.000000 102 138 255
-10.067755 10.965797 -38.595200 0.000000 0.000000 -1.000000 102 138 255
-8.929213 9.827257 -38.595200 0.000000 0.000000 -1.000000 102 138 255
-8.929213 6.828323 -38.595200 0.000000 0.000000 -1.000000 102 138 255
-10.067755 5.689783 -38.595200 0.000000 0.000000 -1.000000 102 138 255
-13.066686 5.689783 -38.595200 0.000000 0.000000 -1.000000 102 138 255
4 0 1 2 3
4 4 5 6 7
4 8 9 10 11
4 12 13 14 15
4 16 17 18 19
4 20 21 22 23
4 24 25 26 27
4 28 29 30 31
4 32 33 34 35
4 36 37 38 39
4 40 41 42 43
4 44 45 46 47
4 48 49 50 51
4 52 53 54 55
4 56 57 58 59
4 60 61 62 63
4 64 65 66 67
4 68 69 70 71
4 72 73 74 75
4 76 77 78 79
4 80 81 82 83
4 84 85 86 87
4 88 89 90 91
4 92 93 94 95
4 96 97 98 99
4 100 101 102 103
4 104 105 106 107
4 108 109 110 111
4 112 113 114 115
4 116 117 118 119
4 120 121 122 123
4 124 125 126 127
4 128 129 130 131
4 132 133 134 135
4 136 137 138 139
4 140 141 142 143
4 144 145 146 147
4 148 149 150 151
4 152 153 154 155
4 156 157 158 159
4 160 161 162 163
4 164 165 166 167
4 168 169 170 171
4 172 173 174 175
3 176 177 178
3 178 179 180
3 180 181 182
3 182 183 176
3 176 178 180
3 180 182 176
3 184 185 186
3 186 187 188
3 188 189 190
3 190 191 184
3 184 186 188
3 188 190 184
4 192 193 194 195
4 196 197 198 199
4 200 201 202 203
4 204 205 206 207
3 208 209 210
3 210 211 212
3 212 213 214
3 214 215 208
3 208 210 212
3 212 214 208
3 216 217 218
3 218 219 220
3 220 221 222
3 222 223 216
3 216 218 220
3 220 222 216
4 224 225 226 227
4 228 229 230 231
4 232 233 234 235
4 236 237 238 239
3 240 241 242
3 242 243 244
3 244 245 246
3 246 247 240
3 240 242 244
3 244 246 240
3 248 249 250
3 250 251 252
3 252 253 254
3 254 255 248
3 248 250 252
3 252 254 248
4 256 257 258 259
4 260 261 262 263
4 264 265 266 267
4 268 269 270 271
3 272 273 274
3 274 275 276
3 276 277 278
3 278 279 272
3 272 274 276
3 276 278 272
4 280 281 282 283
4 284 285 286 287
4 288 289 290 291
4 292 293 294 295
4 296 297 298 299
4 300 301 302 303
4 304 305 306 307
4 308 309 310 311
4 312 313 314 315
4 316 317 318 319
4 320 321 322 323
4 324 325 326 327
4 328 329 330 331
4 332 333 334 335
4 336 337 338 339
4 340 341 342 343
4 344 345 346 347
4 348 349 350 351
4 352 353 354 355
4 356 357 358 359
4 360 361 362 363
4 364 365 366 367
4 368 369 370 371
4 372 373 374 375
4 376 377 378 379
4 380 381 382 383
4 384 385 386 387
4 388 389 390 391
4 392 393 394 395
4 396 397 398 399
4 400 401 402 403
4 404 405 406 407
4 408 409 410 411
4 412 413 414 415
4 416 417 418 419
4 420 421 422 423
3 424 425 426
3 426 427 428
3 428 429 430
3 430 431 424
3 424 426 428
3 428 430 424
