ply
format ascii 1.0
comment Created by Blender 2.79 (sub 0) - www.blender.org, source file: 'test0blend.blend'
element vertex 170
property float x
property float y
property float z
property float nx
property float ny
property float nz
property uchar red
property uchar green
property uchar blue
element face 64
property list uchar uint vertex_indices
end_header
7.024828 7.024828 -0.372055 0.000000 0.000000 -1.000000 88 40 255
7.024828 -7.024828 -0.372055 0.000000 0.000000 -1.000000 88 40 255
-7.024829 -7.024827 -0.372055 0.000000 0.000000 -1.000000 88 40 255
-7.024826 7.024831 -0.372055 0.000000 0.000000 -1.000000 88 40 255
7.024832 7.024825 0.372054 0.000000 -0.000000 1.000000 88 40 255
-7.024827 7.024828 0.372054 0.000000 -0.000000 1.000000 88 40 255
-7.024831 -7.024826 0.372054 0.000000 -0.000000 1.000000 88 40 255
7.024824 -7.024833 0.372054 0.000000 -0.000000 1.000000 88 40 255
7.024828 7.024828 -0.372055 1.000000 -0.000000 0.000001 88 40 255
7.024832 7.024825 0.372054 1.000000 -0.000000 0.000001 88 40 255
7.024824 -7.024833 0.372054 1.000000 -0.000000 0.000001 88 40 255
7.024828 -7.024828 -0.372055 1.000000 -0.000000 0.000001 88 40 255
7.024828 -7.024828 -0.372055 -0.000000 -1.000000 -0.000003 88 40 255
7.024824 -7.024833 0.372054 -0.000000 -1.000000 -0.000003 88 40 255
-7.024831 -7.024826 0.372054 -0.000000 -1.000000 -0.000003 88 40 255
-7.024829 -7.024827 -0.372055 -0.000000 -1.000000 -0.000003 88 40 255
-7.024829 -7.024827 -0.372055 -1.000000 0.000000 -0.000002 88 40 255
-7.024831 -7.024826 0.372054 -1.000000 0.000000 -0.000002 88 40 255
-7.024827 7.024828 0.372054 -1.000000 0.000000 -0.000002 88 40 255
-7.024826 7.024831 -0.372055 -1.000000 0.000000 -0.000002 88 40 255
7.024832 7.024825 0.372054 0.000000 1.000000 0.000004 88 40 255
7.024828 7.024828 -0.372055 0.000000 1.000000 0.000004 88 40 255
-7.024826 7.024831 -0.372055 0.000000 1.000000 0.000004 88 40 255
-7.024827 7.024828 0.372054 0.000000 1.000000 0.000004 88 40 255
-5.151071 0.136924 3.083487 -0.983726 -0.179675 0.000000 88 40 255
-5.151071 0.136924 5.980844 -0.983726 -0.179675 0.000000 88 40 255
-6.172155 5.727381 5.980844 -0.983726 -0.179675 0.000000 88 40 255
-6.172155 5.727381 3.083487 -0.983726 -0.179675 0.000000 88 40 255
-1.979312 6.493194 3.083487 -0.179675 0.983726 -0.000000 88 40 255
-1.979313 6.493194 5.980844 -0.179675 0.983726 -0.000000 88 40 255
-0.581698 6.748465 5.980844 -0.179675 0.983726 -0.000000 88 40 255
-0.581698 6.748465 3.083487 -0.179675 0.983726 -0.000000 88 40 255
-0.581698 6.748465 3.083487 0.983726 0.179675 0.000000 88 40 255
-0.581698 6.748465 5.980844 0.983726 0.179675 0.000000 88 40 255
0.439386 1.158008 5.980844 0.983726 0.179675 0.000000 88 40 255
0.439386 1.158008 3.083487 0.983726 0.179675 0.000000 88 40 255
-3.753457 0.392195 3.083487 0.179675 -0.983726 0.000000 88 40 255
-3.753457 0.392195 5.980844 0.179675 -0.983726 0.000000 88 40 255
-5.151071 0.136924 5.980844 0.179675 -0.983726 0.000000 88 40 255
-5.151071 0.136924 3.083487 0.179675 -0.983726 0.000000 88 40 255
-3.753457 0.392195 0.297903 0.000000 -0.000000 -1.000000 88 40 255
-5.151071 0.136924 0.297903 0.000000 -0.000000 -1.000000 88 40 255
-4.796150 0.650468 0.297903 0.000000 -0.000000 -1.000000 88 40 255
-3.615652 0.866083 0.297903 0.000000 -0.000000 -1.000000 88 40 255
-4.774541 5.982652 5.980844 0.000000 -0.000000 1.000000 88 40 255
-6.172155 5.727381 5.980844 0.000000 -0.000000 1.000000 88 40 255
-5.151071 0.136924 5.980844 0.000000 -0.000000 1.000000 88 40 255
-3.753457 0.392195 5.980844 0.000000 -0.000000 1.000000 88 40 255
-0.936619 6.234921 3.036218 -0.983726 -0.179675 0.000000 88 40 255
-0.074158 1.512929 3.036218 -0.983726 -0.179675 0.000000 88 40 255
-0.074158 1.512929 5.774533 -0.983726 -0.179675 0.000000 88 40 255
-0.936619 6.234921 5.774533 -0.983726 -0.179675 0.000000 88 40 255
-1.979312 6.493194 0.297903 0.000000 0.000000 -1.000000 88 40 255
-0.581698 6.748465 0.297903 0.000000 0.000000 -1.000000 88 40 255
-0.936619 6.234921 0.297903 0.000000 0.000000 -1.000000 88 40 255
-2.117117 6.019306 0.297903 0.000000 0.000000 -1.000000 88 40 255
-6.172155 5.727381 0.297903 -0.000000 -0.000000 -1.000000 88 40 255
-5.658611 5.372460 0.297903 -0.000000 -0.000000 -1.000000 88 40 255
0.439386 1.158008 0.297903 0.000000 0.000000 -1.000000 88 40 255
-0.074158 1.512929 0.297903 0.000000 0.000000 -1.000000 88 40 255
-2.117117 6.019306 5.774533 0.000000 0.000000 -1.000000 88 40 255
-0.936619 6.234921 5.774533 0.000000 0.000000 -1.000000 88 40 255
-0.074158 1.512929 5.774533 0.000000 0.000000 -1.000000 88 40 255
-1.254656 1.297314 5.774533 0.000000 0.000000 -1.000000 88 40 255
-4.796150 0.650468 3.036218 0.983726 0.179675 0.000000 88 40 255
-5.658611 5.372460 3.036218 0.983726 0.179675 0.000000 88 40 255
-5.658611 5.372460 5.774533 0.983726 0.179675 0.000000 88 40 255
-4.796150 0.650468 5.774533 0.983726 0.179675 0.000000 88 40 255
-3.615652 0.866083 3.036218 -0.179675 0.983726 0.000000 88 40 255
-4.796150 0.650468 3.036218 -0.179675 0.983726 0.000000 88 40 255
-4.796150 0.650468 5.774533 -0.179675 0.983726 0.000000 88 40 255
-3.615652 0.866083 5.774533 -0.179675 0.983726 0.000000 88 40 255
-2.117117 6.019306 3.036218 0.179675 -0.983726 0.000000 88 40 255
-0.936619 6.234921 3.036218 0.179675 -0.983726 0.000000 88 40 255
-0.936619 6.234921 5.774533 0.179675 -0.983726 0.000000 88 40 255
-2.117117 6.019306 5.774533 0.179675 -0.983726 0.000000 88 40 255
-4.478113 5.588076 3.036218 0.179675 -0.983726 0.000000 88 40 255
-3.297615 5.803691 3.036218 0.179675 -0.983726 0.000000 88 40 255
-3.297615 5.803691 5.774533 0.179675 -0.983726 0.000000 88 40 255
-4.478113 5.588076 5.774533 0.179675 -0.983726 0.000000 88 40 255
-1.254656 1.297314 3.036218 -0.179675 0.983726 0.000000 88 40 255
-2.435154 1.081699 3.036218 -0.179675 0.983726 0.000000 88 40 255
-2.435154 1.081699 5.774533 -0.179675 0.983726 0.000000 88 40 255
-1.254656 1.297314 5.774533 -0.179675 0.983726 0.000000 88 40 255
-4.478113 5.588076 5.774533 0.000000 0.000000 -1.000000 88 40 255
-3.297615 5.803691 5.774533 0.000000 0.000000 -1.000000 88 40 255
-2.435154 1.081699 5.774533 0.000000 0.000000 -1.000000 88 40 255
-3.615652 0.866083 5.774533 0.000000 0.000000 -1.000000 88 40 255
-4.774541 5.982652 0.297903 0.000000 0.000000 -1.000000 88 40 255
-3.376927 6.237923 0.297903 0.000000 0.000000 -1.000000 88 40 255
-3.297615 5.803691 0.297903 0.000000 0.000000 -1.000000 88 40 255
-4.478113 5.588076 0.297903 0.000000 0.000000 -1.000000 88 40 255
-1.979313 6.493194 5.980844 0.000000 -0.000000 1.000000 88 40 255
-3.376927 6.237923 5.980844 0.000000 -0.000000 1.000000 88 40 255
-2.355843 0.647466 5.980844 0.000000 -0.000000 1.000000 88 40 255
-0.958228 0.902737 5.980844 0.000000 -0.000000 1.000000 88 40 255
-0.958228 0.902737 0.297903 -0.000277 -0.002285 0.999997 88 40 255
-1.230289 1.284717 0.299671 -0.000277 -0.002285 0.999997 88 40 255
-2.435154 1.081699 0.297903 -0.000277 -0.002285 0.999997 88 40 255
-2.355843 0.647466 0.297903 -0.000277 -0.002285 0.999997 88 40 255
-0.958228 0.902737 3.083487 0.179675 -0.983726 0.000000 88 40 255
-0.958228 0.902737 5.980844 0.179675 -0.983726 0.000000 88 40 255
-2.355843 0.647466 5.980844 0.179675 -0.983726 0.000000 88 40 255
-2.355843 0.647466 3.083487 0.179675 -0.983726 0.000000 88 40 255
-4.774541 5.982652 3.083487 -0.179675 0.983726 0.000000 88 40 255
-4.774541 5.982652 5.980844 -0.179675 0.983726 0.000000 88 40 255
-3.376927 6.237923 5.980844 -0.179675 0.983726 0.000000 88 40 255
-3.376927 6.237923 3.083487 -0.179675 0.983726 0.000000 88 40 255
0.439386 1.158008 3.083487 0.179675 -0.983726 0.000000 88 40 255
0.439386 1.158008 5.980844 0.179675 -0.983726 0.000000 88 40 255
0.439386 1.158008 0.297903 -0.000954 0.001382 -0.999999 88 40 255
-0.958228 0.902737 0.297903 -0.000954 0.001382 -0.999999 88 40 255
-1.230289 1.284717 0.299671 -0.000954 0.001382 -0.999999 88 40 255
-0.074158 1.512929 0.297903 -0.000954 0.001382 -0.999999 88 40 255
-0.581698 6.748465 5.980844 0.000000 -0.000000 1.000000 88 40 255
0.439386 1.158008 5.980844 0.000000 -0.000000 1.000000 88 40 255
-0.074158 1.512929 3.036218 -0.179675 0.983726 0.000000 88 40 255
-0.074158 1.512929 5.774533 -0.179675 0.983726 0.000000 88 40 255
-6.172155 5.727381 3.083487 -0.179675 0.983726 0.000000 88 40 255
-6.172155 5.727381 5.980844 -0.179675 0.983726 0.000000 88 40 255
-5.658611 5.372460 5.774533 0.000000 0.000000 -1.000000 88 40 255
-4.796150 0.650468 5.774533 0.000000 0.000000 -1.000000 88 40 255
-5.658611 5.372460 3.036218 0.179675 -0.983726 0.000000 88 40 255
-5.658611 5.372460 5.774533 0.179675 -0.983726 0.000000 88 40 255
-2.355843 0.647466 0.297903 -0.000000 0.000000 1.000000 88 40 255
-2.435154 1.081699 0.297903 -0.000000 0.000000 1.000000 88 40 255
-3.615652 0.866083 0.297903 -0.000000 0.000000 1.000000 88 40 255
-3.753457 0.392195 0.297903 -0.000000 0.000000 1.000000 88 40 255
-2.435154 1.081699 3.036218 0.019131 -0.104743 -0.994315 88 40 255
-2.355843 0.647466 3.083487 0.019131 -0.104743 -0.994315 88 40 255
-3.753457 0.392195 3.083487 0.019131 -0.104743 -0.994315 88 40 255
-3.615652 0.866083 3.036218 0.019131 -0.104743 -0.994315 88 40 255
-5.658611 5.372460 0.297903 0.179675 -0.983726 0.000000 88 40 255
-4.478113 5.588076 0.297903 0.179675 -0.983726 0.000000 88 40 255
-3.297615 5.803691 0.297903 0.179675 -0.983726 0.000000 88 40 255
-2.117117 6.019306 0.297903 0.179675 -0.983726 0.000000 88 40 255
-0.074158 1.512929 0.297903 -0.186609 0.982430 -0.003091 88 40 255
-1.230289 1.284717 0.299671 -0.186609 0.982430 -0.003091 88 40 255
-1.254656 1.297314 3.036218 -0.186609 0.982430 -0.003091 88 40 255
-0.074158 1.512929 3.036218 -0.186609 0.982430 -0.003091 88 40 255
-3.753457 0.392195 3.083487 0.960224 -0.279229 0.000000 88 40 255
-3.753457 0.392195 0.297903 0.960224 -0.279229 0.000000 88 40 255
-3.615652 0.866083 0.297903 0.960224 -0.279229 0.000000 88 40 255
-3.615652 0.866083 3.036218 0.960224 -0.279229 0.000000 88 40 255
-0.936619 6.234921 0.297903 0.179675 -0.983726 0.000000 88 40 255
-3.615652 0.866083 0.297903 -0.179675 0.983726 0.000000 88 40 255
-4.796150 0.650468 0.297903 -0.179675 0.983726 0.000000 88 40 255
-4.796150 0.650468 0.297903 0.983726 0.179675 0.000000 88 40 255
-5.658611 5.372460 0.297903 0.983726 0.179675 0.000000 88 40 255
-0.936619 6.234921 0.297903 -0.983726 -0.179675 0.000000 88 40 255
-0.074158 1.512929 0.297903 -0.983726 -0.179675 0.000000 88 40 255
-0.958228 0.902737 3.083487 -0.806830 -0.590780 -0.002213 88 40 255
-1.254656 1.297314 3.036218 -0.806830 -0.590780 -0.002213 88 40 255
-1.230289 1.284717 0.299671 -0.806830 -0.590780 -0.002213 88 40 255
-0.958228 0.902737 0.297903 -0.806830 -0.590780 -0.002213 88 40 255
-6.172155 5.727381 0.297903 -0.179675 0.983726 0.000000 88 40 255
-4.774541 5.982652 0.297903 -0.179675 0.983726 0.000000 88 40 255
-3.376927 6.237923 0.297903 -0.179675 0.983726 -0.000000 88 40 255
-1.979312 6.493194 0.297903 -0.179675 0.983726 -0.000000 88 40 255
0.439386 1.158008 0.297903 0.179675 -0.983726 0.000000 88 40 255
-0.958228 0.902737 0.297903 0.179675 -0.983726 0.000000 88 40 255
-1.254656 1.297314 3.036218 0.019131 -0.104743 -0.994315 88 40 255
-0.958228 0.902737 3.083487 0.019131 -0.104743 -0.994315 88 40 255
-3.753457 0.392195 0.297903 0.179675 -0.983726 0.000000 88 40 255
-5.151071 0.136924 0.297903 0.179675 -0.983726 0.000000 88 40 255
-0.581698 6.748465 0.297903 0.983726 0.179675 0.000000 88 40 255
0.439386 1.158008 0.297903 0.983726 0.179675 0.000000 88 40 255
-0.581698 6.748465 0.297903 -0.179675 0.983726 0.000000 88 40 255
-5.151071 0.136924 0.297903 -0.983726 -0.179675 0.000000 88 40 255
-6.172155 5.727381 0.297903 -0.983726 -0.179675 0.000000 88 40 255
4 0 1 2 3
4 4 5 6 7
4 8 9 10 11
4 12 13 14 15
4 16 17 18 19
4 20 21 22 23
4 24 25 26 27
4 28 29 30 31
4 32 33 34 35
4 36 37 38 39
4 40 41 42 43
4 44 45 46 47
4 48 49 50 51
4 52 53 54 55
4 41 56 57 42
4 53 58 59 54
4 60 61 62 63
4 64 65 66 67
4 68 69 70 71
4 72 73 74 75
4 76 77 78 79
4 80 81 82 83
4 84 85 86 87
4 88 89 90 91
4 92 93 94 95
4 96 97 98 99
4 100 101 102 103
4 104 105 106 107
4 108 109 101 100
4 110 111 112 113
4 114 92 95 115
4 116 80 83 117
4 77 72 75 78
4 85 60 63 86
4 89 52 55 90
4 107 106 29 28
4 118 119 105 104
4 56 88 91 57
4 120 84 87 121
4 122 76 79 123
4 81 68 71 82
4 93 44 47 94
4 124 125 126 127
4 103 102 37 36
4 128 129 130 131
4 132 133 76 122
4 134 135 72 77
4 136 137 138 139
4 140 141 142 143
4 133 134 77 76
4 135 144 73 72
4 145 146 69 68
4 147 148 65 64
4 149 150 49 48
4 151 152 153 154
4 155 118 104 156
4 157 107 28 158
4 159 108 100 160
4 156 104 107 157
4 129 128 161 162
4 163 36 39 164
4 165 32 35 166
4 158 28 31 167
4 168 24 27 169
