ply
format ascii 1.0
comment Created by Blender 2.79 (sub 0) - www.blender.org, source file: 'ued.blend'
element vertex 204
property float x
property float y
property float z
property float nx
property float ny
property float nz
property uchar red
property uchar green
property uchar blue
element face 85
property list uchar uint vertex_indices
end_header
28.000000 28.000000 8.000000 -1.000000 0.000000 0.000000 199 255 183
28.000000 44.000000 8.000000 -1.000000 0.000000 0.000000 199 255 183
28.000000 44.000000 0.000000 -1.000000 0.000000 0.000000 199 255 183
28.000000 28.000000 0.000000 -1.000000 0.000000 0.000000 199 255 183
4.000000 28.000000 0.000000 1.000000 0.000000 0.000000 199 255 183
4.000000 44.000000 0.000000 1.000000 0.000000 0.000000 199 255 183
4.000000 44.000000 8.000000 1.000000 0.000000 0.000000 199 255 183
4.000000 28.000000 8.000000 1.000000 0.000000 0.000000 199 255 183
12.000000 12.000000 0.000000 0.000000 0.000000 1.000000 199 255 183
-4.000000 12.000000 0.000000 0.000000 0.000000 1.000000 199 255 183
-4.000000 -4.000000 0.000000 0.000000 0.000000 1.000000 199 255 183
20.000000 -4.000000 0.000000 0.000000 0.000000 1.000000 199 255 183
20.000000 12.000000 0.000000 0.000000 0.000000 1.000000 199 255 183
36.000000 12.000000 0.000000 0.000000 -0.000000 1.000000 199 255 183
36.000000 -4.000000 0.000000 0.000000 -0.000000 1.000000 199 255 183
52.000000 -4.000000 0.000000 0.000000 -0.000000 1.000000 199 255 183
12.000000 12.000000 0.000000 0.000000 0.000000 0.000000 199 255 183
20.000000 12.000000 0.000000 0.000000 0.000000 0.000000 199 255 183
36.000000 12.000000 0.000000 0.000000 0.000000 0.000000 199 255 183
4.000000 44.000000 0.000000 0.000000 -0.000000 1.000000 199 255 183
4.000000 28.000000 0.000000 0.000000 -0.000000 1.000000 199 255 183
12.000000 28.000000 0.000000 0.000000 -0.000000 1.000000 199 255 183
52.000000 12.000000 0.000000 -0.000000 0.000000 1.000000 199 255 183
44.000000 12.000000 0.000000 -0.000000 0.000000 1.000000 199 255 183
44.000000 20.000000 0.000000 -0.000000 0.000000 1.000000 199 255 183
20.000000 20.000000 0.000000 -0.000000 0.000000 1.000000 199 255 183
20.000000 28.000000 0.000000 0.000000 0.000000 1.000000 199 255 183
28.000000 28.000000 0.000000 0.000000 0.000000 1.000000 199 255 183
28.000000 44.000000 0.000000 0.000000 0.000000 1.000000 199 255 183
-4.000000 -4.000000 8.000000 0.000000 0.000000 1.000000 199 255 183
0.000000 -4.000000 8.000000 0.000000 0.000000 1.000000 199 255 183
0.000000 -2.000000 8.000000 0.000000 0.000000 1.000000 199 255 183
-4.000000 -2.000000 8.000000 0.000000 0.000000 1.000000 199 255 183
20.000000 20.000000 0.000000 0.000000 -1.000000 -0.000000 199 255 183
44.000000 20.000000 0.000000 0.000000 -1.000000 -0.000000 199 255 183
44.000000 20.000000 8.000000 0.000000 -1.000000 -0.000000 199 255 183
20.000000 20.000000 8.000000 0.000000 -1.000000 -0.000000 199 255 183
52.000000 -4.000000 8.000000 -1.000000 0.000000 0.000000 199 255 183
52.000000 12.000000 8.000000 -1.000000 0.000000 0.000000 199 255 183
52.000000 12.000000 0.000000 -1.000000 0.000000 0.000000 199 255 183
52.000000 -4.000000 0.000000 -1.000000 0.000000 0.000000 199 255 183
36.000000 -4.000000 8.000000 1.000000 0.000000 0.000000 199 255 183
36.000000 -4.000000 0.000000 1.000000 0.000000 0.000000 199 255 183
36.000000 12.000000 0.000000 1.000000 0.000000 0.000000 199 255 183
36.000000 12.000000 8.000000 1.000000 0.000000 0.000000 199 255 183
20.000000 12.000000 0.000000 0.000000 1.000000 0.000000 199 255 183
20.000000 12.000000 8.000000 0.000000 1.000000 0.000000 199 255 183
36.000000 12.000000 8.000000 0.000000 1.000000 0.000000 199 255 183
36.000000 12.000000 0.000000 0.000000 1.000000 0.000000 199 255 183
20.000000 20.000000 8.000000 -1.000000 0.000000 0.000000 199 255 183
20.000000 28.000000 8.000000 -1.000000 0.000000 0.000000 199 255 183
20.000000 28.000000 0.000000 -1.000000 0.000000 0.000000 199 255 183
20.000000 20.000000 0.000000 -1.000000 0.000000 0.000000 199 255 183
44.000000 12.000000 8.000000 -1.000000 0.000000 0.000000 199 255 183
44.000000 20.000000 8.000000 -1.000000 0.000000 0.000000 199 255 183
44.000000 20.000000 0.000000 -1.000000 0.000000 0.000000 199 255 183
44.000000 12.000000 0.000000 -1.000000 0.000000 0.000000 199 255 183
36.000000 -4.000000 16.000000 0.000000 1.000000 -0.000000 199 255 183
52.000000 -4.000000 16.000000 0.000000 1.000000 -0.000000 199 255 183
52.000000 -4.000000 8.000000 0.000000 1.000000 -0.000000 199 255 183
52.000000 -4.000000 0.000000 0.000000 1.000000 0.000000 199 255 183
36.000000 -4.000000 0.000000 0.000000 1.000000 0.000000 199 255 183
36.000000 -4.000000 8.000000 0.000000 1.000000 0.000000 199 255 183
-4.000000 -4.000000 0.000000 1.000000 0.000000 0.000000 199 255 183
-4.000000 12.000000 0.000000 1.000000 0.000000 0.000000 199 255 183
-4.000000 12.000000 8.000000 1.000000 0.000000 0.000000 199 255 183
-4.000000 -4.000000 8.000000 1.000000 0.000000 0.000000 199 255 183
-4.000000 -4.000000 0.000000 0.000000 1.000000 -0.000000 199 255 183
-4.000000 -4.000000 8.000000 0.000000 1.000000 -0.000000 199 255 183
20.000000 -4.000000 8.000000 0.000000 1.000000 -0.000000 199 255 183
20.000000 -4.000000 0.000000 0.000000 1.000000 -0.000000 199 255 183
20.000000 -4.000000 8.000000 -1.000000 0.000000 0.000000 199 255 183
20.000000 12.000000 8.000000 -1.000000 0.000000 0.000000 199 255 183
20.000000 12.000000 0.000000 -1.000000 0.000000 0.000000 199 255 183
20.000000 -4.000000 0.000000 -1.000000 0.000000 0.000000 199 255 183
44.000000 12.000000 0.000000 0.000000 -1.000000 -0.000000 199 255 183
52.000000 12.000000 0.000000 0.000000 -1.000000 -0.000000 199 255 183
52.000000 12.000000 8.000000 0.000000 -1.000000 -0.000000 199 255 183
44.000000 12.000000 8.000000 0.000000 -1.000000 -0.000000 199 255 183
20.000000 28.000000 0.000000 0.000000 1.000000 0.000000 199 255 183
20.000000 28.000000 8.000000 0.000000 1.000000 0.000000 199 255 183
28.000000 28.000000 8.000000 0.000000 1.000000 0.000000 199 255 183
28.000000 28.000000 0.000000 0.000000 1.000000 0.000000 199 255 183
4.000000 28.000000 0.000000 0.000000 1.000000 0.000000 199 255 183
4.000000 28.000000 8.000000 0.000000 1.000000 0.000000 199 255 183
12.000000 28.000000 8.000000 0.000000 1.000000 0.000000 199 255 183
12.000000 28.000000 0.000000 0.000000 1.000000 0.000000 199 255 183
12.000000 12.000000 0.000000 1.000000 0.000000 0.000000 199 255 183
12.000000 28.000000 0.000000 1.000000 0.000000 0.000000 199 255 183
12.000000 28.000000 8.000000 1.000000 0.000000 0.000000 199 255 183
12.000000 12.000000 8.000000 1.000000 0.000000 0.000000 199 255 183
4.000000 44.000000 0.000000 0.000000 -1.000000 -0.000000 199 255 183
28.000000 44.000000 0.000000 0.000000 -1.000000 -0.000000 199 255 183
28.000000 44.000000 8.000000 0.000000 -1.000000 -0.000000 199 255 183
4.000000 44.000000 8.000000 0.000000 -1.000000 -0.000000 199 255 183
-4.000000 12.000000 8.000000 -0.000000 0.000000 1.000000 199 255 183
-20.000000 12.000000 8.000000 -0.000000 0.000000 1.000000 199 255 183
-20.000000 -20.000000 8.000000 0.000000 0.000000 1.000000 199 255 183
36.000000 -20.000000 8.000000 0.000000 0.000000 1.000000 199 255 183
36.000000 -4.000000 8.000000 0.000000 0.000000 1.000000 199 255 183
36.000000 12.000000 8.000000 -0.000000 0.000000 1.000000 199 255 183
20.000000 12.000000 8.000000 -0.000000 0.000000 1.000000 199 255 183
20.000000 -4.000000 8.000000 -0.000000 0.000000 1.000000 199 255 183
36.000000 -20.000000 16.000000 -1.000000 0.000000 0.000000 199 255 183
36.000000 -4.000000 16.000000 -1.000000 0.000000 0.000000 199 255 183
36.000000 -4.000000 8.000000 -1.000000 0.000000 0.000000 199 255 183
36.000000 -20.000000 8.000000 -1.000000 0.000000 0.000000 199 255 183
-20.000000 -20.000000 16.000000 1.000000 0.000000 0.000000 199 255 183
-20.000000 -20.000000 8.000000 1.000000 0.000000 0.000000 199 255 183
-20.000000 12.000000 8.000000 1.000000 0.000000 0.000000 199 255 183
-20.000000 12.000000 16.000000 1.000000 0.000000 0.000000 199 255 183
-20.000000 -20.000000 8.000000 0.000000 1.000000 0.000000 199 255 183
-20.000000 -20.000000 16.000000 0.000000 1.000000 0.000000 199 255 183
36.000000 -20.000000 16.000000 0.000000 1.000000 0.000000 199 255 183
36.000000 -20.000000 8.000000 0.000000 1.000000 0.000000 199 255 183
0.000000 -4.000000 7.000000 0.000000 0.000000 1.000000 199 255 183
2.000000 -4.000000 7.000000 0.000000 0.000000 1.000000 199 255 183
2.000000 -2.000000 7.000000 0.000000 0.000000 1.000000 199 255 183
0.000000 -2.000000 7.000000 0.000000 0.000000 1.000000 199 255 183
2.000000 -4.000000 6.000000 0.000000 0.000000 1.000000 199 255 183
4.000000 -4.000000 6.000000 0.000000 0.000000 1.000000 199 255 183
4.000000 -2.000000 6.000000 0.000000 0.000000 1.000000 199 255 183
2.000000 -2.000000 6.000000 0.000000 0.000000 1.000000 199 255 183
4.000000 -4.000000 5.000000 0.000000 0.000000 1.000000 199 255 183
6.000000 -4.000000 5.000000 0.000000 0.000000 1.000000 199 255 183
6.000000 -2.000000 5.000000 0.000000 0.000000 1.000000 199 255 183
4.000000 -2.000000 5.000000 0.000000 0.000000 1.000000 199 255 183
6.000000 -4.000000 4.000000 0.000000 0.000000 1.000000 199 255 183
8.000000 -4.000000 4.000000 0.000000 0.000000 1.000000 199 255 183
8.000000 -2.000000 4.000000 0.000000 0.000000 1.000000 199 255 183
6.000000 -2.000000 4.000000 0.000000 0.000000 1.000000 199 255 183
8.000000 -4.000000 3.000000 0.000000 0.000000 1.000000 199 255 183
10.000000 -4.000000 3.000000 0.000000 0.000000 1.000000 199 255 183
10.000000 -2.000000 3.000000 0.000000 0.000000 1.000000 199 255 183
8.000000 -2.000000 3.000000 0.000000 0.000000 1.000000 199 255 183
10.000000 -4.000000 2.000000 0.000000 0.000000 1.000000 199 255 183
12.000000 -4.000000 2.000000 0.000000 0.000000 1.000000 199 255 183
12.000000 -2.000000 2.000000 0.000000 0.000000 1.000000 199 255 183
10.000000 -2.000000 2.000000 0.000000 0.000000 1.000000 199 255 183
12.000000 -4.000000 1.000000 0.000000 0.000000 1.000000 199 255 183
14.000000 -4.000000 1.000000 0.000000 0.000000 1.000000 199 255 183
14.000000 -2.000000 1.000000 0.000000 0.000000 1.000000 199 255 183
12.000000 -2.000000 1.000000 0.000000 0.000000 1.000000 199 255 183
0.000000 -4.000000 8.000000 1.000000 0.000000 0.000000 199 255 183
0.000000 -4.000000 7.000000 1.000000 0.000000 0.000000 199 255 183
0.000000 -2.000000 7.000000 1.000000 0.000000 0.000000 199 255 183
0.000000 -2.000000 8.000000 1.000000 0.000000 0.000000 199 255 183
2.000000 -4.000000 7.000000 1.000000 0.000000 0.000000 199 255 183
2.000000 -4.000000 6.000000 1.000000 0.000000 0.000000 199 255 183
2.000000 -2.000000 6.000000 1.000000 0.000000 0.000000 199 255 183
2.000000 -2.000000 7.000000 1.000000 0.000000 0.000000 199 255 183
4.000000 -4.000000 6.000000 1.000000 0.000000 0.000000 199 255 183
4.000000 -4.000000 5.000000 1.000000 0.000000 0.000000 199 255 183
4.000000 -2.000000 5.000000 1.000000 0.000000 0.000000 199 255 183
4.000000 -2.000000 6.000000 1.000000 0.000000 0.000000 199 255 183
6.000000 -4.000000 5.000000 1.000000 0.000000 0.000000 199 255 183
6.000000 -4.000000 4.000000 1.000000 0.000000 0.000000 199 255 183
6.000000 -2.000000 4.000000 1.000000 0.000000 0.000000 199 255 183
6.000000 -2.000000 5.000000 1.000000 0.000000 0.000000 199 255 183
8.000000 -4.000000 4.000000 1.000000 0.000000 0.000000 199 255 183
8.000000 -4.000000 3.000000 1.000000 0.000000 0.000000 199 255 183
8.000000 -2.000000 3.000000 1.000000 0.000000 0.000000 199 255 183
8.000000 -2.000000 4.000000 1.000000 0.000000 0.000000 199 255 183
10.000000 -4.000000 3.000000 1.000000 0.000000 0.000000 199 255 183
10.000000 -4.000000 2.000000 1.000000 0.000000 0.000000 199 255 183
10.000000 -2.000000 2.000000 1.000000 0.000000 0.000000 199 255 183
10.000000 -2.000000 3.000000 1.000000 0.000000 0.000000 199 255 183
12.000000 -4.000000 2.000000 1.000000 0.000000 0.000000 199 255 183
12.000000 -4.000000 1.000000 1.000000 0.000000 0.000000 199 255 183
12.000000 -2.000000 1.000000 1.000000 0.000000 0.000000 199 255 183
12.000000 -2.000000 2.000000 1.000000 0.000000 0.000000 199 255 183
14.000000 -4.000000 1.000000 1.000000 0.000000 0.000000 199 255 183
14.000000 -4.000000 0.000000 1.000000 0.000000 0.000000 199 255 183
14.000000 -2.000000 0.000000 1.000000 0.000000 0.000000 199 255 183
14.000000 -2.000000 1.000000 1.000000 0.000000 0.000000 199 255 183
14.000000 -2.000000 1.000000 -0.000000 1.000000 0.000000 199 255 183
14.000000 -2.000000 0.000000 -0.000000 1.000000 0.000000 199 255 183
12.000000 -2.000000 0.000000 -0.000000 1.000000 0.000000 199 255 183
12.000000 -2.000000 1.000000 -0.000000 1.000000 0.000000 199 255 183
12.000000 12.000000 8.000000 0.000000 -1.000000 0.000000 199 255 183
12.000000 12.000000 16.000000 0.000000 -1.000000 0.000000 199 255 183
-20.000000 12.000000 16.000000 0.000000 -1.000000 0.000000 199 255 183
-20.000000 12.000000 8.000000 0.000000 -1.000000 0.000000 199 255 183
-4.000000 12.000000 8.000000 0.000000 -1.000000 0.000000 199 255 183
-4.000000 12.000000 0.000000 0.000000 -1.000000 0.000000 199 255 183
12.000000 12.000000 0.000000 0.000000 -1.000000 0.000000 199 255 183
12.000000 -2.000000 2.000000 0.000000 1.000000 0.000000 199 255 183
-4.000000 -2.000000 0.000000 0.000000 1.000000 0.000000 199 255 183
-4.000000 -2.000000 8.000000 0.000000 1.000000 0.000000 199 255 183
0.000000 -2.000000 8.000000 0.000000 1.000000 0.000000 199 255 183
0.000000 -2.000000 6.000000 0.000000 1.000000 0.000000 199 255 183
0.000000 -2.000000 7.000000 0.000000 1.000000 0.000000 199 255 183
2.000000 -2.000000 7.000000 0.000000 1.000000 0.000000 199 255 183
10.000000 -2.000000 2.000000 0.000000 1.000000 -0.000000 199 255 183
8.000000 -2.000000 3.000000 0.000000 1.000000 -0.000000 199 255 183
10.000000 -2.000000 3.000000 0.000000 1.000000 -0.000000 199 255 183
6.000000 -2.000000 4.000000 0.000000 1.000000 -0.000000 199 255 183
8.000000 -2.000000 4.000000 0.000000 1.000000 -0.000000 199 255 183
8.000000 -2.000000 2.000000 0.000000 1.000000 -0.000000 199 255 183
2.000000 -2.000000 6.000000 0.000000 1.000000 -0.000000 199 255 183
4.000000 -2.000000 6.000000 0.000000 1.000000 -0.000000 199 255 183
4.000000 -2.000000 4.000000 0.000000 1.000000 -0.000000 199 255 183
4.000000 -2.000000 5.000000 0.000000 1.000000 -0.000000 199 255 183
6.000000 -2.000000 5.000000 0.000000 1.000000 -0.000000 199 255 183
4 0 1 2 3
4 4 5 6 7
3 8 9 10
3 10 11 12
3 13 14 15
3 8 10 12
3 16 17 18
3 19 20 21
3 15 22 23
3 23 24 25
3 26 27 28
3 26 28 19
3 26 19 21
3 25 26 21
3 13 15 23
3 25 21 8
3 13 23 25
3 13 25 8
4 29 30 31 32
4 33 34 35 36
4 37 38 39 40
4 41 42 43 44
4 45 46 47 48
4 49 50 51 52
4 53 54 55 56
3 57 58 59
3 59 60 61
3 62 57 59
3 59 61 62
4 63 64 65 66
4 67 68 69 70
4 71 72 73 74
4 75 76 77 78
4 79 80 81 82
4 83 84 85 86
4 87 88 89 90
4 91 92 93 94
3 29 95 96
3 97 98 99
3 99 100 101
3 99 101 102
3 29 96 97
3 97 99 102
3 29 97 102
4 103 104 105 106
4 107 108 109 110
4 111 112 113 114
4 115 116 117 118
4 119 120 121 122
4 123 124 125 126
4 127 128 129 130
4 131 132 133 134
4 135 136 137 138
4 139 140 141 142
4 143 144 145 146
4 147 148 149 150
4 151 152 153 154
4 155 156 157 158
4 159 160 161 162
4 163 164 165 166
4 167 168 169 170
4 171 172 173 174
4 175 176 177 178
3 179 180 181
3 181 182 183
3 183 184 185
3 179 181 183
3 183 185 179
3 186 177 187
3 187 188 189
3 190 191 192
3 187 189 190
3 193 186 187
3 194 195 193
3 196 197 198
3 198 194 193
3 187 190 192
3 199 200 201
3 187 192 199
3 198 193 187
3 202 203 196
3 196 198 187
3 187 199 201
3 201 202 196
3 187 201 196
