ply
format ascii 1.0
comment Created by Blender 2.79 (sub 0) - www.blender.org, source file: 'ued.blend'
element vertex 201
property float x
property float y
property float z
property float nx
property float ny
property float nz
property uchar red
property uchar green
property uchar blue
element face 121
property list uchar uint vertex_indices
end_header
28.000000 44.000000 8.000000 -1.000000 0.000000 0.000000 199 255 183
28.000000 28.000000 0.000000 -1.000000 0.000000 0.000000 199 255 183
28.000000 28.000000 8.000000 -1.000000 0.000000 0.000000 199 255 183
4.000000 44.000000 0.000000 1.000000 -0.000000 0.000000 199 255 183
4.000000 28.000000 8.000000 1.000000 -0.000000 0.000000 199 255 183
4.000000 28.000000 0.000000 1.000000 -0.000000 0.000000 199 255 183
36.000000 12.000000 0.000000 -0.000000 0.000000 1.000000 199 255 183
20.000000 20.000000 0.000000 -0.000000 0.000000 1.000000 199 255 183
20.000000 12.000000 0.000000 -0.000000 0.000000 1.000000 199 255 183
0.000000 -4.000000 8.000000 -0.000000 0.000000 1.000000 199 255 183
-4.000000 -2.000000 8.000000 -0.000000 0.000000 1.000000 199 255 183
-4.000000 -4.000000 8.000000 -0.000000 0.000000 1.000000 199 255 183
44.000000 20.000000 0.000000 0.000000 -1.000000 0.000000 199 255 183
20.000000 20.000000 8.000000 0.000000 -1.000000 0.000000 199 255 183
20.000000 20.000000 0.000000 0.000000 -1.000000 0.000000 199 255 183
52.000000 12.000000 8.000000 -1.000000 0.000000 0.000000 199 255 183
52.000000 -4.000000 0.000000 -1.000000 0.000000 0.000000 199 255 183
52.000000 -4.000000 8.000000 -1.000000 0.000000 0.000000 199 255 183
36.000000 -4.000000 0.000000 1.000000 -0.000000 0.000000 199 255 183
36.000000 12.000000 8.000000 1.000000 -0.000000 0.000000 199 255 183
36.000000 -4.000000 8.000000 1.000000 -0.000000 0.000000 199 255 183
20.000000 12.000000 8.000000 0.000000 1.000000 -0.000000 199 255 183
36.000000 12.000000 0.000000 0.000000 1.000000 -0.000000 199 255 183
20.000000 12.000000 0.000000 0.000000 1.000000 -0.000000 199 255 183
20.000000 28.000000 8.000000 -1.000000 0.000000 0.000000 199 255 183
20.000000 20.000000 0.000000 -1.000000 0.000000 0.000000 199 255 183
20.000000 20.000000 8.000000 -1.000000 0.000000 0.000000 199 255 183
44.000000 20.000000 8.000000 -1.000000 0.000000 0.000000 199 255 183
44.000000 12.000000 0.000000 -1.000000 0.000000 0.000000 199 255 183
44.000000 12.000000 8.000000 -1.000000 0.000000 0.000000 199 255 183
52.000000 -4.000000 8.000000 -0.000000 1.000000 0.000000 199 255 183
36.000000 -4.000000 0.000000 -0.000000 1.000000 0.000000 199 255 183
36.000000 -4.000000 8.000000 -0.000000 1.000000 0.000000 199 255 183
-4.000000 12.000000 0.000000 1.000000 -0.000000 0.000000 199 255 183
-4.000000 -4.000000 8.000000 1.000000 -0.000000 0.000000 199 255 183
-4.000000 -4.000000 0.000000 1.000000 -0.000000 0.000000 199 255 183
-4.000000 -4.000000 8.000000 0.000000 1.000000 -0.000000 199 255 183
20.000000 -4.000000 0.000000 0.000000 1.000000 -0.000000 199 255 183
-4.000000 -4.000000 0.000000 0.000000 1.000000 -0.000000 199 255 183
20.000000 12.000000 8.000000 -1.000000 0.000000 0.000000 199 255 183
20.000000 -4.000000 0.000000 -1.000000 0.000000 0.000000 199 255 183
20.000000 -4.000000 8.000000 -1.000000 0.000000 0.000000 199 255 183
52.000000 12.000000 0.000000 0.000000 -1.000000 0.000000 199 255 183
44.000000 12.000000 8.000000 0.000000 -1.000000 0.000000 199 255 183
44.000000 12.000000 0.000000 0.000000 -1.000000 0.000000 199 255 183
20.000000 28.000000 8.000000 0.000000 1.000000 -0.000000 199 255 183
28.000000 28.000000 0.000000 0.000000 1.000000 -0.000000 199 255 183
20.000000 28.000000 0.000000 0.000000 1.000000 -0.000000 199 255 183
4.000000 28.000000 8.000000 0.000000 1.000000 -0.000000 199 255 183
12.000000 28.000000 0.000000 0.000000 1.000000 -0.000000 199 255 183
4.000000 28.000000 0.000000 0.000000 1.000000 -0.000000 199 255 183
12.000000 28.000000 0.000000 1.000000 -0.000000 0.000000 199 255 183
12.000000 12.000000 8.000000 1.000000 -0.000000 0.000000 199 255 183
12.000000 12.000000 0.000000 1.000000 -0.000000 0.000000 199 255 183
28.000000 44.000000 0.000000 0.000000 -1.000000 0.000000 199 255 183
4.000000 44.000000 8.000000 0.000000 -1.000000 0.000000 199 255 183
4.000000 44.000000 0.000000 0.000000 -1.000000 0.000000 199 255 183
-20.000000 -20.000000 8.000000 0.000000 -0.000000 1.000000 199 255 183
20.000000 -4.000000 8.000000 0.000000 -0.000000 1.000000 199 255 183
36.000000 -4.000000 16.000000 -1.000000 0.000000 0.000000 199 255 183
36.000000 -20.000000 8.000000 -1.000000 0.000000 0.000000 199 255 183
36.000000 -20.000000 16.000000 -1.000000 0.000000 0.000000 199 255 183
-20.000000 -20.000000 8.000000 1.000000 -0.000000 0.000000 199 255 183
-20.000000 12.000000 16.000000 1.000000 -0.000000 0.000000 199 255 183
-20.000000 -20.000000 16.000000 1.000000 -0.000000 0.000000 199 255 183
-20.000000 -20.000000 16.000000 0.000000 1.000000 -0.000000 199 255 183
36.000000 -20.000000 8.000000 0.000000 1.000000 -0.000000 199 255 183
-20.000000 -20.000000 8.000000 0.000000 1.000000 -0.000000 199 255 183
2.000000 -4.000000 7.000000 -0.000000 0.000000 1.000000 199 255 183
0.000000 -2.000000 7.000000 -0.000000 0.000000 1.000000 199 255 183
0.000000 -4.000000 7.000000 -0.000000 0.000000 1.000000 199 255 183
4.000000 -4.000000 6.000000 -0.000000 0.000000 1.000000 199 255 183
2.000000 -2.000000 6.000000 -0.000000 0.000000 1.000000 199 255 183
2.000000 -4.000000 6.000000 -0.000000 0.000000 1.000000 199 255 183
6.000000 -4.000000 5.000000 -0.000000 0.000000 1.000000 199 255 183
4.000000 -2.000000 5.000000 -0.000000 0.000000 1.000000 199 255 183
4.000000 -4.000000 5.000000 -0.000000 0.000000 1.000000 199 255 183
8.000000 -4.000000 4.000000 -0.000000 0.000000 1.000000 199 255 183
6.000000 -2.000000 4.000000 -0.000000 0.000000 1.000000 199 255 183
6.000000 -4.000000 4.000000 -0.000000 0.000000 1.000000 199 255 183
10.000000 -4.000000 3.000000 -0.000000 0.000000 1.000000 199 255 183
8.000000 -2.000000 3.000000 -0.000000 0.000000 1.000000 199 255 183
8.000000 -4.000000 3.000000 -0.000000 0.000000 1.000000 199 255 183
12.000000 -4.000000 2.000000 -0.000000 0.000000 1.000000 199 255 183
10.000000 -2.000000 2.000000 -0.000000 0.000000 1.000000 199 255 183
10.000000 -4.000000 2.000000 -0.000000 0.000000 1.000000 199 255 183
14.000000 -4.000000 1.000000 -0.000000 0.000000 1.000000 199 255 183
12.000000 -2.000000 1.000000 -0.000000 0.000000 1.000000 199 255 183
12.000000 -4.000000 1.000000 -0.000000 0.000000 1.000000 199 255 183
0.000000 -4.000000 7.000000 1.000000 -0.000000 0.000000 199 255 183
0.000000 -2.000000 8.000000 1.000000 -0.000000 0.000000 199 255 183
0.000000 -4.000000 8.000000 1.000000 -0.000000 0.000000 199 255 183
2.000000 -4.000000 6.000000 1.000000 -0.000000 0.000000 199 255 183
2.000000 -2.000000 7.000000 1.000000 -0.000000 0.000000 199 255 183
2.000000 -4.000000 7.000000 1.000000 -0.000000 0.000000 199 255 183
4.000000 -4.000000 5.000000 1.000000 -0.000000 0.000000 199 255 183
4.000000 -2.000000 6.000000 1.000000 -0.000000 0.000000 199 255 183
4.000000 -4.000000 6.000000 1.000000 -0.000000 0.000000 199 255 183
6.000000 -4.000000 4.000000 1.000000 -0.000000 0.000000 199 255 183
6.000000 -2.000000 5.000000 1.000000 -0.000000 0.000000 199 255 183
6.000000 -4.000000 5.000000 1.000000 -0.000000 0.000000 199 255 183
8.000000 -4.000000 3.000000 1.000000 -0.000000 0.000000 199 255 183
8.000000 -2.000000 4.000000 1.000000 -0.000000 0.000000 199 255 183
8.000000 -4.000000 4.000000 1.000000 -0.000000 0.000000 199 255 183
10.000000 -4.000000 2.000000 1.000000 -0.000000 0.000000 199 255 183
10.000000 -2.000000 3.000000 1.000000 -0.000000 0.000000 199 255 183
10.000000 -4.000000 3.000000 1.000000 -0.000000 0.000000 199 255 183
12.000000 -4.000000 1.000000 1.000000 -0.000000 0.000000 199 255 183
12.000000 -2.000000 2.000000 1.000000 -0.000000 0.000000 199 255 183
12.000000 -4.000000 2.000000 1.000000 -0.000000 0.000000 199 255 183
14.000000 -4.000000 0.000000 1.000000 -0.000000 0.000000 199 255 183
14.000000 -2.000000 1.000000 1.000000 -0.000000 0.000000 199 255 183
14.000000 -4.000000 1.000000 1.000000 -0.000000 0.000000 199 255 183
14.000000 -2.000000 0.000000 0.000000 1.000000 0.000000 199 255 183
12.000000 -2.000000 1.000000 0.000000 1.000000 0.000000 199 255 183
14.000000 -2.000000 1.000000 0.000000 1.000000 0.000000 199 255 183
-4.000000 12.000000 8.000000 -0.000000 -1.000000 -0.000000 199 255 183
12.000000 12.000000 0.000000 -0.000000 -1.000000 -0.000000 199 255 183
12.000000 12.000000 8.000000 -0.000000 -1.000000 -0.000000 199 255 183
-4.000000 -2.000000 0.000000 0.000000 1.000000 0.000000 199 255 183
4.000000 -2.000000 4.000000 0.000000 1.000000 0.000000 199 255 183
8.000000 -2.000000 2.000000 0.000000 1.000000 0.000000 199 255 183
28.000000 44.000000 0.000000 -1.000000 0.000000 0.000000 199 255 183
4.000000 44.000000 8.000000 1.000000 -0.000000 0.000000 199 255 183
12.000000 12.000000 0.000000 0.000000 0.000000 1.000000 199 255 183
-4.000000 12.000000 0.000000 0.000000 0.000000 1.000000 199 255 183
-4.000000 -4.000000 0.000000 0.000000 0.000000 1.000000 199 255 183
20.000000 -4.000000 0.000000 0.000000 0.000000 1.000000 199 255 183
36.000000 -4.000000 0.000000 0.000000 -0.000000 1.000000 199 255 183
44.000000 12.000000 0.000000 0.000000 -0.000000 1.000000 199 255 183
4.000000 44.000000 0.000000 0.000000 -0.000000 1.000000 199 255 183
4.000000 28.000000 0.000000 0.000000 -0.000000 1.000000 199 255 183
12.000000 28.000000 0.000000 0.000000 -0.000000 1.000000 199 255 183
52.000000 -4.000000 0.000000 -0.000000 0.000000 1.000000 199 255 183
52.000000 12.000000 0.000000 -0.000000 0.000000 1.000000 199 255 183
44.000000 20.000000 0.000000 -0.000000 0.000000 1.000000 199 255 183
20.000000 28.000000 0.000000 0.000000 0.000000 1.000000 199 255 183
28.000000 28.000000 0.000000 0.000000 0.000000 1.000000 199 255 183
28.000000 44.000000 0.000000 0.000000 0.000000 1.000000 199 255 183
0.000000 -2.000000 8.000000 -0.000000 0.000000 1.000000 199 255 183
44.000000 20.000000 8.000000 0.000000 -1.000000 0.000000 199 255 183
52.000000 12.000000 0.000000 -1.000000 0.000000 0.000000 199 255 183
36.000000 12.000000 0.000000 1.000000 0.000000 0.000000 199 255 183
36.000000 12.000000 8.000000 0.000000 1.000000 -0.000000 199 255 183
20.000000 28.000000 0.000000 -1.000000 0.000000 0.000000 199 255 183
44.000000 20.000000 0.000000 -1.000000 0.000000 0.000000 199 255 183
36.000000 -4.000000 16.000000 0.000000 1.000000 -0.000000 199 255 183
52.000000 -4.000000 16.000000 0.000000 1.000000 -0.000000 199 255 183
52.000000 -4.000000 0.000000 0.000000 1.000000 0.000000 199 255 183
-4.000000 12.000000 8.000000 1.000000 -0.000000 0.000000 199 255 183
20.000000 -4.000000 8.000000 0.000000 1.000000 -0.000000 199 255 183
20.000000 12.000000 0.000000 -1.000000 0.000000 0.000000 199 255 183
52.000000 12.000000 8.000000 0.000000 -1.000000 0.000000 199 255 183
28.000000 28.000000 8.000000 0.000000 1.000000 -0.000000 199 255 183
12.000000 28.000000 8.000000 0.000000 1.000000 -0.000000 199 255 183
12.000000 28.000000 8.000000 1.000000 -0.000000 0.000000 199 255 183
28.000000 44.000000 8.000000 0.000000 -1.000000 0.000000 199 255 183
-4.000000 12.000000 8.000000 -0.000000 0.000000 1.000000 199 255 183
-20.000000 12.000000 8.000000 -0.000000 0.000000 1.000000 199 255 183
36.000000 -20.000000 8.000000 0.000000 0.000000 1.000000 199 255 183
36.000000 -4.000000 8.000000 -0.000000 0.000000 1.000000 199 255 183
36.000000 12.000000 8.000000 -0.000000 0.000000 1.000000 199 255 183
20.000000 12.000000 8.000000 -0.000000 0.000000 1.000000 199 255 183
36.000000 -4.000000 8.000000 -1.000000 0.000000 0.000000 199 255 183
-20.000000 12.000000 8.000000 1.000000 0.000000 0.000000 199 255 183
36.000000 -20.000000 16.000000 0.000000 1.000000 -0.000000 199 255 183
2.000000 -2.000000 7.000000 -0.000000 0.000000 1.000000 199 255 183
4.000000 -2.000000 6.000000 -0.000000 0.000000 1.000000 199 255 183
6.000000 -2.000000 5.000000 -0.000000 0.000000 1.000000 199 255 183
8.000000 -2.000000 4.000000 -0.000000 0.000000 1.000000 199 255 183
10.000000 -2.000000 3.000000 -0.000000 0.000000 1.000000 199 255 183
12.000000 -2.000000 2.000000 -0.000000 0.000000 1.000000 199 255 183
14.000000 -2.000000 1.000000 -0.000000 0.000000 1.000000 199 255 183
0.000000 -2.000000 7.000000 1.000000 0.000000 0.000000 199 255 183
2.000000 -2.000000 6.000000 1.000000 0.000000 0.000000 199 255 183
4.000000 -2.000000 5.000000 1.000000 0.000000 0.000000 199 255 183
6.000000 -2.000000 4.000000 1.000000 0.000000 0.000000 199 255 183
8.000000 -2.000000 3.000000 1.000000 0.000000 0.000000 199 255 183
10.000000 -2.000000 2.000000 1.000000 0.000000 0.000000 199 255 183
12.000000 -2.000000 1.000000 1.000000 0.000000 0.000000 199 255 183
14.000000 -2.000000 0.000000 1.000000 0.000000 0.000000 199 255 183
12.000000 -2.000000 0.000000 0.000000 1.000000 0.000000 199 255 183
12.000000 12.000000 16.000000 0.000000 -1.000000 0.000000 199 255 183
-20.000000 12.000000 16.000000 0.000000 -1.000000 0.000000 199 255 183
-20.000000 12.000000 8.000000 0.000000 -1.000000 0.000000 199 255 183
-4.000000 12.000000 0.000000 0.000000 -1.000000 0.000000 199 255 183
12.000000 -2.000000 2.000000 -0.000000 1.000000 0.000000 199 255 183
10.000000 -2.000000 2.000000 -0.000000 1.000000 0.000000 199 255 183
-4.000000 -2.000000 8.000000 0.000000 1.000000 0.000000 199 255 183
0.000000 -2.000000 6.000000 0.000000 1.000000 0.000000 199 255 183
0.000000 -2.000000 7.000000 0.000000 1.000000 0.000000 199 255 183
2.000000 -2.000000 7.000000 0.000000 1.000000 0.000000 199 255 183
0.000000 -2.000000 8.000000 0.000000 1.000000 -0.000000 199 255 183
8.000000 -2.000000 3.000000 0.000000 1.000000 -0.000000 199 255 183
10.000000 -2.000000 3.000000 0.000000 1.000000 -0.000000 199 255 183
6.000000 -2.000000 4.000000 0.000000 1.000000 -0.000000 199 255 183
8.000000 -2.000000 4.000000 0.000000 1.000000 -0.000000 199 255 183
2.000000 -2.000000 6.000000 0.000000 1.000000 -0.000000 199 255 183
4.000000 -2.000000 6.000000 0.000000 1.000000 -0.000000 199 255 183
4.000000 -2.000000 5.000000 0.000000 1.000000 -0.000000 199 255 183
6.000000 -2.000000 5.000000 0.000000 1.000000 -0.000000 199 255 183
3 0 1 2
3 3 4 5
3 6 7 8
3 9 10 11
3 12 13 14
3 15 16 17
3 18 19 20
3 21 22 23
3 24 25 26
3 27 28 29
3 30 31 32
3 33 34 35
3 36 37 38
3 39 40 41
3 42 43 44
3 45 46 47
3 48 49 50
3 51 52 53
3 54 55 56
3 11 57 58
3 59 60 61
3 62 63 64
3 65 66 67
3 68 69 70
3 71 72 73
3 74 75 76
3 77 78 79
3 80 81 82
3 83 84 85
3 86 87 88
3 89 90 91
3 92 93 94
3 95 96 97
3 98 99 100
3 101 102 103
3 104 105 106
3 107 108 109
3 110 111 112
3 113 114 115
3 116 117 118
3 119 120 121
3 0 122 1
3 3 123 4
3 124 125 126
3 126 127 124
3 6 128 129
3 124 127 8
3 124 8 7
3 130 131 132
3 133 134 129
3 129 135 6
3 136 137 138
3 136 138 130
3 136 130 132
3 7 136 132
3 128 133 129
3 7 132 124
3 6 135 7
3 9 139 10
3 12 140 13
3 15 141 16
3 18 142 19
3 21 143 22
3 24 144 25
3 27 145 28
3 146 147 30
3 30 148 31
3 32 146 30
3 33 149 34
3 36 150 37
3 39 151 40
3 42 152 43
3 45 153 46
3 48 154 49
3 51 155 52
3 54 156 55
3 11 157 158
3 57 159 58
3 160 161 162
3 160 162 58
3 11 158 57
3 159 160 58
3 59 163 60
3 62 164 63
3 65 165 66
3 68 166 69
3 71 167 72
3 74 168 75
3 77 169 78
3 80 170 81
3 83 171 84
3 86 172 87
3 89 173 90
3 92 174 93
3 95 175 96
3 98 176 99
3 101 177 102
3 104 178 105
3 107 179 108
3 110 180 111
3 113 181 114
3 118 182 116
3 183 184 116
3 116 185 117
3 182 183 116
3 186 181 187
3 119 188 189
3 189 190 191
3 188 192 189
3 187 181 121
3 193 194 187
3 195 196 121
3 121 193 187
3 119 189 120
3 197 198 120
3 189 191 197
3 121 181 119
3 199 200 195
3 195 121 120
3 189 197 120
3 120 199 195
