ply
format ascii 1.0
comment Created by Blender 2.79 (sub 0) - www.blender.org, source file: 'virgil.blend'
element vertex 290
property float x
property float y
property float z
property float nx
property float ny
property float nz
property uchar red
property uchar green
property uchar blue
element face 140
property list uchar uint vertex_indices
end_header
-9.007741 9.007741 -0.734625 -1.000000 0.000000 0.000000 255 154 249
-9.007741 0.000000 -0.734625 -1.000000 0.000000 0.000000 255 154 249
-9.007741 0.000000 0.734625 -1.000000 0.000000 0.000000 255 154 249
-9.007741 1.286820 0.734625 0.000000 0.000000 0.000000 255 154 249
-9.007741 2.573640 0.734625 0.000000 0.000000 0.000000 255 154 249
-9.007741 3.860461 0.734625 0.000000 0.000000 0.000000 255 154 249
-9.007741 1.286820 0.734625 -1.000000 -0.000000 -0.000000 255 154 249
-9.007741 7.720921 0.734625 -1.000000 0.000000 0.000000 255 154 249
-9.007741 9.007741 0.734625 -1.000000 0.000000 0.000000 255 154 249
-9.007741 5.147281 0.734625 0.000000 0.000000 0.000000 255 154 249
-9.007741 6.434101 0.734625 0.000000 0.000000 0.000000 255 154 249
-9.007741 6.434101 0.734625 -1.000000 0.000000 0.000000 255 154 249
-9.007741 3.860461 0.734625 -1.000000 -0.000000 -0.000000 255 154 249
9.007741 9.007741 -0.734625 -0.000000 1.000000 0.000000 255 154 249
-9.007741 9.007741 -0.734625 -0.000000 1.000000 0.000000 255 154 249
-9.007741 9.007741 0.734625 -0.000000 1.000000 0.000000 255 154 249
-6.434101 9.007741 0.734625 0.000000 0.000000 0.000000 255 154 249
-3.860460 9.007741 0.734625 0.000000 0.000000 0.000000 255 154 249
-1.286820 9.007741 0.734625 0.000000 0.000000 0.000000 255 154 249
-6.434101 9.007741 0.734625 0.000000 1.000000 0.000000 255 154 249
6.434101 9.007741 0.734625 0.000000 1.000000 -0.000000 255 154 249
9.007741 9.007741 0.734625 0.000000 1.000000 -0.000000 255 154 249
1.286820 9.007741 0.734625 0.000000 0.000000 0.000000 255 154 249
3.860461 9.007741 0.734625 0.000000 0.000000 0.000000 255 154 249
3.860461 9.007741 0.734625 0.000000 1.000000 0.000000 255 154 249
-1.286820 9.007741 0.734625 0.000000 1.000000 0.000000 255 154 249
9.007741 0.000000 -0.734625 1.000000 -0.000000 0.000000 255 154 249
9.007741 0.000000 0.734625 1.000000 -0.000000 0.000000 255 154 249
9.007741 -9.007741 0.734625 1.000000 -0.000000 0.000000 255 154 249
9.007741 -9.007741 -0.734625 1.000000 -0.000000 0.000000 255 154 249
-9.007741 -9.007741 0.734625 -0.000000 -1.000000 0.000000 255 154 249
-9.007741 -9.007741 -0.734625 -0.000000 -1.000000 0.000000 255 154 249
9.007741 -9.007741 -0.734625 -0.000000 -1.000000 0.000000 255 154 249
9.007741 -9.007741 0.734625 -0.000000 -1.000000 0.000000 255 154 249
9.007741 -9.007741 -0.734625 0.000000 -0.000000 -1.000000 255 154 249
-9.007741 -9.007741 -0.734625 0.000000 -0.000000 -1.000000 255 154 249
-9.007741 0.000000 -0.734625 0.000000 -0.000000 -1.000000 255 154 249
9.007741 0.000000 -0.734625 0.000000 -0.000000 -1.000000 255 154 249
9.007741 -9.007741 0.734625 -0.000000 0.000000 1.000000 255 154 249
9.007741 0.000000 0.734625 -0.000000 0.000000 1.000000 255 154 249
6.434101 0.000000 0.734625 -0.000000 0.000000 1.000000 255 154 249
3.860461 0.000000 0.734625 0.000000 0.000000 0.000000 255 154 249
1.286820 0.000000 0.734625 0.000000 0.000000 0.000000 255 154 249
-1.286820 0.000000 0.734625 0.000000 0.000000 0.000000 255 154 249
3.860461 0.000000 0.734625 -0.000000 0.000000 1.000000 255 154 249
-9.007741 0.000000 0.734625 0.000000 -0.000000 1.000000 255 154 249
-9.007741 -9.007741 0.734625 0.000000 -0.000000 1.000000 255 154 249
-3.860460 0.000000 0.734625 0.000000 0.000000 0.000000 255 154 249
-6.434101 0.000000 0.734625 0.000000 0.000000 0.000000 255 154 249
-6.434101 0.000000 0.734625 0.000000 -0.000000 1.000000 255 154 249
-1.286820 0.000000 0.734625 -0.000000 0.000000 1.000000 255 154 249
-6.434101 1.286820 0.734625 0.000000 -0.000000 1.000000 255 154 249
-9.007741 1.286820 0.734625 0.000000 -0.000000 1.000000 255 154 249
-9.007741 9.007741 -0.734625 0.000000 0.000000 -1.000000 255 154 249
9.007741 9.007741 -0.734625 0.000000 0.000000 -1.000000 255 154 249
9.007741 9.007741 -0.734625 1.000000 0.000000 0.000000 255 154 249
9.007741 9.007741 0.734625 1.000000 0.000000 0.000000 255 154 249
9.007741 7.720921 0.734625 0.000000 0.000000 0.000000 255 154 249
9.007741 6.434100 0.734625 0.000000 0.000000 0.000000 255 154 249
9.007741 5.147280 0.734625 0.000000 0.000000 0.000000 255 154 249
9.007741 7.720921 0.734625 1.000000 -0.000000 0.000000 255 154 249
9.007741 1.286820 0.734625 1.000000 0.000000 0.000000 255 154 249
9.007741 3.860460 0.734625 0.000000 0.000000 0.000000 255 154 249
9.007741 2.573640 0.734625 0.000000 0.000000 0.000000 255 154 249
9.007741 2.573640 0.734625 1.000000 0.000000 0.000000 255 154 249
9.007741 5.147280 0.734625 1.000000 -0.000000 0.000000 255 154 249
-9.007741 -9.007741 -0.734625 -1.000000 -0.000000 0.000000 255 154 249
-9.007741 -9.007741 0.734625 -1.000000 -0.000000 0.000000 255 154 249
9.007741 1.286820 0.734625 0.000000 -0.000000 1.000000 255 154 249
6.434101 1.286820 0.734625 0.000000 -0.000000 1.000000 255 154 249
3.860461 1.286820 0.734625 0.000000 -0.000000 1.000000 255 154 249
1.286820 1.286820 0.734625 0.000000 -0.000000 1.000000 255 154 249
1.286820 0.000000 0.734625 0.000000 -0.000000 1.000000 255 154 249
-1.286820 1.286820 0.734625 0.000000 -0.000000 1.000000 255 154 249
-3.860460 1.286820 0.734625 0.000000 -0.000000 1.000000 255 154 249
-3.860460 0.000000 0.734625 0.000000 -0.000000 1.000000 255 154 249
9.007741 9.007741 0.734625 0.000000 -0.000000 1.000000 255 154 249
6.434101 9.007741 0.734625 0.000000 -0.000000 1.000000 255 154 249
6.434101 7.720921 0.734625 0.000000 -0.000000 1.000000 255 154 249
9.007741 7.720921 0.734625 0.000000 -0.000000 1.000000 255 154 249
6.434101 6.434100 0.734625 0.000000 -0.000000 1.000000 255 154 249
9.007741 6.434100 0.734625 0.000000 -0.000000 1.000000 255 154 249
6.434101 5.147280 0.734625 0.000000 -0.000000 1.000000 255 154 249
9.007741 5.147280 0.734625 0.000000 -0.000000 1.000000 255 154 249
6.434101 3.860460 0.734625 0.000000 -0.000000 1.000000 255 154 249
9.007741 3.860460 0.734625 0.000000 -0.000000 1.000000 255 154 249
6.434101 2.573640 0.734625 0.000000 -0.000000 1.000000 255 154 249
9.007741 2.573640 0.734625 0.000000 -0.000000 1.000000 255 154 249
3.860461 1.286820 0.734625 0.000000 -1.000000 -0.000000 255 154 249
6.434101 1.286820 0.734625 0.000000 -1.000000 -0.000000 255 154 249
6.434101 1.286820 1.086249 0.000000 -1.000000 -0.000000 255 154 249
3.860461 1.286820 1.086249 0.000000 -1.000000 -0.000000 255 154 249
6.434101 7.720921 0.734625 1.000000 0.000000 0.000000 255 154 249
6.434101 9.007741 0.734625 1.000000 0.000000 0.000000 255 154 249
6.434101 9.007741 1.086249 1.000000 0.000000 0.000000 255 154 249
6.434101 7.720921 1.086249 1.000000 0.000000 0.000000 255 154 249
-6.434101 6.434100 0.734625 -1.000000 0.000000 -0.000000 255 154 249
-6.434101 5.147280 0.734625 -1.000000 0.000000 -0.000000 255 154 249
-6.434101 5.147280 1.086249 -1.000000 0.000000 -0.000000 255 154 249
-6.434101 6.434100 1.086249 -1.000000 0.000000 -0.000000 255 154 249
1.286820 9.007741 0.734625 0.000000 1.000000 0.000000 255 154 249
1.286820 9.007741 1.086249 0.000000 1.000000 0.000000 255 154 249
3.860461 9.007741 1.086249 0.000000 1.000000 0.000000 255 154 249
-6.434101 7.720921 0.734625 -1.000000 0.000000 -0.000000 255 154 249
-6.434101 7.720921 1.086249 -1.000000 0.000000 -0.000000 255 154 249
-1.286820 9.007741 1.086249 0.000000 1.000000 0.000000 255 154 249
1.286820 1.286820 0.734625 0.000000 -1.000000 -0.000000 255 154 249
1.286820 1.286820 1.086249 0.000000 -1.000000 -0.000000 255 154 249
-6.434101 9.007741 0.734625 -1.000000 0.000000 -0.000000 255 154 249
-6.434101 9.007741 1.086249 -1.000000 0.000000 -0.000000 255 154 249
-3.860460 9.007741 0.734625 0.000000 1.000000 0.000000 255 154 249
-3.860460 9.007741 1.086249 0.000000 1.000000 0.000000 255 154 249
6.434101 1.286820 0.734625 1.000000 0.000000 0.000000 255 154 249
6.434101 2.573640 0.734625 1.000000 0.000000 0.000000 255 154 249
6.434101 2.573640 1.086249 1.000000 0.000000 0.000000 255 154 249
6.434101 1.286820 1.086249 1.000000 0.000000 0.000000 255 154 249
-1.286820 1.286820 0.734625 0.000000 -1.000000 -0.000000 255 154 249
-1.286820 1.286820 1.086249 0.000000 -1.000000 -0.000000 255 154 249
-6.434101 9.007741 1.086249 0.000000 1.000000 0.000000 255 154 249
6.434101 3.860460 0.734625 1.000000 0.000000 0.000000 255 154 249
6.434101 3.860460 1.086249 1.000000 0.000000 0.000000 255 154 249
-3.860460 1.286820 0.734625 0.000000 -1.000000 -0.000000 255 154 249
-3.860460 1.286820 1.086249 0.000000 -1.000000 -0.000000 255 154 249
6.434101 5.147280 0.734625 1.000000 0.000000 0.000000 255 154 249
6.434101 5.147280 1.086249 1.000000 0.000000 0.000000 255 154 249
-6.434101 2.573640 0.734625 -1.000000 0.000000 -0.000000 255 154 249
-6.434101 1.286820 0.734625 -1.000000 0.000000 -0.000000 255 154 249
-6.434101 1.286820 1.086249 -1.000000 0.000000 -0.000000 255 154 249
-6.434101 2.573640 1.086249 -1.000000 0.000000 -0.000000 255 154 249
6.434101 6.434100 0.734625 1.000000 0.000000 0.000000 255 154 249
6.434101 6.434100 1.086249 1.000000 0.000000 0.000000 255 154 249
-6.434101 3.860460 0.734625 -1.000000 0.000000 -0.000000 255 154 249
-6.434101 3.860460 1.086249 -1.000000 0.000000 -0.000000 255 154 249
-6.434101 1.286820 0.734625 0.000000 -1.000000 -0.000000 255 154 249
-6.434101 1.286820 1.086249 0.000000 -1.000000 -0.000000 255 154 249
6.434101 9.007741 1.086249 0.000000 1.000000 0.000000 255 154 249
-6.434101 9.007741 0.734625 0.000000 -0.000000 1.000000 255 154 249
-9.007741 9.007741 0.734625 0.000000 -0.000000 1.000000 255 154 249
-9.007741 7.720921 0.734625 0.000000 -0.000000 1.000000 255 154 249
-6.434101 7.720921 0.734625 0.000000 -0.000000 1.000000 255 154 249
-9.007741 6.434101 0.734625 0.000000 -0.000000 1.000000 255 154 249
-6.434101 6.434100 0.734625 0.000000 -0.000000 1.000000 255 154 249
-9.007741 5.147281 0.734625 0.000000 -0.000000 1.000000 255 154 249
-6.434101 5.147280 0.734625 0.000000 -0.000000 1.000000 255 154 249
-9.007741 3.860461 0.734625 0.000000 -0.000000 1.000000 255 154 249
-6.434101 3.860460 0.734625 0.000000 -0.000000 1.000000 255 154 249
-9.007741 2.573640 0.734625 0.000000 -0.000000 1.000000 255 154 249
-6.434101 2.573640 0.734625 0.000000 -0.000000 1.000000 255 154 249
6.434101 9.007741 1.086249 0.000000 -0.000000 1.000000 255 154 249
3.860461 9.007741 1.086249 0.000000 -0.000000 1.000000 255 154 249
3.860461 7.720921 1.086249 0.000000 -0.000000 1.000000 255 154 249
6.434101 7.720921 1.086249 0.000000 -0.000000 1.000000 255 154 249
3.860461 6.434100 1.086249 0.000000 -0.000000 1.000000 255 154 249
6.434101 6.434100 1.086249 0.000000 -0.000000 1.000000 255 154 249
3.860461 5.147280 1.086249 0.000000 -0.000000 1.000000 255 154 249
6.434101 5.147280 1.086249 0.000000 -0.000000 1.000000 255 154 249
3.860461 3.860460 1.086249 0.000000 -0.000000 1.000000 255 154 249
6.434101 3.860460 1.086249 0.000000 -0.000000 1.000000 255 154 249
3.860461 2.573640 1.086249 0.000000 -0.000000 1.000000 255 154 249
6.434101 2.573640 1.086249 0.000000 -0.000000 1.000000 255 154 249
3.860461 1.286820 1.086249 0.000000 -0.000000 1.000000 255 154 249
6.434101 1.286820 1.086249 0.000000 -0.000000 1.000000 255 154 249
3.860461 7.720921 1.086249 1.000000 0.000000 0.000000 255 154 249
3.860461 9.007741 1.086249 1.000000 0.000000 0.000000 255 154 249
3.860461 9.007741 1.408716 1.000000 0.000000 0.000000 255 154 249
3.860461 7.720921 1.408716 1.000000 0.000000 0.000000 255 154 249
-3.860460 3.860460 1.086249 -1.000000 0.000000 -0.000000 255 154 249
-3.860460 2.573640 1.086249 -1.000000 0.000000 -0.000000 255 154 249
-3.860460 2.573640 1.408716 -1.000000 0.000000 -0.000000 255 154 249
-3.860460 3.860460 1.408716 -1.000000 0.000000 -0.000000 255 154 249
1.286820 9.007741 1.408716 0.000000 1.000000 0.000000 255 154 249
3.860461 9.007741 1.408716 0.000000 1.000000 0.000000 255 154 249
-3.860460 5.147280 1.086249 -1.000000 0.000000 -0.000000 255 154 249
-3.860460 5.147280 1.408716 -1.000000 0.000000 -0.000000 255 154 249
-1.286820 9.007741 1.408716 0.000000 1.000000 0.000000 255 154 249
1.286820 2.573640 1.086249 0.000000 -0.000000 1.000000 255 154 249
1.286820 1.286820 1.086249 0.000000 -0.000000 1.000000 255 154 249
-3.860460 6.434100 1.086249 -1.000000 0.000000 -0.000000 255 154 249
-3.860460 6.434100 1.408716 -1.000000 0.000000 -0.000000 255 154 249
-3.860460 9.007741 1.408716 0.000000 1.000000 0.000000 255 154 249
-3.860460 7.720921 1.086249 -1.000000 0.000000 -0.000000 255 154 249
-3.860460 7.720921 1.408716 -1.000000 0.000000 -0.000000 255 154 249
3.860461 2.573640 1.086249 1.000000 0.000000 0.000000 255 154 249
3.860461 3.860460 1.086249 1.000000 0.000000 0.000000 255 154 249
3.860461 3.860460 1.408716 1.000000 0.000000 0.000000 255 154 249
3.860461 2.573640 1.408716 1.000000 0.000000 0.000000 255 154 249
-3.860460 9.007741 1.086249 -1.000000 0.000000 -0.000000 255 154 249
-3.860460 9.007741 1.408716 -1.000000 0.000000 -0.000000 255 154 249
-1.286820 2.573640 1.086249 0.000000 -0.000000 1.000000 255 154 249
-1.286820 1.286820 1.086249 0.000000 -0.000000 1.000000 255 154 249
3.860461 5.147280 1.086249 1.000000 0.000000 0.000000 255 154 249
3.860461 5.147280 1.408716 1.000000 0.000000 0.000000 255 154 249
1.286820 2.573640 1.086249 0.000000 -1.000000 -0.000000 255 154 249
3.860461 2.573640 1.086249 0.000000 -1.000000 -0.000000 255 154 249
3.860461 2.573640 1.408716 0.000000 -1.000000 -0.000000 255 154 249
1.286820 2.573640 1.408716 0.000000 -1.000000 -0.000000 255 154 249
3.860461 6.434100 1.086249 1.000000 0.000000 0.000000 255 154 249
3.860461 6.434100 1.408716 1.000000 0.000000 0.000000 255 154 249
-1.286820 2.573640 1.086249 0.000000 -1.000000 -0.000000 255 154 249
-1.286820 2.573640 1.408716 0.000000 -1.000000 -0.000000 255 154 249
-3.860460 2.573640 1.086249 0.000000 -0.000000 1.000000 255 154 249
-3.860460 1.286820 1.086249 0.000000 -0.000000 1.000000 255 154 249
-3.860460 9.007741 1.086249 0.000000 -0.000000 1.000000 255 154 249
-6.434101 9.007741 1.086249 0.000000 -0.000000 1.000000 255 154 249
-6.434101 7.720921 1.086249 0.000000 -0.000000 1.000000 255 154 249
-3.860460 7.720921 1.086249 0.000000 -0.000000 1.000000 255 154 249
-6.434101 6.434100 1.086249 0.000000 -0.000000 1.000000 255 154 249
-3.860460 6.434100 1.086249 0.000000 -0.000000 1.000000 255 154 249
-6.434101 5.147280 1.086249 0.000000 -0.000000 1.000000 255 154 249
-3.860460 5.147280 1.086249 0.000000 -0.000000 1.000000 255 154 249
-6.434101 3.860460 1.086249 0.000000 -0.000000 1.000000 255 154 249
-3.860460 3.860460 1.086249 0.000000 -0.000000 1.000000 255 154 249
-6.434101 2.573640 1.086249 0.000000 -0.000000 1.000000 255 154 249
-6.434101 1.286820 1.086249 0.000000 -0.000000 1.000000 255 154 249
3.860461 9.007741 1.408716 0.000000 -0.000000 1.000000 255 154 249
1.286820 9.007741 1.408716 0.000000 -0.000000 1.000000 255 154 249
1.286820 7.720921 1.408716 0.000000 -0.000000 1.000000 255 154 249
3.860461 7.720921 1.408716 0.000000 -0.000000 1.000000 255 154 249
1.286820 6.434100 1.408716 0.000000 -0.000000 1.000000 255 154 249
3.860461 6.434100 1.408716 0.000000 -0.000000 1.000000 255 154 249
1.286820 5.147280 1.408716 0.000000 -0.000000 1.000000 255 154 249
3.860461 5.147280 1.408716 0.000000 -0.000000 1.000000 255 154 249
1.286820 3.860460 1.408716 0.000000 -0.000000 1.000000 255 154 249
3.860461 3.860460 1.408716 0.000000 -0.000000 1.000000 255 154 249
1.286820 2.573640 1.408716 0.000000 -0.000000 1.000000 255 154 249
3.860461 2.573640 1.408716 0.000000 -0.000000 1.000000 255 154 249
-1.286820 6.434100 1.408716 -1.000000 0.000000 -0.000000 255 154 249
-1.286820 5.147280 1.408716 -1.000000 0.000000 -0.000000 255 154 249
-1.286820 5.147280 1.646323 -1.000000 0.000000 -0.000000 255 154 249
-1.286820 6.434100 1.646323 -1.000000 0.000000 -0.000000 255 154 249
1.286820 7.720921 1.408716 1.000000 0.000000 0.000000 255 154 249
1.286820 9.007741 1.408716 1.000000 0.000000 0.000000 255 154 249
1.286820 9.007741 1.646323 1.000000 0.000000 0.000000 255 154 249
1.286820 7.720921 1.646323 1.000000 0.000000 0.000000 255 154 249
-1.286820 9.007741 1.646323 0.000000 1.000000 0.000000 255 154 249
1.286820 9.007741 1.646323 0.000000 1.000000 0.000000 255 154 249
1.286820 3.860460 1.408716 1.000000 0.000000 0.000000 255 154 249
1.286820 5.147280 1.408716 1.000000 0.000000 0.000000 255 154 249
1.286820 5.147280 1.646323 1.000000 0.000000 0.000000 255 154 249
1.286820 3.860460 1.646323 1.000000 0.000000 0.000000 255 154 249
-1.286820 3.860460 1.408716 0.000000 -0.000000 1.000000 255 154 249
-1.286820 2.573640 1.408716 0.000000 -0.000000 1.000000 255 154 249
-1.286820 9.007741 1.408716 0.000000 -0.000000 1.000000 255 154 249
-3.860460 9.007741 1.408716 0.000000 -0.000000 1.000000 255 154 249
-3.860460 7.720921 1.408716 0.000000 -0.000000 1.000000 255 154 249
-1.286820 7.720921 1.408716 0.000000 -0.000000 1.000000 255 154 249
-3.860460 6.434100 1.408716 0.000000 -0.000000 1.000000 255 154 249
-1.286820 6.434100 1.408716 0.000000 -0.000000 1.000000 255 154 249
-3.860460 5.147280 1.408716 0.000000 -0.000000 1.000000 255 154 249
-1.286820 5.147280 1.408716 0.000000 -0.000000 1.000000 255 154 249
-3.860460 3.860460 1.408716 0.000000 -0.000000 1.000000 255 154 249
-3.860460 2.573640 1.408716 0.000000 -0.000000 1.000000 255 154 249
-3.860460 2.573640 1.086249 0.000000 -1.000000 -0.000000 255 154 249
-3.860460 2.573640 1.408716 0.000000 -1.000000 -0.000000 255 154 249
1.286820 6.434100 1.646323 1.000000 0.000000 0.000000 255 154 249
1.286820 7.720921 4.634203 1.000000 0.000000 0.000000 255 154 249
1.286820 6.434100 4.634203 1.000000 0.000000 0.000000 255 154 249
-1.286820 9.007741 1.646323 -1.000000 0.000000 -0.000000 255 154 249
-1.286820 7.720921 1.646323 -1.000000 0.000000 -0.000000 255 154 249
-1.286820 7.720921 4.634203 -1.000000 0.000000 -0.000000 255 154 249
-1.286820 9.007741 4.634203 -1.000000 0.000000 -0.000000 255 154 249
1.286820 6.434100 1.646323 0.000000 -0.000000 1.000000 255 154 249
-1.286820 6.434100 1.646323 0.000000 -0.000000 1.000000 255 154 249
-1.286820 5.147280 1.646323 0.000000 -0.000000 1.000000 255 154 249
1.286820 5.147280 1.646323 0.000000 -0.000000 1.000000 255 154 249
-1.286820 3.860460 1.646323 0.000000 -0.000000 1.000000 255 154 249
1.286820 3.860460 1.646323 0.000000 -0.000000 1.000000 255 154 249
1.286820 6.434100 1.408716 1.000000 0.000000 0.000000 255 154 249
-1.286820 3.860460 1.408716 -1.000000 0.000000 -0.000000 255 154 249
-1.286820 3.860460 1.646323 -1.000000 0.000000 -0.000000 255 154 249
-1.286820 9.007741 1.408716 -1.000000 0.000000 -0.000000 255 154 249
-1.286820 7.720921 1.408716 -1.000000 0.000000 -0.000000 255 154 249
-1.286820 3.860460 1.408716 0.000000 -1.000000 -0.000000 255 154 249
1.286820 3.860460 1.408716 0.000000 -1.000000 -0.000000 255 154 249
1.286820 3.860460 1.646323 0.000000 -1.000000 -0.000000 255 154 249
-1.286820 3.860460 1.646323 0.000000 -1.000000 -0.000000 255 154 249
1.286820 9.007741 4.634203 0.000000 -0.000000 1.000000 255 154 249
-1.286820 9.007741 4.634203 0.000000 -0.000000 1.000000 255 154 249
-1.286820 7.720921 4.634203 0.000000 -0.000000 1.000000 255 154 249
1.286820 7.720921 4.634203 0.000000 -0.000000 1.000000 255 154 249
-1.286820 6.434100 4.634203 0.000000 -0.000000 1.000000 255 154 249
1.286820 6.434100 4.634203 0.000000 -0.000000 1.000000 255 154 249
-1.286820 6.434100 1.646323 0.000000 -1.000000 -0.000000 255 154 249
1.286820 6.434100 1.646323 0.000000 -1.000000 -0.000000 255 154 249
1.286820 6.434100 4.634203 0.000000 -1.000000 -0.000000 255 154 249
-1.286820 6.434100 4.634203 0.000000 -1.000000 -0.000000 255 154 249
-1.286820 9.007741 4.634203 0.000000 1.000000 0.000000 255 154 249
1.286820 9.007741 4.634203 0.000000 1.000000 0.000000 255 154 249
-1.286820 6.434100 4.634203 -1.000000 0.000000 -0.000000 255 154 249
1.286820 9.007741 4.634203 1.000000 0.000000 0.000000 255 154 249
3 0 1 2
3 3 4 5
3 0 2 6
3 7 8 0
3 5 9 10
3 11 7 0
3 0 6 12
3 12 11 0
3 13 14 15
3 16 17 18
3 13 15 19
3 20 21 13
3 18 22 23
3 24 20 13
3 13 19 25
3 25 24 13
4 26 27 28 29
4 30 31 32 33
4 34 35 36 37
3 38 39 40
3 41 42 43
3 38 40 44
3 45 46 38
3 43 47 48
3 49 45 38
3 38 44 50
3 50 49 38
4 51 52 45 49
4 53 54 37 36
3 26 55 56
3 57 58 59
3 26 56 60
3 61 27 26
3 59 62 63
3 64 61 26
3 26 60 65
3 65 64 26
4 66 67 2 1
4 68 69 40 39
4 69 70 44 40
4 70 71 72 44
4 71 73 50 72
4 73 74 75 50
4 74 51 49 75
4 76 77 78 79
4 79 78 80 81
4 81 80 82 83
4 83 82 84 85
4 85 84 86 87
4 87 86 69 68
4 88 89 90 91
4 92 93 94 95
4 96 97 98 99
4 24 100 101 102
4 103 96 99 104
4 100 25 105 101
4 106 88 91 107
4 108 103 104 109
4 25 110 111 105
4 112 113 114 115
4 116 106 107 117
4 110 19 118 111
4 113 119 120 114
4 121 116 117 122
4 119 123 124 120
4 125 126 127 128
4 123 129 130 124
4 131 125 128 132
4 133 121 122 134
4 129 92 95 130
4 97 131 132 98
4 20 24 102 135
4 136 137 138 139
4 139 138 140 141
4 141 140 142 143
4 143 142 144 145
4 145 144 146 147
4 147 146 52 51
4 148 149 150 151
4 151 150 152 153
4 153 152 154 155
4 155 154 156 157
4 157 156 158 159
4 159 158 160 161
4 162 163 164 165
4 166 167 168 169
4 102 101 170 171
4 172 166 169 173
4 101 105 174 170
4 158 175 176 160
4 177 172 173 178
4 105 111 179 174
4 180 177 178 181
4 182 183 184 185
4 186 180 181 187
4 175 188 189 176
4 183 190 191 184
4 192 193 194 195
4 190 196 197 191
4 198 192 195 199
4 196 162 165 197
4 188 200 201 189
4 202 203 204 205
4 205 204 206 207
4 207 206 208 209
4 209 208 210 211
4 211 210 212 200
4 200 212 213 201
4 214 215 216 217
4 217 216 218 219
4 219 218 220 221
4 221 220 222 223
4 223 222 224 225
4 226 227 228 229
4 230 231 232 233
4 170 174 234 235
4 236 237 238 239
4 222 240 241 224
4 242 243 244 245
4 245 244 246 247
4 247 246 248 249
4 249 248 250 240
4 240 250 251 241
4 252 198 199 253
4 254 233 255 256
4 257 258 259 260
4 261 262 263 264
4 264 263 265 266
4 267 230 233 254
4 227 268 269 228
4 270 271 258 257
4 237 267 254 238
4 272 273 274 275
4 271 226 229 258
4 276 277 278 279
4 279 278 280 281
4 282 283 284 285
4 235 234 286 287
4 258 229 288 259
4 233 232 289 255
