ply
format ascii 1.0
comment Created by Blender 2.79 (sub 0) - www.blender.org, source file: 'wall plug.blend'
element vertex 102
property float x
property float y
property float z
property float nx
property float ny
property float nz
property uchar red
property uchar green
property uchar blue
element face 32
property list uchar uint vertex_indices
end_header
0.692134 0.206983 -1.000000 0.000000 0.000000 -1.000000 217 217 217
0.692134 -0.206983 -1.000000 0.000000 0.000000 -1.000000 217 217 217
-0.692135 -0.206983 -1.000000 0.000000 0.000000 -1.000000 217 217 217
-0.692134 0.206983 -1.000000 0.000000 0.000000 -1.000000 217 217 217
0.692135 0.206983 1.000000 0.000000 -0.000000 1.000000 217 217 217
-0.692134 0.206983 1.000000 0.000000 -0.000000 1.000000 217 217 217
-0.692135 -0.206983 1.000000 0.000000 -0.000000 1.000000 217 217 217
0.692134 -0.206984 1.000000 0.000000 -0.000000 1.000000 217 217 217
0.692135 0.206983 0.000000 1.000000 -0.000001 0.000000 217 217 217
0.692135 0.206983 1.000000 1.000000 -0.000001 0.000000 217 217 217
0.692134 -0.206984 1.000000 1.000000 -0.000001 0.000000 217 217 217
0.692134 -0.206984 0.000000 1.000000 -0.000001 0.000000 217 217 217
-0.692135 -0.206983 -1.000000 -0.000000 -0.912537 -0.408994 217 217 217
0.692134 -0.206983 -1.000000 -0.000000 -0.912537 -0.408994 217 217 217
0.561410 -0.291635 -0.811128 -0.000000 -0.912537 -0.408994 217 217 217
-0.561410 -0.291635 -0.811128 -0.000000 -0.912537 -0.408994 217 217 217
-0.692135 -0.206983 0.000000 -1.000000 0.000001 -0.000000 217 217 217
-0.692135 -0.206983 1.000000 -1.000000 0.000001 -0.000000 217 217 217
-0.692134 0.206983 1.000000 -1.000000 0.000001 -0.000000 217 217 217
-0.692134 0.206983 0.000000 -1.000000 0.000001 -0.000000 217 217 217
0.692135 0.206983 0.000000 0.000000 1.000000 0.000000 217 217 217
0.692134 0.206983 -1.000000 0.000000 1.000000 0.000000 217 217 217
-0.692134 0.206983 -1.000000 0.000000 1.000000 0.000000 217 217 217
-0.692134 0.206983 0.000000 0.000000 1.000000 0.000000 217 217 217
-0.561410 -0.291635 0.811128 -0.000000 -1.000000 0.000000 217 217 217
-0.561410 -0.291635 0.000000 -0.000000 -1.000000 0.000000 217 217 217
-0.336846 -0.291635 0.162226 -0.000000 -1.000000 0.000000 217 217 217
-0.336846 -0.291635 0.648903 -0.000000 -1.000000 0.000000 217 217 217
0.692134 -0.206984 1.000000 -0.000000 -0.912537 0.408994 217 217 217
-0.692135 -0.206983 1.000000 -0.000000 -0.912537 0.408994 217 217 217
-0.561410 -0.291635 0.811128 -0.000000 -0.912537 0.408994 217 217 217
0.561409 -0.291635 0.811128 -0.000000 -0.912537 0.408994 217 217 217
-0.692135 -0.206983 0.000000 -0.543544 -0.839380 -0.000000 217 217 217
-0.692135 -0.206983 -1.000000 -0.543544 -0.839380 -0.000000 217 217 217
-0.561410 -0.291635 -0.811128 -0.543544 -0.839380 -0.000000 217 217 217
-0.561410 -0.291635 0.000000 -0.543544 -0.839380 -0.000000 217 217 217
0.692134 -0.206984 0.000000 0.543544 -0.839380 0.000000 217 217 217
0.692134 -0.206984 1.000000 0.543544 -0.839380 0.000000 217 217 217
0.561409 -0.291635 0.811128 0.543544 -0.839380 0.000000 217 217 217
0.561410 -0.291635 0.000000 0.543544 -0.839380 0.000000 217 217 217
0.692134 -0.206983 -1.000000 0.543544 -0.839380 0.000000 217 217 217
0.561410 -0.291635 -0.811128 0.543544 -0.839380 0.000000 217 217 217
-0.692135 -0.206983 1.000000 -0.543544 -0.839380 -0.000000 217 217 217
-0.561410 -0.291635 0.811128 -0.543544 -0.839380 -0.000000 217 217 217
-0.561410 -0.291635 -0.811128 -0.000000 -1.000000 -0.000000 217 217 217
-0.336846 -0.291635 -0.648903 -0.000000 -1.000000 -0.000000 217 217 217
-0.336846 -0.291635 -0.162226 -0.000000 -1.000000 -0.000000 217 217 217
0.692135 0.206983 1.000000 0.000000 1.000000 0.000000 217 217 217
-0.692134 0.206983 1.000000 0.000000 1.000000 0.000000 217 217 217
-0.692135 -0.206983 -1.000000 -1.000000 0.000001 -0.000000 217 217 217
-0.692134 0.206983 -1.000000 -1.000000 0.000001 -0.000000 217 217 217
0.692134 0.206983 -1.000000 1.000000 -0.000000 -0.000000 217 217 217
0.692135 0.206983 0.000000 1.000000 -0.000000 -0.000000 217 217 217
0.692134 -0.206984 0.000000 1.000000 -0.000000 -0.000000 217 217 217
0.692134 -0.206983 -1.000000 1.000000 -0.000000 -0.000000 217 217 217
0.336846 -0.291635 0.648903 0.000000 -0.000000 -1.000000 217 217 217
-0.336846 -0.291635 0.648903 0.000000 -0.000000 -1.000000 217 217 217
-0.336846 -0.271635 0.648903 0.000000 -0.000000 -1.000000 217 217 217
0.336846 -0.271635 0.648903 0.000000 -0.000000 -1.000000 217 217 217
0.561410 -0.291635 0.000000 -0.000000 -1.000000 0.000000 217 217 217
0.336846 -0.291635 0.162226 -0.000000 -1.000000 0.000000 217 217 217
0.561409 -0.291635 0.811128 -0.000000 -1.000000 0.000000 217 217 217
0.336846 -0.291635 0.648903 -0.000000 -1.000000 0.000000 217 217 217
0.336846 -0.291635 -0.162226 0.000000 -0.000000 -1.000000 217 217 217
-0.336846 -0.291635 -0.162226 0.000000 -0.000000 -1.000000 217 217 217
-0.336846 -0.271635 -0.162226 0.000000 -0.000000 -1.000000 217 217 217
0.336846 -0.271635 -0.162226 0.000000 -0.000000 -1.000000 217 217 217
0.561410 -0.291635 -0.811128 -0.000000 -1.000000 -0.000000 217 217 217
0.336846 -0.291635 -0.648903 -0.000000 -1.000000 -0.000000 217 217 217
0.336846 -0.291635 -0.162226 -0.000000 -1.000000 -0.000000 217 217 217
0.336846 -0.271635 -0.648903 -0.000000 -1.000000 -0.000000 217 217 217
0.336846 -0.271635 -0.162226 -0.000000 -1.000000 -0.000000 217 217 217
-0.336846 -0.271635 -0.162226 -0.000000 -1.000000 -0.000000 217 217 217
-0.336846 -0.271635 -0.648903 -0.000000 -1.000000 -0.000000 217 217 217
0.336846 -0.291635 -0.648903 -1.000000 0.000000 -0.000000 217 217 217
0.336846 -0.291635 -0.162226 -1.000000 0.000000 -0.000000 217 217 217
0.336846 -0.271635 -0.162226 -1.000000 0.000000 -0.000000 217 217 217
0.336846 -0.271635 -0.648903 -1.000000 0.000000 -0.000000 217 217 217
-0.336846 -0.291635 -0.162226 1.000000 0.000000 0.000000 217 217 217
-0.336846 -0.291635 -0.648903 1.000000 0.000000 0.000000 217 217 217
-0.336846 -0.271635 -0.648903 1.000000 0.000000 0.000000 217 217 217
-0.336846 -0.271635 -0.162226 1.000000 0.000000 0.000000 217 217 217
-0.336846 -0.291635 -0.648903 0.000000 0.000000 1.000000 217 217 217
0.336846 -0.291635 -0.648903 0.000000 0.000000 1.000000 217 217 217
0.336846 -0.271635 -0.648903 0.000000 0.000000 1.000000 217 217 217
-0.336846 -0.271635 -0.648903 0.000000 0.000000 1.000000 217 217 217
0.336846 -0.271635 0.162226 -0.000000 -1.000000 -0.000000 217 217 217
0.336846 -0.271635 0.648903 -0.000000 -1.000000 -0.000000 217 217 217
-0.336846 -0.271635 0.648903 -0.000000 -1.000000 -0.000000 217 217 217
-0.336846 -0.271635 0.162226 -0.000000 -1.000000 -0.000000 217 217 217
0.336846 -0.291635 0.162226 -1.000000 0.000000 -0.000000 217 217 217
0.336846 -0.291635 0.648903 -1.000000 0.000000 -0.000000 217 217 217
0.336846 -0.271635 0.648903 -1.000000 0.000000 -0.000000 217 217 217
0.336846 -0.271635 0.162226 -1.000000 0.000000 -0.000000 217 217 217
-0.336846 -0.291635 0.162226 0.000000 0.000000 1.000000 217 217 217
0.336846 -0.291635 0.162226 0.000000 0.000000 1.000000 217 217 217
0.336846 -0.271635 0.162226 0.000000 0.000000 1.000000 217 217 217
-0.336846 -0.271635 0.162226 0.000000 0.000000 1.000000 217 217 217
-0.336846 -0.291635 0.648903 1.000000 0.000000 0.000000 217 217 217
-0.336846 -0.291635 0.162226 1.000000 0.000000 0.000000 217 217 217
-0.336846 -0.271635 0.162226 1.000000 0.000000 0.000000 217 217 217
-0.336846 -0.271635 0.648903 1.000000 0.000000 0.000000 217 217 217
4 0 1 2 3
4 4 5 6 7
4 8 9 10 11
4 12 13 14 15
4 16 17 18 19
4 20 21 22 23
4 24 25 26 27
4 28 29 30 31
4 32 33 34 35
4 36 37 38 39
4 40 36 39 41
4 42 32 35 43
4 25 44 45 46
4 47 20 23 48
4 49 16 19 50
4 51 52 53 54
4 55 56 57 58
4 25 59 60 26
4 61 24 27 62
4 59 61 62 60
4 63 64 65 66
4 44 67 68 45
4 59 25 46 69
4 67 59 69 68
4 70 71 72 73
4 74 75 76 77
4 78 79 80 81
4 82 83 84 85
4 86 87 88 89
4 90 91 92 93
4 94 95 96 97
4 98 99 100 101
