ply
format ascii 1.0
comment Created by Blender 2.79 (sub 0) - www.blender.org, source file: 'cabinet.blend'
element vertex 156
property float x
property float y
property float z
property float nx
property float ny
property float nz
property uchar red
property uchar green
property uchar blue
element face 51
property list uchar uint vertex_indices
end_header
-0.600000 0.000000 0.000000 -1.000000 0.000001 -0.000000 145 145 145
-0.600000 0.000000 1.100000 -1.000000 0.000001 -0.000000 145 145 145
-0.600000 0.660000 1.100000 -1.000000 0.000001 -0.000000 145 145 145
-0.600000 0.660000 0.000000 -1.000000 0.000001 -0.000000 145 145 145
-0.600000 0.000000 1.900000 -1.000000 0.000001 0.000000 145 145 145
-0.600000 0.000000 1.960000 -1.000000 0.000001 0.000000 145 145 145
-0.600000 0.660000 1.960000 -1.000000 0.000001 0.000000 145 145 145
-0.600000 0.660000 1.900000 -1.000000 0.000001 0.000000 145 145 145
0.400000 0.660000 2.000000 0.000000 -0.000000 1.000000 145 145 145
-0.400000 0.660000 2.000000 0.000000 -0.000000 1.000000 145 145 145
-0.400000 0.000000 2.000000 0.000000 -0.000000 1.000000 145 145 145
0.399999 -0.000000 2.000000 0.000000 -0.000000 1.000000 145 145 145
0.560000 0.659999 2.000000 0.707106 -0.000001 0.707107 145 145 145
0.559999 -0.000001 2.000000 0.707106 -0.000001 0.707107 145 145 145
0.599999 -0.000001 1.960000 0.707106 -0.000001 0.707107 145 145 145
0.600001 0.659999 1.960000 0.707106 -0.000001 0.707107 145 145 145
0.600000 0.660000 1.100000 1.000000 -0.000001 0.000000 145 145 145
0.600001 0.659999 1.900000 1.000000 -0.000001 0.000000 145 145 145
0.599999 -0.000001 1.900000 1.000000 -0.000001 0.000000 145 145 145
0.600000 -0.000000 1.100000 1.000000 -0.000001 0.000000 145 145 145
0.560001 0.700000 1.900000 0.000000 1.000000 0.000000 145 145 145
0.560000 0.700000 1.100000 0.000000 1.000000 0.000000 145 145 145
0.420000 0.700000 1.080000 0.000000 1.000000 0.000000 145 145 145
0.420000 0.700000 1.920000 0.000000 1.000000 0.000000 145 145 145
0.600001 0.659999 1.900000 1.000000 -0.000002 0.000000 145 145 145
0.600001 0.659999 1.960000 1.000000 -0.000002 0.000000 145 145 145
0.599999 -0.000001 1.960000 1.000000 -0.000002 0.000000 145 145 145
0.599999 -0.000001 1.900000 1.000000 -0.000002 0.000000 145 145 145
0.420000 0.700000 1.080000 0.000001 1.000000 0.000000 145 145 145
0.400000 0.700000 0.000000 0.000001 1.000000 0.000000 145 145 145
0.360000 0.700000 0.055000 0.000001 1.000000 0.000000 145 145 145
0.360000 0.700000 1.045000 0.000001 1.000000 0.000000 145 145 145
0.400000 0.700000 1.960000 0.000000 1.000000 0.000000 145 145 145
-0.420000 0.700000 1.920000 0.000000 1.000000 0.000000 145 145 145
-0.400000 0.700000 1.960000 0.000000 1.000000 0.000000 145 145 145
-0.543431 0.700000 1.960000 0.000000 1.000000 -0.000000 145 145 145
-0.560000 0.700000 1.900000 0.000000 1.000000 0.000000 145 145 145
-0.560000 0.700000 1.943431 0.000000 1.000000 0.000000 145 145 145
-0.400000 0.700000 0.000000 0.000001 1.000000 0.000000 145 145 145
-0.420000 0.700000 1.080000 0.000001 1.000000 0.000000 145 145 145
-0.360000 0.700000 1.045000 0.000001 1.000000 0.000000 145 145 145
-0.360000 0.700000 0.055000 0.000001 1.000000 0.000000 145 145 145
-0.400000 0.680000 1.100000 1.000000 -0.000000 0.000000 145 145 145
-0.400000 0.680000 1.900000 1.000000 -0.000000 0.000000 145 145 145
-0.400000 0.600000 1.900000 1.000000 -0.000000 0.000000 145 145 145
-0.400000 0.600000 1.100000 1.000000 -0.000000 0.000000 145 145 145
0.600000 -0.000000 1.100000 1.000000 -0.000000 0.000000 145 145 145
0.600000 0.000000 0.000000 1.000000 -0.000000 0.000000 145 145 145
0.600000 0.660000 0.000000 1.000000 -0.000000 0.000000 145 145 145
0.600000 0.660000 1.100000 1.000000 -0.000000 0.000000 145 145 145
0.560000 0.659999 2.000000 0.000000 -0.000000 1.000000 145 145 145
0.559999 -0.000001 2.000000 0.000000 -0.000000 1.000000 145 145 145
-0.420000 0.700000 1.080000 0.000000 1.000000 0.000000 145 145 145
0.360000 0.700000 1.045000 0.000000 1.000000 0.000000 145 145 145
-0.360000 0.700000 1.045000 0.000000 1.000000 0.000000 145 145 145
0.560000 0.700000 0.000000 0.000000 1.000000 0.000000 145 145 145
0.400000 0.700000 0.000000 0.000000 1.000000 0.000000 145 145 145
-0.560000 0.660000 2.000000 0.000000 -0.000000 1.000000 145 145 145
-0.560000 0.000000 2.000000 0.000000 -0.000000 1.000000 145 145 145
0.400000 0.600000 1.900000 0.000000 1.000000 0.000000 73 8 0
0.400000 0.600000 1.100000 0.000000 1.000000 0.000000 73 8 0
-0.400000 0.600000 1.100000 0.000000 1.000000 0.000000 73 8 0
-0.400000 0.600000 1.900000 0.000000 1.000000 0.000000 73 8 0
0.543432 0.700000 1.960000 0.000000 1.000000 0.000000 145 145 145
0.560001 0.700000 1.943431 0.000000 1.000000 0.000000 145 145 145
-0.400000 0.680000 1.900000 0.000000 0.000000 -1.000000 145 145 145
0.400000 0.680000 1.900000 0.000000 0.000000 -1.000000 145 145 145
0.400000 0.600000 1.900000 0.000000 0.000000 -1.000000 145 145 145
-0.400000 0.600000 1.900000 0.000000 0.000000 -1.000000 145 145 145
-0.400000 0.700000 0.000000 0.000000 1.000000 0.000000 145 145 145
-0.560000 0.700000 0.000000 0.000000 1.000000 0.000000 145 145 145
-0.560000 0.700000 1.100000 0.000000 1.000000 0.000000 145 145 145
-0.360000 0.700000 1.045000 0.000000 0.000000 1.000000 145 145 145
0.360000 0.700000 1.045000 0.000000 0.000000 1.000000 145 145 145
0.360000 0.710000 1.045000 0.000000 0.000000 1.000000 145 145 145
-0.360000 0.710000 1.045000 0.000000 0.000000 1.000000 145 145 145
-0.360000 0.700000 0.055000 0.000000 1.000000 0.000000 145 145 145
0.360000 0.700000 0.055000 0.000000 1.000000 0.000000 145 145 145
0.400000 0.680000 1.100000 0.000000 -0.000000 1.000000 145 145 145
-0.400000 0.680000 1.100000 0.000000 -0.000000 1.000000 145 145 145
-0.400000 0.600000 1.100000 0.000000 -0.000000 1.000000 145 145 145
0.400000 0.600000 1.100000 0.000000 -0.000000 1.000000 145 145 145
0.360000 0.710000 1.045000 0.000000 1.000000 0.000000 145 145 145
0.360000 0.710000 0.055000 0.000000 1.000000 0.000000 145 145 145
-0.360000 0.710000 0.055000 0.000000 1.000000 0.000000 145 145 145
-0.360000 0.710000 1.045000 0.000000 1.000000 0.000000 145 145 145
0.360000 0.700000 1.045000 1.000000 0.000000 -0.000000 145 145 145
0.360000 0.700000 0.055000 1.000000 0.000000 -0.000000 145 145 145
0.360000 0.710000 0.055000 1.000000 0.000000 -0.000000 145 145 145
0.360000 0.710000 1.045000 1.000000 0.000000 -0.000000 145 145 145
-0.360000 0.700000 0.055000 -1.000000 0.000000 -0.000000 145 145 145
-0.360000 0.700000 1.045000 -1.000000 0.000000 -0.000000 145 145 145
-0.360000 0.710000 1.045000 -1.000000 0.000000 -0.000000 145 145 145
-0.360000 0.710000 0.055000 -1.000000 0.000000 -0.000000 145 145 145
0.360000 0.700000 0.055000 0.000000 0.000000 -1.000000 145 145 145
-0.360000 0.700000 0.055000 0.000000 0.000000 -1.000000 145 145 145
-0.360000 0.710000 0.055000 0.000000 0.000000 -1.000000 145 145 145
0.360000 0.710000 0.055000 0.000000 0.000000 -1.000000 145 145 145
-0.560000 0.000000 2.000000 -0.707106 0.000000 0.707107 145 145 145
-0.560000 0.660000 2.000000 -0.707106 0.000000 0.707107 145 145 145
-0.600000 0.660000 1.960000 -0.707106 0.000000 0.707107 145 145 145
-0.600000 0.000000 1.960000 -0.707106 0.000000 0.707107 145 145 145
0.560000 0.700000 0.000000 0.707107 0.707107 0.000000 145 145 145
0.560000 0.700000 1.100000 0.707107 0.707107 0.000000 145 145 145
0.600000 0.660000 1.100000 0.707107 0.707107 0.000000 145 145 145
0.600000 0.660000 0.000000 0.707107 0.707107 0.000000 145 145 145
-0.600000 0.660000 0.000000 -0.707107 0.707107 0.000000 145 145 145
-0.600000 0.660000 1.100000 -0.707107 0.707107 0.000000 145 145 145
-0.560000 0.700000 1.100000 -0.707107 0.707107 0.000000 145 145 145
-0.560000 0.700000 0.000000 -0.707107 0.707107 0.000000 145 145 145
0.560000 0.700000 1.100000 0.707107 0.707106 0.000000 145 145 145
0.560001 0.700000 1.900000 0.707107 0.707106 0.000000 145 145 145
0.600001 0.659999 1.900000 0.707107 0.707106 0.000000 145 145 145
0.600000 0.660000 1.100000 0.707107 0.707106 0.000000 145 145 145
-0.600000 0.660000 1.900000 -0.707107 0.707107 0.000000 145 145 145
-0.560000 0.700000 1.900000 -0.707107 0.707107 0.000000 145 145 145
0.400000 0.700000 1.960000 0.000000 0.707106 0.707107 145 145 145
-0.400000 0.700000 1.960000 0.000000 0.707106 0.707107 145 145 145
-0.400000 0.660000 2.000000 0.000000 0.707106 0.707107 145 145 145
0.400000 0.660000 2.000000 0.000000 0.707106 0.707107 145 145 145
0.560001 0.700000 1.943431 0.500000 0.707106 0.500001 145 145 145
0.543432 0.700000 1.960000 0.500000 0.707106 0.500001 145 145 145
0.560000 0.659999 2.000000 0.500000 0.707106 0.500001 145 145 145
0.600001 0.659999 1.960000 0.500000 0.707106 0.500001 145 145 145
-0.543431 0.700000 1.960000 -0.500000 0.707107 0.500001 145 145 145
-0.560000 0.700000 1.943431 -0.500000 0.707107 0.500001 145 145 145
-0.600000 0.660000 1.960000 -0.500000 0.707107 0.500001 145 145 145
-0.560000 0.660000 2.000000 -0.500000 0.707107 0.500001 145 145 145
0.560000 0.659999 2.000000 0.000000 0.707106 0.707107 145 145 145
0.543432 0.700000 1.960000 0.000000 0.707106 0.707107 145 145 145
0.600001 0.659999 1.960000 0.707107 0.707106 0.000000 145 145 145
0.560001 0.700000 1.943431 0.707107 0.707106 0.000000 145 145 145
-0.560000 0.700000 1.943431 -0.707107 0.707107 0.000000 145 145 145
-0.600000 0.660000 1.960000 -0.707107 0.707107 0.000000 145 145 145
-0.543431 0.700000 1.960000 0.000000 0.707106 0.707107 145 145 145
-0.560000 0.660000 2.000000 0.000000 0.707106 0.707107 145 145 145
0.400000 0.680000 1.100000 -0.707106 0.707107 0.000000 145 145 145
0.400000 0.680000 1.900000 -0.707106 0.707107 0.000000 145 145 145
0.420000 0.700000 1.920000 -0.707106 0.707107 0.000000 145 145 145
0.420000 0.700000 1.080000 -0.707106 0.707107 0.000000 145 145 145
0.420000 0.700000 1.080000 0.000000 0.707106 0.707107 145 145 145
-0.420000 0.700000 1.080000 0.000000 0.707106 0.707107 145 145 145
-0.400000 0.680000 1.100000 0.000000 0.707106 0.707107 145 145 145
0.400000 0.680000 1.100000 0.000000 0.707106 0.707107 145 145 145
0.400000 0.680000 1.900000 0.000000 0.707107 -0.707107 145 145 145
-0.400000 0.680000 1.900000 0.000000 0.707107 -0.707107 145 145 145
-0.420000 0.700000 1.920000 0.000000 0.707107 -0.707107 145 145 145
0.420000 0.700000 1.920000 0.000000 0.707107 -0.707107 145 145 145
-0.420000 0.700000 1.080000 0.707107 0.707107 0.000000 145 145 145
-0.420000 0.700000 1.920000 0.707107 0.707107 0.000000 145 145 145
-0.400000 0.680000 1.900000 0.707107 0.707107 0.000000 145 145 145
-0.400000 0.680000 1.100000 0.707107 0.707107 0.000000 145 145 145
0.400000 0.680000 1.900000 -1.000000 0.000000 0.000000 145 145 145
0.400000 0.680000 1.100000 -1.000000 0.000000 0.000000 145 145 145
0.400000 0.600000 1.100000 -1.000000 0.000000 0.000000 145 145 145
0.400000 0.600000 1.900000 -1.000000 0.000000 0.000000 145 145 145
4 0 1 2 3
4 4 5 6 7
4 8 9 10 11
4 12 13 14 15
4 1 4 7 2
4 16 17 18 19
4 20 21 22 23
4 24 25 26 27
4 28 29 30 31
4 32 23 33 34
3 35 34 33
3 33 36 37
3 33 37 35
4 38 39 40 41
4 42 43 44 45
4 46 47 48 49
4 50 8 11 51
4 52 22 53 54
4 21 55 56 22
4 9 57 58 10
4 59 60 61 62
3 32 63 64
3 64 20 23
3 64 23 32
4 65 66 67 68
4 52 69 70 71
4 72 73 74 75
4 56 69 76 77
4 78 79 80 81
4 33 52 71 36
4 82 83 84 85
4 86 87 88 89
4 90 91 92 93
4 94 95 96 97
4 98 99 100 101
4 102 103 104 105
4 106 107 108 109
4 110 111 112 113
4 107 114 115 108
4 116 117 118 119
4 120 121 122 123
4 124 125 126 127
4 119 128 129 116
4 130 112 111 131
4 132 115 114 133
4 117 134 135 118
4 136 137 138 139
4 140 141 142 143
4 144 145 146 147
4 148 149 150 151
4 152 153 154 155
